<?xml version="1.0" encoding="UTF-8" standalone="no"?>
<!-- Created with Inkscape (http://www.inkscape.org/) -->

<svg
   width="210"
   height="315.00003"
   viewBox="0 0 210.00001 315.00005"
   id="svg8691"
   version="1.1"
   xmlns="http://www.w3.org/2000/svg"
   xmlns:svg="http://www.w3.org/2000/svg"
   xmlns:rdf="http://www.w3.org/1999/02/22-rdf-syntax-ns#"
   xmlns:cc="http://creativecommons.org/ns#"
   xmlns:dc="http://purl.org/dc/elements/1.1/">
  <defs
     id="defs8693" />
  <metadata
     id="metadata8696">
    <rdf:RDF>
      <cc:Work
         rdf:about="">
        <dc:format>image/svg+xml</dc:format>
        <dc:type
           rdf:resource="http://purl.org/dc/dcmitype/StillImage" />
        <dc:title />
        <cc:license
           rdf:resource="http://creativecommons.org/publicdomain/zero/1.0/" />
      </cc:Work>
      <cc:License
         rdf:about="http://creativecommons.org/publicdomain/zero/1.0/">
        <cc:permits
           rdf:resource="http://creativecommons.org/ns#Reproduction" />
        <cc:permits
           rdf:resource="http://creativecommons.org/ns#Distribution" />
        <cc:permits
           rdf:resource="http://creativecommons.org/ns#DerivativeWorks" />
      </cc:License>
    </rdf:RDF>
  </metadata>
  <g
     id="layer1"
     transform="translate(-1890.0011,639.89115)">
    <g
       id="diamond10">
      <rect
         style="opacity:1;fill:#fdfeee;fill-opacity:1;stroke:#000000;stroke-width:0.996047;stroke-linecap:butt;stroke-linejoin:round;stroke-miterlimit:4;stroke-dasharray:none;stroke-opacity:1"
         id="rect11093"
         width="209.00395"
         height="314.004"
         x="1890.4991"
         y="-639.39313"
         ry="14.999999"
         rx="14.999998" />
      <rect
         style="opacity:1;fill:none;fill-opacity:1;stroke:#000000;stroke-width:0.995028;stroke-linecap:butt;stroke-linejoin:round;stroke-miterlimit:4;stroke-dasharray:none;stroke-opacity:1"
         id="rect11095"
         width="99.004982"
         height="164.00497"
         x="1945.4987"
         y="-564.39362" />
      <path
         style="fill:#b28940;fill-opacity:1;stroke:#000000;stroke-width:0.51904;stroke-miterlimit:4;stroke-dasharray:none;stroke-opacity:1"
         id="use16324"
         d="m 1922.7356,-579.06133 c -5.1222,-5.34524 -7.8475,-10.7776 -7.8475,-10.7776 0,0 -2.7252,5.43236 -7.8474,10.7776 -5.1246,5.34336 -11.509,8.81913 -11.509,8.81913 0,0 6.3844,3.47389 11.509,8.821 5.1222,5.34337 7.8474,10.77572 7.8474,10.77572 0,0 2.7253,-5.43235 7.8475,-10.77572 5.1246,-5.34711 11.509,-8.821 11.509,-8.821 0,0 -6.3844,-3.47577 -11.509,-8.81913 z" />
      <path
         style="fill:#b28940;fill-opacity:1;stroke:#000000;stroke-width:0.51904;stroke-miterlimit:4;stroke-dasharray:none;stroke-opacity:1"
         id="use16326"
         d="m 2068.0097,-385.87912 c 5.1222,5.34525 7.8475,10.7776 7.8475,10.7776 0,0 2.7252,-5.43235 7.8474,-10.7776 5.1246,-5.34336 11.509,-8.81913 11.509,-8.81913 0,0 -6.3844,-3.47389 -11.509,-8.821 -5.1222,-5.34337 -7.8474,-10.77572 -7.8474,-10.77572 0,0 -2.7253,5.43235 -7.8475,10.77572 -5.1246,5.34711 -11.509,8.821 -11.509,8.821 0,0 6.3844,3.47577 11.509,8.81913 z" />
      <path
         style="fill:#b28940;fill-opacity:1;stroke:#000000;stroke-width:0.467135;stroke-miterlimit:4;stroke-dasharray:none;stroke-opacity:1"
         id="use21291"
         d="m 1973.6196,-553.18463 c -4.6109,-4.80981 -7.064,-9.69799 -7.064,-9.69799 0,0 -2.4532,4.88818 -7.064,9.69799 -4.613,4.8081 -10.3601,7.9357 -10.3601,7.9357 0,0 5.7471,3.12591 10.3601,7.93738 4.6108,4.80812 7.064,9.6963 7.064,9.6963 0,0 2.4531,-4.88818 7.064,-9.6963 4.613,-4.81147 10.3601,-7.93738 10.3601,-7.93738 0,0 -5.7471,-3.1276 -10.3601,-7.9357 z" />
      <path
         style="fill:#b28940;fill-opacity:1;stroke:#000000;stroke-width:0.467135;stroke-miterlimit:4;stroke-dasharray:none;stroke-opacity:1"
         id="use21293"
         d="m 2016.991,-411.09763 c 4.6109,4.8098 7.064,9.69798 7.064,9.69798 0,0 2.4532,-4.88818 7.064,-9.69798 4.613,-4.80811 10.3601,-7.9357 10.3601,-7.9357 0,0 -5.7471,-3.12592 -10.3601,-7.93739 -4.6108,-4.80812 -7.064,-9.6963 -7.064,-9.6963 0,0 -2.4531,4.88818 -7.064,9.6963 -4.613,4.81147 -10.3601,7.93739 -10.3601,7.93739 0,0 5.7471,3.12759 10.3601,7.9357 z" />
      <path
         style="fill:#b28940;fill-opacity:1;stroke:#000000;stroke-width:0.467135;stroke-miterlimit:4;stroke-dasharray:none;stroke-opacity:1"
         id="use21295"
         d="m 1959.4915,-453.85717 c 4.6109,4.8098 7.064,9.69798 7.064,9.69798 0,0 2.4532,-4.88818 7.064,-9.69798 4.613,-4.80811 10.3601,-7.9357 10.3601,-7.9357 0,0 -5.7471,-3.12592 -10.3601,-7.93739 -4.6108,-4.80812 -7.064,-9.6963 -7.064,-9.6963 0,0 -2.4531,4.88818 -7.064,9.6963 -4.613,4.81147 -10.3601,7.93739 -10.3601,7.93739 0,0 5.7471,3.12759 10.3601,7.9357 z" />
      <path
         style="fill:#b28940;fill-opacity:1;stroke:#000000;stroke-width:0.467135;stroke-miterlimit:4;stroke-dasharray:none;stroke-opacity:1"
         id="use21297"
         d="m 1959.4915,-412.30599 c 4.6109,4.8098 7.064,9.69798 7.064,9.69798 0,0 2.4532,-4.88818 7.064,-9.69798 4.613,-4.80811 10.3601,-7.9357 10.3601,-7.9357 0,0 -5.7471,-3.12592 -10.3601,-7.93739 -4.6108,-4.80812 -7.064,-9.6963 -7.064,-9.6963 0,0 -2.4531,4.88818 -7.064,9.6963 -4.613,4.81147 -10.3601,7.93739 -10.3601,7.93739 0,0 5.7471,3.12759 10.3601,7.9357 z" />
      <path
         style="fill:#b28940;fill-opacity:1;stroke:#000000;stroke-width:0.467135;stroke-miterlimit:4;stroke-dasharray:none;stroke-opacity:1"
         id="use21309"
         d="m 2031.119,-552.01306 c -4.6109,-4.8098 -7.064,-9.69799 -7.064,-9.69799 0,0 -2.4532,4.88819 -7.064,9.69799 -4.613,4.80811 -10.3601,7.9357 -10.3601,7.9357 0,0 5.7471,3.12591 10.3601,7.93738 4.6108,4.80813 7.064,9.6963 7.064,9.6963 0,0 2.4531,-4.88817 7.064,-9.6963 4.613,-4.81147 10.3601,-7.93738 10.3601,-7.93738 0,0 -5.7471,-3.12759 -10.3601,-7.9357 z" />
      <path
         style="fill:#b28940;fill-opacity:1;stroke:#000000;stroke-width:0.467135;stroke-miterlimit:4;stroke-dasharray:none;stroke-opacity:1"
         id="use21311"
         d="m 2031.119,-510.44961 c -4.6109,-4.8098 -7.064,-9.69799 -7.064,-9.69799 0,0 -2.4532,4.88819 -7.064,9.69799 -4.613,4.80811 -10.3601,7.9357 -10.3601,7.9357 0,0 5.7471,3.12591 10.3601,7.93738 4.6108,4.80813 7.064,9.6963 7.064,9.6963 0,0 2.4531,-4.88817 7.064,-9.6963 4.613,-4.81147 10.3601,-7.93738 10.3601,-7.93738 0,0 -5.7471,-3.12759 -10.3601,-7.9357 z" />
      <path
         style="fill:#b28940;fill-opacity:1;stroke:#000000;stroke-width:0.467135;stroke-miterlimit:4;stroke-dasharray:none;stroke-opacity:1"
         id="use21313"
         d="m 1987.9371,-434.14298 c 4.6109,4.8098 7.064,9.69798 7.064,9.69798 0,0 2.4532,-4.88818 7.064,-9.69798 4.613,-4.80811 10.3601,-7.9357 10.3601,-7.9357 0,0 -5.7471,-3.12592 -10.3601,-7.93739 -4.6108,-4.80812 -7.064,-9.6963 -7.064,-9.6963 0,0 -2.4531,4.88818 -7.064,9.6963 -4.613,4.81147 -10.3601,7.93739 -10.3601,7.93739 0,0 5.7471,3.12759 10.3601,7.9357 z" />
      <path
         style="fill:#b28940;fill-opacity:1;stroke:#000000;stroke-width:0.467135;stroke-miterlimit:4;stroke-dasharray:none;stroke-opacity:1"
         id="use21315"
         d="m 2016.991,-452.66107 c 4.6109,4.8098 7.064,9.69798 7.064,9.69798 0,0 2.4532,-4.88818 7.064,-9.69798 4.613,-4.80811 10.3601,-7.9357 10.3601,-7.9357 0,0 -5.7471,-3.12592 -10.3601,-7.93739 -4.6108,-4.80812 -7.064,-9.6963 -7.064,-9.6963 0,0 -2.4531,4.88818 -7.064,9.6963 -4.613,4.81147 -10.3601,7.93739 -10.3601,7.93739 0,0 5.7471,3.12759 10.3601,7.9357 z" />
      <path
         style="fill:#b28940;fill-opacity:1;stroke:#000000;stroke-width:0.467135;stroke-miterlimit:4;stroke-dasharray:none;stroke-opacity:1"
         id="use21371"
         d="m 2002.0652,-531.57233 c -4.6109,-4.8098 -7.064,-9.69798 -7.064,-9.69798 0,0 -2.4532,4.88818 -7.064,9.69798 -4.613,4.80811 -10.3601,7.9357 -10.3601,7.9357 0,0 5.7471,3.12591 10.3601,7.93739 4.6108,4.80812 7.064,9.6963 7.064,9.6963 0,0 2.4531,-4.88818 7.064,-9.6963 4.613,-4.81148 10.3601,-7.93739 10.3601,-7.93739 0,0 -5.7471,-3.12759 -10.3601,-7.9357 z" />
      <path
         style="fill:#b28940;fill-opacity:1;stroke:#000000;stroke-width:0.467135;stroke-miterlimit:4;stroke-dasharray:none;stroke-opacity:1"
         id="use21373"
         d="m 1973.6196,-511.63346 c -4.6109,-4.80981 -7.064,-9.69799 -7.064,-9.69799 0,0 -2.4532,4.88818 -7.064,9.69799 -4.613,4.80811 -10.3601,7.9357 -10.3601,7.9357 0,0 5.7471,3.12591 10.3601,7.93738 4.6108,4.80812 7.064,9.6963 7.064,9.6963 0,0 2.4531,-4.88818 7.064,-9.6963 4.613,-4.81147 10.3601,-7.93738 10.3601,-7.93738 0,0 -5.7471,-3.12759 -10.3601,-7.9357 z" />
      <text
         xml:space="preserve"
         style="color:#000000;font-style:normal;font-variant:normal;font-weight:normal;font-stretch:normal;line-height:0%;font-family:Arial;-inkscape-font-specification:'Arial, Normal';text-indent:0;text-align:start;text-decoration:none;text-decoration-line:none;text-decoration-style:solid;text-decoration-color:#000000;letter-spacing:0px;word-spacing:0px;text-transform:none;writing-mode:lr-tb;direction:ltr;baseline-shift:baseline;text-anchor:start;white-space:normal;clip-rule:nonzero;display:inline;overflow:visible;visibility:visible;opacity:1;isolation:auto;mix-blend-mode:normal;color-interpolation:sRGB;color-interpolation-filters:linearRGB;solid-color:#000000;solid-opacity:1;fill:#b28940;fill-opacity:1;fill-rule:nonzero;stroke:#000000;stroke-width:1px;stroke-linecap:butt;stroke-linejoin:miter;stroke-miterlimit:4;stroke-dasharray:none;stroke-dashoffset:0;stroke-opacity:1;color-rendering:auto;image-rendering:auto;shape-rendering:auto;text-rendering:auto;enable-background:accumulate"
         x="1890.5166"
         y="-593.74817"
         id="text11200"><tspan
           id="tspan11202"
           x="1890.5166"
           y="-593.74817"
           dx="0 -4"
           style="font-size:52.5px;line-height:1.25">10</tspan></text>
      <text
         transform="scale(-1)"
         xml:space="preserve"
         style="color:#000000;font-style:normal;font-variant:normal;font-weight:normal;font-stretch:normal;line-height:0%;font-family:Arial;-inkscape-font-specification:'Arial, Normal';text-indent:0;text-align:start;text-decoration:none;text-decoration-line:none;text-decoration-style:solid;text-decoration-color:#000000;letter-spacing:0px;word-spacing:0px;text-transform:none;writing-mode:lr-tb;direction:ltr;baseline-shift:baseline;text-anchor:start;white-space:normal;clip-rule:nonzero;display:inline;overflow:visible;visibility:visible;opacity:1;isolation:auto;mix-blend-mode:normal;color-interpolation:sRGB;color-interpolation-filters:linearRGB;solid-color:#000000;solid-opacity:1;fill:#b28940;fill-opacity:1;fill-rule:nonzero;stroke:#000000;stroke-width:1px;stroke-linecap:butt;stroke-linejoin:miter;stroke-miterlimit:4;stroke-dasharray:none;stroke-dashoffset:0;stroke-opacity:1;color-rendering:auto;image-rendering:auto;shape-rendering:auto;text-rendering:auto;enable-background:accumulate"
         x="-2097.4448"
         y="371.53253"
         id="text11200-4"><tspan
           id="tspan11202-2"
           x="-2097.4448"
           y="371.53253"
           dx="0 -4.0000005"
           style="font-size:52.5px;line-height:1.25">10</tspan></text>
    </g>
  </g>
</svg>
