<?xml version="1.0" encoding="UTF-8" standalone="no"?>
<!-- Created with Inkscape (http://www.inkscape.org/) -->

<svg
   xmlns:dc="http://purl.org/dc/elements/1.1/"
   xmlns:cc="http://creativecommons.org/ns#"
   xmlns:rdf="http://www.w3.org/1999/02/22-rdf-syntax-ns#"
   xmlns:svg="http://www.w3.org/2000/svg"
   xmlns="http://www.w3.org/2000/svg"
   xmlns:sodipodi="http://sodipodi.sourceforge.net/DTD/sodipodi-0.dtd"
   xmlns:inkscape="http://www.inkscape.org/namespaces/inkscape"
   width="210"
   height="315.00003"
   viewBox="0 0 210 315.00004"
   id="svg33826"
   version="1.1"
   inkscape:version="0.91 r13725"
   sodipodi:docname="heart6.svg">
  <defs
     id="defs33828" />
  <sodipodi:namedview
     id="base"
     pagecolor="#ffffff"
     bordercolor="#666666"
     borderopacity="1.0"
     inkscape:pageopacity="0.0"
     inkscape:pageshadow="2"
     inkscape:zoom="0.59882812"
     inkscape:cx="343.82283"
     inkscape:cy="29.979929"
     inkscape:document-units="px"
     inkscape:current-layer="layer1"
     showgrid="false"
     units="px"
     fit-margin-top="0"
     fit-margin-left="0"
     fit-margin-right="0"
     fit-margin-bottom="0"
     showborder="false"
     inkscape:window-width="556"
     inkscape:window-height="622"
     inkscape:window-x="1294"
     inkscape:window-y="47"
     inkscape:window-maximized="0" />
  <metadata
     id="metadata33831">
    <rdf:RDF>
      <cc:Work
         rdf:about="">
        <dc:format>image/svg+xml</dc:format>
        <dc:type
           rdf:resource="http://purl.org/dc/dcmitype/StillImage" />
        <dc:title></dc:title>
      </cc:Work>
    </rdf:RDF>
  </metadata>
  <g
     inkscape:label="Layer 1"
     inkscape:groupmode="layer"
     id="layer1"
     transform="translate(0,-737.36219)">
    <g
       transform="translate(-1050.0011,1062.2533)"
       id="heart6"
       inkscape:label="#g24044">
      <rect
         style="opacity:1;fill:#fdfeee;fill-opacity:1;stroke:#000000;stroke-width:0.9960472;stroke-linecap:butt;stroke-linejoin:round;stroke-miterlimit:4;stroke-dasharray:none;stroke-opacity:1"
         id="rect11003"
         width="209.00395"
         height="314.004"
         x="1050.4991"
         y="-324.39313"
         ry="14.999999"
         rx="14.999998" />
      <rect
         style="opacity:1;fill:none;fill-opacity:1;stroke:#000000;stroke-width:0.99502754;stroke-linecap:butt;stroke-linejoin:round;stroke-miterlimit:4;stroke-dasharray:none;stroke-opacity:1"
         id="rect11005"
         width="99.004982"
         height="164.00497"
         x="1105.4987"
         y="-249.3936" />
      <path
         sodipodi:nodetypes="scsscss"
         d="m 1084.9611,-275.90548 c -8.2494,0 -9.3508,7.73585 -9.3508,7.73585 0,0 -1.1015,-7.73585 -9.3509,-7.73585 -5.7743,0 -10.9991,3.46856 -10.9991,10.01189 0,8.64581 16.7357,17.34017 20.35,30.03565 3.4392,-12.68484 20.35,-21.38984 20.35,-30.03565 0,-6.54333 -5.2249,-10.01189 -10.9992,-10.01189 z"
         id="use17012"
         inkscape:connector-curvature="0"
         style="fill:#ff0052;fill-opacity:1;stroke:#000000;stroke-width:0.51776618;stroke-miterlimit:4;stroke-dasharray:none;stroke-opacity:1" />
      <path
         sodipodi:nodetypes="scsscss"
         d="m 1223.3427,-60.149906 c 8.2494,0 9.3508,-7.735846 9.3508,-7.735846 0,0 1.1015,7.735846 9.3509,7.735846 5.7743,0 10.9991,-3.468562 10.9991,-10.011889 0,-8.645809 -16.7357,-17.340167 -20.35,-30.035645 -3.4392,12.684839 -20.35,21.389836 -20.35,30.035645 0,6.543327 5.2249,10.011889 10.9992,10.011889 z"
         id="use17014"
         inkscape:connector-curvature="0"
         style="fill:#ff0052;fill-opacity:1;stroke:#000000;stroke-width:0.51776618;stroke-miterlimit:4;stroke-dasharray:none;stroke-opacity:1" />
      <text
         transform="scale(1.0396186,0.96189122)"
         sodipodi:linespacing="125%"
         id="text18470-2"
         y="-292.12149"
         x="1019.8194"
         style="color:#000000;font-style:normal;font-variant:normal;font-weight:normal;font-stretch:normal;font-size:52.50000381px;line-height:125%;font-family:Arial;-inkscape-font-specification:'Arial, Normal';text-indent:0;text-align:start;text-decoration:none;text-decoration-line:none;text-decoration-style:solid;text-decoration-color:#000000;letter-spacing:0px;word-spacing:0px;text-transform:none;direction:ltr;block-progression:tb;writing-mode:lr-tb;baseline-shift:baseline;text-anchor:start;white-space:normal;clip-rule:nonzero;display:inline;overflow:visible;visibility:visible;opacity:1;isolation:auto;mix-blend-mode:normal;color-interpolation:sRGB;color-interpolation-filters:linearRGB;solid-color:#000000;solid-opacity:1;fill:#ff0052;fill-opacity:1;fill-rule:nonzero;stroke:#000000;stroke-width:1px;stroke-linecap:butt;stroke-linejoin:miter;stroke-miterlimit:4;stroke-dasharray:none;stroke-dashoffset:0;stroke-opacity:1;color-rendering:auto;image-rendering:auto;shape-rendering:auto;text-rendering:auto;enable-background:accumulate"
         xml:space="preserve"><tspan
           y="-292.12149"
           x="1019.8194"
           id="tspan18472-1"
           sodipodi:role="line">6</tspan></text>
      <text
         transform="scale(-1.0000001,-0.9999999)"
         sodipodi:linespacing="125%"
         id="text19325-0"
         y="55.125534"
         x="-1245.3728"
         style="color:#000000;font-style:normal;font-variant:normal;font-weight:normal;font-stretch:normal;font-size:52.50000381px;line-height:125%;font-family:Arial;-inkscape-font-specification:'Arial, Normal';text-indent:0;text-align:start;text-decoration:none;text-decoration-line:none;text-decoration-style:solid;text-decoration-color:#000000;letter-spacing:0px;word-spacing:0px;text-transform:none;direction:ltr;block-progression:tb;writing-mode:lr-tb;baseline-shift:baseline;text-anchor:start;white-space:normal;clip-rule:nonzero;display:inline;overflow:visible;visibility:visible;opacity:1;isolation:auto;mix-blend-mode:normal;color-interpolation:sRGB;color-interpolation-filters:linearRGB;solid-color:#000000;solid-opacity:1;fill:#ff0052;fill-opacity:1;fill-rule:nonzero;stroke:#000000;stroke-width:1px;stroke-linecap:butt;stroke-linejoin:miter;stroke-miterlimit:4;stroke-dasharray:none;stroke-dashoffset:0;stroke-opacity:1;color-rendering:auto;image-rendering:auto;shape-rendering:auto;text-rendering:auto;enable-background:accumulate"
         xml:space="preserve"><tspan
           y="55.125534"
           x="-1245.3728"
           id="tspan19327-4"
           sodipodi:role="line">6</tspan></text>
      <path
         sodipodi:nodetypes="scsscss"
         d="m 1136.9575,-246.65005 c -7.2051,0 -8.1672,6.74748 -8.1672,6.74748 0,0 -0.962,-6.74748 -8.1671,-6.74748 -5.0434,0 -9.6069,3.0254 -9.6069,8.73272 0,7.54118 14.6173,15.12471 17.774,26.19815 3.0039,-11.06416 17.7741,-18.65697 17.7741,-26.19815 0,-5.70732 -4.5635,-8.73272 -9.6069,-8.73272 z"
         id="use21737"
         inkscape:connector-curvature="0"
         style="fill:#ff0052;fill-opacity:1;stroke:#000000;stroke-width:0.45191953;stroke-miterlimit:4;stroke-dasharray:none;stroke-opacity:1" />
      <path
         sodipodi:nodetypes="scsscss"
         d="m 1136.9575,-186.83232 c -7.2051,0 -8.1672,6.74747 -8.1672,6.74747 0,0 -0.962,-6.74747 -8.1671,-6.74747 -5.0434,0 -9.6069,3.0254 -9.6069,8.73272 0,7.54118 14.6173,15.1247 17.774,26.19815 3.0039,-11.06417 17.7741,-18.65697 17.7741,-26.19815 0,-5.70732 -4.5635,-8.73272 -9.6069,-8.73272 z"
         id="use21739"
         inkscape:connector-curvature="0"
         style="fill:#ff0052;fill-opacity:1;stroke:#000000;stroke-width:0.45191953;stroke-miterlimit:4;stroke-dasharray:none;stroke-opacity:1" />
      <path
         sodipodi:nodetypes="scsscss"
         d="m 1120.6226,-91.465982 c 7.2051,0 8.1671,-6.747478 8.1671,-6.747478 0,0 0.9621,6.747478 8.1672,6.747478 5.0434,0 9.6069,-3.025401 9.6069,-8.732718 0,-7.54118 -14.6173,-15.12471 -17.7741,-26.19816 -3.0038,11.06417 -17.774,18.65698 -17.774,26.19816 0,5.707317 4.5635,8.732718 9.6069,8.732718 z"
         id="use21741"
         inkscape:connector-curvature="0"
         style="fill:#ff0052;fill-opacity:1;stroke:#000000;stroke-width:0.45191953;stroke-miterlimit:4;stroke-dasharray:none;stroke-opacity:1" />
      <path
         sodipodi:nodetypes="scsscss"
         d="m 1189.8166,-246.65005 c -7.2052,0 -8.1672,6.74748 -8.1672,6.74748 0,0 -0.962,-6.74748 -8.1672,-6.74748 -5.0434,0 -9.6068,3.0254 -9.6068,8.73272 0,7.54118 14.6172,15.12471 17.774,26.19815 3.0038,-11.06416 17.774,-18.65697 17.774,-26.19815 0,-5.70732 -4.5635,-8.73272 -9.6068,-8.73272 z"
         id="use21755"
         inkscape:connector-curvature="0"
         style="fill:#ff0052;fill-opacity:1;stroke:#000000;stroke-width:0.45191953;stroke-miterlimit:4;stroke-dasharray:none;stroke-opacity:1" />
      <path
         sodipodi:nodetypes="scsscss"
         d="m 1189.8166,-186.83232 c -7.2052,0 -8.1672,6.74747 -8.1672,6.74747 0,0 -0.962,-6.74747 -8.1672,-6.74747 -5.0434,0 -9.6068,3.0254 -9.6068,8.73272 0,7.54118 14.6172,15.1247 17.774,26.19815 3.0038,-11.06417 17.774,-18.65697 17.774,-26.19815 0,-5.70732 -4.5635,-8.73272 -9.6068,-8.73272 z"
         id="use21757"
         inkscape:connector-curvature="0"
         style="fill:#ff0052;fill-opacity:1;stroke:#000000;stroke-width:0.45191953;stroke-miterlimit:4;stroke-dasharray:none;stroke-opacity:1" />
      <path
         sodipodi:nodetypes="scsscss"
         d="m 1173.4817,-91.465982 c 7.2051,0 8.1671,-6.747478 8.1671,-6.747478 0,0 0.9621,6.747478 8.1672,6.747478 5.0434,0 9.6069,-3.025401 9.6069,-8.732718 0,-7.54118 -14.6173,-15.12471 -17.7741,-26.19816 -3.0038,11.06417 -17.774,18.65698 -17.774,26.19816 0,5.707317 4.5635,8.732718 9.6069,8.732718 z"
         id="use21759"
         inkscape:connector-curvature="0"
         style="fill:#ff0052;fill-opacity:1;stroke:#000000;stroke-width:0.45191953;stroke-miterlimit:4;stroke-dasharray:none;stroke-opacity:1" />
    </g>
  </g>
</svg>
