<?xml version="1.0" encoding="UTF-8" standalone="no"?>
<!-- Created with Inkscape (http://www.inkscape.org/) -->

<svg
   width="210"
   height="315.00003"
   viewBox="0 0 210.00001 315.00005"
   id="svg8691"
   version="1.1"
   xmlns="http://www.w3.org/2000/svg"
   xmlns:svg="http://www.w3.org/2000/svg"
   xmlns:rdf="http://www.w3.org/1999/02/22-rdf-syntax-ns#"
   xmlns:cc="http://creativecommons.org/ns#"
   xmlns:dc="http://purl.org/dc/elements/1.1/">
  <defs
     id="defs8693" />
  <metadata
     id="metadata8696">
    <rdf:RDF>
      <cc:Work
         rdf:about="">
        <dc:format>image/svg+xml</dc:format>
        <dc:type
           rdf:resource="http://purl.org/dc/dcmitype/StillImage" />
        <dc:title />
        <cc:license
           rdf:resource="http://creativecommons.org/publicdomain/zero/1.0/" />
      </cc:Work>
      <cc:License
         rdf:about="http://creativecommons.org/publicdomain/zero/1.0/">
        <cc:permits
           rdf:resource="http://creativecommons.org/ns#Reproduction" />
        <cc:permits
           rdf:resource="http://creativecommons.org/ns#Distribution" />
        <cc:permits
           rdf:resource="http://creativecommons.org/ns#DerivativeWorks" />
      </cc:License>
    </rdf:RDF>
  </metadata>
  <g
     id="layer1"
     transform="translate(-1470.3546,324.89098)">
    <g
       id="heart8"
       transform="translate(0.35351563,1.3554363e-4)">
      <rect
         style="opacity:1;fill:#fdfeee;fill-opacity:1;stroke:#000000;stroke-width:0.996047;stroke-linecap:butt;stroke-linejoin:round;stroke-miterlimit:4;stroke-dasharray:none;stroke-opacity:1"
         id="rect11051"
         width="209.00395"
         height="314.004"
         x="1470.4991"
         y="-324.3931"
         ry="14.999999"
         rx="14.999998" />
      <rect
         style="opacity:1;fill:none;fill-opacity:1;stroke:#000000;stroke-width:0.995028;stroke-linecap:butt;stroke-linejoin:round;stroke-miterlimit:4;stroke-dasharray:none;stroke-opacity:1"
         id="rect11053"
         width="99.004982"
         height="164.00497"
         x="1525.8522"
         y="-253.49724" />
      <path
         d="m 1505.3146,-276.05174 c -8.2494,0 -9.3508,7.73584 -9.3508,7.73584 0,0 -1.1015,-7.73584 -9.3509,-7.73584 -5.7743,0 -10.9991,3.46856 -10.9991,10.01188 0,8.64581 16.7357,17.34017 20.35,30.03565 3.4392,-12.68484 20.35,-21.38984 20.35,-30.03565 0,-6.54332 -5.2249,-10.01188 -10.9992,-10.01188 z"
         id="use17020"
         style="fill:#ff0052;fill-opacity:1;stroke:#000000;stroke-width:0.517766;stroke-miterlimit:4;stroke-dasharray:none;stroke-opacity:1" />
      <path
         d="m 1642.5294,-60.296176 c 8.2494,0 9.3508,-7.735846 9.3508,-7.735846 0,0 1.1015,7.735846 9.3509,7.735846 5.7743,0 10.9991,-3.468562 10.9991,-10.011889 0,-8.645809 -16.7357,-17.340167 -20.35,-30.035645 -3.4392,12.684839 -20.35,21.389836 -20.35,30.035645 0,6.543327 5.2249,10.011889 10.9992,10.011889 z"
         id="use17022"
         style="fill:#ff0052;fill-opacity:1;stroke:#000000;stroke-width:0.517766;stroke-miterlimit:4;stroke-dasharray:none;stroke-opacity:1" />
      <text
         transform="scale(1.0396186,0.96189122)"
         id="text18478-9"
         y="-292.27356"
         x="1424.5269"
         style="color:#000000;font-style:normal;font-variant:normal;font-weight:normal;font-stretch:normal;line-height:0%;font-family:Arial;-inkscape-font-specification:'Arial, Normal';text-indent:0;text-align:start;text-decoration:none;text-decoration-line:none;text-decoration-style:solid;text-decoration-color:#000000;letter-spacing:0px;word-spacing:0px;text-transform:none;writing-mode:lr-tb;direction:ltr;baseline-shift:baseline;text-anchor:start;white-space:normal;clip-rule:nonzero;display:inline;overflow:visible;visibility:visible;opacity:1;isolation:auto;mix-blend-mode:normal;color-interpolation:sRGB;color-interpolation-filters:linearRGB;solid-color:#000000;solid-opacity:1;fill:#ff0052;fill-opacity:1;fill-rule:nonzero;stroke:#000000;stroke-width:1px;stroke-linecap:butt;stroke-linejoin:miter;stroke-miterlimit:4;stroke-dasharray:none;stroke-dashoffset:0;stroke-opacity:1;color-rendering:auto;image-rendering:auto;shape-rendering:auto;text-rendering:auto;enable-background:accumulate"
         xml:space="preserve"><tspan
           y="-292.27356"
           x="1424.5269"
           id="tspan18480-4"
           style="font-size:52.5px;line-height:1.25">8</tspan></text>
      <text
         transform="scale(-1.0000001)"
         id="text19333-6"
         y="55.271797"
         x="-1666.062"
         style="color:#000000;font-style:normal;font-variant:normal;font-weight:normal;font-stretch:normal;line-height:0%;font-family:Arial;-inkscape-font-specification:'Arial, Normal';text-indent:0;text-align:start;text-decoration:none;text-decoration-line:none;text-decoration-style:solid;text-decoration-color:#000000;letter-spacing:0px;word-spacing:0px;text-transform:none;writing-mode:lr-tb;direction:ltr;baseline-shift:baseline;text-anchor:start;white-space:normal;clip-rule:nonzero;display:inline;overflow:visible;visibility:visible;opacity:1;isolation:auto;mix-blend-mode:normal;color-interpolation:sRGB;color-interpolation-filters:linearRGB;solid-color:#000000;solid-opacity:1;fill:#ff0052;fill-opacity:1;fill-rule:nonzero;stroke:#000000;stroke-width:1px;stroke-linecap:butt;stroke-linejoin:miter;stroke-miterlimit:4;stroke-dasharray:none;stroke-dashoffset:0;stroke-opacity:1;color-rendering:auto;image-rendering:auto;shape-rendering:auto;text-rendering:auto;enable-background:accumulate"
         xml:space="preserve"><tspan
           y="55.271797"
           x="-1666.062"
           id="tspan19335-4"
           style="font-size:52.5px;line-height:1.25">8</tspan></text>
      <path
         d="m 1555.0905,-248.10317 c -7.2051,0 -8.1671,6.74748 -8.1671,6.74748 0,0 -0.9621,-6.74748 -8.1672,-6.74748 -5.0434,0 -9.6069,3.0254 -9.6069,8.73273 0,7.54117 14.6173,15.1247 17.7741,26.19815 3.0038,-11.06417 17.774,-18.65698 17.774,-26.19815 0,-5.70733 -4.5635,-8.73273 -9.6069,-8.73273 z"
         id="use21671"
         style="fill:#ff0052;fill-opacity:1;stroke:#000000;stroke-width:0.45192;stroke-miterlimit:4;stroke-dasharray:none;stroke-opacity:1" />
      <path
         d="m 1555.0905,-189.49766 c -7.2051,0 -8.1671,6.74747 -8.1671,6.74747 0,0 -0.9621,-6.74747 -8.1672,-6.74747 -5.0434,0 -9.6069,3.0254 -9.6069,8.73272 0,7.54118 14.6173,15.1247 17.7741,26.19815 3.0038,-11.06417 17.774,-18.65697 17.774,-26.19815 0,-5.70732 -4.5635,-8.73272 -9.6069,-8.73272 z"
         id="use21673"
         style="fill:#ff0052;fill-opacity:1;stroke:#000000;stroke-width:0.45192;stroke-miterlimit:4;stroke-dasharray:none;stroke-opacity:1" />
      <path
         d="m 1569.0584,-122.69725 c 7.2051,0 8.1671,-6.74748 8.1671,-6.74748 0,0 0.9621,6.74748 8.1672,6.74748 5.0434,0 9.6069,-3.0254 9.6069,-8.73272 0,-7.54118 -14.6173,-15.12471 -17.7741,-26.19816 -3.0038,11.06417 -17.774,18.65698 -17.774,26.19816 0,5.70732 4.5635,8.73272 9.6069,8.73272 z"
         id="use21675"
         style="fill:#ff0052;fill-opacity:1;stroke:#000000;stroke-width:0.45192;stroke-miterlimit:4;stroke-dasharray:none;stroke-opacity:1" />
      <path
         d="m 1538.7556,-95.343692 c 7.2051,0 8.1671,-6.747478 8.1671,-6.747478 0,0 0.9621,6.747478 8.1672,6.747478 5.0434,0 9.6069,-3.025401 9.6069,-8.732718 0,-7.54118 -14.6173,-15.12471 -17.7741,-26.19816 -3.0038,11.06417 -17.774,18.65698 -17.774,26.19816 0,5.707317 4.5635,8.732718 9.6069,8.732718 z"
         id="use21677"
         style="fill:#ff0052;fill-opacity:1;stroke:#000000;stroke-width:0.45192;stroke-miterlimit:4;stroke-dasharray:none;stroke-opacity:1" />
      <path
         d="m 1612.2424,-189.49769 c -7.2051,0 -8.1671,6.74748 -8.1671,6.74748 0,0 -0.9621,-6.74748 -8.1672,-6.74748 -5.0434,0 -9.6069,3.0254 -9.6069,8.73272 0,7.54118 14.6173,15.12471 17.7741,26.19816 3.0038,-11.06417 17.774,-18.65698 17.774,-26.19816 0,-5.70732 -4.5635,-8.73272 -9.6069,-8.73272 z"
         id="use21693"
         style="fill:#ff0052;fill-opacity:1;stroke:#000000;stroke-width:0.45192;stroke-miterlimit:4;stroke-dasharray:none;stroke-opacity:1" />
      <path
         d="m 1595.9076,-95.343692 c 7.2051,0 8.1671,-6.747478 8.1671,-6.747478 0,0 0.9621,6.747478 8.1672,6.747478 5.0434,0 9.6069,-3.025401 9.6069,-8.732718 0,-7.54118 -14.6173,-15.12471 -17.7741,-26.19816 -3.0038,11.06417 -17.774,18.65698 -17.774,26.19816 0,5.707317 4.5635,8.732718 9.6069,8.732718 z"
         id="use21695"
         style="fill:#ff0052;fill-opacity:1;stroke:#000000;stroke-width:0.45192;stroke-miterlimit:4;stroke-dasharray:none;stroke-opacity:1" />
      <path
         d="m 1612.2424,-248.10317 c -7.2051,0 -8.1671,6.74748 -8.1671,6.74748 0,0 -0.9621,-6.74748 -8.1672,-6.74748 -5.0434,0 -9.6069,3.0254 -9.6069,8.73273 0,7.54117 14.6173,15.1247 17.7741,26.19815 3.0038,-11.06417 17.774,-18.65698 17.774,-26.19815 0,-5.70733 -4.5635,-8.73273 -9.6069,-8.73273 z"
         id="use21707"
         style="fill:#ff0052;fill-opacity:1;stroke:#000000;stroke-width:0.45192;stroke-miterlimit:4;stroke-dasharray:none;stroke-opacity:1" />
      <path
         d="m 1585.3932,-220.29224 c -7.2051,0 -8.1671,6.74747 -8.1671,6.74747 0,0 -0.9621,-6.74747 -8.1672,-6.74747 -5.0434,0 -9.6069,3.0254 -9.6069,8.73272 0,7.54118 14.6173,15.1247 17.7741,26.19815 3.0038,-11.06417 17.774,-18.65697 17.774,-26.19815 0,-5.70732 -4.5635,-8.73272 -9.6069,-8.73272 z"
         id="use21717"
         style="fill:#ff0052;fill-opacity:1;stroke:#000000;stroke-width:0.45192;stroke-miterlimit:4;stroke-dasharray:none;stroke-opacity:1" />
    </g>
  </g>
</svg>
