<?xml version="1.0" encoding="UTF-8" standalone="no"?>
<!-- Created with Inkscape (http://www.inkscape.org/) -->

<svg
   width="210"
   height="315.00003"
   viewBox="0 0 210.00001 315.00005"
   id="svg8691"
   version="1.1"
   sodipodi:docname="diamond7.svg"
   inkscape:version="1.1.1 (50ffc5b540, 2022-01-11)"
   xmlns:inkscape="http://www.inkscape.org/namespaces/inkscape"
   xmlns:sodipodi="http://sodipodi.sourceforge.net/DTD/sodipodi-0.dtd"
   xmlns="http://www.w3.org/2000/svg"
   xmlns:svg="http://www.w3.org/2000/svg"
   xmlns:rdf="http://www.w3.org/1999/02/22-rdf-syntax-ns#"
   xmlns:cc="http://creativecommons.org/ns#"
   xmlns:dc="http://purl.org/dc/elements/1.1/">
  <sodipodi:namedview
     id="namedview423"
     pagecolor="#ffffff"
     bordercolor="#666666"
     borderopacity="1.0"
     inkscape:pageshadow="2"
     inkscape:pageopacity="0.0"
     inkscape:pagecheckerboard="0"
     showgrid="false"
     inkscape:zoom="2.3650791"
     inkscape:cx="103.59061"
     inkscape:cy="157.50002"
     inkscape:window-width="1920"
     inkscape:window-height="1012"
     inkscape:window-x="0"
     inkscape:window-y="0"
     inkscape:window-maximized="1"
     inkscape:current-layer="svg8691" />
  <defs
     id="defs8693" />
  <metadata
     id="metadata8696">
    <rdf:RDF>
      <cc:Work
         rdf:about="">
        <dc:format>image/svg+xml</dc:format>
        <dc:type
           rdf:resource="http://purl.org/dc/dcmitype/StillImage" />
        <dc:title />
        <cc:license
           rdf:resource="http://creativecommons.org/publicdomain/zero/1.0/" />
      </cc:Work>
      <cc:License
         rdf:about="http://creativecommons.org/publicdomain/zero/1.0/">
        <cc:permits
           rdf:resource="http://creativecommons.org/ns#Reproduction" />
        <cc:permits
           rdf:resource="http://creativecommons.org/ns#Distribution" />
        <cc:permits
           rdf:resource="http://creativecommons.org/ns#DerivativeWorks" />
      </cc:License>
    </rdf:RDF>
  </metadata>
  <g
     id="g514">
    <rect
       style="fill:#fdfeee;fill-opacity:1;stroke:#000000;stroke-width:0.996047;stroke-linecap:butt;stroke-linejoin:round;stroke-miterlimit:4;stroke-dasharray:none;stroke-opacity:1"
       id="rect11021"
       width="209.00395"
       height="314.004"
       x="0.4980455"
       y="0.49802256"
       ry="14.999999"
       rx="14.999998" />
    <path
       style="fill:#0000ff;fill-opacity:1;stroke:#000000;stroke-width:0.51904;stroke-miterlimit:4;stroke-dasharray:none;stroke-opacity:1"
       id="use16312"
       d="m 34.7345,60.82982 c -5.1222,-5.34524 -7.8475,-10.7776 -7.8475,-10.7776 0,0 -2.7252,5.43236 -7.8474,10.7776 -5.1246,5.34336 -11.509,8.81913 -11.509,8.81913 0,0 6.3844,3.47389 11.509,8.821 5.1222,5.34337 7.8474,10.77572 7.8474,10.77572 0,0 2.7253,-5.43235 7.8475,-10.77572 5.1246,-5.34711 11.509,-8.821 11.509,-8.821 0,0 -6.3844,-3.47577 -11.509,-8.81913 z" />
    <path
       style="fill:#0000ff;fill-opacity:1;stroke:#000000;stroke-width:0.51904;stroke-miterlimit:4;stroke-dasharray:none;stroke-opacity:1"
       id="use16314"
       d="m 177.7587,254.01203 c 5.1222,5.34525 7.8475,10.7776 7.8475,10.7776 0,0 2.7252,-5.43235 7.8474,-10.7776 5.1246,-5.34336 11.509,-8.81913 11.509,-8.81913 0,0 -6.3844,-3.47389 -11.509,-8.821 -5.1222,-5.34337 -7.8474,-10.77572 -7.8474,-10.77572 0,0 -2.7253,5.43235 -7.8475,10.77572 -5.1246,5.34711 -11.509,8.821 -11.509,8.821 0,0 6.3844,3.47577 11.509,8.81913 z" />
    <text
       transform="scale(1.0396186,0.96189122)"
       id="text18474-2"
       y="44.108768"
       x="8.1996031"
       style="color:#000000;font-style:normal;font-variant:normal;font-weight:normal;font-stretch:normal;line-height:0%;font-family:Arial;-inkscape-font-specification:'Arial, Normal';text-indent:0;text-align:start;text-decoration:none;text-decoration-line:none;text-decoration-style:solid;text-decoration-color:#000000;letter-spacing:0px;word-spacing:0px;text-transform:none;writing-mode:lr-tb;direction:ltr;baseline-shift:baseline;text-anchor:start;white-space:normal;clip-rule:nonzero;display:inline;overflow:visible;visibility:visible;isolation:auto;mix-blend-mode:normal;color-interpolation:sRGB;color-interpolation-filters:linearRGB;solid-color:#000000;solid-opacity:1;fill:#0000ff;fill-opacity:1;fill-rule:nonzero;stroke:#000000;stroke-width:1px;stroke-linecap:butt;stroke-linejoin:miter;stroke-miterlimit:4;stroke-dasharray:none;stroke-dashoffset:0;stroke-opacity:1;color-rendering:auto;image-rendering:auto;shape-rendering:auto;text-rendering:auto;enable-background:accumulate"
       xml:space="preserve"><tspan
         y="44.108768"
         x="8.1996031"
         id="tspan18476-7"
         style="font-size:52.5px;line-height:1.25">7</tspan></text>
    <text
       transform="scale(-1)"
       id="text19329-5"
       y="-270.40646"
       x="-203.91064"
       style="color:#000000;font-style:normal;font-variant:normal;font-weight:normal;font-stretch:normal;line-height:0%;font-family:Arial;-inkscape-font-specification:'Arial, Normal';text-indent:0;text-align:start;text-decoration:none;text-decoration-line:none;text-decoration-style:solid;text-decoration-color:#000000;letter-spacing:0px;word-spacing:0px;text-transform:none;writing-mode:lr-tb;direction:ltr;baseline-shift:baseline;text-anchor:start;white-space:normal;clip-rule:nonzero;display:inline;overflow:visible;visibility:visible;isolation:auto;mix-blend-mode:normal;color-interpolation:sRGB;color-interpolation-filters:linearRGB;solid-color:#000000;solid-opacity:1;fill:#0000ff;fill-opacity:1;fill-rule:nonzero;stroke:#000000;stroke-width:1px;stroke-linecap:butt;stroke-linejoin:miter;stroke-miterlimit:4;stroke-dasharray:none;stroke-dashoffset:0;stroke-opacity:1;color-rendering:auto;image-rendering:auto;shape-rendering:auto;text-rendering:auto;enable-background:accumulate"
       xml:space="preserve"><tspan
         y="-270.40646"
         x="-203.91064"
         id="tspan19331-9"
         style="font-size:52.5px;line-height:1.25">7</tspan></text>
    <g
       id="g496"
       transform="translate(-8.0000281)">
      <rect
         style="fill:none;fill-opacity:1;stroke:#000000;stroke-width:0.995028;stroke-linecap:butt;stroke-linejoin:round;stroke-miterlimit:4;stroke-dasharray:none;stroke-opacity:1"
         id="rect11023"
         width="99.004982"
         height="164.00497"
         x="63.497559"
         y="75.497536" />
      <path
         style="fill:#0000ff;fill-opacity:1;stroke:#000000;stroke-width:0.467135;stroke-miterlimit:4;stroke-dasharray:none;stroke-opacity:1"
         id="use21327"
         d="m 90.9376,88.25692 c -4.6109,-4.8098 -7.064,-9.69798 -7.064,-9.69798 0,0 -2.4532,4.88818 -7.064,9.69798 -4.613,4.80811 -10.3601,7.9357 -10.3601,7.9357 0,0 5.7471,3.12592 10.3601,7.93739 4.6108,4.80812 7.064,9.6963 7.064,9.6963 0,0 2.4531,-4.88818 7.064,-9.6963 4.613,-4.81147 10.3601,-7.93739 10.3601,-7.93739 0,0 -5.7471,-3.12759 -10.3601,-7.9357 z" />
      <path
         style="fill:#0000ff;fill-opacity:1;stroke:#000000;stroke-width:0.467135;stroke-miterlimit:4;stroke-dasharray:none;stroke-opacity:1"
         id="use21329"
         d="m 120.0641,122.25682 c -4.6109,-4.8098 -7.064,-9.69798 -7.064,-9.69798 0,0 -2.4532,4.88818 -7.064,9.69798 -4.613,4.80811 -10.3601,7.9357 -10.3601,7.9357 0,0 5.7471,3.12591 10.3601,7.93739 4.6108,4.80812 7.064,9.6963 7.064,9.6963 0,0 2.4531,-4.88818 7.064,-9.6963 4.613,-4.81148 10.3601,-7.93739 10.3601,-7.93739 0,0 -5.7471,-3.12759 -10.3601,-7.9357 z" />
      <path
         style="fill:#0000ff;fill-opacity:1;stroke:#000000;stroke-width:0.467135;stroke-miterlimit:4;stroke-dasharray:none;stroke-opacity:1"
         id="use21331"
         d="m 90.9376,149.25685 c -4.6109,-4.80981 -7.064,-9.69799 -7.064,-9.69799 0,0 -2.4532,4.88818 -7.064,9.69799 -4.613,4.80811 -10.3601,7.9357 -10.3601,7.9357 0,0 5.7471,3.12591 10.3601,7.93738 4.6108,4.80812 7.064,9.6963 7.064,9.6963 0,0 2.4531,-4.88818 7.064,-9.6963 4.613,-4.81147 10.3601,-7.93738 10.3601,-7.93738 0,0 -5.7471,-3.12759 -10.3601,-7.9357 z" />
      <path
         style="fill:#0000ff;fill-opacity:1;stroke:#000000;stroke-width:0.467135;stroke-miterlimit:4;stroke-dasharray:none;stroke-opacity:1"
         id="use21333"
         d="m 76.8096,226.482 c 4.6109,4.8098 7.064,9.69798 7.064,9.69798 0,0 2.4532,-4.88818 7.064,-9.69798 4.613,-4.80811 10.3601,-7.9357 10.3601,-7.9357 0,0 -5.7471,-3.12592 -10.3601,-7.93739 -4.6108,-4.80812 -7.064,-9.6963 -7.064,-9.6963 0,0 -2.4531,4.88818 -7.064,9.6963 -4.613,4.81147 -10.3601,7.93739 -10.3601,7.93739 0,0 5.7471,3.12759 10.3601,7.9357 z" />
      <path
         style="fill:#0000ff;fill-opacity:1;stroke:#000000;stroke-width:0.467135;stroke-miterlimit:4;stroke-dasharray:none;stroke-opacity:1"
         id="use21347"
         d="m 148.9378,88.25692 c -4.6109,-4.8098 -7.064,-9.69798 -7.064,-9.69798 0,0 -2.4532,4.88818 -7.064,9.69798 -4.613,4.80811 -10.3601,7.9357 -10.3601,7.9357 0,0 5.7471,3.12592 10.3601,7.93739 4.6108,4.80812 7.064,9.6963 7.064,9.6963 0,0 2.4531,-4.88818 7.064,-9.6963 4.613,-4.81147 10.3601,-7.93739 10.3601,-7.93739 0,0 -5.7471,-3.12759 -10.3601,-7.9357 z" />
      <path
         style="fill:#0000ff;fill-opacity:1;stroke:#000000;stroke-width:0.467135;stroke-miterlimit:4;stroke-dasharray:none;stroke-opacity:1"
         id="use21349"
         d="m 148.9378,149.25685 c -4.6109,-4.8098 -7.064,-9.69799 -7.064,-9.69799 0,0 -2.4532,4.88819 -7.064,9.69799 -4.613,4.80811 -10.3601,7.9357 -10.3601,7.9357 0,0 5.7471,3.12591 10.3601,7.93738 4.6108,4.80812 7.064,9.6963 7.064,9.6963 0,0 2.4531,-4.88818 7.064,-9.6963 4.613,-4.81147 10.3601,-7.93738 10.3601,-7.93738 0,0 -5.7471,-3.12759 -10.3601,-7.9357 z" />
      <path
         style="fill:#0000ff;fill-opacity:1;stroke:#000000;stroke-width:0.467135;stroke-miterlimit:4;stroke-dasharray:none;stroke-opacity:1"
         id="use21351"
         d="m 134.8098,226.482 c 4.6109,4.8098 7.064,9.69798 7.064,9.69798 0,0 2.4532,-4.88818 7.064,-9.69798 4.613,-4.80811 10.3601,-7.9357 10.3601,-7.9357 0,0 -5.7471,-3.12592 -10.3601,-7.93739 -4.6108,-4.80812 -7.064,-9.6963 -7.064,-9.6963 0,0 -2.4531,4.88818 -7.064,9.6963 -4.613,4.81147 -10.3601,7.93739 -10.3601,7.93739 0,0 5.7471,3.12759 10.3601,7.9357 z" />
    </g>
  </g>
</svg>
