<?xml version="1.0" encoding="UTF-8" standalone="no"?>
<!-- Created with Inkscape (http://www.inkscape.org/) -->

<svg
   xmlns:dc="http://purl.org/dc/elements/1.1/"
   xmlns:cc="http://creativecommons.org/ns#"
   xmlns:rdf="http://www.w3.org/1999/02/22-rdf-syntax-ns#"
   xmlns:svg="http://www.w3.org/2000/svg"
   xmlns="http://www.w3.org/2000/svg"
   xmlns:sodipodi="http://sodipodi.sourceforge.net/DTD/sodipodi-0.dtd"
   xmlns:inkscape="http://www.inkscape.org/namespaces/inkscape"
   width="210"
   height="315.00003"
   viewBox="0 0 210 315.00004"
   id="svg33826"
   version="1.1"
   inkscape:version="0.91 r13725"
   sodipodi:docname="diamond3.svg">
  <defs
     id="defs33828" />
  <sodipodi:namedview
     id="base"
     pagecolor="#ffffff"
     bordercolor="#666666"
     borderopacity="1.0"
     inkscape:pageopacity="0.0"
     inkscape:pageshadow="2"
     inkscape:zoom="0.59882812"
     inkscape:cx="343.82283"
     inkscape:cy="29.979929"
     inkscape:document-units="px"
     inkscape:current-layer="layer1"
     showgrid="false"
     units="px"
     fit-margin-top="0"
     fit-margin-left="0"
     fit-margin-right="0"
     fit-margin-bottom="0"
     showborder="false"
     inkscape:window-width="556"
     inkscape:window-height="622"
     inkscape:window-x="1294"
     inkscape:window-y="47"
     inkscape:window-maximized="0" />
  <metadata
     id="metadata33831">
    <rdf:RDF>
      <cc:Work
         rdf:about="">
        <dc:format>image/svg+xml</dc:format>
        <dc:type
           rdf:resource="http://purl.org/dc/dcmitype/StillImage" />
        <dc:title></dc:title>
      </cc:Work>
    </rdf:RDF>
  </metadata>
  <g
     inkscape:label="Layer 1"
     inkscape:groupmode="layer"
     id="layer1"
     transform="translate(0,-737.36219)">
    <g
       transform="translate(-420.00109,1377.2533)"
       id="diamond3"
       inkscape:label="#g23370">
      <rect
         style="opacity:1;fill:#fdfeee;fill-opacity:1;stroke:#000000;stroke-width:0.9960472;stroke-linecap:butt;stroke-linejoin:round;stroke-miterlimit:4;stroke-dasharray:none;stroke-opacity:1"
         id="rect10925"
         width="209.00395"
         height="314.004"
         x="420.49911"
         y="-639.39313"
         ry="14.999999"
         rx="14.999998" />
      <rect
         style="opacity:1;fill:none;fill-opacity:1;stroke:#000000;stroke-width:0.99502754;stroke-linecap:butt;stroke-linejoin:round;stroke-miterlimit:4;stroke-dasharray:none;stroke-opacity:1"
         id="rect10927"
         width="99.004982"
         height="164.00497"
         x="475.49863"
         y="-564.39362" />
      <path
         style="fill:#b28940;fill-opacity:1;stroke:#000000;stroke-width:0.51903999;stroke-miterlimit:4;stroke-dasharray:none;stroke-opacity:1"
         inkscape:connector-curvature="0"
         id="use16296"
         d="m 452.73536,-579.06133 c -5.12221,-5.34524 -7.84742,-10.7776 -7.84742,-10.7776 0,0 -2.72521,5.43236 -7.84742,10.7776 -5.12462,5.34336 -11.50904,8.81913 -11.50904,8.81913 0,0 6.38442,3.47389 11.50904,8.821 5.12221,5.34337 7.84742,10.77572 7.84742,10.77572 0,0 2.72521,-5.43235 7.84742,-10.77572 5.12462,-5.34711 11.50904,-8.821 11.50904,-8.821 0,0 -6.38442,-3.47577 -11.50904,-8.81913 z"
         sodipodi:nodetypes="ccccccccc" />
      <path
         style="fill:#b28940;fill-opacity:1;stroke:#000000;stroke-width:0.51903999;stroke-miterlimit:4;stroke-dasharray:none;stroke-opacity:1"
         inkscape:connector-curvature="0"
         id="use16298"
         d="m 596.093,-385.87912 c 5.12221,5.34525 7.84742,10.7776 7.84742,10.7776 0,0 2.72521,-5.43235 7.84742,-10.7776 5.12462,-5.34336 11.50904,-8.81913 11.50904,-8.81913 0,0 -6.38442,-3.47389 -11.50904,-8.821 -5.12221,-5.34337 -7.84742,-10.77572 -7.84742,-10.77572 0,0 -2.72521,5.43235 -7.84742,10.77572 -5.12462,5.34711 -11.50904,8.821 -11.50904,8.821 0,0 6.38442,3.47577 11.50904,8.81913 z"
         sodipodi:nodetypes="ccccccccc" />
      <text
         transform="scale(1.0396186,0.96189122)"
         sodipodi:linespacing="125%"
         id="text18458-1"
         y="-621.78046"
         x="413.46268"
         style="color:#000000;font-style:normal;font-variant:normal;font-weight:normal;font-stretch:normal;font-size:52.50000381px;line-height:125%;font-family:Arial;-inkscape-font-specification:'Arial, Normal';text-indent:0;text-align:start;text-decoration:none;text-decoration-line:none;text-decoration-style:solid;text-decoration-color:#000000;letter-spacing:0px;word-spacing:0px;text-transform:none;direction:ltr;block-progression:tb;writing-mode:lr-tb;baseline-shift:baseline;text-anchor:start;white-space:normal;clip-rule:nonzero;display:inline;overflow:visible;visibility:visible;opacity:1;isolation:auto;mix-blend-mode:normal;color-interpolation:sRGB;color-interpolation-filters:linearRGB;solid-color:#000000;solid-opacity:1;fill:#b28940;fill-opacity:1;fill-rule:nonzero;stroke:#000000;stroke-width:1px;stroke-linecap:butt;stroke-linejoin:miter;stroke-miterlimit:4;stroke-dasharray:none;stroke-dashoffset:0;stroke-opacity:1;color-rendering:auto;image-rendering:auto;shape-rendering:auto;text-rendering:auto;enable-background:accumulate"
         xml:space="preserve"><tspan
           y="-621.78046"
           x="413.46268"
           id="tspan18460-5"
           sodipodi:role="line">3</tspan></text>
      <text
         transform="scale(-1,-1)"
         sodipodi:linespacing="125%"
         id="text19313-9"
         y="370.12558"
         x="-615.98749"
         style="color:#000000;font-style:normal;font-variant:normal;font-weight:normal;font-stretch:normal;font-size:52.50000381px;line-height:125%;font-family:Arial;-inkscape-font-specification:'Arial, Normal';text-indent:0;text-align:start;text-decoration:none;text-decoration-line:none;text-decoration-style:solid;text-decoration-color:#000000;letter-spacing:0px;word-spacing:0px;text-transform:none;direction:ltr;block-progression:tb;writing-mode:lr-tb;baseline-shift:baseline;text-anchor:start;white-space:normal;clip-rule:nonzero;display:inline;overflow:visible;visibility:visible;opacity:1;isolation:auto;mix-blend-mode:normal;color-interpolation:sRGB;color-interpolation-filters:linearRGB;solid-color:#000000;solid-opacity:1;fill:#b28940;fill-opacity:1;fill-rule:nonzero;stroke:#000000;stroke-width:1px;stroke-linecap:butt;stroke-linejoin:miter;stroke-miterlimit:4;stroke-dasharray:none;stroke-dashoffset:0;stroke-opacity:1;color-rendering:auto;image-rendering:auto;shape-rendering:auto;text-rendering:auto;enable-background:accumulate"
         xml:space="preserve"><tspan
           y="370.12558"
           x="-615.98749"
           id="tspan19315-8"
           sodipodi:role="line">3</tspan></text>
      <path
         style="fill:#b28940;fill-opacity:1;stroke:#000000;stroke-width:0.46713534;stroke-miterlimit:4;stroke-dasharray:none;stroke-opacity:1"
         inkscape:connector-curvature="0"
         id="use21285"
         d="m 532.06513,-551.15043 c -4.61086,-4.80981 -7.06401,-9.69799 -7.06401,-9.69799 0,0 -2.45315,4.88818 -7.06401,9.69799 -4.61302,4.8081 -10.36008,7.93569 -10.36008,7.93569 0,0 5.74706,3.12592 10.36008,7.93739 4.61086,4.80812 7.06401,9.6963 7.06401,9.6963 0,0 2.45315,-4.88818 7.06401,-9.6963 4.61302,-4.81147 10.36008,-7.93739 10.36008,-7.93739 0,0 -5.74706,-3.12759 -10.36008,-7.93569 z"
         sodipodi:nodetypes="ccccccccc" />
      <path
         style="fill:#b28940;fill-opacity:1;stroke:#000000;stroke-width:0.46713534;stroke-miterlimit:4;stroke-dasharray:none;stroke-opacity:1"
         inkscape:connector-curvature="0"
         id="use21287"
         d="m 532.06513,-491.41839 c -4.61086,-4.80981 -7.06401,-9.69799 -7.06401,-9.69799 0,0 -2.45315,4.88818 -7.06401,9.69799 -4.61302,4.8081 -10.36008,7.93569 -10.36008,7.93569 0,0 5.74706,3.12592 10.36008,7.93739 4.61086,4.80812 7.06401,9.6963 7.06401,9.6963 0,0 2.45315,-4.88818 7.06401,-9.6963 4.61302,-4.81147 10.36008,-7.93739 10.36008,-7.93739 0,0 -5.74706,-3.12759 -10.36008,-7.93569 z"
         sodipodi:nodetypes="ccccccccc" />
      <path
         style="fill:#b28940;fill-opacity:1;stroke:#000000;stroke-width:0.46713534;stroke-miterlimit:4;stroke-dasharray:none;stroke-opacity:1"
         inkscape:connector-curvature="0"
         id="use21289"
         d="m 517.93711,-415.46111 c 4.61086,4.8098 7.06401,9.69798 7.06401,9.69798 0,0 2.45315,-4.88818 7.06401,-9.69798 4.61302,-4.80811 10.36008,-7.9357 10.36008,-7.9357 0,0 -5.74706,-3.12592 -10.36008,-7.93739 -4.61086,-4.80812 -7.06401,-9.6963 -7.06401,-9.6963 0,0 -2.45315,4.88818 -7.06401,9.6963 -4.61302,4.81147 -10.36008,7.93739 -10.36008,7.93739 0,0 5.74706,3.12759 10.36008,7.9357 z"
         sodipodi:nodetypes="ccccccccc" />
    </g>
  </g>
</svg>
