<?xml version="1.0" encoding="UTF-8" standalone="no"?>
<!-- Created with Inkscape (http://www.inkscape.org/) -->

<svg
   xmlns:dc="http://purl.org/dc/elements/1.1/"
   xmlns:cc="http://creativecommons.org/ns#"
   xmlns:rdf="http://www.w3.org/1999/02/22-rdf-syntax-ns#"
   xmlns:svg="http://www.w3.org/2000/svg"
   xmlns="http://www.w3.org/2000/svg"
   xmlns:sodipodi="http://sodipodi.sourceforge.net/DTD/sodipodi-0.dtd"
   xmlns:inkscape="http://www.inkscape.org/namespaces/inkscape"
   width="210"
   height="315.00003"
   viewBox="0 0 210 315.00004"
   id="svg33826"
   version="1.1"
   inkscape:version="0.91 r13725"
   sodipodi:docname="spade10.svg">
  <defs
     id="defs33828" />
  <sodipodi:namedview
     id="base"
     pagecolor="#ffffff"
     bordercolor="#666666"
     borderopacity="1.0"
     inkscape:pageopacity="0.0"
     inkscape:pageshadow="2"
     inkscape:zoom="0.59882812"
     inkscape:cx="343.82283"
     inkscape:cy="29.979929"
     inkscape:document-units="px"
     inkscape:current-layer="layer1"
     showgrid="false"
     units="px"
     fit-margin-top="0"
     fit-margin-left="0"
     fit-margin-right="0"
     fit-margin-bottom="0"
     showborder="false"
     inkscape:window-width="556"
     inkscape:window-height="622"
     inkscape:window-x="1294"
     inkscape:window-y="47"
     inkscape:window-maximized="0" />
  <metadata
     id="metadata33831">
    <rdf:RDF>
      <cc:Work
         rdf:about="">
        <dc:format>image/svg+xml</dc:format>
        <dc:type
           rdf:resource="http://purl.org/dc/dcmitype/StillImage" />
        <dc:title></dc:title>
      </cc:Work>
    </rdf:RDF>
  </metadata>
  <g
     inkscape:label="Layer 1"
     inkscape:groupmode="layer"
     id="layer1"
     transform="translate(0,-737.36219)">
    <g
       transform="translate(-1890.0011,747.2533)"
       id="spade10"
       inkscape:label="#g24837">
      <rect
         style="opacity:1;fill:#fdfeee;fill-opacity:1;stroke:#000000;stroke-width:0.9960472;stroke-linecap:butt;stroke-linejoin:round;stroke-miterlimit:4;stroke-dasharray:none;stroke-opacity:1"
         id="rect11105"
         width="209.00395"
         height="314.004"
         x="1890.4991"
         y="-9.3931017"
         ry="14.999999"
         rx="14.999998" />
      <rect
         style="opacity:1;fill:none;fill-opacity:1;stroke:#000000;stroke-width:0.99502754;stroke-linecap:butt;stroke-linejoin:round;stroke-miterlimit:4;stroke-dasharray:none;stroke-opacity:1"
         id="rect11107"
         width="99.004982"
         height="164.00497"
         x="1945.4987"
         y="65.606415" />
      <path
         sodipodi:nodetypes="cccccccccc"
         style="fill:#b900b9;fill-opacity:1;stroke:#000000;stroke-width:0.51767886;stroke-miterlimit:4;stroke-dasharray:none;stroke-opacity:1"
         inkscape:connector-curvature="0"
         d="m 1934.9204,65.863035 c -0.6002,-7.670381 -19.2165,-22.10741 -19.8168,-25.718563 -0.6003,3.609261 -19.2166,18.04629 -19.8169,25.718563 -0.4192,5.422396 4.2045,7.670382 8.409,7.670382 4.5521,-0.04082 8.3119,-5.295148 9.607,-6.316675 0.6003,1.353707 -3.9763,12.633345 -5.405,12.633345 l 14.4143,0 c -1.4288,0 -6.0054,-11.279638 -5.4051,-12.633345 1.134,0.938324 4.4578,6.159425 9.6095,6.316675 4.202,-0.0019 8.8232,-2.247986 8.404,-7.670382 z"
         id="use17082" />
      <path
         sodipodi:nodetypes="cccccccccc"
         style="fill:#b900b9;fill-opacity:1;stroke:#000000;stroke-width:0.51767886;stroke-miterlimit:4;stroke-dasharray:none;stroke-opacity:1"
         inkscape:connector-curvature="0"
         d="m 2055.2861,229.34803 c 0.6002,7.67038 19.2165,22.10741 19.8168,25.71856 0.6003,-3.60926 19.2166,-18.04629 19.8169,-25.71856 0.4192,-5.4224 -4.2045,-7.67038 -8.409,-7.67038 -4.5521,0.0408 -8.3119,5.29515 -9.607,6.31667 -0.6003,-1.3537 3.9763,-12.63334 5.405,-12.63334 l -14.4143,0 c 1.4288,0 6.0054,11.27964 5.4051,12.63334 -1.134,-0.93832 -4.4578,-6.15942 -9.6095,-6.31667 -4.202,0.002 -8.8232,2.24798 -8.404,7.67038 z"
         id="use17084" />
      <path
         sodipodi:nodetypes="cccccccccc"
         style="fill:#b900b9;fill-opacity:1;stroke:#000000;stroke-width:0.4646866;stroke-miterlimit:4;stroke-dasharray:none;stroke-opacity:1"
         inkscape:connector-curvature="0"
         d="m 1983.3832,133.80841 c -0.5375,-6.90215 -17.2071,-19.89323 -17.7447,-23.14271 -0.5375,3.24778 -17.2071,16.23886 -17.7446,23.14271 -0.3754,4.87931 3.7648,6.90215 7.5297,6.90215 4.0761,-0.0367 7.4427,-4.76481 8.6024,-5.68403 0.5375,1.21813 -3.5605,11.36805 -4.8398,11.36805 l 12.907,0 c -1.2794,0 -5.3774,-10.14992 -4.8399,-11.36805 1.0154,0.84435 3.9917,5.54253 8.6047,5.68403 3.7626,-0.002 7.9005,-2.02284 7.5252,-6.90215 z"
         id="use22845" />
      <path
         sodipodi:nodetypes="cccccccccc"
         style="fill:#b900b9;fill-opacity:1;stroke:#000000;stroke-width:0.4646866;stroke-miterlimit:4;stroke-dasharray:none;stroke-opacity:1"
         inkscape:connector-curvature="0"
         d="m 1947.8935,163.20508 c 0.5375,6.90215 17.2071,19.89323 17.7447,23.1427 0.5375,-3.24777 17.2071,-16.23885 17.7446,-23.1427 0.3754,-4.87932 -3.7648,-6.90215 -7.5297,-6.90215 -4.0761,0.0367 -7.4427,4.76481 -8.6024,5.68402 -0.5375,-1.21812 3.5605,-11.36804 4.8398,-11.36804 l -12.9069,0 c 1.2793,0 5.3773,10.14992 4.8398,11.36804 -1.0154,-0.84434 -3.9917,-5.54252 -8.6047,-5.68402 -3.7626,0.002 -7.9005,2.02283 -7.5252,6.90215 z"
         id="use22847" />
      <path
         sodipodi:nodetypes="cccccccccc"
         style="fill:#b900b9;fill-opacity:1;stroke:#000000;stroke-width:0.4646866;stroke-miterlimit:4;stroke-dasharray:none;stroke-opacity:1"
         inkscape:connector-curvature="0"
         d="m 1947.8935,202.96345 c 0.5375,6.90215 17.2071,19.89323 17.7447,23.1427 0.5375,-3.24777 17.2071,-16.23885 17.7446,-23.1427 0.3754,-4.87932 -3.7648,-6.90215 -7.5297,-6.90215 -4.0761,0.0367 -7.4427,4.76481 -8.6024,5.68402 -0.5375,-1.21812 3.5605,-11.36804 4.8398,-11.36804 l -12.9069,0 c 1.2793,0 5.3773,10.14992 4.8398,11.36804 -1.0154,-0.84434 -3.9917,-5.54252 -8.6047,-5.68402 -3.7626,0.002 -7.9005,2.02283 -7.5252,6.90215 z"
         id="use22849" />
      <path
         sodipodi:nodetypes="cccccccccc"
         style="fill:#b900b9;fill-opacity:1;stroke:#000000;stroke-width:0.4646866;stroke-miterlimit:4;stroke-dasharray:none;stroke-opacity:1"
         inkscape:connector-curvature="0"
         d="m 2042.7618,133.80841 c -0.5375,-6.90215 -17.2071,-19.89323 -17.7447,-23.14271 -0.5375,3.24778 -17.2071,16.23886 -17.7446,23.14271 -0.3754,4.87931 3.7648,6.90215 7.5297,6.90215 4.0761,-0.0367 7.4427,-4.76481 8.6024,-5.68403 0.5375,1.21813 -3.5605,11.36805 -4.8398,11.36805 l 12.907,0 c -1.2794,0 -5.3774,-10.14992 -4.8399,-11.36805 1.0154,0.84435 3.9917,5.54253 8.6047,5.68403 3.7626,-0.002 7.9005,-2.02284 7.5252,-6.90215 z"
         id="use22863" />
      <path
         sodipodi:nodetypes="cccccccccc"
         style="fill:#b900b9;fill-opacity:1;stroke:#000000;stroke-width:0.4646866;stroke-miterlimit:4;stroke-dasharray:none;stroke-opacity:1"
         inkscape:connector-curvature="0"
         d="m 2007.2722,163.20508 c 0.5375,6.90215 17.2071,19.89323 17.7447,23.1427 0.5375,-3.24777 17.2071,-16.23885 17.7446,-23.1427 0.3754,-4.87932 -3.7648,-6.90215 -7.5297,-6.90215 -4.0761,0.0367 -7.4427,4.76481 -8.6024,5.68402 -0.5375,-1.21812 3.5605,-11.36804 4.8398,-11.36804 l -12.9069,0 c 1.2793,0 5.3773,10.14992 4.8398,11.36804 -1.0154,-0.84434 -3.9917,-5.54252 -8.6047,-5.68402 -3.7626,0.002 -7.9005,2.02283 -7.5252,6.90215 z"
         id="use22865" />
      <path
         sodipodi:nodetypes="cccccccccc"
         style="fill:#b900b9;fill-opacity:1;stroke:#000000;stroke-width:0.4646866;stroke-miterlimit:4;stroke-dasharray:none;stroke-opacity:1"
         inkscape:connector-curvature="0"
         d="m 2007.2722,202.96345 c 0.5375,6.90215 17.2071,19.89323 17.7447,23.1427 0.5375,-3.24777 17.2071,-16.23885 17.7446,-23.1427 0.3754,-4.87932 -3.7648,-6.90215 -7.5297,-6.90215 -4.0761,0.0367 -7.4427,4.76481 -8.6024,5.68402 -0.5375,-1.21812 3.5605,-11.36804 4.8398,-11.36804 l -12.9069,0 c 1.2793,0 5.3773,10.14992 4.8398,11.36804 -1.0154,-0.84434 -3.9917,-5.54252 -8.6047,-5.68402 -3.7626,0.002 -7.9005,2.02283 -7.5252,6.90215 z"
         id="use22867" />
      <path
         sodipodi:nodetypes="cccccccccc"
         style="fill:#b900b9;fill-opacity:1;stroke:#000000;stroke-width:0.4646866;stroke-miterlimit:4;stroke-dasharray:none;stroke-opacity:1"
         inkscape:connector-curvature="0"
         d="m 1983.3832,94.05004 c -0.5375,-6.90215 -17.2071,-19.893229 -17.7447,-23.142705 -0.5375,3.247773 -17.2071,16.238853 -17.7446,23.142705 -0.3754,4.879312 3.7648,6.90215 7.5297,6.90215 4.0761,-0.0367 7.4427,-4.764809 8.6024,-5.684025 0.5375,1.218126 -3.5605,11.368045 -4.8398,11.368045 l 12.907,0 c -1.2794,0 -5.3774,-10.149919 -4.8399,-11.368045 1.0154,0.844346 3.9917,5.542525 8.6047,5.684025 3.7626,-0.002 7.9005,-2.022838 7.5252,-6.90215 z"
         id="use22883" />
      <path
         sodipodi:nodetypes="cccccccccc"
         style="fill:#b900b9;fill-opacity:1;stroke:#000000;stroke-width:0.4646866;stroke-miterlimit:4;stroke-dasharray:none;stroke-opacity:1"
         inkscape:connector-curvature="0"
         d="m 1977.2563,184.82114 c 0.5375,6.90215 17.2071,19.89323 17.7447,23.1427 0.5375,-3.24777 17.2071,-16.23885 17.7446,-23.1427 0.3754,-4.87932 -3.7648,-6.90215 -7.5297,-6.90215 -4.0761,0.0367 -7.4427,4.76481 -8.6024,5.68402 -0.5375,-1.21812 3.5605,-11.36804 4.8398,-11.36804 l -12.9069,0 c 1.2793,0 5.3773,10.14992 4.8398,11.36804 -1.0154,-0.84434 -3.9917,-5.54252 -8.6047,-5.68402 -3.7626,0.002 -7.9005,2.02283 -7.5252,6.90215 z"
         id="use22885" />
      <path
         sodipodi:nodetypes="cccccccccc"
         style="fill:#b900b9;fill-opacity:1;stroke:#000000;stroke-width:0.4646866;stroke-miterlimit:4;stroke-dasharray:none;stroke-opacity:1"
         inkscape:connector-curvature="0"
         d="m 2042.7618,94.05004 c -0.5375,-6.90215 -17.2071,-19.893229 -17.7447,-23.142705 -0.5375,3.247773 -17.2071,16.238853 -17.7446,23.142705 -0.3754,4.879312 3.7648,6.90215 7.5297,6.90215 4.0761,-0.0367 7.4427,-4.764809 8.6024,-5.684025 0.5375,1.218126 -3.5605,11.368045 -4.8398,11.368045 l 12.907,0 c -1.2794,0 -5.3774,-10.149919 -4.8399,-11.368045 1.0154,0.844346 3.9917,5.542525 8.6047,5.684025 3.7626,-0.002 7.9005,-2.022838 7.5252,-6.90215 z"
         id="use22901" />
      <path
         sodipodi:nodetypes="cccccccccc"
         style="fill:#b900b9;fill-opacity:1;stroke:#000000;stroke-width:0.4646866;stroke-miterlimit:4;stroke-dasharray:none;stroke-opacity:1"
         inkscape:connector-curvature="0"
         d="m 2012.7459,113.35802 c -0.5375,-6.90215 -17.2071,-19.893231 -17.7447,-23.142707 -0.5375,3.247773 -17.2071,16.238857 -17.7446,23.142707 -0.3754,4.87931 3.7648,6.90215 7.5297,6.90215 4.0761,-0.0367 7.4427,-4.76481 8.6024,-5.68403 0.5375,1.21813 -3.5605,11.36805 -4.8398,11.36805 l 12.907,0 c -1.2794,0 -5.3774,-10.14992 -4.8399,-11.36805 1.0154,0.84435 3.9917,5.54253 8.6047,5.68403 3.7626,-0.002 7.9005,-2.02284 7.5252,-6.90215 z"
         id="use22903" />
      <text
         xml:space="preserve"
         style="color:#000000;font-style:normal;font-variant:normal;font-weight:normal;font-stretch:normal;font-size:52.5px;line-height:125%;font-family:Arial;-inkscape-font-specification:'Arial, Normal';text-indent:0;text-align:start;text-decoration:none;text-decoration-line:none;text-decoration-style:solid;text-decoration-color:#000000;letter-spacing:0px;word-spacing:0px;text-transform:none;direction:ltr;block-progression:tb;writing-mode:lr-tb;baseline-shift:baseline;text-anchor:start;white-space:normal;clip-rule:nonzero;display:inline;overflow:visible;visibility:visible;opacity:1;isolation:auto;mix-blend-mode:normal;color-interpolation:sRGB;color-interpolation-filters:linearRGB;solid-color:#000000;solid-opacity:1;fill:#b900b9;fill-opacity:1;fill-rule:nonzero;stroke:#000000;stroke-width:1px;stroke-linecap:butt;stroke-linejoin:miter;stroke-miterlimit:4;stroke-dasharray:none;stroke-dashoffset:0;stroke-opacity:1;color-rendering:auto;image-rendering:auto;shape-rendering:auto;text-rendering:auto;enable-background:accumulate"
         x="1890.349"
         y="36.391884"
         id="text11200-2"
         sodipodi:linespacing="125%"><tspan
           sodipodi:role="line"
           id="tspan11202-7"
           x="1890.349"
           y="36.391884"
           dx="0 -4.0000005">10</tspan></text>
      <text
         transform="scale(-1,-1)"
         xml:space="preserve"
         style="color:#000000;font-style:normal;font-variant:normal;font-weight:normal;font-stretch:normal;font-size:52.5px;line-height:125%;font-family:Arial;-inkscape-font-specification:'Arial, Normal';text-indent:0;text-align:start;text-decoration:none;text-decoration-line:none;text-decoration-style:solid;text-decoration-color:#000000;letter-spacing:0px;word-spacing:0px;text-transform:none;direction:ltr;block-progression:tb;writing-mode:lr-tb;baseline-shift:baseline;text-anchor:start;white-space:normal;clip-rule:nonzero;display:inline;overflow:visible;visibility:visible;opacity:1;isolation:auto;mix-blend-mode:normal;color-interpolation:sRGB;color-interpolation-filters:linearRGB;solid-color:#000000;solid-opacity:1;fill:#b900b9;fill-opacity:1;fill-rule:nonzero;stroke:#000000;stroke-width:1px;stroke-linecap:butt;stroke-linejoin:miter;stroke-miterlimit:4;stroke-dasharray:none;stroke-dashoffset:0;stroke-opacity:1;color-rendering:auto;image-rendering:auto;shape-rendering:auto;text-rendering:auto;enable-background:accumulate"
         x="-2099.7151"
         y="-260.5672"
         id="text11200-21"
         sodipodi:linespacing="125%"><tspan
           sodipodi:role="line"
           id="tspan11202-9"
           x="-2099.7151"
           y="-260.5672"
           dx="0 -4.0000005">10</tspan></text>
    </g>
  </g>
</svg>
