<?xml version="1.0" encoding="UTF-8" standalone="no"?>
<!-- Created with Inkscape (http://www.inkscape.org/) -->

<svg
   width="210"
   height="315.00003"
   viewBox="0 0 210.00001 315.00005"
   id="svg8691"
   version="1.1"
   xmlns="http://www.w3.org/2000/svg"
   xmlns:svg="http://www.w3.org/2000/svg"
   xmlns:rdf="http://www.w3.org/1999/02/22-rdf-syntax-ns#"
   xmlns:cc="http://creativecommons.org/ns#"
   xmlns:dc="http://purl.org/dc/elements/1.1/">
  <defs
     id="defs8693" />
  <metadata
     id="metadata8696">
    <rdf:RDF>
      <cc:Work
         rdf:about="">
        <dc:format>image/svg+xml</dc:format>
        <dc:type
           rdf:resource="http://purl.org/dc/dcmitype/StillImage" />
        <cc:license
           rdf:resource="http://creativecommons.org/publicdomain/zero/1.0/" />
      </cc:Work>
      <cc:License
         rdf:about="http://creativecommons.org/publicdomain/zero/1.0/">
        <cc:permits
           rdf:resource="http://creativecommons.org/ns#Reproduction" />
        <cc:permits
           rdf:resource="http://creativecommons.org/ns#Distribution" />
        <cc:permits
           rdf:resource="http://creativecommons.org/ns#DerivativeWorks" />
      </cc:License>
    </rdf:RDF>
  </metadata>
  <g
     id="layer1"
     transform="translate(-1260.0011,954.89121)"
     style="display:inline">
    <g
       id="club7">
      <rect
         style="opacity:1;fill:#fdfeee;fill-opacity:1;stroke:#000000;stroke-width:0.996047;stroke-linecap:butt;stroke-linejoin:round;stroke-miterlimit:4;stroke-dasharray:none;stroke-opacity:1"
         id="rect11015"
         width="209.00395"
         height="314.004"
         x="1260.4991"
         y="-954.39319"
         ry="14.999999"
         rx="14.999998" />
      <rect
         style="opacity:1;fill:none;fill-opacity:1;stroke:#000000;stroke-width:0.995028;stroke-linecap:butt;stroke-linejoin:round;stroke-miterlimit:4;stroke-dasharray:none;stroke-opacity:1"
         id="rect11017"
         width="99.004982"
         height="164.00497"
         x="1315.4987"
         y="-879.39368" />
      <path
         id="use13938"
         d="m 1317.2565,-929.2827 c 0,0 4.9425,-3.95403 4.9425,-9.43559 0,-3.20897 -2.8489,-8.53651 -9.4355,-8.53651 -6.5866,0 -9.4356,5.32961 -9.4356,8.53651 0,5.48156 4.9426,9.43559 4.9426,9.43559 -5.4899,-4.2766 -15.2771,-1.35688 -15.2771,7.19007 0,4.27866 3.4961,8.98602 8.986,8.98602 6.5866,0 9.4355,-7.19007 9.4355,-7.19007 0,0 0.8366,8.19522 -4.0435,12.58211 h 10.7841 c -4.8801,-4.38478 -4.0435,-12.58211 -4.0435,-12.58211 0,0 2.849,7.19007 9.4356,7.19007 5.4919,0 8.986,-4.70943 8.986,-8.98602 0,-8.54695 -9.7873,-11.46667 -15.2771,-7.19007 z"
         style="fill:#228b22;fill-opacity:1;stroke:#000000;stroke-width:0.459766;stroke-opacity:1" />
      <path
         id="use13940"
         d="m 1406.7405,-665.08935 c 0,0 -4.9415,3.9532 -4.9415,9.43361 0,3.20831 2.8483,8.53473 9.4335,8.53473 6.5852,0 9.4336,-5.32849 9.4336,-8.53473 0,-5.48041 -4.9415,-9.43361 -4.9415,-9.43361 5.4887,4.2757 15.2739,1.35659 15.2739,-7.18858 0,-4.27777 -3.4954,-8.98415 -8.9841,-8.98415 -6.5852,0 -9.4336,7.18858 -9.4336,7.18858 0,0 -0.8364,-8.19352 4.0427,-12.5795 h -10.7819 c 4.8791,4.38387 4.0427,12.5795 4.0427,12.5795 0,0 -2.8484,-7.18858 -9.4336,-7.18858 -5.4908,0 -8.9842,4.70845 -8.9842,8.98415 0,8.54517 9.7853,11.46428 15.274,7.18858 z"
         style="fill:#228b22;fill-opacity:1;stroke:#000000;stroke-width:0.45967;stroke-opacity:1" />
      <text
         id="text18474"
         y="-909.89117"
         x="1270.2596"
         style="color:#000000;font-style:normal;font-variant:normal;font-weight:normal;font-stretch:normal;line-height:0%;font-family:Arial;-inkscape-font-specification:'Arial, Normal';text-indent:0;text-align:start;text-decoration:none;text-decoration-line:none;text-decoration-style:solid;text-decoration-color:#000000;letter-spacing:0px;word-spacing:0px;text-transform:none;writing-mode:lr-tb;direction:ltr;baseline-shift:baseline;text-anchor:start;white-space:normal;clip-rule:nonzero;display:inline;overflow:visible;visibility:visible;opacity:1;isolation:auto;mix-blend-mode:normal;color-interpolation:sRGB;color-interpolation-filters:linearRGB;solid-color:#000000;solid-opacity:1;fill:#228b22;fill-opacity:1;fill-rule:nonzero;stroke:#000000;stroke-width:1px;stroke-linecap:butt;stroke-linejoin:miter;stroke-miterlimit:4;stroke-dasharray:none;stroke-dashoffset:0;stroke-opacity:1;color-rendering:auto;image-rendering:auto;shape-rendering:auto;text-rendering:auto;enable-background:accumulate"
         xml:space="preserve"><tspan
           y="-909.89117"
           x="1270.2596"
           id="tspan18476"
           style="font-size:52.5px;line-height:1.25">7</tspan></text>
      <text
         transform="scale(-1)"
         id="text19329"
         y="684.48468"
         x="-1457.2115"
         style="color:#000000;font-style:normal;font-variant:normal;font-weight:normal;font-stretch:normal;line-height:0%;font-family:Arial;-inkscape-font-specification:'Arial, Normal';text-indent:0;text-align:start;text-decoration:none;text-decoration-line:none;text-decoration-style:solid;text-decoration-color:#000000;letter-spacing:0px;word-spacing:0px;text-transform:none;writing-mode:lr-tb;direction:ltr;baseline-shift:baseline;text-anchor:start;white-space:normal;clip-rule:nonzero;display:inline;overflow:visible;visibility:visible;opacity:1;isolation:auto;mix-blend-mode:normal;color-interpolation:sRGB;color-interpolation-filters:linearRGB;solid-color:#000000;solid-opacity:1;fill:#228b22;fill-opacity:1;fill-rule:nonzero;stroke:#000000;stroke-width:1px;stroke-linecap:butt;stroke-linejoin:miter;stroke-miterlimit:4;stroke-dasharray:none;stroke-dashoffset:0;stroke-opacity:1;color-rendering:auto;image-rendering:auto;shape-rendering:auto;text-rendering:auto;enable-background:accumulate"
         xml:space="preserve"><tspan
           y="684.48468"
           x="-1457.2115"
           id="tspan19331"
           style="font-size:52.5px;line-height:1.25">7</tspan></text>
      <path
         id="use20332"
         d="m 1390.0233,-735.55878 c 0,0 -4.4482,3.55862 -4.4482,8.49202 0,2.88807 2.564,7.68286 8.4919,7.68286 5.928,0 8.492,-4.79665 8.492,-7.68286 0,-4.9334 -4.4482,-8.49202 -4.4482,-8.49202 4.9409,3.84893 13.7494,1.22118 13.7494,-6.47107 0,-3.85079 -3.1466,-8.08742 -8.0875,-8.08742 -5.9279,0 -8.492,6.47107 -8.492,6.47107 0,0 -0.7529,-7.3757 3.6392,-11.32391 h -9.7057 c 4.3921,3.9463 3.6392,11.32391 3.6392,11.32391 0,0 -2.5641,-6.47107 -8.492,-6.47107 -4.9428,0 -8.0875,4.23849 -8.0875,8.08742 0,7.69225 8.8086,10.32 13.7494,6.47107 z"
         style="fill:#228b22;fill-opacity:1;stroke:#000000;stroke-width:0.413789;stroke-opacity:1" />
      <path
         id="use20340"
         d="m 1340.8664,-861.01668 c 0,0 4.4482,-3.55862 4.4482,-8.49202 0,-2.88808 -2.564,-7.68286 -8.4919,-7.68286 -5.928,0 -8.492,4.79665 -8.492,7.68286 0,4.9334 4.4482,8.49202 4.4482,8.49202 -4.9409,-3.84893 -13.7494,-1.22119 -13.7494,6.47106 0,3.8508 3.1466,8.08742 8.0875,8.08742 5.9279,0 8.492,-6.47106 8.492,-6.47106 0,0 0.7529,7.3757 -3.6392,11.32391 h 9.7057 c -4.3921,-3.94631 -3.6392,-11.32391 -3.6392,-11.32391 0,0 2.5641,6.47106 8.492,6.47106 4.9428,0 8.0875,-4.23848 8.0875,-8.08742 0,-7.69225 -8.8086,-10.31999 -13.7494,-6.47106 z"
         style="fill:#228b22;fill-opacity:1;stroke:#000000;stroke-width:0.413789;stroke-opacity:1" />
      <path
         id="use20342"
         d="m 1340.8664,-799.90618 c 0,0 4.4482,-3.55862 4.4482,-8.49202 0,-2.88807 -2.564,-7.68286 -8.4919,-7.68286 -5.928,0 -8.492,4.79665 -8.492,7.68286 0,4.9334 4.4482,8.49202 4.4482,8.49202 -4.9409,-3.84893 -13.7494,-1.22118 -13.7494,6.47107 0,3.85079 3.1466,8.08742 8.0875,8.08742 5.9279,0 8.492,-6.47107 8.492,-6.47107 0,0 0.7529,7.3757 -3.6392,11.32391 h 9.7057 c -4.3921,-3.94631 -3.6392,-11.32391 -3.6392,-11.32391 0,0 2.5641,6.47107 8.492,6.47107 4.9428,0 8.0875,-4.23849 8.0875,-8.08742 0,-7.69225 -8.8086,-10.32 -13.7494,-6.47107 z"
         style="fill:#228b22;fill-opacity:1;stroke:#000000;stroke-width:0.413789;stroke-opacity:1" />
      <path
         id="use20348"
         d="m 1398.1114,-861.01668 c 0,0 4.4482,-3.55862 4.4482,-8.49202 0,-2.88808 -2.564,-7.68286 -8.4919,-7.68286 -5.928,0 -8.492,4.79665 -8.492,7.68286 0,4.9334 4.4482,8.49202 4.4482,8.49202 -4.9409,-3.84893 -13.7494,-1.22119 -13.7494,6.47106 0,3.8508 3.1466,8.08742 8.0875,8.08742 5.9279,0 8.492,-6.47106 8.492,-6.47106 0,0 0.7529,7.3757 -3.6392,11.32391 h 9.7057 c -4.3921,-3.94631 -3.6392,-11.32391 -3.6392,-11.32391 0,0 2.5641,6.47106 8.492,6.47106 4.9428,0 8.0875,-4.23848 8.0875,-8.08742 0,-7.69225 -8.8086,-10.31999 -13.7494,-6.47106 z"
         style="fill:#228b22;fill-opacity:1;stroke:#000000;stroke-width:0.413789;stroke-opacity:1" />
      <path
         id="use20350"
         d="m 1398.1115,-799.90617 c 0,0 4.4482,-3.55862 4.4482,-8.49203 0,-2.88807 -2.564,-7.68285 -8.4919,-7.68285 -5.928,0 -8.492,4.79664 -8.492,7.68285 0,4.93341 4.4482,8.49203 4.4482,8.49203 -4.9409,-3.84894 -13.7494,-1.22119 -13.7494,6.47106 0,3.8508 3.1466,8.08742 8.0875,8.08742 5.9279,0 8.492,-6.47106 8.492,-6.47106 0,0 0.7529,7.37569 -3.6392,11.3239 h 9.7057 c -4.3921,-3.9463 -3.6392,-11.3239 -3.6392,-11.3239 0,0 2.5641,6.47106 8.492,6.47106 4.9428,0 8.0875,-4.23848 8.0875,-8.08742 0,-7.69225 -8.8086,-10.32 -13.7494,-6.47106 z"
         style="fill:#228b22;fill-opacity:1;stroke:#000000;stroke-width:0.413789;stroke-opacity:1" />
      <path
         id="use20376"
         d="m 1332.7783,-735.55878 c 0,0 -4.4482,3.55862 -4.4482,8.49202 0,2.88807 2.564,7.68286 8.4919,7.68286 5.928,0 8.492,-4.79665 8.492,-7.68286 0,-4.9334 -4.4482,-8.49202 -4.4482,-8.49202 4.9409,3.84893 13.7494,1.22118 13.7494,-6.47107 0,-3.85079 -3.1466,-8.08742 -8.0875,-8.08742 -5.9279,0 -8.492,6.47107 -8.492,6.47107 0,0 -0.7529,-7.3757 3.6392,-11.32391 h -9.7057 c 4.3921,3.9463 3.6392,11.32391 3.6392,11.32391 0,0 -2.5641,-6.47107 -8.492,-6.47107 -4.9428,0 -8.0875,4.23849 -8.0875,8.08742 0,7.69225 8.8086,10.32 13.7494,6.47107 z"
         style="fill:#228b22;fill-opacity:1;stroke:#000000;stroke-width:0.413789;stroke-opacity:1" />
      <path
         id="use20384"
         d="m 1369.0452,-830.15455 c 0,0 4.4482,-3.55862 4.4482,-8.49203 0,-2.88807 -2.564,-7.68285 -8.4919,-7.68285 -5.928,0 -8.492,4.79665 -8.492,7.68285 0,4.93341 4.4482,8.49203 4.4482,8.49203 -4.9409,-3.84894 -13.7494,-1.22119 -13.7494,6.47106 0,3.8508 3.1466,8.08742 8.0875,8.08742 5.9279,0 8.492,-6.47106 8.492,-6.47106 0,0 0.7529,7.3757 -3.6392,11.3239 h 9.7057 c -4.3921,-3.9463 -3.6392,-11.3239 -3.6392,-11.3239 0,0 2.5641,6.47106 8.492,6.47106 4.9428,0 8.0875,-4.23848 8.0875,-8.08742 0,-7.69225 -8.8086,-10.32 -13.7494,-6.47106 z"
         style="fill:#228b22;fill-opacity:1;stroke:#000000;stroke-width:0.413789;stroke-opacity:1" />
    </g>
  </g>
</svg>
