<?xml version="1.0" encoding="UTF-8" standalone="no"?>
<!-- Created with Inkscape (http://www.inkscape.org/) -->

<svg
   width="210"
   height="315.00003"
   viewBox="0 0 210.00001 315.00005"
   id="svg8691"
   version="1.1"
   xmlns="http://www.w3.org/2000/svg"
   xmlns:svg="http://www.w3.org/2000/svg"
   xmlns:rdf="http://www.w3.org/1999/02/22-rdf-syntax-ns#"
   xmlns:cc="http://creativecommons.org/ns#"
   xmlns:dc="http://purl.org/dc/elements/1.1/">
  <defs
     id="defs8693" />
  <metadata
     id="metadata8696">
    <rdf:RDF>
      <cc:Work
         rdf:about="">
        <dc:format>image/svg+xml</dc:format>
        <dc:type
           rdf:resource="http://purl.org/dc/dcmitype/StillImage" />
        <cc:license
           rdf:resource="http://creativecommons.org/publicdomain/zero/1.0/" />
      </cc:Work>
      <cc:License
         rdf:about="http://creativecommons.org/publicdomain/zero/1.0/">
        <cc:permits
           rdf:resource="http://creativecommons.org/ns#Reproduction" />
        <cc:permits
           rdf:resource="http://creativecommons.org/ns#Distribution" />
        <cc:permits
           rdf:resource="http://creativecommons.org/ns#DerivativeWorks" />
      </cc:License>
    </rdf:RDF>
  </metadata>
  <g
     id="layer1"
     transform="translate(-9.7665191e-4,9.8911252)"
     style="display:inline">
    <g
       id="spadeAce">
      <rect
         style="opacity:1;fill:#fdfeee;fill-opacity:1;stroke:#000000;stroke-width:0.996047;stroke-linecap:butt;stroke-linejoin:round;stroke-miterlimit:4;stroke-dasharray:none;stroke-opacity:1"
         id="rect10889"
         width="209.00395"
         height="314.004"
         x="0.49900016"
         y="-9.3931017"
         ry="14.999999"
         rx="14.999998" />
      <rect
         style="opacity:1;fill:none;fill-opacity:1;stroke:#000000;stroke-width:0.995028;stroke-linecap:butt;stroke-linejoin:round;stroke-miterlimit:4;stroke-dasharray:none;stroke-opacity:1"
         id="rect10891"
         width="99.004982"
         height="164.00497"
         x="55.498493"
         y="65.606415" />
      <path
         id="spadePip"
         d="m 146.89811,159.99 c -1.26913,-16.21685 -40.62801,-46.73986 -41.89715,-54.37462 -1.26913,7.63076 -40.627999,38.15377 -41.897133,54.37462 -0.886295,11.46412 8.889179,16.21685 17.778359,16.21685 9.624272,-0.0863 17.573148,-11.19509 20.311374,-13.35482 1.26914,2.86203 -8.406691,26.70963 -11.427439,26.70963 h 30.474929 c -3.02074,0 -12.69658,-23.8476 -11.42744,-26.70963 2.39745,1.98382 9.42477,13.02236 20.31662,13.35482 8.88394,-0.004 18.65417,-4.75273 17.76788,-16.21685 z"
         style="fill:#000000;fill-opacity:1;stroke:#000000;stroke-width:1.09449;stroke-miterlimit:4;stroke-dasharray:none;stroke-opacity:1" />
      <path
         style="fill:#000000;fill-opacity:1;stroke:#000000;stroke-width:0.517679;stroke-miterlimit:4;stroke-dasharray:none;stroke-opacity:1"
         d="M 85.437304,22.789441 C 84.83702,15.11906 66.220727,0.68203102 65.620439,-2.929122 65.020155,0.68013902 46.403868,15.117168 45.803582,22.789441 c -0.419207,5.422395 4.204479,7.670381 8.408957,7.670381 4.552169,-0.04082 8.311895,-5.295147 9.607044,-6.316674 0.600288,1.353707 -3.976267,12.633344 -5.405046,12.633344 h 14.414287 c -1.428775,0 -6.005334,-11.279637 -5.405046,-12.633344 1.133966,0.938324 4.457807,6.159425 9.609525,6.316674 4.202,-0.0019 8.823205,-2.247986 8.404001,-7.670381 z"
         id="use17044" />
      <path
         style="fill:#000000;fill-opacity:1;stroke:#000000;stroke-width:0.517679;stroke-miterlimit:4;stroke-dasharray:none;stroke-opacity:1"
         d="m 124.01818,272.44787 c 0.60029,7.67038 19.21658,22.10741 19.81687,25.71856 0.60028,-3.60926 19.21657,-18.04629 19.81685,-25.71856 0.41921,-5.4224 -4.20447,-7.67038 -8.40895,-7.67038 -4.55217,0.0408 -8.3119,5.29515 -9.60705,6.31667 -0.60028,-1.3537 3.97627,-12.63334 5.40505,-12.63334 h -14.41429 c 1.42878,0 6.00534,11.27964 5.40505,12.63334 -1.13397,-0.93832 -4.45781,-6.15942 -9.60953,-6.31667 -4.202,0.002 -8.8232,2.24798 -8.404,7.67038 z"
         id="use17048" />
      <text
         id="text18446-8"
         y="35.108978"
         x="11.577881"
         style="color:#000000;font-style:normal;font-variant:normal;font-weight:normal;font-stretch:normal;line-height:0%;font-family:Arial;-inkscape-font-specification:'Arial, Normal';text-indent:0;text-align:start;text-decoration:none;text-decoration-line:none;text-decoration-style:solid;text-decoration-color:#000000;letter-spacing:0px;word-spacing:0px;text-transform:none;writing-mode:lr-tb;direction:ltr;baseline-shift:baseline;text-anchor:start;white-space:normal;clip-rule:nonzero;display:inline;overflow:visible;visibility:visible;opacity:1;isolation:auto;mix-blend-mode:normal;color-interpolation:sRGB;color-interpolation-filters:linearRGB;solid-color:#000000;solid-opacity:1;fill:#000000;fill-opacity:1;fill-rule:nonzero;stroke:#000000;stroke-width:1;stroke-linecap:butt;stroke-linejoin:miter;stroke-miterlimit:4;stroke-dasharray:none;stroke-dashoffset:0;stroke-opacity:1;color-rendering:auto;image-rendering:auto;shape-rendering:auto;text-rendering:auto;enable-background:accumulate"
         xml:space="preserve"><tspan
           y="35.108978"
           x="11.577881"
           id="tspan18448-2"
           style="font-size:52.5px;line-height:1.25">A</tspan></text>
      <text
         transform="scale(-1)"
         id="text19305-92"
         y="-260.12833"
         x="-199.09499"
         style="color:#000000;font-style:normal;font-variant:normal;font-weight:normal;font-stretch:normal;line-height:0%;font-family:Arial;-inkscape-font-specification:'Arial, Normal';text-indent:0;text-align:start;text-decoration:none;text-decoration-line:none;text-decoration-style:solid;text-decoration-color:#000000;letter-spacing:0px;word-spacing:0px;text-transform:none;writing-mode:lr-tb;direction:ltr;baseline-shift:baseline;text-anchor:start;white-space:normal;clip-rule:nonzero;display:inline;overflow:visible;visibility:visible;opacity:1;isolation:auto;mix-blend-mode:normal;color-interpolation:sRGB;color-interpolation-filters:linearRGB;solid-color:#000000;solid-opacity:1;fill:#000000;fill-opacity:1;fill-rule:nonzero;stroke:#000000;stroke-width:1;stroke-linecap:butt;stroke-linejoin:miter;stroke-miterlimit:4;stroke-dasharray:none;stroke-dashoffset:0;stroke-opacity:1;color-rendering:auto;image-rendering:auto;shape-rendering:auto;text-rendering:auto;enable-background:accumulate"
         xml:space="preserve"><tspan
           y="-260.12833"
           x="-199.09499"
           id="tspan19307-8"
           style="font-size:52.5px;line-height:1.25">A</tspan></text>
    </g>
  </g>
</svg>
