<?xml version="1.0" encoding="UTF-8" standalone="no"?>
<svg
   xmlns:dc="http://purl.org/dc/elements/1.1/"
   xmlns:cc="http://creativecommons.org/ns#"
   xmlns:rdf="http://www.w3.org/1999/02/22-rdf-syntax-ns#"
   xmlns:svg="http://www.w3.org/2000/svg"
   xmlns="http://www.w3.org/2000/svg"
   version="1.1"
   id="svg8691"
   viewBox="0 0 210.00001 315.00005"
   height="315.00003"
   width="210">
  <defs
     id="defs8693" />
  <metadata
     id="metadata8696">
    <rdf:RDF>
      <cc:Work
         rdf:about="">
        <dc:format>image/svg+xml</dc:format>
        <dc:type
           rdf:resource="http://purl.org/dc/dcmitype/StillImage" />
        <dc:title />
        <cc:license
           rdf:resource="http://creativecommons.org/publicdomain/zero/1.0/" />
      </cc:Work>
      <cc:License
         rdf:about="http://creativecommons.org/publicdomain/zero/1.0/">
        <cc:permits
           rdf:resource="http://creativecommons.org/ns#Reproduction" />
        <cc:permits
           rdf:resource="http://creativecommons.org/ns#Distribution" />
        <cc:permits
           rdf:resource="http://creativecommons.org/ns#DerivativeWorks" />
      </cc:License>
    </rdf:RDF>
  </metadata>
  <g
     transform="translate(-210.0031,-630.00015)"
     id="layer1">
    <g
       id="diamond2">
      <rect
         rx="14.999998"
         ry="14.999999"
         y="-639.39313"
         x="210.49913"
         height="314.004"
         width="209.00395"
         id="rect10901"
         style="opacity:1;fill:#fdfeee;fill-opacity:1;stroke:#000000;stroke-width:0.9960472;stroke-linecap:butt;stroke-linejoin:round;stroke-miterlimit:4;stroke-dasharray:none;stroke-opacity:1" />
      <rect
         y="-564.39362"
         x="265.4986"
         height="164.00497"
         width="99.004982"
         id="rect10903"
         style="opacity:1;fill:none;fill-opacity:1;stroke:#000000;stroke-width:0.99502754;stroke-linecap:butt;stroke-linejoin:round;stroke-miterlimit:4;stroke-dasharray:none;stroke-opacity:1" />
      <text
         xml:space="preserve"
         style="color:#000000;font-style:normal;font-variant:normal;font-weight:normal;font-stretch:normal;font-size:52.50000381px;line-height:125%;font-family:Arial;-inkscape-font-specification:'Arial, Normal';text-indent:0;text-align:start;text-decoration:none;text-decoration-line:none;text-decoration-style:solid;text-decoration-color:#000000;letter-spacing:0px;word-spacing:0px;text-transform:none;direction:ltr;block-progression:tb;writing-mode:lr-tb;baseline-shift:baseline;text-anchor:start;white-space:normal;clip-rule:nonzero;display:inline;overflow:visible;visibility:visible;opacity:1;isolation:auto;mix-blend-mode:normal;color-interpolation:sRGB;color-interpolation-filters:linearRGB;solid-color:#000000;solid-opacity:1;fill:#fe0000;fill-opacity:1;fill-rule:nonzero;stroke:#000000;stroke-width:1px;stroke-linecap:butt;stroke-linejoin:miter;stroke-miterlimit:4;stroke-dasharray:none;stroke-dashoffset:0;stroke-opacity:1;color-rendering:auto;image-rendering:auto;shape-rendering:auto;text-rendering:auto;enable-background:accumulate"
         x="211.75407"
         y="-621.81659"
         id="text18454-0"
         transform="scale(1.0396186,0.96189122)"><tspan
           id="tspan18456-5"
           x="211.75407"
           y="-621.81659">2</tspan></text>
      <text
         xml:space="preserve"
         style="color:#000000;font-style:normal;font-variant:normal;font-weight:normal;font-stretch:normal;font-size:52.50000381px;line-height:125%;font-family:Arial;-inkscape-font-specification:'Arial, Normal';text-indent:0;text-align:start;text-decoration:none;text-decoration-line:none;text-decoration-style:solid;text-decoration-color:#000000;letter-spacing:0px;word-spacing:0px;text-transform:none;direction:ltr;block-progression:tb;writing-mode:lr-tb;baseline-shift:baseline;text-anchor:start;white-space:normal;clip-rule:nonzero;display:inline;overflow:visible;visibility:visible;opacity:1;isolation:auto;mix-blend-mode:normal;color-interpolation:sRGB;color-interpolation-filters:linearRGB;solid-color:#000000;solid-opacity:1;fill:#fe0000;fill-opacity:1;fill-rule:nonzero;stroke:#000000;stroke-width:1px;stroke-linecap:butt;stroke-linejoin:miter;stroke-miterlimit:4;stroke-dasharray:none;stroke-dashoffset:0;stroke-opacity:1;color-rendering:auto;image-rendering:auto;shape-rendering:auto;text-rendering:auto;enable-background:accumulate"
         x="-405.53973"
         y="370.12546"
         id="text19309-2"
         transform="scale(-1,-1)"><tspan
           id="tspan19311-5"
           x="-405.53973"
           y="370.12546">2</tspan></text>
      <path
         d="m 322.0651,-550.56773 c -4.61086,-4.8098 -7.06401,-9.69798 -7.06401,-9.69798 0,0 -2.45315,4.88818 -7.06401,9.69798 -4.61302,4.80811 -10.36008,7.9357 -10.36008,7.9357 0,0 5.74706,3.12592 10.36008,7.93739 4.61086,4.80812 7.06401,9.6963 7.06401,9.6963 0,0 2.45315,-4.88818 7.06401,-9.6963 4.61302,-4.81147 10.36008,-7.93739 10.36008,-7.93739 0,0 -5.74706,-3.12759 -10.36008,-7.9357 z"
         id="use21279"
         style="fill:#fe0000;fill-opacity:1;stroke:#000000;stroke-width:0.46713534;stroke-miterlimit:4;stroke-dasharray:none;stroke-opacity:1" />
      <path
         d="m 307.93708,-416.15255 c 4.61086,4.8098 7.06401,9.69798 7.06401,9.69798 0,0 2.45315,-4.88818 7.06401,-9.69798 4.61302,-4.80811 10.36008,-7.9357 10.36008,-7.9357 0,0 -5.74706,-3.12592 -10.36008,-7.93739 -4.61086,-4.80812 -7.06401,-9.6963 -7.06401,-9.6963 0,0 -2.45315,4.88818 -7.06401,9.6963 -4.61302,4.81147 -10.36008,7.93739 -10.36008,7.93739 0,0 5.74706,3.12759 10.36008,7.9357 z"
         id="use21283"
         style="fill:#fe0000;fill-opacity:1;stroke:#000000;stroke-width:0.46713534;stroke-miterlimit:4;stroke-dasharray:none;stroke-opacity:1" />
      <path
         d="m 280.60564,-623.55992 c -5.12221,-5.34525 -7.84742,-10.7776 -7.84742,-10.7776 0,0 -2.72521,5.43235 -7.84742,10.7776 -5.12462,5.34336 -11.50904,8.81913 -11.50904,8.81913 0,0 6.38442,3.47389 11.50904,8.821 5.12221,5.34337 7.84742,10.77572 7.84742,10.77572 0,0 2.72521,-5.43235 7.84742,-10.77572 5.12462,-5.34711 11.50904,-8.821 11.50904,-8.821 0,0 -6.38442,-3.47577 -11.50904,-8.81913 z"
         id="use7750"
         style="fill:#fe0000;fill-opacity:1;stroke:#000000;stroke-width:0.51903999;stroke-miterlimit:4;stroke-dasharray:none;stroke-opacity:1" />
      <path
         d="m 345.58251,-343.24745 c 5.12221,5.34525 7.84742,10.7776 7.84742,10.7776 0,0 2.72521,-5.43235 7.84742,-10.7776 5.12462,-5.34336 11.50904,-8.81913 11.50904,-8.81913 0,0 -6.38442,-3.47389 -11.50904,-8.821 -5.12221,-5.34337 -7.84742,-10.77572 -7.84742,-10.77572 0,0 -2.72521,5.43235 -7.84742,10.77572 -5.12462,5.34711 -11.50904,8.821 -11.50904,8.821 0,0 6.38442,3.47577 11.50904,8.81913 z"
         id="use7752"
         style="fill:#fe0000;fill-opacity:1;stroke:#000000;stroke-width:0.51903999;stroke-miterlimit:4;stroke-dasharray:none;stroke-opacity:1" />
    </g>
  </g>
</svg>
