<?xml version="1.0" encoding="UTF-8" standalone="no"?>
<svg
   xmlns:dc="http://purl.org/dc/elements/1.1/"
   xmlns:cc="http://creativecommons.org/ns#"
   xmlns:rdf="http://www.w3.org/1999/02/22-rdf-syntax-ns#"
   xmlns:svg="http://www.w3.org/2000/svg"
   xmlns="http://www.w3.org/2000/svg"
   version="1.1"
   id="svg8691"
   viewBox="0 0 210.00001 315.00005"
   height="315.00003"
   width="210">
  <defs
     id="defs8693" />
  <metadata
     id="metadata8696">
    <rdf:RDF>
      <cc:Work
         rdf:about="">
        <dc:format>image/svg+xml</dc:format>
        <dc:type
           rdf:resource="http://purl.org/dc/dcmitype/StillImage" />
        <dc:title />
        <cc:license
           rdf:resource="http://creativecommons.org/publicdomain/zero/1.0/" />
      </cc:Work>
      <cc:License
         rdf:about="http://creativecommons.org/publicdomain/zero/1.0/">
        <cc:permits
           rdf:resource="http://creativecommons.org/ns#Reproduction" />
        <cc:permits
           rdf:resource="http://creativecommons.org/ns#Distribution" />
        <cc:permits
           rdf:resource="http://creativecommons.org/ns#DerivativeWorks" />
      </cc:License>
    </rdf:RDF>
  </metadata>
  <g
     transform="translate(-1680.0034,-315.00011)"
     id="layer1">
    <g
       id="heart9">
      <rect
         rx="14.999998"
         ry="14.999999"
         y="-324.39313"
         x="1680.4991"
         height="314.004"
         width="209.00395"
         id="rect11075"
         style="opacity:1;fill:#fdfeee;fill-opacity:1;stroke:#000000;stroke-width:0.9960472;stroke-linecap:butt;stroke-linejoin:round;stroke-miterlimit:4;stroke-dasharray:none;stroke-opacity:1" />
      <rect
         y="-249.3936"
         x="1735.4987"
         height="164.00497"
         width="99.004982"
         id="rect11077"
         style="opacity:1;fill:none;fill-opacity:1;stroke:#000000;stroke-width:0.99502754;stroke-linecap:butt;stroke-linejoin:round;stroke-miterlimit:4;stroke-dasharray:none;stroke-opacity:1" />
      <path
         style="fill:#fe0000;fill-opacity:1;stroke:#000000;stroke-width:0.51776618;stroke-miterlimit:4;stroke-dasharray:none;stroke-opacity:1"
         id="use17024"
         d="m 1754.7282,-317.52658 c -8.2494,0 -9.3508,7.73585 -9.3508,7.73585 0,0 -1.1015,-7.73585 -9.3509,-7.73585 -5.7743,0 -10.9991,3.46856 -10.9991,10.01189 0,8.64581 16.7357,17.34017 20.35,30.03565 3.4392,-12.68484 20.35,-21.38984 20.35,-30.03565 0,-6.54333 -5.2249,-10.01189 -10.9992,-10.01189 z" />
      <path
         style="fill:#fe0000;fill-opacity:1;stroke:#000000;stroke-width:0.51776618;stroke-miterlimit:4;stroke-dasharray:none;stroke-opacity:1"
         id="use17026"
         d="m 1816.8269,-17.150038 c 8.2494,0 9.3508,-7.735846 9.3508,-7.735846 0,0 1.1015,7.735846 9.3509,7.735846 5.7743,0 10.9991,-3.468562 10.9991,-10.011889 0,-8.645809 -16.7357,-17.340167 -20.35,-30.035645 -3.4392,12.684839 -20.35,21.389836 -20.35,30.035645 0,6.543327 5.2249,10.011889 10.9992,10.011889 z" />
      <text
         xml:space="preserve"
         style="color:#000000;font-style:normal;font-variant:normal;font-weight:normal;font-stretch:normal;font-size:52.50000381px;line-height:125%;font-family:Arial;-inkscape-font-specification:'Arial, Normal';text-indent:0;text-align:start;text-decoration:none;text-decoration-line:none;text-decoration-style:solid;text-decoration-color:#000000;letter-spacing:0px;word-spacing:0px;text-transform:none;direction:ltr;block-progression:tb;writing-mode:lr-tb;baseline-shift:baseline;text-anchor:start;white-space:normal;clip-rule:nonzero;display:inline;overflow:visible;visibility:visible;opacity:1;isolation:auto;mix-blend-mode:normal;color-interpolation:sRGB;color-interpolation-filters:linearRGB;solid-color:#000000;solid-opacity:1;fill:#fe0000;fill-opacity:1;fill-rule:nonzero;stroke:#000000;stroke-width:1px;stroke-linecap:butt;stroke-linejoin:miter;stroke-miterlimit:4;stroke-dasharray:none;stroke-dashoffset:0;stroke-opacity:1;color-rendering:auto;image-rendering:auto;shape-rendering:auto;text-rendering:auto;enable-background:accumulate"
         x="1626.408"
         y="-292.12149"
         id="text18482-7"
         transform="scale(1.0396186,0.96189122)"><tspan
           id="tspan18484-2"
           x="1626.408"
           y="-292.12149">9</tspan></text>
      <text
         xml:space="preserve"
         style="color:#000000;font-style:normal;font-variant:normal;font-weight:normal;font-stretch:normal;font-size:52.50000381px;line-height:125%;font-family:Arial;-inkscape-font-specification:'Arial, Normal';text-indent:0;text-align:start;text-decoration:none;text-decoration-line:none;text-decoration-style:solid;text-decoration-color:#000000;letter-spacing:0px;word-spacing:0px;text-transform:none;direction:ltr;block-progression:tb;writing-mode:lr-tb;baseline-shift:baseline;text-anchor:start;white-space:normal;clip-rule:nonzero;display:inline;overflow:visible;visibility:visible;opacity:1;isolation:auto;mix-blend-mode:normal;color-interpolation:sRGB;color-interpolation-filters:linearRGB;solid-color:#000000;solid-opacity:1;fill:#fe0000;fill-opacity:1;fill-rule:nonzero;stroke:#000000;stroke-width:1px;stroke-linecap:butt;stroke-linejoin:miter;stroke-miterlimit:4;stroke-dasharray:none;stroke-dashoffset:0;stroke-opacity:1;color-rendering:auto;image-rendering:auto;shape-rendering:auto;text-rendering:auto;enable-background:accumulate"
         x="-1875.8252"
         y="55.125534"
         id="text19337-7"
         transform="scale(-1.0000001,-0.9999999)"><tspan
           id="tspan19339-6"
           x="-1875.8252"
           y="55.125534">9</tspan></text>
      <path
         style="fill:#fe0000;fill-opacity:1;stroke:#000000;stroke-width:0.45191953;stroke-miterlimit:4;stroke-dasharray:none;stroke-opacity:1"
         id="use21663"
         d="m 1764.3728,-205.58061 c -7.2051,0 -8.1671,6.74747 -8.1671,6.74747 0,0 -0.9621,-6.74747 -8.1672,-6.74747 -5.0434,0 -9.6069,3.0254 -9.6069,8.73272 0,7.54118 14.6173,15.1247 17.7741,26.19815 3.0038,-11.06417 17.774,-18.65697 17.774,-26.19815 0,-5.70732 -4.5635,-8.73272 -9.6069,-8.73272 z" />
      <path
         style="fill:#fe0000;fill-opacity:1;stroke:#000000;stroke-width:0.45191953;stroke-miterlimit:4;stroke-dasharray:none;stroke-opacity:1"
         id="use21665"
         d="m 1748.0379,-129.70928 c 7.2051,0 8.1671,-6.74748 8.1671,-6.74748 0,0 0.9621,6.74748 8.1672,6.74748 5.0434,0 9.6069,-3.0254 9.6069,-8.73272 0,-7.54118 -14.6173,-15.12471 -17.7741,-26.19816 -3.0038,11.06417 -17.774,18.65698 -17.774,26.19816 0,5.70732 4.5635,8.73272 9.6069,8.73272 z" />
      <path
         style="fill:#fe0000;fill-opacity:1;stroke:#000000;stroke-width:0.45191953;stroke-miterlimit:4;stroke-dasharray:none;stroke-opacity:1"
         id="use21679"
         d="m 1793.1685,-185.16537 c -7.2051,0 -8.1671,6.74748 -8.1671,6.74748 0,0 -0.9621,-6.74748 -8.1672,-6.74748 -5.0434,0 -9.6069,3.0254 -9.6069,8.73272 0,7.54118 14.6173,15.12471 17.7741,26.19816 3.0038,-11.06417 17.774,-18.65698 17.774,-26.19816 0,-5.70732 -4.5635,-8.73272 -9.6069,-8.73272 z" />
      <path
         style="fill:#fe0000;fill-opacity:1;stroke:#000000;stroke-width:0.45191953;stroke-miterlimit:4;stroke-dasharray:none;stroke-opacity:1"
         id="use21681"
         d="m 1748.0379,-89.729662 c 7.2051,0 8.1671,-6.747478 8.1671,-6.747478 0,0 0.9621,6.747478 8.1672,6.747478 5.0434,0 9.6069,-3.025401 9.6069,-8.732722 0,-7.541176 -14.6173,-15.124706 -17.7741,-26.198156 -3.0038,11.06417 -17.774,18.65698 -17.774,26.198156 0,5.707321 4.5635,8.732722 9.6069,8.732722 z" />
      <path
         style="fill:#fe0000;fill-opacity:1;stroke:#000000;stroke-width:0.45191953;stroke-miterlimit:4;stroke-dasharray:none;stroke-opacity:1"
         id="use21683"
         d="m 1805.7219,-89.729662 c 7.2051,0 8.1671,-6.747478 8.1671,-6.747478 0,0 0.9621,6.747478 8.1672,6.747478 5.0434,0 9.6069,-3.025401 9.6069,-8.732722 0,-7.541176 -14.6173,-15.124706 -17.7741,-26.198156 -3.0038,11.06417 -17.774,18.65698 -17.774,26.198156 0,5.707321 4.5635,8.732722 9.6069,8.732722 z" />
      <path
         style="fill:#fe0000;fill-opacity:1;stroke:#000000;stroke-width:0.45191953;stroke-miterlimit:4;stroke-dasharray:none;stroke-opacity:1"
         id="use21697"
         d="m 1822.0567,-245.90336 c -7.2051,0 -8.1671,6.74748 -8.1671,6.74748 0,0 -0.9621,-6.74748 -8.1672,-6.74748 -5.0434,0 -9.6069,3.02541 -9.6069,8.73273 0,7.54118 14.6173,15.1247 17.7741,26.19815 3.0038,-11.06417 17.774,-18.65697 17.774,-26.19815 0,-5.70732 -4.5635,-8.73273 -9.6069,-8.73273 z" />
      <path
         style="fill:#fe0000;fill-opacity:1;stroke:#000000;stroke-width:0.45191953;stroke-miterlimit:4;stroke-dasharray:none;stroke-opacity:1"
         id="use21699"
         d="m 1822.0567,-205.69499 c -7.2051,0 -8.1671,6.74747 -8.1671,6.74747 0,0 -0.9621,-6.74747 -8.1672,-6.74747 -5.0434,0 -9.6069,3.0254 -9.6069,8.73272 0,7.54118 14.6173,15.1247 17.7741,26.19815 3.0038,-11.06417 17.774,-18.65697 17.774,-26.19815 0,-5.70732 -4.5635,-8.73272 -9.6069,-8.73272 z" />
      <path
         style="fill:#fe0000;fill-opacity:1;stroke:#000000;stroke-width:0.45191953;stroke-miterlimit:4;stroke-dasharray:none;stroke-opacity:1"
         id="use21713"
         d="m 1805.7219,-129.93805 c 7.2051,0 8.1671,-6.74748 8.1671,-6.74748 0,0 0.9621,6.74748 8.1672,6.74748 5.0434,0 9.6069,-3.0254 9.6069,-8.73272 0,-7.54118 -14.6173,-15.12471 -17.7741,-26.19816 -3.0038,11.06417 -17.774,18.65698 -17.774,26.19816 0,5.70732 4.5635,8.73272 9.6069,8.73272 z" />
      <path
         style="fill:#fe0000;fill-opacity:1;stroke:#000000;stroke-width:0.45191953;stroke-miterlimit:4;stroke-dasharray:none;stroke-opacity:1"
         id="use21715"
         d="m 1764.3728,-245.90336 c -7.2051,0 -8.1671,6.74748 -8.1671,6.74748 0,0 -0.9621,-6.74748 -8.1672,-6.74748 -5.0434,0 -9.6069,3.02541 -9.6069,8.73273 0,7.54118 14.6173,15.1247 17.7741,26.19815 3.0038,-11.06417 17.774,-18.65697 17.774,-26.19815 0,-5.70732 -4.5635,-8.73273 -9.6069,-8.73273 z" />
    </g>
  </g>
</svg>
