<?xml version="1.0" encoding="UTF-8" standalone="no"?>
<!-- Created with Inkscape (http://www.inkscape.org/) -->

<svg
   width="210"
   height="315.00003"
   viewBox="0 0 210.00001 315.00005"
   id="svg8691"
   version="1.1"
   xmlns="http://www.w3.org/2000/svg"
   xmlns:svg="http://www.w3.org/2000/svg"
   xmlns:rdf="http://www.w3.org/1999/02/22-rdf-syntax-ns#"
   xmlns:cc="http://creativecommons.org/ns#"
   xmlns:dc="http://purl.org/dc/elements/1.1/">
  <defs
     id="defs8693" />
  <metadata
     id="metadata8696">
    <rdf:RDF>
      <cc:Work
         rdf:about="">
        <dc:format>image/svg+xml</dc:format>
        <dc:type
           rdf:resource="http://purl.org/dc/dcmitype/StillImage" />
        <cc:license
           rdf:resource="http://creativecommons.org/publicdomain/zero/1.0/" />
      </cc:Work>
      <cc:License
         rdf:about="http://creativecommons.org/publicdomain/zero/1.0/">
        <cc:permits
           rdf:resource="http://creativecommons.org/ns#Reproduction" />
        <cc:permits
           rdf:resource="http://creativecommons.org/ns#Distribution" />
        <cc:permits
           rdf:resource="http://creativecommons.org/ns#DerivativeWorks" />
      </cc:License>
    </rdf:RDF>
  </metadata>
  <g
     id="layer1"
     transform="translate(-840.00112,324.89115)">
    <g
       id="heart5">
      <rect
         style="opacity:1;fill:#fdfeee;fill-opacity:1;stroke:#000000;stroke-width:0.996047;stroke-linecap:butt;stroke-linejoin:round;stroke-miterlimit:4;stroke-dasharray:none;stroke-opacity:1"
         id="rect10979"
         width="209.00395"
         height="314.004"
         x="840.49915"
         y="-324.39313"
         ry="14.999999"
         rx="14.999998" />
      <rect
         style="opacity:1;fill:none;fill-opacity:1;stroke:#000000;stroke-width:0.995028;stroke-linecap:butt;stroke-linejoin:round;stroke-miterlimit:4;stroke-dasharray:none;stroke-opacity:1"
         id="rect10981"
         width="99.004982"
         height="164.00497"
         x="895.4986"
         y="-249.3936" />
      <path
         d="m 910.72818,-316.88548 c -8.24939,0 -9.35084,7.73585 -9.35084,7.73585 0,0 -1.10144,-7.73585 -9.35083,-7.73585 -5.77432,0 -10.99919,3.46856 -10.99919,10.01189 0,8.64581 16.73574,17.34017 20.35002,30.03565 3.43919,-12.68484 20.35002,-21.38984 20.35002,-30.03565 0,-6.54333 -5.22487,-10.01189 -10.99918,-10.01189 z"
         id="use17008"
         style="fill:#fe0000;fill-opacity:1;stroke:#000000;stroke-width:0.517766;stroke-miterlimit:4;stroke-dasharray:none;stroke-opacity:1" />
      <path
         d="m 975.40833,-17.150034 c 8.2494,0 9.3508,-7.735846 9.3508,-7.735846 0,0 1.1015,7.735846 9.3509,7.735846 5.7743,0 10.99907,-3.468562 10.99907,-10.011889 0,-8.645809 -16.73567,-17.340167 -20.34997,-30.035645 -3.4392,12.684839 -20.35,21.389836 -20.35,30.035645 0,6.543327 5.2249,10.011889 10.9992,10.011889 z"
         id="use17010"
         style="fill:#fe0000;fill-opacity:1;stroke:#000000;stroke-width:0.517766;stroke-miterlimit:4;stroke-dasharray:none;stroke-opacity:1" />
      <text
         transform="scale(1.0396186,0.96189122)"
         id="text18466-2"
         y="-292.12149"
         x="817.32446"
         style="color:#000000;font-style:normal;font-variant:normal;font-weight:normal;font-stretch:normal;line-height:0%;font-family:Arial;-inkscape-font-specification:'Arial, Normal';text-indent:0;text-align:start;text-decoration:none;text-decoration-line:none;text-decoration-style:solid;text-decoration-color:#000000;letter-spacing:0px;word-spacing:0px;text-transform:none;writing-mode:lr-tb;direction:ltr;baseline-shift:baseline;text-anchor:start;white-space:normal;clip-rule:nonzero;display:inline;overflow:visible;visibility:visible;opacity:1;isolation:auto;mix-blend-mode:normal;color-interpolation:sRGB;color-interpolation-filters:linearRGB;solid-color:#000000;solid-opacity:1;fill:#fe0000;fill-opacity:1;fill-rule:nonzero;stroke:#000000;stroke-width:1px;stroke-linecap:butt;stroke-linejoin:miter;stroke-miterlimit:4;stroke-dasharray:none;stroke-dashoffset:0;stroke-opacity:1;color-rendering:auto;image-rendering:auto;shape-rendering:auto;text-rendering:auto;enable-background:accumulate"
         xml:space="preserve"><tspan
           y="-292.12149"
           x="817.32446"
           id="tspan18468-57"
           style="font-size:52.5px;line-height:1.25">5</tspan></text>
      <text
         transform="scale(-1.0000001)"
         id="text19321-6"
         y="54.459026"
         x="-1035.5636"
         style="color:#000000;font-style:normal;font-variant:normal;font-weight:normal;font-stretch:normal;line-height:0%;font-family:Arial;-inkscape-font-specification:'Arial, Normal';text-indent:0;text-align:start;text-decoration:none;text-decoration-line:none;text-decoration-style:solid;text-decoration-color:#000000;letter-spacing:0px;word-spacing:0px;text-transform:none;writing-mode:lr-tb;direction:ltr;baseline-shift:baseline;text-anchor:start;white-space:normal;clip-rule:nonzero;display:inline;overflow:visible;visibility:visible;opacity:1;isolation:auto;mix-blend-mode:normal;color-interpolation:sRGB;color-interpolation-filters:linearRGB;solid-color:#000000;solid-opacity:1;fill:#fe0000;fill-opacity:1;fill-rule:nonzero;stroke:#000000;stroke-width:1px;stroke-linecap:butt;stroke-linejoin:miter;stroke-miterlimit:4;stroke-dasharray:none;stroke-dashoffset:0;stroke-opacity:1;color-rendering:auto;image-rendering:auto;shape-rendering:auto;text-rendering:auto;enable-background:accumulate"
         xml:space="preserve"><tspan
           y="54.459026"
           x="-1035.5636"
           id="tspan19323-2"
           style="font-size:52.5px;line-height:1.25">5</tspan></text>
      <path
         d="m 924.63404,-245.59203 c -7.20515,0 -8.16717,6.74748 -8.16717,6.74748 0,0 -0.96202,-6.74748 -8.16717,-6.74748 -5.04338,0 -9.60687,3.02541 -9.60687,8.73273 0,7.54118 14.61726,15.1247 17.77404,26.19815 3.00384,-11.06417 17.77404,-18.65697 17.77404,-26.19815 0,-5.70732 -4.56349,-8.73273 -9.60687,-8.73273 z"
         id="use21701"
         style="fill:#fe0000;fill-opacity:1;stroke:#000000;stroke-width:0.45192;stroke-miterlimit:4;stroke-dasharray:none;stroke-opacity:1" />
      <path
         d="m 908.29918,-90.820362 c 7.20515,0 8.16717,-6.747478 8.16717,-6.747478 0,0 0.96202,6.747478 8.16717,6.747478 5.04338,0 9.60687,-3.025401 9.60687,-8.732722 0,-7.541176 -14.61726,-15.124706 -17.77404,-26.198156 -3.00384,11.06417 -17.77404,18.65698 -17.77404,26.198156 0,5.707321 4.56349,8.732722 9.60687,8.732722 z"
         id="use21705"
         style="fill:#fe0000;fill-opacity:1;stroke:#000000;stroke-width:0.45192;stroke-miterlimit:4;stroke-dasharray:none;stroke-opacity:1" />
      <path
         d="m 980.16032,-245.59203 c -7.20515,0 -8.16717,6.74748 -8.16717,6.74748 0,0 -0.96202,-6.74748 -8.16717,-6.74748 -5.04338,0 -9.60687,3.02541 -9.60687,8.73273 0,7.54118 14.61726,15.1247 17.77404,26.19815 3.00384,-11.06417 17.77404,-18.65697 17.77404,-26.19815 0,-5.70732 -4.56349,-8.73273 -9.60687,-8.73273 z"
         id="use21721"
         style="fill:#fe0000;fill-opacity:1;stroke:#000000;stroke-width:0.45192;stroke-miterlimit:4;stroke-dasharray:none;stroke-opacity:1" />
      <path
         d="m 963.82538,-90.820362 c 7.20515,0 8.16717,-6.747478 8.16717,-6.747478 0,0 0.96202,6.747478 8.16717,6.747478 5.04338,0 9.60687,-3.025401 9.60687,-8.732722 0,-7.541176 -14.61726,-15.124706 -17.77404,-26.198156 -3.00384,11.06417 -17.77404,18.65698 -17.77404,26.198156 0,5.707321 4.56349,8.732722 9.60687,8.732722 z"
         id="use21723"
         style="fill:#fe0000;fill-opacity:1;stroke:#000000;stroke-width:0.45192;stroke-miterlimit:4;stroke-dasharray:none;stroke-opacity:1" />
      <path
         d="m 953.16854,-185.16538 c -7.20515,0 -8.16717,6.74748 -8.16717,6.74748 0,0 -0.96202,-6.74748 -8.16717,-6.74748 -5.04338,0 -9.60687,3.0254 -9.60687,8.73273 0,7.54117 14.61726,15.1247 17.77404,26.19815 3.00384,-11.06417 17.77404,-18.65698 17.77404,-26.19815 0,-5.70733 -4.56349,-8.73273 -9.60687,-8.73273 z"
         id="use21747"
         style="fill:#fe0000;fill-opacity:1;stroke:#000000;stroke-width:0.45192;stroke-miterlimit:4;stroke-dasharray:none;stroke-opacity:1" />
    </g>
  </g>
</svg>
