<?xml version="1.0" encoding="UTF-8" standalone="no"?>
<svg
   xmlns:dc="http://purl.org/dc/elements/1.1/"
   xmlns:cc="http://creativecommons.org/ns#"
   xmlns:rdf="http://www.w3.org/1999/02/22-rdf-syntax-ns#"
   xmlns:svg="http://www.w3.org/2000/svg"
   xmlns="http://www.w3.org/2000/svg"
   version="1.1"
   id="svg8691"
   viewBox="0 0 210.00001 315.00005"
   height="315.00003"
   width="210">
  <defs
     id="defs8693" />
  <metadata
     id="metadata8696">
    <rdf:RDF>
      <cc:Work
         rdf:about="">
        <dc:format>image/svg+xml</dc:format>
        <dc:type
           rdf:resource="http://purl.org/dc/dcmitype/StillImage" />
        <dc:title />
        <cc:license
           rdf:resource="http://creativecommons.org/publicdomain/zero/1.0/" />
      </cc:Work>
      <cc:License
         rdf:about="http://creativecommons.org/publicdomain/zero/1.0/">
        <cc:permits
           rdf:resource="http://creativecommons.org/ns#Reproduction" />
        <cc:permits
           rdf:resource="http://creativecommons.org/ns#Distribution" />
        <cc:permits
           rdf:resource="http://creativecommons.org/ns#DerivativeWorks" />
      </cc:License>
    </rdf:RDF>
  </metadata>
  <g
     transform="translate(-630.00319,-315.00011)"
     id="layer1">
    <g
       id="heart4">
      <rect
         rx="14.999998"
         ry="14.999999"
         y="-324.39313"
         x="630.49915"
         height="314.004"
         width="209.00395"
         id="rect10955"
         style="opacity:1;fill:#fdfeee;fill-opacity:1;stroke:#000000;stroke-width:0.9960472;stroke-linecap:butt;stroke-linejoin:round;stroke-miterlimit:4;stroke-dasharray:none;stroke-opacity:1" />
      <rect
         y="-249.3936"
         x="685.49866"
         height="164.00497"
         width="99.004982"
         id="rect10957"
         style="opacity:1;fill:none;fill-opacity:1;stroke:#000000;stroke-width:0.99502754;stroke-linecap:butt;stroke-linejoin:round;stroke-miterlimit:4;stroke-dasharray:none;stroke-opacity:1" />
      <path
         style="fill:#fe0000;fill-opacity:1;stroke:#000000;stroke-width:0.51776618;stroke-miterlimit:4;stroke-dasharray:none;stroke-opacity:1"
         id="use17004"
         d="m 700.97659,-316.78062 c -8.24939,0 -9.35084,7.73585 -9.35084,7.73585 0,0 -1.10144,-7.73585 -9.35083,-7.73585 -5.77432,0 -10.99919,3.46856 -10.99919,10.01189 0,8.64581 16.73574,17.34017 20.35002,30.03565 3.43919,-12.68484 20.35002,-21.38984 20.35002,-30.03565 0,-6.54333 -5.22487,-10.01189 -10.99918,-10.01189 z" />
      <path
         style="fill:#fe0000;fill-opacity:1;stroke:#000000;stroke-width:0.51776618;stroke-miterlimit:4;stroke-dasharray:none;stroke-opacity:1"
         id="use17006"
         d="m 763.99168,-17.150034 c 8.24939,0 9.35084,-7.735846 9.35084,-7.735846 0,0 1.10144,7.735846 9.35083,7.735846 5.77432,0 10.99919,-3.468562 10.99919,-10.011889 0,-8.645809 -16.73574,-17.340167 -20.35002,-30.035645 -3.43919,12.684839 -20.35002,21.389836 -20.35002,30.035645 0,6.543327 5.22487,10.011889 10.99918,10.011889 z" />
      <text
         xml:space="preserve"
         style="color:#000000;font-style:normal;font-variant:normal;font-weight:normal;font-stretch:normal;font-size:52.50000381px;line-height:125%;font-family:Arial;-inkscape-font-specification:'Arial, Normal';text-indent:0;text-align:start;text-decoration:none;text-decoration-line:none;text-decoration-style:solid;text-decoration-color:#000000;letter-spacing:0px;word-spacing:0px;text-transform:none;direction:ltr;block-progression:tb;writing-mode:lr-tb;baseline-shift:baseline;text-anchor:start;white-space:normal;clip-rule:nonzero;display:inline;overflow:visible;visibility:visible;opacity:1;isolation:auto;mix-blend-mode:normal;color-interpolation:sRGB;color-interpolation-filters:linearRGB;solid-color:#000000;solid-opacity:1;fill:#fe0000;fill-opacity:1;fill-rule:nonzero;stroke:#000000;stroke-width:1px;stroke-linecap:butt;stroke-linejoin:miter;stroke-miterlimit:4;stroke-dasharray:none;stroke-dashoffset:0;stroke-opacity:1;color-rendering:auto;image-rendering:auto;shape-rendering:auto;text-rendering:auto;enable-background:accumulate"
         x="616.02338"
         y="-291.49979"
         id="text18462-9"
         transform="scale(1.0396186,0.96189122)"><tspan
           id="tspan18464-4"
           x="616.02338"
           y="-291.49979">4</tspan></text>
      <text
         xml:space="preserve"
         style="color:#000000;font-style:normal;font-variant:normal;font-weight:normal;font-stretch:normal;font-size:52.50000381px;line-height:125%;font-family:Arial;-inkscape-font-specification:'Arial, Normal';text-indent:0;text-align:start;text-decoration:none;text-decoration-line:none;text-decoration-style:solid;text-decoration-color:#000000;letter-spacing:0px;word-spacing:0px;text-transform:none;direction:ltr;block-progression:tb;writing-mode:lr-tb;baseline-shift:baseline;text-anchor:start;white-space:normal;clip-rule:nonzero;display:inline;overflow:visible;visibility:visible;opacity:1;isolation:auto;mix-blend-mode:normal;color-interpolation:sRGB;color-interpolation-filters:linearRGB;solid-color:#000000;solid-opacity:1;fill:#fe0000;fill-opacity:1;fill-rule:nonzero;stroke:#000000;stroke-width:1px;stroke-linecap:butt;stroke-linejoin:miter;stroke-miterlimit:4;stroke-dasharray:none;stroke-dashoffset:0;stroke-opacity:1;color-rendering:auto;image-rendering:auto;shape-rendering:auto;text-rendering:auto;enable-background:accumulate"
         x="-825.01129"
         y="54.971722"
         id="text19317-4"
         transform="scale(-1.0000001,-0.9999999)"><tspan
           id="tspan19319-2"
           x="-825.01129"
           y="54.971722">4</tspan></text>
      <path
         style="fill:#fe0000;fill-opacity:1;stroke:#000000;stroke-width:0.45191953;stroke-miterlimit:4;stroke-dasharray:none;stroke-opacity:1"
         id="use21667"
         d="m 715.67421,-245.94557 c -7.20515,0 -8.16717,6.74747 -8.16717,6.74747 0,0 -0.96202,-6.74747 -8.16717,-6.74747 -5.04338,0 -9.60687,3.0254 -9.60687,8.73272 0,7.54118 14.61726,15.1247 17.77404,26.19815 3.00384,-11.06417 17.77404,-18.65697 17.77404,-26.19815 0,-5.70732 -4.56349,-8.73272 -9.60687,-8.73272 z" />
      <path
         style="fill:#fe0000;fill-opacity:1;stroke:#000000;stroke-width:0.45191953;stroke-miterlimit:4;stroke-dasharray:none;stroke-opacity:1"
         id="use21669"
         d="m 699.33928,-90.123662 c 7.20515,0 8.16717,-6.747478 8.16717,-6.747478 0,0 0.96202,6.747478 8.16717,6.747478 5.04338,0 9.60687,-3.025401 9.60687,-8.732722 0,-7.541176 -14.61726,-15.124706 -17.77404,-26.198156 -3.00384,11.06417 -17.77404,18.65698 -17.77404,26.198156 0,5.707321 4.56349,8.732722 9.60687,8.732722 z" />
      <path
         style="fill:#fe0000;fill-opacity:1;stroke:#000000;stroke-width:0.45191953;stroke-miterlimit:4;stroke-dasharray:none;stroke-opacity:1"
         id="use21685"
         d="m 769.59912,-245.94557 c -7.20515,0 -8.16717,6.74747 -8.16717,6.74747 0,0 -0.96202,-6.74747 -8.16717,-6.74747 -5.04338,0 -9.60687,3.0254 -9.60687,8.73272 0,7.54118 14.61726,15.1247 17.77404,26.19815 3.00384,-11.06417 17.77404,-18.65697 17.77404,-26.19815 0,-5.70732 -4.56349,-8.73272 -9.60687,-8.73272 z" />
      <path
         style="fill:#fe0000;fill-opacity:1;stroke:#000000;stroke-width:0.45191953;stroke-miterlimit:4;stroke-dasharray:none;stroke-opacity:1"
         id="use21687"
         d="m 753.26418,-90.123662 c 7.20515,0 8.16717,-6.747478 8.16717,-6.747478 0,0 0.96202,6.747478 8.16717,6.747478 5.04338,0 9.60687,-3.025401 9.60687,-8.732722 0,-7.541176 -14.61726,-15.124706 -17.77404,-26.198156 -3.00384,11.06417 -17.77404,18.65698 -17.77404,26.198156 0,5.707321 4.56349,8.732722 9.60687,8.732722 z" />
    </g>
  </g>
</svg>
