<?xml version="1.0" encoding="UTF-8" standalone="no"?>
<!-- Created with Inkscape (http://www.inkscape.org/) -->

<svg
   width="210"
   height="315.00003"
   viewBox="0 0 210.00001 315.00005"
   id="svg8691"
   version="1.1"
   xmlns="http://www.w3.org/2000/svg"
   xmlns:svg="http://www.w3.org/2000/svg"
   xmlns:rdf="http://www.w3.org/1999/02/22-rdf-syntax-ns#"
   xmlns:cc="http://creativecommons.org/ns#"
   xmlns:dc="http://purl.org/dc/elements/1.1/">
  <defs
     id="defs8693" />
  <metadata
     id="metadata8696">
    <rdf:RDF>
      <cc:Work
         rdf:about="">
        <dc:format>image/svg+xml</dc:format>
        <dc:type
           rdf:resource="http://purl.org/dc/dcmitype/StillImage" />
        <cc:license
           rdf:resource="http://creativecommons.org/publicdomain/zero/1.0/" />
      </cc:Work>
      <cc:License
         rdf:about="http://creativecommons.org/publicdomain/zero/1.0/">
        <cc:permits
           rdf:resource="http://creativecommons.org/ns#Reproduction" />
        <cc:permits
           rdf:resource="http://creativecommons.org/ns#Distribution" />
        <cc:permits
           rdf:resource="http://creativecommons.org/ns#DerivativeWorks" />
      </cc:License>
    </rdf:RDF>
  </metadata>
  <g
     id="layer1"
     transform="translate(-1890.0011,324.89115)">
    <g
       id="heart10">
      <rect
         style="opacity:1;fill:#fdfeee;fill-opacity:1;stroke:#000000;stroke-width:0.996047;stroke-linecap:butt;stroke-linejoin:round;stroke-miterlimit:4;stroke-dasharray:none;stroke-opacity:1"
         id="rect11099"
         width="209.00395"
         height="314.004"
         x="1890.4991"
         y="-324.39313"
         ry="14.999999"
         rx="14.999998" />
      <rect
         style="opacity:1;fill:none;fill-opacity:1;stroke:#000000;stroke-width:0.995028;stroke-linecap:butt;stroke-linejoin:round;stroke-miterlimit:4;stroke-dasharray:none;stroke-opacity:1"
         id="rect11101"
         width="99.004982"
         height="164.00497"
         x="1945.4987"
         y="-249.3936" />
      <path
         d="m 1976.7334,-317.48599 c -8.2494,0 -9.3508,7.73585 -9.3508,7.73585 0,0 -1.1015,-7.73585 -9.3509,-7.73585 -5.7743,0 -10.9991,3.46856 -10.9991,10.01189 0,8.64581 16.7357,17.34017 20.35,30.03565 3.4392,-12.68484 20.35,-21.38984 20.35,-30.03565 0,-6.54333 -5.2249,-10.01189 -10.9992,-10.01189 z"
         id="use17028"
         style="fill:#fe0000;fill-opacity:1;stroke:#000000;stroke-width:0.517766;stroke-miterlimit:4;stroke-dasharray:none;stroke-opacity:1" />
      <path
         d="m 2013.2369,-14.91521 c 8.2494,0 9.3508,-7.735846 9.3508,-7.735846 0,0 1.1015,7.735846 9.3509,7.735846 5.7743,0 10.9991,-3.468562 10.9991,-10.011889 0,-8.645809 -16.7357,-17.340167 -20.35,-30.035645 -3.4392,12.684839 -20.35,21.389836 -20.35,30.035645 0,6.543327 5.2249,10.011889 10.9992,10.011889 z"
         id="use17030"
         style="fill:#fe0000;fill-opacity:1;stroke:#000000;stroke-width:0.517766;stroke-miterlimit:4;stroke-dasharray:none;stroke-opacity:1" />
      <path
         d="m 1973.1143,-246.72466 c -7.2051,0 -8.1671,6.74747 -8.1671,6.74747 0,0 -0.9621,-6.74747 -8.1672,-6.74747 -5.0434,0 -9.6069,3.0254 -9.6069,8.73272 0,7.54118 14.6173,15.1247 17.7741,26.19815 3.0038,-11.06417 17.774,-18.65697 17.774,-26.19815 0,-5.70732 -4.5635,-8.73272 -9.6069,-8.73272 z"
         id="use21689"
         style="fill:#fe0000;fill-opacity:1;stroke:#000000;stroke-width:0.45192;stroke-miterlimit:4;stroke-dasharray:none;stroke-opacity:1" />
      <path
         d="m 2017.1764,-88.165302 c 7.2051,0 8.1671,-6.747478 8.1671,-6.747478 0,0 0.9621,6.747478 8.1672,6.747478 5.0434,0 9.6069,-3.025401 9.6069,-8.732722 0,-7.541176 -14.6173,-15.124706 -17.7741,-26.198156 -3.0038,11.06417 -17.774,18.65698 -17.774,26.198156 0,5.707321 4.5635,8.732722 9.6069,8.732722 z"
         id="use21691"
         style="fill:#fe0000;fill-opacity:1;stroke:#000000;stroke-width:0.45192;stroke-miterlimit:4;stroke-dasharray:none;stroke-opacity:1" />
      <path
         d="m 1956.7795,-88.165302 c 7.2051,0 8.1671,-6.747478 8.1671,-6.747478 0,0 0.9621,6.747478 8.1672,6.747478 5.0434,0 9.6069,-3.025401 9.6069,-8.732722 0,-7.541176 -14.6173,-15.124706 -17.7741,-26.198156 -3.0038,11.06417 -17.774,18.65698 -17.774,26.198156 0,5.707321 4.5635,8.732722 9.6069,8.732722 z"
         id="use21703"
         style="fill:#fe0000;fill-opacity:1;stroke:#000000;stroke-width:0.45192;stroke-miterlimit:4;stroke-dasharray:none;stroke-opacity:1" />
      <path
         d="m 1973.1143,-205.72104 c -7.2051,0 -8.1671,6.74747 -8.1671,6.74747 0,0 -0.9621,-6.74747 -8.1672,-6.74747 -5.0434,0 -9.6069,3.0254 -9.6069,8.73272 0,7.54118 14.6173,15.1247 17.7741,26.19815 3.0038,-11.06417 17.774,-18.65697 17.774,-26.19815 0,-5.70732 -4.5635,-8.73272 -9.6069,-8.73272 z"
         id="use21709"
         style="fill:#fe0000;fill-opacity:1;stroke:#000000;stroke-width:0.45192;stroke-miterlimit:4;stroke-dasharray:none;stroke-opacity:1" />
      <path
         d="m 1956.7795,-129.16891 c 7.2051,0 8.1671,-6.74748 8.1671,-6.74748 0,0 0.9621,6.74748 8.1672,6.74748 5.0434,0 9.6069,-3.0254 9.6069,-8.73272 0,-7.54118 -14.6173,-15.12471 -17.7741,-26.19816 -3.0038,11.06417 -17.774,18.65698 -17.774,26.19816 0,5.70732 4.5635,8.73272 9.6069,8.73272 z"
         id="use21711"
         style="fill:#fe0000;fill-opacity:1;stroke:#000000;stroke-width:0.45192;stroke-miterlimit:4;stroke-dasharray:none;stroke-opacity:1" />
      <path
         d="m 2033.5113,-246.72466 c -7.2051,0 -8.1671,6.74747 -8.1671,6.74747 0,0 -0.9621,-6.74747 -8.1672,-6.74747 -5.0434,0 -9.6069,3.0254 -9.6069,8.73272 0,7.54118 14.6173,15.1247 17.7741,26.19815 3.0038,-11.06417 17.774,-18.65697 17.774,-26.19815 0,-5.70732 -4.5635,-8.73272 -9.6069,-8.73272 z"
         id="use21725"
         style="fill:#fe0000;fill-opacity:1;stroke:#000000;stroke-width:0.45192;stroke-miterlimit:4;stroke-dasharray:none;stroke-opacity:1" />
      <path
         d="m 2033.5113,-205.72104 c -7.2051,0 -8.1671,6.74747 -8.1671,6.74747 0,0 -0.9621,-6.74747 -8.1672,-6.74747 -5.0434,0 -9.6069,3.0254 -9.6069,8.73272 0,7.54118 14.6173,15.1247 17.7741,26.19815 3.0038,-11.06417 17.774,-18.65697 17.774,-26.19815 0,-5.70732 -4.5635,-8.73272 -9.6069,-8.73272 z"
         id="use21727"
         style="fill:#fe0000;fill-opacity:1;stroke:#000000;stroke-width:0.45192;stroke-miterlimit:4;stroke-dasharray:none;stroke-opacity:1" />
      <path
         d="m 2017.1764,-129.16891 c 7.2051,0 8.1671,-6.74748 8.1671,-6.74748 0,0 0.9621,6.74748 8.1672,6.74748 5.0434,0 9.6069,-3.0254 9.6069,-8.73272 0,-7.54118 -14.6173,-15.12471 -17.7741,-26.19816 -3.0038,11.06417 -17.774,18.65698 -17.774,26.19816 0,5.70732 4.5635,8.73272 9.6069,8.73272 z"
         id="use21729"
         style="fill:#fe0000;fill-opacity:1;stroke:#000000;stroke-width:0.45192;stroke-miterlimit:4;stroke-dasharray:none;stroke-opacity:1" />
      <path
         d="m 2003.1685,-226.38151 c -7.2051,0 -8.1671,6.74747 -8.1671,6.74747 0,0 -0.9621,-6.74747 -8.1672,-6.74747 -5.0434,0 -9.6069,3.0254 -9.6069,8.73272 0,7.54118 14.6173,15.1247 17.7741,26.19815 3.0038,-11.06417 17.774,-18.65697 17.774,-26.19815 0,-5.70732 -4.5635,-8.73272 -9.6069,-8.73272 z"
         id="use21743"
         style="fill:#fe0000;fill-opacity:1;stroke:#000000;stroke-width:0.45192;stroke-miterlimit:4;stroke-dasharray:none;stroke-opacity:1" />
      <path
         d="m 1986.8337,-110.45046 c 7.2051,0 8.1671,-6.74748 8.1671,-6.74748 0,0 0.9621,6.74748 8.1672,6.74748 5.0434,0 9.6069,-3.0254 9.6069,-8.73272 0,-7.54118 -14.6173,-15.12471 -17.7741,-26.19816 -3.0038,11.06417 -17.774,18.65698 -17.774,26.19816 0,5.70732 4.5635,8.73272 9.6069,8.73272 z"
         id="use21745"
         style="fill:#fe0000;fill-opacity:1;stroke:#000000;stroke-width:0.45192;stroke-miterlimit:4;stroke-dasharray:none;stroke-opacity:1" />
      <text
         transform="scale(1.0395817,0.96192536)"
         xml:space="preserve"
         style="color:#000000;font-style:normal;font-variant:normal;font-weight:normal;font-stretch:normal;line-height:0%;font-family:Arial;-inkscape-font-specification:'Arial, Normal';text-indent:0;text-align:start;text-decoration:none;text-decoration-line:none;text-decoration-style:solid;text-decoration-color:#000000;letter-spacing:0px;word-spacing:0px;text-transform:none;writing-mode:lr-tb;direction:ltr;baseline-shift:baseline;text-anchor:start;white-space:normal;clip-rule:nonzero;display:inline;overflow:visible;visibility:visible;opacity:1;isolation:auto;mix-blend-mode:normal;color-interpolation:sRGB;color-interpolation-filters:linearRGB;solid-color:#000000;solid-opacity:1;fill:#fe0000;fill-opacity:1;fill-rule:nonzero;stroke:#000000;stroke-width:0.962702px;stroke-linecap:butt;stroke-linejoin:miter;stroke-miterlimit:4;stroke-dasharray:none;stroke-dashoffset:0;stroke-opacity:1;color-rendering:auto;image-rendering:auto;shape-rendering:auto;text-rendering:auto;enable-background:accumulate"
         x="1818.4587"
         y="-292.08698"
         id="text11200-7"><tspan
           style="font-style:normal;font-variant:normal;font-weight:normal;font-stretch:normal;font-size:52.5px;line-height:125%;font-family:Arial;-inkscape-font-specification:'Arial, Normal';text-align:start;writing-mode:lr-tb;text-anchor:start;stroke-width:0.962702px"
           id="tspan11202-1"
           x="1818.4587"
           y="-292.08698"
           dx="0 -3.8508089">10</tspan></text>
      <text
         transform="scale(-1)"
         xml:space="preserve"
         style="color:#000000;font-style:normal;font-variant:normal;font-weight:normal;font-stretch:normal;line-height:0%;font-family:Arial;-inkscape-font-specification:'Arial, Normal';text-indent:0;text-align:start;text-decoration:none;text-decoration-line:none;text-decoration-style:solid;text-decoration-color:#000000;letter-spacing:0px;word-spacing:0px;text-transform:none;writing-mode:lr-tb;direction:ltr;baseline-shift:baseline;text-anchor:start;white-space:normal;clip-rule:nonzero;display:inline;overflow:visible;visibility:visible;opacity:1;isolation:auto;mix-blend-mode:normal;color-interpolation:sRGB;color-interpolation-filters:linearRGB;solid-color:#000000;solid-opacity:1;fill:#fe0000;fill-opacity:1;fill-rule:nonzero;stroke:#000000;stroke-width:1px;stroke-linecap:butt;stroke-linejoin:miter;stroke-miterlimit:4;stroke-dasharray:none;stroke-dashoffset:0;stroke-opacity:1;color-rendering:auto;image-rendering:auto;shape-rendering:auto;text-rendering:auto;enable-background:accumulate"
         x="-2099.4968"
         y="52.890705"
         id="text11200-45"><tspan
           id="tspan11202-75"
           x="-2099.4968"
           y="52.890705"
           dx="0 -4.0000005"
           style="font-size:52.5px;line-height:1.25">10</tspan></text>
    </g>
  </g>
</svg>
