<?xml version="1.0" encoding="UTF-8" standalone="no"?>
<svg
   xmlns:dc="http://purl.org/dc/elements/1.1/"
   xmlns:cc="http://creativecommons.org/ns#"
   xmlns:rdf="http://www.w3.org/1999/02/22-rdf-syntax-ns#"
   xmlns:svg="http://www.w3.org/2000/svg"
   xmlns="http://www.w3.org/2000/svg"
   version="1.1"
   id="svg8691"
   viewBox="0 0 210.0008 314.99926"
   height="314.99924"
   width="210.00079">
  <defs
     id="defs8693" />
  <metadata
     id="metadata8696">
    <rdf:RDF>
      <cc:Work
         rdf:about="">
        <dc:format>image/svg+xml</dc:format>
        <dc:type
           rdf:resource="http://purl.org/dc/dcmitype/StillImage" />
        <dc:title />
        <cc:license
           rdf:resource="http://creativecommons.org/publicdomain/zero/1.0/" />
      </cc:Work>
      <cc:License
         rdf:about="http://creativecommons.org/publicdomain/zero/1.0/">
        <cc:permits
           rdf:resource="http://creativecommons.org/ns#Reproduction" />
        <cc:permits
           rdf:resource="http://creativecommons.org/ns#Distribution" />
        <cc:permits
           rdf:resource="http://creativecommons.org/ns#DerivativeWorks" />
      </cc:License>
    </rdf:RDF>
  </metadata>
  <g
     transform="translate(-2730.003,-630.00051)"
     id="layer1">
    <g
       transform="matrix(0.99999621,0,0,1.0000025,0.010477,7.606787e-4)"
       id="redJoker">
      <rect
         style="opacity:1;fill:#fdfeee;fill-opacity:1;stroke:#000000;stroke-width:0.99604779;stroke-linecap:butt;stroke-linejoin:round;stroke-miterlimit:4;stroke-dasharray:none;stroke-opacity:1"
         id="rect17296"
         width="209.00475"
         height="314.0032"
         x="2730.4985"
         y="-639.3927"
         ry="14.999962"
         rx="15.000057" />
      <g
         style="clip-rule:evenodd"
         transform="matrix(1.9505616,0,0,1.7367536,-60.451863,-786.60638)"
         id="g17298">
        <path
           d="m 1473.9,130.95 c -0.4,-0.05 -0.5,0.34 -0.7,0.14 0.5,-0.79 2.4,-1 3,-0.35 0,0.22 -0.3,0.2 -0.5,0.28 -0.3,-0.23 -1.4,-0.35 -1.8,-0.07 z"
           style="fill:#130f06;fill-rule:evenodd"
           id="path17300" />
        <path
           d="m 1474.7,132.6 c 0.5,0.23 0.9,-0.14 1.1,-0.36 0.2,0.25 -0.2,0.47 -0.4,0.57 -0.8,0.39 -1.1,-0.49 -1.7,-0.21 -0.2,0.1 -0.3,0.24 -0.5,0.35 0,0.46 0.3,0.66 0.2,1.22 0,0.24 -0.1,0.36 0,0.64 -0.3,0.82 0.2,1.39 0.3,2.01 -1,-0.6 -0.3,-2.76 -0.8,-4.01 l 0,-0.07 c 0.6,0.1 0.5,-0.46 1,-0.43 0.3,0.11 0.6,0.12 0.8,0.29 z"
           style="fill:#130f06;fill-rule:evenodd"
           id="path17302" />
        <path
           d="m 1486.1,135.24 c 1.1,0.02 1.9,0.61 1.9,1.43 -0.4,-0.74 -1.4,-0.99 -1.9,-1.43 z"
           style="fill:#130f06;fill-rule:evenodd"
           id="path17304" />
        <path
           d="m 1475,136.53 c 0.3,0.08 1.2,0.68 1.6,0 0.2,0.15 -0.2,0.42 -0.3,0.5 -0.6,0.25 -1.1,-0.15 -1.3,-0.5 z"
           style="fill:#130f06;fill-rule:evenodd"
           id="path17306" />
        <path
           d="m 1477.9,136.67 c 0.2,0.14 -0.1,0.44 -0.1,0.65 -0.2,-0.17 0.1,-0.44 0.1,-0.65 z"
           style="fill:#e7a614;fill-rule:evenodd"
           id="path17308" />
        <path
           d="m 1485,136.67 c 0.4,0.15 0.5,0.53 0.5,1 -0.2,-0.28 -0.3,-0.67 -0.5,-1 z"
           style="fill:#130f06;fill-rule:evenodd"
           id="path17310" />
        <path
           d="m 1473.8,136.82 c 0.1,0.14 0.4,0.46 0.2,0.64 0,-0.22 -0.3,-0.46 -0.2,-0.64 z"
           style="fill:#130f06;fill-rule:evenodd"
           id="path17312" />
        <path
           d="m 1510,140.03 c 0.2,0.01 0.3,0.17 0.2,0.29 -0.2,0.02 -0.2,-0.1 -0.2,-0.29 z"
           style="fill:#130f06;fill-rule:evenodd"
           id="path17314" />
        <path
           d="m 1512.8,142.11 c 0.2,0.01 0.3,0.12 0.3,0.36 -0.3,0.05 -0.4,-0.12 -0.3,-0.36 z"
           style="fill:#130f06;fill-rule:evenodd"
           id="path17316" />
        <path
           d="m 1460.4,170 c 0.2,0.4 -0.2,0.78 -0.2,1.29 -0.2,-0.47 0.2,-0.87 0.2,-1.29 z"
           style="fill:#e7a614;fill-rule:evenodd"
           id="path17318" />
        <path
           d="m 1476.7,186.45 c 0.5,0.29 1.2,1 1.7,1.5 -0.7,-0.39 -1.2,-0.93 -1.7,-1.5 z"
           style="fill:#130f06;fill-rule:evenodd"
           id="path17320" />
        <path
           d="m 1481.5,188.52 c -0.1,-0.43 0.2,-1.21 0.5,-1.57 -0.1,0.63 -0.4,1.07 -0.5,1.57 z"
           style="fill:#130f06;fill-rule:evenodd"
           id="path17322" />
        <path
           d="m 1481.3,189.1 c 0.2,-0.55 0.4,-1.07 0.7,-1.5 -0.1,0.63 -0.3,1.14 -0.7,1.5 z"
           style="fill:#130f06;fill-rule:evenodd"
           id="path17324" />
        <path
           d="m 1482.2,188.02 c -0.2,0.52 -0.4,1.02 -0.8,1.36 0.2,-0.49 0.4,-1.03 0.8,-1.36 z"
           style="fill:#130f06;fill-rule:evenodd"
           id="path17326" />
        <path
           d="m 1478.4,189.03 c -0.3,-0.26 -0.6,-0.54 -0.7,-0.93 0.3,0.21 0.6,0.48 0.8,0.78 0.3,-0.09 0,-0.18 0,-0.36 0.4,0.11 0.6,0.43 1,0.58 -0.2,0.15 -0.5,-0.3 -0.8,-0.36 0.1,0.39 0.5,0.43 0.8,0.64 -0.7,0.45 -1.3,-0.41 -1.8,-0.78 0.2,-0.15 0.4,0.43 0.7,0.43 z"
           style="fill:#130f06;fill-rule:evenodd"
           id="path17328" />
        <path
           d="m 1478.4,190.24 c 0.1,0.37 0.7,0.89 1.2,1.15 -0.8,-0.14 -1.5,-1.01 -1.8,-1.86 0.6,0.66 1.3,1.23 2.1,1.71 -0.6,0.01 -1.1,-0.64 -1.5,-1 z"
           style="fill:#130f06;fill-rule:evenodd"
           id="path17330" />
        <path
           d="m 1480.7,189.96 c 0.1,0.13 0.3,-0.03 0.5,-0.08 -0.1,0.12 -0.2,0.33 -0.4,0.36 0,-0.29 -0.2,0.06 -0.3,-0.14 0.2,-0.26 0.4,-0.45 0.7,-0.5 -0.1,0.14 -0.3,0.23 -0.5,0.36 z"
           style="fill:#130f06;fill-rule:evenodd"
           id="path17332" />
        <path
           d="m 1482.4,189.74 c 0.3,0.36 -0.5,0.81 -0.7,1.22 -0.2,-0.34 0.6,-0.71 0.7,-1.22 z"
           style="fill:#130f06;fill-rule:evenodd"
           id="path17334" />
        <path
           d="m 1477.9,190.31 c 0.5,0.66 1.2,0.98 1.8,1.5 -0.4,-0.1 -0.9,-0.39 -1.3,-0.71 -0.2,-0.21 -0.4,-0.5 -0.5,-0.79 z"
           style="fill:#130f06;fill-rule:evenodd"
           id="path17336" />
        <path
           d="m 1470.3,191.67 c -0.2,-0.25 -0.1,-0.44 -0.4,-0.71 0.4,-0.23 0.6,0.41 0.4,0.71 z"
           style="fill:#130f06;fill-rule:evenodd"
           id="path17338" />
        <path
           d="m 1480.3,191.1 c 0.1,-0.16 1.4,-0.18 0.9,-0.07 -0.3,-0.01 -0.6,0.18 -0.9,0.07 z"
           style="fill:#130f06;fill-rule:evenodd"
           id="path17340" />
        <path
           d="m 1478.2,191.1 c 0.3,0.39 0.8,0.57 1.1,1 -0.4,-0.27 -1,-0.43 -1.1,-1 z"
           style="fill:#130f06;fill-rule:evenodd"
           id="path17342" />
        <path
           d="m 1465.5,191.31 c 0.2,-0.05 0.1,0.15 0.3,0.15 0,0.47 -0.3,0.47 -0.1,0.86 -0.5,0.08 -0.4,-0.82 -0.2,-1.01 z"
           style="fill:#130f06;fill-rule:evenodd"
           id="path17344" />
        <path
           d="m 1481.7,192.74 c -0.2,0.22 -0.6,0.22 -0.9,0.36 -0.1,-0.21 0.6,-0.27 0.9,-0.36 z"
           style="fill:#130f06;fill-rule:evenodd"
           id="path17346" />
        <path
           d="m 1463.3,211.77 c 0.2,0.78 0.4,1.68 0.7,2.43 -0.4,-0.61 -0.7,-1.69 -0.7,-2.43 z"
           style="fill:#130f06;fill-rule:evenodd"
           id="path17348" />
        <path
           d="m 1462.6,212.84 c 0.3,0.2 0.3,0.72 0.5,1.07 -0.4,-0.18 -0.3,-0.74 -0.5,-1.07 z"
           style="fill:#130f06;fill-rule:evenodd"
           id="path17350" />
        <path
           d="m 1463.8,213.06 c 0.3,0.33 0.4,0.96 0.5,1.5 -0.3,-0.42 -0.4,-0.98 -0.5,-1.5 z"
           style="fill:#130f06;fill-rule:evenodd"
           id="path17352" />
        <path
           d="m 1464.2,213.34 c 0.3,0.15 0.1,0.82 0.5,0.79 l 0,0.36 c -0.3,-0.16 -0.5,-0.8 -0.5,-1.15 z"
           style="fill:#130f06;fill-rule:evenodd"
           id="path17354" />
        <path
           d="m 1473.9,181.8 c -0.3,-0.32 -0.5,-0.71 -0.5,-1.29 0.2,0.38 0.3,0.87 0.5,1.29 z"
           style="fill:#f2d2ae;fill-rule:evenodd"
           id="path17356" />
        <path
           d="m 1477.7,193.75 c -0.1,-1.12 -0.2,-2.2 -0.3,-2.94 0.3,0.72 0.3,1.86 0.3,2.94 z"
           style="fill:#f2d2ae;fill-rule:evenodd"
           id="path17358" />
        <path
           d="m 1486,214.77 c 0.3,0.33 0.4,0.87 0.7,1.22 -0.3,-0.3 -0.6,-0.72 -0.7,-1.22 z"
           style="fill:#f2d2ae;fill-rule:evenodd"
           id="path17360" />
        <path
           d="m 1475.9,118.79 c 1.3,-0.5 2.6,-1.89 4.1,-1.93 0.8,-0.02 2.2,0.67 2.5,1.5 0.2,0.42 0,0.85 0.1,1.29 0.1,0.26 0.4,0.41 0.4,0.86 0.1,1.1 -1.2,1.92 -2,1.22 -0.8,-0.64 -0.3,-1.88 0.6,-2.15 0,-0.56 -0.2,-1.43 -0.9,-1.5 -1,-0.1 -2.3,1.52 -2.4,2.64 -0.1,1.32 0.9,2.56 0.4,3.72 1.2,0.04 3.6,-0.59 4.6,0 0.2,0.13 0.3,0.51 0.5,0.79 0.5,0.62 1.1,1.17 1.5,2 0.4,0.8 0.9,1.95 0.9,3.08 -0.1,0.9 -0.7,1.52 -0.7,2.29 0.1,0.28 0.4,0.39 0.6,0.64 0,1.53 -2.4,1.9 -2.5,0.5 0,-0.62 0.4,-0.73 0.7,-1.14 0.2,-1.44 -0.2,-3.21 -1.8,-2.58 l -1.1,0 c -0.3,0.05 -0.4,-0.12 -0.7,-0.07 0.4,1.81 1.4,4.35 0.8,6.44 0.7,-0.04 1.3,-0.79 2.3,-0.72 0.3,-0.13 0.5,-0.29 0.9,-0.36 1.3,-0.78 2.7,-1.84 4.2,-2.57 0.7,-0.35 1.6,-0.52 2.4,-0.93 1.1,-0.54 1.7,-1.35 3.2,-1.36 0.3,-0.1 0.2,-0.46 0.5,-0.57 -0.9,-0.42 -1.9,-0.64 -2.8,-1 0,-0.27 0.2,-0.37 0.3,-0.57 1.4,0.37 2.9,0.68 4.3,1.07 0.4,0.09 0.6,0.29 1,0.28 0.3,0 0.5,-0.22 0.7,-0.28 0.7,-0.15 2.6,-0.19 3.5,-0.07 1.2,0.16 1.5,1.35 2.3,2.21 1.9,0.39 3.7,1.28 5.8,1.36 0,-0.84 1,-1.29 1.3,-0.35 0.6,-0.15 1.1,-0.55 1.7,-0.36 -0.1,-0.5 -0.5,-0.76 -0.6,-1.36 -0.4,0.02 -0.7,-0.06 -0.9,-0.22 -0.2,-0.7 0.3,-1.09 0.7,-1.07 0.5,0.04 1,1.47 2.1,1.29 0.1,-0.43 -0.6,-0.53 -0.6,-1.07 0,-0.47 0.4,-0.77 1.1,-0.43 0,0.27 0.1,0.38 0,0.64 0.1,0.56 0.8,0.51 1.3,0.79 0.8,0.44 1.7,1.69 1.7,3 1,-0.36 1.9,0.15 2.9,0.22 0.8,-0.89 0.8,-2.13 -0.1,-3.01 -0.5,-0.11 -1.1,-0.37 -1.1,-1.14 0.2,-0.28 0.4,-0.53 1,-0.43 0.8,1.57 2.9,2.45 2.6,4.72 0,0.46 -0.4,0.74 -0.3,1.43 0.1,0.16 0.9,0.12 0.9,0.14 0.3,0.06 0.4,0.12 0.7,0.36 0.5,0.33 1,0.81 1.3,1.5 0.1,0.15 0,0.36 0.1,0.5 0.1,0.32 0.5,0.56 0.6,0.86 0.2,0.57 0,1.27 -0.3,1.79 0,0.24 0.2,0.37 0.1,0.71 -0.5,1.5 -2.4,-0.37 -0.9,-0.93 0.3,-1.09 -0.2,-1.98 -1.1,-2.28 -0.2,-0.15 -0.6,-0.04 -0.9,-0.15 -0.5,-0.2 -0.7,0.69 -1.2,0.07 0.3,0.65 0.8,1.52 0.4,2.51 -0.2,0.92 -1.3,1 -2.1,1.36 0.5,1.69 -1.6,1.64 -1.4,0.35 0.1,-0.64 1.4,-1.12 1.5,-2 0.1,-0.93 -0.9,-0.87 -1.3,-1.36 -0.5,0.44 -1.4,0.91 -2.2,0.43 -0.3,-0.21 -0.3,-0.87 0.1,-1 0.2,0.03 0.2,-0.19 0.4,-0.21 -0.1,-0.25 -0.6,-0.16 -0.5,-0.65 -0.1,0.06 -0.4,0.27 -0.6,0.07 0,0.29 0.1,0.4 0.1,0.72 -0.2,0.21 -0.2,0.46 -0.5,0.57 0,1.97 -2.3,1.61 -3.1,2.72 0.2,0.13 0.5,0.1 0.6,0.36 0,0.62 -0.3,0.79 -0.8,0.93 -0.3,-0.02 -0.5,-0.22 -0.7,-0.43 l 0,-0.22 c 0.2,-0.22 0.4,-0.84 0,-1 0,-0.45 0,-0.6 0.2,-0.93 -1,-0.29 -1.6,0.29 -2.5,0.29 -0.3,-0.33 -0.1,-0.86 0.2,-1 0.2,-0.05 0.4,0.04 0.5,0.14 0.5,0.03 0.8,-0.74 1.1,-1.15 0.1,-0.03 0.1,-0.07 0.2,-0.07 -0.7,-0.67 -1.8,0.06 -2.5,0.29 0,-0.07 -0.1,-0.06 -0.2,-0.07 -0.4,-0.25 -0.3,-0.93 0.1,-1.15 1.1,0.23 1.3,-0.98 2.4,-1.21 0,-0.07 0.1,-0.06 0.2,-0.07 -0.2,-0.31 -0.6,-0.41 -1,-0.58 -0.4,-0.26 -0.5,-0.79 -1.2,-0.64 -0.2,-0.16 -0.4,-0.68 -0.1,-0.93 -0.3,-0.04 -0.5,-0.17 -0.7,-0.21 -0.5,-0.08 -0.8,-0.33 -1.3,-0.36 -0.7,-0.33 -1.4,-0.37 -2.2,-0.43 -0.9,-0.81 -1.5,0.23 -2.5,0.36 -0.2,0.03 -0.6,-0.11 -0.7,0.14 -0.8,0.21 -1.9,-0.04 -2.6,0.29 -0.2,-0.13 -0.6,-0.54 -0.9,-0.43 -1.1,-0.24 -1.7,0.81 -2.5,0.28 -0.7,0.43 -1.3,0.87 -2.4,0.86 1.4,0.53 2.2,2.52 1.6,4.29 0.5,0.58 0.3,1.7 -0.8,1.5 -0.2,-0.2 -0.4,-0.36 -0.3,-0.78 0.1,-0.07 0.1,-0.19 0.2,-0.29 -1,-0.24 -1.1,-1.4 -1.9,-1.86 -0.1,0.03 0,0.06 0,0.14 0.9,2.85 0.8,6.43 -0.5,8.94 0.2,0.19 0.5,0.59 0.3,1.01 1.5,-0.27 2.7,-0.43 4.3,-0.65 -0.1,1.62 -2.3,1.4 -3.6,1.79 0,0.66 0.8,0.76 0.8,1.43 0,0.42 -0.6,1.41 -1,1.72 -0.8,0.6 -2.1,0.59 -3.1,0.78 -0.2,-0.18 -0.1,-0.59 0.1,-0.64 -0.2,-0.16 -0.5,-0.27 -0.3,-0.64 -0.6,0.27 -1.5,0.21 -2,0.21 -0.2,0.1 -0.1,0.5 -0.1,0.72 -0.2,1.28 -0.4,2.57 -1,3.5 -0.1,0.24 0.4,0.46 0.2,1 -0.4,0.53 -1.4,0.49 -1.6,-0.21 0,-0.41 0.6,-0.59 0.2,-0.79 -0.3,-0.47 -0.5,-1.07 -0.7,-1.64 -0.4,0.11 -0.7,0.39 -0.7,0.93 -0.3,0.61 -0.5,1.02 -0.4,1.78 -0.2,0.15 -0.3,0.35 -0.7,0.29 l 0,0.14 c 0.1,0.27 -0.1,0.31 0,0.57 0.1,0.57 -0.6,0.8 -0.5,1.08 l 0,0.07 c 0,0.01 0,0.07 0.1,0.07 0,0.13 0.1,0.15 0.1,0.29 0.1,0.64 -0.6,0.79 -0.9,0.5 -0.1,0.08 -0.1,0.19 -0.1,0.35 0,0.33 -0.1,0.45 -0.1,0.79 -0.1,-0.01 0,0.26 -0.1,0.36 -0.1,0.4 -0.2,0.76 -0.5,1 0,0.1 0.1,0.17 0.2,0.22 0.2,0.26 0,0.71 -0.2,0.85 -0.1,0.05 -0.3,0.11 -0.5,0.07 0.4,1.2 0.6,2.63 0.9,3.94 0.1,0.86 0,1.97 0.3,2.43 0.3,0.5 0.5,1.01 0.7,1.64 -0.1,0.37 0,0.44 0,0.86 0.1,0.31 -0.3,0.63 0,0.72 0.2,0.13 0.4,0.38 0.5,0.64 -0.1,0.23 -0.2,0.41 -0.4,0.57 -0.3,-0.01 -0.4,0.11 -0.7,0.15 0.5,0.68 0.4,2.01 0.7,2.93 -0.1,0.6 0.1,1.66 0.2,2.36 l 0,0.14 0,2.51 c -0.6,4.61 1,8.28 2,12.01 1,3.78 1.2,7.79 2,11.59 0.7,0.82 1.9,1.12 2,2.5 0.2,0.38 0.1,1.02 0.3,1.43 l 0,0.07 c -0.4,0.98 -0.1,2.08 0.3,2.79 0.2,0.43 0.5,0.6 0.9,0.79 l 0,0.07 c 0.2,0.05 0.7,0.2 0.9,0.07 0.6,-0.01 1.1,0.32 1.6,0.22 0.8,-0.2 2.3,-3.01 2.5,-3.94 l 0,-0.43 c 0.1,-0.26 0.1,-0.86 0.1,-1.07 0.1,-1.39 -0.4,-2.29 -2,-2.22 0.4,1.06 -0.3,2.25 -1.5,2.29 -0.7,-0.25 -1,-0.91 -1,-1.93 1.3,-0.61 3,-1.56 4.2,-0.71 0.8,0.53 0.9,1.54 1.6,2.28 0,0.27 0.1,0.55 0.2,0.79 l 0,0.22 c 0,1.23 -0.1,1.92 -0.5,2.78 -0.5,1.1 -1.2,2.26 -1.5,3.22 -0.2,0.14 -0.5,0.15 -0.5,0.43 -0.1,0.1 -0.2,0.14 -0.3,0.15 -1.1,0.44 -2,1.12 -3.7,1 -1.2,-0.12 -2.5,-0.25 -3.3,-0.86 -0.3,-0.35 -0.4,-0.89 -0.7,-1.22 -0.2,-0.19 -0.5,-0.31 -0.8,-0.43 -0.3,-0.45 -0.3,0.3 -0.5,0.43 -0.7,-0.16 -1.3,-0.44 -1.9,-0.64 l 0,-0.64 c -1.1,-1.1 -0.6,-2.9 0.2,-4.08 0.1,-0.02 0,-0.18 0,-0.29 -0.3,0.06 -0.3,-0.14 -0.5,-0.14 -1.5,-0.71 -0.7,-2.45 0,-3.36 -0.3,-2.23 -1.8,-3.53 -2.7,-5.29 -0.1,-0.24 -0.1,-0.55 -0.2,-0.79 -0.4,-0.92 -0.9,-1.56 -1.2,-2.58 -0.3,-0.94 -0.6,-1.94 -0.7,-3.21 0,-1.08 0,-2.22 -0.3,-2.94 -0.6,-3.54 -2,-6.34 -3.5,-9.01 -0.2,-0.42 -0.3,-0.91 -0.5,-1.29 -0.1,-0.12 -0.1,-0.29 -0.2,-0.35 -0.4,-1.44 -1,-2.62 -1.4,-4.08 0,-0.22 -0.1,-0.26 -0.1,-0.43 -0.1,-0.18 -0.1,-0.58 -0.3,-0.71 -0.2,3.81 -0.5,8.7 -1.9,11.87 0,0.17 -0.1,0.15 -0.1,0.36 -0.1,0.5 -0.1,1.5 0,2 l 0,0.21 0,0.72 c 0.1,0.25 -0.1,0.27 0,0.5 0.2,0.08 0.9,-0.25 1.1,0.07 0.3,0.24 0.5,1.03 0.1,1.29 -0.3,0.06 -0.4,0.32 -0.7,0.28 0.3,1.03 0.5,2.1 0.5,3.44 -0.1,1.94 -0.4,3.67 -0.5,5.5 -0.4,1.78 0.1,3.72 0.2,5.3 2.1,-0.37 1.7,2.61 0.8,3.36 0.8,1.06 -0.3,1.98 -0.5,2.79 0,0.23 0.1,0.51 0,0.71 -0.1,0.4 -0.5,0.65 -0.9,0.72 0,-0.22 0.1,-0.26 0.1,-0.43 -0.9,1.01 -2.1,2.59 -4.2,2.72 -1.4,0.09 -3.7,-0.18 -3.7,-1.72 0.3,-0.39 0.4,-1.4 0.1,-1.86 -0.5,-2.42 -0.2,-4.16 0.7,-6.08 0.6,-1.21 1.2,-2.31 2.4,-2.72 0.4,0.38 0.9,0.73 1.4,1 -0.6,-2.86 -2,-5.62 -2.3,-9.08 0,-0.36 0.1,-0.9 -0.1,-1.14 0,-0.89 0.2,-1.5 0.2,-2.22 -0.5,0.05 -1.3,-0.51 -1,-1.36 0.4,-0.25 0.7,-0.4 1.1,-0.43 0,-0.72 -0.3,-1.73 -0.3,-2.64 l 0,-0.79 0,-0.57 0,-0.93 c -0.1,-0.64 -0.3,-1.06 -0.3,-1.65 -0.2,-0.35 -0.2,-0.88 -0.5,-1.21 -0.8,-2.26 -1.2,-4.93 -1.7,-7.51 l 0,-0.22 c -0.1,-0.17 -0.3,0.2 -0.5,0.22 -0.2,-0.2 -0.6,-0.22 -0.8,-0.43 -0.2,-0.44 0.1,-0.77 0.4,-0.93 -1.1,-1.19 -0.6,-3.13 -0.1,-4.65 0.4,-1.45 0.7,-2.91 1.3,-4.29 0.6,-1.4 1.6,-2.49 2.2,-3.43 -0.2,-0.95 0.5,-1.7 0.7,-2.58 0.3,-2.17 -0.7,-4.34 -1,-6.29 -0.4,0.23 -0.4,0.83 -0.7,1.14 0.6,0.47 0.7,1.42 0.1,2 l -0.3,0 c -0.6,0.19 -1.2,0.21 -1.4,-0.57 l 0,-0.14 c -0.1,-0.55 0.2,-0.7 0.4,-1 0.3,0.01 0.3,-0.27 0.6,-0.29 0.4,-1.37 0.4,-3.36 0.6,-5.08 l 0,-0.71 0,-0.86 0,-0.14 0,-0.15 c -0.1,-0.1 -0.3,0.34 -0.5,0.5 -0.4,1.13 -0.9,2.22 -1.3,3.37 -0.2,0.58 -0.4,1.14 -0.2,1.78 0.7,0.73 -0.1,1.98 -0.9,2.08 -1.2,0.14 -1.8,-1.42 -0.6,-2.08 0.1,0.03 0.1,-0.13 0.3,-0.07 0.1,-0.21 0.1,-0.54 0.1,-0.86 -0.1,-0.38 0.1,-0.71 0,-0.93 0.1,-0.38 0,-1.07 0.1,-1.57 1,-3.67 1.9,-7.51 4.7,-9.44 -0.5,-2.32 0.5,-4.08 1,-6.15 0.3,-1.31 0.5,-2.76 1,-3.65 0.4,-0.64 1.2,-0.99 1.3,-1.71 -0.6,0.01 -1.2,-0.41 -2,-0.36 -0.7,-0.47 -1.4,-0.78 -2.3,-1.15 -1.6,0.89 -2.8,2.14 -3.5,3.79 0.8,0.85 0.2,1.87 -0.7,2.15 -1.4,-0.11 -1.5,-2.09 -0.2,-2.29 0.2,-1.03 0.6,-2.02 1.1,-2.93 0.4,-0.79 0.9,-1.91 1.6,-2.43 0.6,-0.48 2.5,-1.23 3.4,-1.43 0.5,-0.12 1.1,-0.15 1.6,-0.15 1.2,0 2.4,0.55 3.9,0.36 l 1.1,0 c 0.2,0.02 0.4,0.18 0.6,0.22 0.2,-1.78 1.4,-2.94 2.3,-4.22 0.4,-0.33 0.7,-0.69 1.1,-1.08 z m -2.2,20.24 c 0.2,-0.15 -0.1,-0.17 0,-0.43 -0.4,-0.02 -0.7,-0.14 -1,-0.21 0.7,-1.22 1.5,0.8 2.4,0.21 -1.6,-0.44 -2.8,-1.56 -2.9,-3.36 0,-0.97 0.3,-2.15 0.2,-3.22 -0.1,-0.71 -0.6,-1.34 -0.4,-1.93 1.1,-1.55 3,-0.38 4.9,-0.64 0.7,-0.08 1.1,-0.36 1.7,-0.29 0.2,0.72 0.8,1.38 0.8,2.08 0,0.32 -0.3,0.6 -0.3,0.93 0,0.46 0.3,0.79 0.1,1.29 -0.5,0.67 -1.1,1.15 -1,2.43 -0.9,0.31 -0.8,1.43 -1.3,2.14 -0.1,0.31 -0.5,0.41 -0.5,0.72 0.4,0.03 0.7,-0.87 0.8,-0.36 0.1,-0.3 0.7,-0.64 0.5,-0.86 -0.2,0.17 -0.5,0.54 -0.7,0.5 0.6,-0.44 0.6,-1.76 1.2,-1.86 0.1,2.08 1.7,3.5 1.9,5.51 0.1,0.88 -0.1,1.97 -0.1,2.86 -0.2,0.05 -0.1,-0.2 -0.3,-0.14 -0.6,0.42 -0.6,1.44 0.3,1.57 0.1,-0.32 -0.1,-0.56 0,-0.79 0.1,-0.09 0.4,-0.09 0.5,0 -0.1,0.29 -0.4,0.48 -0.3,0.72 0.7,0.06 1,-1.48 0,-1.57 -0.3,-1.75 0.5,-2.9 0.7,-4.44 0,-0.52 -0.1,-1.07 -0.1,-1.64 0,-1.58 0.8,-3.15 0.4,-4.65 0,-0.22 -0.2,-0.4 -0.2,-0.57 -0.2,-0.39 -0.1,-0.74 -0.2,-1.15 -0.1,-0.74 -0.4,-1.12 -0.7,-1.64 0.1,-0.01 0.2,0.29 0.3,0.07 -0.4,-0.29 -0.7,-0.96 -1.2,-0.93 0.4,0.46 0.6,1 1,1.36 -0.8,-0.1 -0.7,-1.11 -1.3,-1.5 0.1,-0.02 0.3,0.01 0.3,-0.08 -0.3,-0.15 -0.7,-0.21 -1,-0.35 0,-0.66 -1,-1.5 -0.8,-2.65 0,-0.56 0.7,-1.35 0.8,-2.15 0.3,-1.56 -0.6,-3.02 -0.3,-4.14 0.4,-1.21 1.9,-2.08 3.1,-2.15 0.7,0.35 1.2,1.01 1,2.07 -0.9,0.04 -1.6,1.67 -0.3,1.79 l 0,-0.35 c -0.1,-0.22 -0.1,0.21 -0.3,0.07 0,-0.29 0.6,-0.64 0.8,-0.29 0,0.23 -0.3,0.19 -0.2,0.5 0.5,-0.04 0.7,-0.49 0.7,-1.14 -0.1,-0.17 -0.3,-0.23 -0.4,-0.43 -0.1,-0.63 0.1,-1.26 -0.3,-1.72 -0.3,-0.4 -1.3,-0.95 -1.7,-1 -0.9,-0.13 -1.6,0.46 -2.4,0.86 -1.4,0.78 -2.3,1.44 -3.2,2.64 -0.6,0.67 -1.1,1.45 -1.3,1.86 -0.2,0.39 -0.5,1.32 -0.5,1.65 0.2,0.84 1.4,1.09 1.4,2.07 -0.4,0.21 -0.6,0.67 -1.4,0.58 -0.9,0.51 -1,1.85 -1.9,2.36 l 0,0.35 c -0.4,0.24 -0.6,0.66 -0.9,0.93 -1,2.02 -3,3.09 -4,5.08 -0.1,0.27 0,0.65 -0.4,0.79 0.4,-1.85 1.9,-2.89 3,-4.22 0.8,-0.88 1.4,-1.89 2.1,-2.79 -0.6,-0.52 -1.3,-0.85 -2.2,-1.07 -1.9,1.72 -2.5,4.34 -3.1,7.29 -0.2,0.95 -0.7,1.58 -0.6,2.72 0.3,2.36 0.9,4.64 0.5,6.94 -0.7,0.08 -1,1.43 -0.1,1.57 0,-0.38 -0.2,-0.68 0.2,-0.72 0.2,-0.02 0.3,0.02 0.3,0.15 0.2,0.29 -0.3,0.24 -0.2,0.57 0.6,-0.03 0.6,-0.63 0.7,-1.22 -0.1,-0.3 -0.4,-0.3 -0.5,-0.57 -0.1,-1.12 0.5,-1.72 0.8,-2.65 0.1,-0.58 0.2,-1.33 0.2,-1.93 0,-0.98 0.2,-1.49 0.6,-2.14 0.7,-0.95 1.4,-1.87 1.7,-2.93 0,-0.22 -0.1,-0.26 -0.1,-0.43 0.9,-1.01 0.3,-3.47 1.4,-4.22 -0.4,0.48 -0.5,1.58 -0.5,2.29 0.2,-0.36 0.1,-0.96 0.3,-1.29 0.1,1 -0.2,2.11 -0.5,2.93 0.4,1.27 1.7,2.07 2,3.22 -0.7,-0.97 -1.6,-1.82 -2.1,-2.93 -0.1,0.28 -0.2,0.52 -0.2,0.78 1.2,0.84 1.5,2.58 3.3,2.86 0.3,0.25 0.6,0.44 1,0.65 1,0.05 1.9,0.01 2.5,-0.57 -0.4,0.03 -0.8,0.09 -1,0.42 -0.3,0.03 -1.2,-0.09 -1.5,-0.07 z m -4.4,-3.14 c -0.1,0.4 -0.3,0.65 -0.2,1.21 0.7,0.08 1.2,0.45 1.2,1.29 -0.8,0.09 -1.1,-0.36 -1.4,-0.79 0.5,-0.09 0.7,0.53 1,0.36 -0.3,-0.19 -0.6,-0.42 -1,-0.57 0,0.22 -0.2,0.38 -0.2,0.64 -0.7,0.57 -1.4,1 -1.5,2.08 -0.1,0.74 0.2,1.63 -0.2,2.36 0.7,-0.21 1,-0.84 1.6,-1.15 0.4,0.24 -0.1,0.57 -0.2,0.79 0.1,2.86 1.7,4.12 3.6,5.08 0.4,-1.16 1,-2.09 1.4,-3.15 0.1,1.85 1,3.06 1.3,4.58 0.1,0.43 0.1,0.89 0.4,1.28 0.5,-0.54 0.9,0.28 1.4,0.08 0.4,-1.95 1.2,-3.86 1.3,-5.8 0.1,0.09 0.1,0.29 0.3,0.36 0.3,2.3 2.2,2.96 2.9,4.94 -0.1,-1.36 0.3,-2.93 0.2,-4.08 -1,2.39 -3.6,-0.74 -1.3,-1.36 -0.4,-0.82 -0.1,-2.33 -0.4,-3.22 -0.4,-1.26 -1.2,-2.01 -1.6,-3.22 -0.4,0.55 -0.9,1.34 -1.7,1.22 -0.6,0.57 -1.7,0.83 -2.5,0.64 -0.3,-0.06 -0.5,-0.35 -0.8,-0.5 -0.3,-0.12 -0.7,-0.1 -1,-0.21 -1,-0.49 -1.5,-1.84 -2.2,-2.36 0.1,-0.05 0.3,0.32 0.4,0.14 -0.3,-0.16 -0.4,-0.54 -0.8,-0.64 z m 23.3,-7.23 c 0,0.08 0,0.19 0.1,0.22 0.2,0.1 2,0.68 2.6,0.78 0.6,0.1 0.9,0.43 1.1,-0.07 -1.3,-0.27 -2.6,-0.84 -3.8,-0.93 z m 19.3,1.65 c 0.1,0.4 0.3,0.2 0.7,0.21 0.5,0.94 0.9,1.98 2.1,2.29 0.5,0.13 1.1,-0.08 1.4,0.5 0,0.23 -0.1,0.29 -0.2,0.36 -1.5,-0.41 -2.9,-1.84 -4.6,-0.79 0.5,0.28 0.9,0.2 1.4,0.43 0.5,0.23 0.8,0.84 1.2,1 0.7,0.24 1.4,-0.1 1.5,0.65 -0.8,0.12 -1.1,-0.37 -1.9,-0.43 -0.7,-0.06 -1.3,0.42 -2,0.43 -0.5,0 -0.8,-0.33 -1.2,-0.36 0,-0.18 0,-0.35 -0.2,-0.36 -0.1,0.19 -0.3,-0.1 -0.5,0.14 l 0,0.36 c 0.3,0.28 0.6,0 0.7,0.07 0.9,1.09 2.8,1.9 4.4,1.08 0,0.14 0.2,0.09 0.2,0.28 -0.6,0.9 -2,0.19 -2.8,0.29 -1.1,0.12 -1.7,1.14 -2.3,1.72 -0.2,-0.07 -0.2,-0.39 -0.5,-0.29 -0.2,0.13 -0.2,0.52 0,0.64 0.6,-0.03 0.8,-0.43 1.3,-0.57 0.6,-0.18 1.1,0.23 1.8,0.29 1,0.08 1.5,-0.46 2.4,-0.72 0,0.14 0.1,0.18 0.1,0.36 -0.6,0.41 -1.6,0.78 -2.6,0.64 -0.7,0.35 -1,1.95 -2.2,1.29 -0.2,0.13 -0.3,0.31 -0.2,0.57 0.7,-0.08 1.2,-0.49 2,-0.43 0.2,0.02 0.4,0.15 0.7,0.15 1.1,-0.04 1.5,-1.02 2.3,-1.36 0,-0.36 0.2,-0.47 0.5,-0.43 0,0.1 0.1,0.16 0.1,0.21 -0.6,1.17 -2.2,1.38 -3.2,2.29 0.3,0.55 0.6,1.16 0.1,1.65 0.5,0.28 1,0 0.9,-0.43 0,-0.21 -0.4,-0.06 -0.5,-0.22 -0.2,-0.28 0.1,-0.67 0.3,-0.93 1.5,-0.38 3,-0.91 2.7,-2.93 -1,-1.67 0.7,-3.3 1.8,-4 0.2,-2.17 -1.8,-2.64 -3,-3.72 0.1,-0.32 0.1,-0.84 -0.4,-0.79 -0.4,0.56 0.5,0.73 0.6,1.29 0.8,0.67 2,0.96 2.3,2.14 -0.7,-0.02 -0.8,-0.61 -1.2,-1 -0.9,-0.74 -2.2,-0.53 -3,-1.43 -0.2,-0.06 -0.3,-0.01 -0.4,-0.07 0,-0.28 -0.1,-0.42 -0.2,-0.57 -0.3,-0.02 -0.4,0.12 -0.5,0.43 0.3,0.01 0.3,-0.41 0.4,-0.07 -0.1,0.24 -0.2,0 -0.3,0.14 z m -35.2,-0.43 c -1.1,0.03 -2.4,-0.68 -3.4,-0.14 -0.5,0.09 -0.7,0.36 -1.1,0.57 0.2,0.84 0.6,1.44 0.5,2.5 l 0,0.57 c -0.3,1.81 0.2,3.24 1.1,4.15 0,0.05 0,0.09 0.1,0.07 0.3,0.67 1.6,0.86 2.3,0.65 0.6,-0.14 0.5,-0.92 0.6,-1.5 0.1,-0.13 0.2,-0.19 0.1,-0.43 0.4,-0.28 0.5,-0.8 0.8,-1.08 0,0.38 -0.2,0.62 -0.3,0.86 0.4,-0.04 0.5,-0.87 0.4,-1.21 -0.4,0.3 -0.6,0.77 -0.8,1.21 -0.2,0.16 -0.3,0.38 -0.6,0.43 -1.5,0.04 -1.9,-1.06 -2.5,-2 0.3,-0.19 0.6,0.16 0.8,0.28 0.5,0.53 1.6,1.16 2.3,0.43 0.6,-0.41 -1,-0.46 -1.1,-1 0,0.07 -0.1,0.09 -0.1,0.14 -0.3,0.07 -0.5,0.22 -0.7,0.29 -0.5,-0.01 -1,-0.56 -1.3,-0.14 -0.1,0.32 0.2,0.35 0.2,0.57 0.2,0.72 0.5,1.6 0.6,2.15 l -0.1,0 c -0.4,-0.92 -0.8,-1.95 -1,-3.08 0.1,-0.14 0.2,-0.19 0.4,-0.21 0.8,0.7 1.8,0.07 2.5,-0.08 0,0.14 -0.3,0.18 -0.2,0.36 0.4,0.26 0.9,0.38 1.3,0.65 0,-0.11 0.1,-0.13 0.2,-0.22 0.7,-1.37 -1.1,-2.78 -0.3,-4.08 0.3,-0.15 0.7,-0.41 1.1,-0.21 0.3,-0.07 0.1,-0.65 0,-0.79 -0.2,0.05 -0.5,-0.09 -0.6,0.07 -0.4,0.09 -0.8,0.14 -1.2,0.22 z m 23.3,-0.14 c -1.1,-0.29 -1.7,0.3 -2.6,0.43 0,0.88 0.7,1.42 0.4,2.36 0.6,-0.15 1.1,-0.25 1.8,-0.22 0.5,-0.2 1,-0.78 1.4,-0.79 0.1,0.25 -0.2,0.12 -0.2,0.29 0.6,0.21 1.4,0.54 2.3,0.43 0.1,-0.37 -0.6,-0.69 -0.9,-0.93 -0.1,-0.02 -0.1,-0.1 -0.3,-0.07 -0.3,-0.18 -0.6,-0.43 -1,-0.5 -0.4,0.03 -0.2,-0.1 -0.1,-0.29 -0.1,-0.01 -0.3,0.03 -0.3,-0.07 0.1,-0.15 0.3,-0.3 0.5,-0.36 0.2,0.15 0.2,0.61 0.6,0.57 0.1,0.01 0.1,0.1 0.2,0.08 0.1,-0.19 -0.2,-0.35 0,-0.43 l 0.1,0 c 0.2,0.17 0.6,0.37 0.4,0.78 0.3,-0.01 0.9,0.27 1.1,0.08 0.1,0 0.1,0.12 0.2,0.14 -0.3,-0.71 -0.9,-1.09 -1.5,-1.43 -0.2,-0.2 -0.3,-0.07 -0.7,-0.07 l -1.4,0 z m -4.6,1.28 c -0.2,0.61 -0.8,0.84 -1.3,1.22 1,-0.07 1.7,0.21 2.2,0.71 0.1,-0.07 0.2,-0.24 0.5,-0.21 0.2,0.07 0.3,0.31 0.5,0.43 0.5,-1.14 -0.3,-1.97 -0.4,-3.29 -0.9,0.02 -0.6,1.17 -1.5,1.14 z m -0.3,-0.93 0,0.43 c 0.3,0.34 1,-0.01 0.7,-0.43 0.2,0.35 -0.5,0.26 -0.5,0.08 0.1,-0.1 0.3,-0.02 0.3,-0.15 -0.1,-0.16 -0.3,0.01 -0.5,0.07 z m -17.2,0.79 c -0.1,0.17 -0.4,0.23 -0.4,0.57 0.5,-0.13 1.1,-0.09 1.2,0.43 0,0.08 0,0.11 0.1,0.14 0.6,-0.67 0,-1.58 -0.9,-1.14 z m 12.8,1.5 c -2,0.77 -3.9,1.8 -5.4,3.01 0.9,-0.01 2.2,1.3 1.1,1.93 -0.6,-0.31 -1,-1.12 -1.2,-1.5 -1.2,-0.13 -2.6,0.69 -3.9,1 -0.3,1.11 0.1,2.08 0,3 -0.1,1.39 -0.9,2.59 -0.8,4.29 0.4,0.11 0.6,0.54 0.7,0.93 0.2,-1 -0.4,-1.97 -0.1,-2.64 0.9,1.8 0.5,4.69 0.3,6.93 0.9,-0.03 1.8,-0.09 2.4,-0.43 0.2,-1.24 0.5,-2.55 -0.2,-3.36 0,-0.58 -0.2,-1.42 0.4,-1.43 1,0.91 0,3.17 0.3,4.79 1.4,0.39 2,-0.37 2.9,-0.78 -0.2,-0.19 -0.2,-0.31 -0.2,-0.58 -0.2,-1.22 0.1,-2.42 0,-3.57 -0.1,-0.59 -0.4,-1.06 -0.4,-1.72 -0.1,-0.29 0.3,-0.13 0.3,-0.43 -0.5,-0.22 -0.3,-2.15 0.2,-2.07 0.6,0.09 0.1,1.35 0.1,2.14 0.1,0.27 0.3,0.59 0.3,0.86 0.1,0.78 -0.2,1.79 -0.1,2.72 0,1.02 0.1,1.96 0.1,2.58 0.4,-0.04 0.5,0.29 0.7,0.5 0.3,-0.07 0.6,-0.17 0.8,-0.22 0.2,-2.17 1.2,-4.94 0.7,-7.29 0,-0.5 -0.3,-0.86 -0.3,-1.36 0,-0.79 -0.3,-1.52 0.3,-1.93 0.7,0.32 0.5,1.17 0.5,1.93 -0.1,2.39 0.5,4.9 1.3,6.79 1.1,-1.42 1.4,-4.57 1.1,-6.86 -0.1,-0.61 -0.3,-1.49 -0.5,-1.94 -0.3,-0.62 -1.2,-0.79 -0.9,-1.64 0.7,-0.27 0.8,0.55 1.2,0.93 0.3,0.29 0.7,0.39 1,0.71 0.4,0.51 0.6,1.59 1.6,1.29 0.5,-1.95 -0.2,-3.74 -1.8,-4.07 -0.6,-0.12 -1.3,0.17 -1.7,-0.43 0.4,-0.72 1.4,-0.12 2.3,-0.15 0.9,-0.03 2.2,-0.4 2.1,-1.14 -0.1,-0.49 -0.9,-0.69 -1.5,-0.72 -0.9,-0.04 -2.1,0.86 -2.8,0.43 0.8,-0.96 3.1,-0.51 3.4,-1.93 -1.6,-0.59 -3,0.92 -4.3,1.43 z m 18.9,1.58 c 0.2,-0.01 0.3,-0.12 0.6,-0.08 0.6,0.71 1.9,0.73 2.9,0.29 -3.4,-0.85 -6.9,-1.95 -10.1,-2.65 1.7,1.33 4.5,1.54 6.6,2.44 z m -31.1,-0.15 0.1,0 c 0.5,-0.25 0.4,-1.67 -0.1,-1.64 0.1,0.1 -0.3,0.27 -0.6,0.21 0.2,0.42 0.6,-0.08 0.8,-0.07 0,0.1 -0.1,0.12 -0.1,0.22 -0.2,0.13 -0.3,0.34 -0.7,0.35 0.2,0.54 0.1,0.89 0.2,1.43 0.2,-0.1 0.3,-0.26 0.4,-0.5 z m 31.9,-1.28 c 0,0.49 0.6,0.38 0.9,0.42 -0.1,-0.26 -0.3,-0.82 -0.7,-0.64 0.2,0.19 0.1,0.33 -0.2,0.22 z m -6.9,-0.22 c 0.1,0.24 0.2,0.35 0,0.57 0.2,0 0.3,-0.2 0.3,-0.43 -0.1,-0.03 -0.2,-0.1 -0.3,-0.14 z m -2,0.22 c 0.4,0.41 1.4,1 2,0.35 -0.5,-0.49 -1.3,-0.19 -2,-0.35 z m -0.8,0.21 c 0,-0.08 0.2,-0.34 0.3,-0.14 -0.1,0.17 -0.3,0.15 -0.2,0.43 0.1,-0.03 0.1,0.1 0.2,0 -0.3,-0.11 0.1,-0.28 0,-0.5 -0.1,-0.21 -0.5,0.13 -0.3,0.21 z m 1.1,0.72 0.1,0 c 0.1,-0.24 -0.6,-0.92 -0.9,-0.65 l 0,0.14 c 0.1,0.02 0.2,-0.02 0.3,0.08 -0.1,0.04 -0.2,0.11 -0.3,0.21 0.4,-0.05 0.4,0.29 0.8,0.22 z m -1.2,0.07 c 0.3,-0.21 -0.4,-0.57 -0.6,-0.72 0,0.13 -0.2,0.24 0,0.29 0,-0.09 0,-0.17 0.1,-0.15 l 0,0.15 c -0.1,0.39 0.2,0.39 0.5,0.43 z m -4.3,-0.07 c 0,0.18 0.1,0.27 0.3,0.28 0.2,-0.13 -0.2,-0.44 0.2,-0.5 0,0.1 0.1,0.18 0.2,0.22 0,-0.25 -0.1,-0.47 -0.4,-0.43 0,0.25 -0.3,0.14 -0.3,0.43 z m 26.1,3.07 c 0.2,0.52 -0.1,0.94 0,1.29 0.4,0.11 0.7,-0.23 1.2,-0.22 1,0.05 2.3,1.35 2.3,2.01 0.1,0.4 -0.4,0.58 -0.2,1 0.2,0.06 0.3,-0.59 0.5,-0.79 0.1,-0.15 0,-0.52 0,-0.79 -0.6,-0.53 -0.8,-1.99 -1.7,-2.64 -0.7,-0.52 -1.9,-0.87 -2.3,0 -0.7,0.56 -2,0.36 -2.3,-0.65 0,-0.61 0.4,-0.96 0.6,-1.57 -2.2,-0.84 -4,0.61 -4.6,2.29 0.6,-0.27 1,-0.72 1.6,-0.72 0.8,0.01 1.2,0.67 2,1.08 0.6,0.34 1.4,0.32 1.6,0.93 0,0.34 -0.1,0.49 -0.1,0.78 0.9,-0.19 1.1,-1.16 1.4,-2 z m -46.6,-0.5 c 0.1,-0.28 -0.3,-0.28 -0.3,0 l 0.3,0 z m 0.4,0.14 c 0,-0.31 -0.1,-0.39 -0.3,-0.28 -0.1,0.22 0.2,0.2 0.3,0.28 z m 0.1,-0.14 c 0.1,0.1 0.5,-0.05 0.5,-0.21 -0.1,0.11 -0.5,-0.05 -0.5,0.21 z m 43.1,1.36 c -0.5,-1.53 -2.7,-1.44 -3.6,-0.43 0,0.15 -0.1,0.47 0.1,0.5 0.1,-0.18 0.3,-0.24 0.5,-0.29 0.2,0.04 0.3,0.4 0.5,0.22 0.2,-0.35 1.1,-1.28 1.7,-0.5 0,0.25 -0.2,0.47 -0.5,0.5 0,0.26 0.3,0.19 0.3,0.5 -0.3,-0.13 -0.4,-0.16 -0.5,0.14 0.2,-0.01 0.4,-0.01 0.4,0.22 -0.1,0.06 0,0.26 -0.2,0.21 -0.3,0.11 -0.1,-0.24 -0.2,-0.21 -0.2,0.36 -0.7,0.31 -0.8,0.71 1.3,0.88 2.4,-0.81 3.4,-0.78 -0.1,0.34 -0.4,0.54 -0.9,0.5 0.1,0.33 0.8,0.22 1.1,0.14 l 0,-0.29 c 0,-0.33 0.2,-0.41 0.2,-0.71 -0.1,-0.02 -0.2,-0.12 -0.3,-0.15 -0.3,-0.22 -0.6,-0.4 -1,-0.5 0.1,0.39 0.1,1.04 -0.1,1.22 -0.2,-0.1 -0.4,-0.12 -0.6,-0.21 0,-0.36 0.7,-0.44 0.5,-0.79 z m -33,-0.43 c 0.5,-0.04 -0.1,-0.8 -0.2,-0.64 0.1,0.14 0.2,0.32 0.2,0.64 z m -8.6,0.36 c 0,-0.21 0.3,-0.51 0.1,-0.65 0,0.21 -0.3,0.48 -0.1,0.65 z m 40.2,-0.22 c 0.1,0.02 0.2,-0.08 0.3,-0.07 0,-0.35 -0.5,-0.2 -0.6,-0.07 0.3,0.33 -0.3,0.41 -0.3,0.71 0.2,0.01 0.1,0.2 0.3,0.15 0.2,-0.17 0.1,-0.55 0.3,-0.72 z m -1.9,1.43 c 0.2,-0.06 0.3,-0.75 0,-0.78 -0.1,0.23 -0.2,0.6 0,0.78 z m -21.6,1.08 c 0.1,0.29 0,0.62 0.3,0.64 0,-0.28 0,-0.64 0.2,-0.64 0.1,0.09 0.1,0.4 0,0.5 0.5,-0.04 0.4,-0.8 0,-0.86 -0.1,0.18 -0.3,0.25 -0.5,0.36 z m -29.9,0.85 c -2.3,1.99 -4.2,8.55 -4.2,8.37 1.8,-1.48 3.1,-3.49 4.7,-5.08 -0.2,-1.05 -0.1,-2.41 -0.5,-3.29 z m 60.6,1.01 c 0.2,-0.11 0.1,-0.42 0.4,-0.43 0.1,0.03 0.1,0.09 0.1,0.21 0,0.2 -0.3,0.09 -0.3,0.36 0.2,0.14 0.4,-0.14 0.6,-0.22 0.2,-1.08 -1.6,-0.52 -0.8,0.08 z m -34.8,2.93 c 0,-0.25 -0.2,-0.35 -0.2,-0.65 -0.3,0.31 -0.1,1.39 -0.4,2.15 -0.1,0.93 -0.1,1.59 -0.5,2.36 0.6,-0.12 1.1,-0.33 1.7,-0.5 -0.2,-0.45 0,-0.8 0.1,-1.15 -0.4,-0.52 -0.5,-1.45 -0.7,-2.21 z m -18,3 c 0,0.68 1.3,1.52 2,1.72 -0.2,-1.19 -0.6,-2.13 -1.3,-2.79 -0.1,0.54 -0.7,0.6 -0.7,1.07 z m -8.8,-0.28 c 0.1,-0.3 0,-0.56 -0.1,-0.72 0,0.23 -0.1,0.3 -0.1,0.57 -0.3,4.16 1.8,8.3 1.6,12.59 1.5,0.44 3.3,0.92 4.9,0.93 0.1,-2.37 -0.2,-4.21 -1.2,-5.58 -0.3,-0.47 -0.9,-0.82 -1.3,-1.29 -1.6,-1.89 -3.1,-3.79 -3.8,-6.5 z m 28.3,-0.29 c -0.3,0.06 -0.6,0.24 -0.6,0.57 0.2,0.56 1.1,-0.16 0.6,-0.57 z m 3.9,0.57 c 0.2,0.03 0.4,-0.18 0.5,0.07 0.1,-0.09 0.1,-0.13 0.1,-0.28 -0.2,0.04 -0.5,0.05 -0.6,0.21 z m -8.3,1.79 c -0.2,0.7 0,1.33 -0.2,1.93 1,0.63 2.5,0.01 3.2,-0.43 0.3,0.15 -0.3,0.4 0.1,0.43 0.2,0.29 0.5,-0.28 0.6,0.07 -0.3,0.55 -1.2,-0.34 -1.4,0.43 0.9,0.41 2,0.28 2,-0.64 -0.1,-0.51 -0.9,-0.64 -0.7,-1.22 0.4,0.4 0.8,0.83 1,1.43 -0.2,0.35 -0.6,0.61 -0.8,0.93 0.7,-0.21 1.5,-0.85 1.4,-1.57 -0.1,-0.63 -1.1,-0.88 -1.2,-1.58 0.4,0.42 1.4,0.98 1.5,1.65 0,0.44 -0.4,0.7 -0.5,1.07 0.4,-0.6 1.1,-1.07 0.9,-1.71 -0.2,-0.63 -1.3,-1.03 -1.2,-1.86 0.2,0.05 0.3,0.29 0.4,0.5 1.2,-0.38 2.8,-0.37 3.7,-1.15 -2.7,0.06 -6.5,0.6 -8.8,1.72 z m -25.7,-1.22 c -0.4,0.52 -1.1,0.82 -1.3,1.51 0,-0.09 -0.1,-0.15 -0.2,-0.15 -0.1,1.24 0.1,2.53 -0.3,3.58 -1.1,-0.18 -1.3,1.6 -0.1,1.5 0,-0.35 -0.3,-0.4 -0.3,-0.71 0.2,-0.15 0.6,-0.08 0.6,0.14 0,0.15 -0.2,0.2 -0.1,0.43 0.4,0.06 0.7,-0.48 0.7,-1.08 -1.4,-1.26 0.8,-3.95 1,-5.22 z m 28.1,4.44 c 0.2,0.04 0.8,-0.12 1,-0.29 -0.5,-0.1 -0.9,-0.23 -1,0.29 z m -5.3,0.07 c 0.4,1.21 0.4,2.71 1.4,3.36 0.6,-0.9 0.8,-2.31 1,-3.65 0,-0.08 0,-0.17 -0.1,-0.14 -0.3,1.26 -1.4,0.24 -2.3,0.43 z m -0.3,0 c -0.3,0.01 -0.2,0.38 -0.3,0.64 0.2,-0.02 0.3,0.01 0.4,0.07 0,-0.28 -0.1,-0.39 -0.1,-0.71 z m -1.6,1.72 c 0.2,0.43 0.2,1.09 0.2,1.71 0.4,-0.37 0.9,-1.42 0.5,-1.93 -0.2,0.15 -0.4,0.21 -0.7,0.22 z m -19.8,0.21 c -1.2,-0.55 -1.8,1.31 -0.7,1.5 0.1,-0.09 0,-0.48 -0.1,-0.64 0.2,-0.03 0.2,-0.16 0.4,-0.14 0.2,0.19 0,0.37 0,0.64 1,-0.18 0.8,-1.12 0.4,-1.36 z m 22.5,2.15 c 0,0.22 0.2,0.26 0.4,0.35 0.1,-0.22 -0.2,-0.39 0,-0.5 l 0.2,0 c 0.1,0.15 -0.1,0.5 0.2,0.43 0.2,-0.09 0.1,-0.45 0,-0.64 -0.3,-0.17 -0.8,0 -0.8,0.36 z m -2.4,0.28 c 0,-0.07 0.2,-0.62 -0.1,-0.57 0,0.17 -0.1,0.52 0.1,0.57 z m -1.3,2.86 c 0,-0.54 0.2,-0.1 0.4,0 0,-0.31 0,-0.63 -0.3,-0.64 -0.1,0.13 -0.3,0.45 -0.1,0.64 z m -17.2,2.08 c 0.1,0.34 -0.2,0.16 -0.4,0.14 -0.6,1.22 -1.9,2.91 -2.6,4.72 -0.3,0.78 -0.7,1.86 -0.8,2.65 0,0.24 0.1,0.57 0.1,0.85 -0.1,1.25 -1.2,3.07 0.1,3.65 0.2,-0.45 0.2,-0.99 0.3,-1.57 0.2,-0.9 0.2,-2.09 0.7,-2.65 0.9,0.6 -0.2,1.59 -0.3,2.58 0,0.61 0.2,1.23 0.4,1.57 0.8,1.22 2.3,0.46 2.6,-0.93 0.2,-1.02 -0.5,-1.57 -0.4,-2.22 0.1,-0.43 0.4,-0.63 0.7,-0.78 1.4,0.53 0,1.93 0,3.07 0.5,2.72 3.9,1.58 3.4,-1.14 -0.1,-0.52 -0.5,-0.86 -0.4,-1.29 0.2,-0.37 0.8,-0.47 1.2,-0.43 0.6,0.93 -0.5,1.77 -0.2,3.08 0.7,2.09 4,1.45 3.6,-1 -0.1,-0.96 -0.7,-1.65 0.2,-2.15 0,-0.81 -0.2,-1.47 -0.3,-2.15 -0.2,0.29 -0.4,0.94 -0.7,0.86 0.7,0.71 -0.7,1.48 -1,0.57 0.4,-0.52 0.1,-0.64 0,-1.14 -0.2,-0.35 -0.1,-0.88 -0.2,-1.22 -0.1,-0.43 -0.4,-0.8 -0.5,-1.28 -0.2,-0.88 0,-1.75 -0.1,-2.79 -1.7,-0.37 -3.6,-0.27 -5.4,-1 z m 15.7,1.21 c 0,0.21 0.1,0.36 0.3,0.43 -0.2,-0.34 -0.2,-0.54 0.2,-0.28 0,-0.22 0,-0.48 -0.2,-0.43 -0.1,0.12 -0.2,0.22 -0.3,0.28 z m -3.3,4.94 c 0,0.28 0,0.52 0.2,0.57 0,-0.27 -0.1,-0.33 0.1,-0.43 0.1,0.14 0.1,0.31 0.2,0.29 0,-0.27 0,-0.5 -0.2,-0.5 -0.1,0.1 -0.2,0.06 -0.3,0.07 z m -5.9,1.21 c 0.1,0.07 0,0.27 0.2,0.22 0,-0.44 0.2,-0.23 0.4,-0.15 0,-0.22 -0.1,-0.42 -0.3,-0.42 -0.1,0.14 -0.3,0.11 -0.3,0.35 z m -10.8,2.15 c 0,-0.51 0.4,-0.89 0.2,-1.29 0,0.42 -0.4,0.82 -0.2,1.29 z m 13.2,0.21 c 0,-0.16 -0.1,-0.3 0.1,-0.35 0.3,-0.04 0.1,0.38 0.2,0.42 0.2,-0.4 0.1,-0.67 -0.1,-1 0,0.05 0,0.09 -0.1,0.08 0,0.13 -0.5,0.63 -0.1,0.85 z m 8,19.31 c 0.4,-0.61 0.9,-1.12 1.2,-1.78 -0.4,0.21 -0.7,1.13 -1.2,1.5 -0.2,-0.29 -0.1,0.05 -0.4,0.07 0.4,-0.77 1.1,-1.33 1.5,-2.15 -0.8,-1.99 -0.4,-4.53 -0.4,-7.08 0,-3.13 -0.7,-6.16 -1,-8.72 -0.3,0.15 -0.3,0.67 -0.6,0.86 1.5,1.1 -1.6,2.23 -0.8,0.21 -0.3,-0.2 -0.4,-0.53 -0.7,-0.79 -0.1,0.6 -0.6,0.84 -1,1.15 0.3,0.13 0.3,0.15 0.4,0.43 0.2,1.39 -2.1,0.81 -1.2,-0.43 -0.5,-0.08 -0.9,-0.17 -1,-0.65 -0.5,0.36 -0.9,0.76 -1.3,1.08 1.3,1.03 -1.3,2.23 -1.4,0.78 0,-0.38 0.2,-0.5 0.4,-0.78 -0.6,-0.09 -1.1,-0.29 -1.2,-0.86 -0.3,0.34 -0.7,0.58 -0.9,1 0.4,1.85 1.1,3.57 1.8,5.29 0.6,1.78 1.6,3.33 2.2,4.94 0.4,1.11 2,1.62 2.4,2.72 -0.7,-0.59 -1.2,-1.37 -1.9,-1.94 0.7,1.52 1.2,3.55 1.6,5.3 0.3,1.03 0,2.31 0.1,3.36 0.3,1.86 0.9,3.49 1.7,4.86 1.5,2.69 3.2,5.1 3.9,8.66 1.4,0.65 3,1.16 3.9,2.36 -0.3,-1.38 -1.1,-2.63 -1.5,-4.08 -1,-4.49 -1.1,-10.01 -2.6,-14.09 0,0.22 0,0.49 -0.2,0.5 0.2,-1.26 -0.4,-2.15 -0.5,-3.22 -0.5,0.45 -0.9,1.33 -1.3,1.5 z m 0.5,-16.73 c 0,-0.22 -0.3,-0.09 -0.2,-0.36 0.1,0 0.1,-0.09 0.3,-0.07 0.3,0.01 -0.2,0.38 0.2,0.36 0.2,-0.3 -0.2,-0.65 -0.5,-0.72 -0.3,0.1 -0.2,1.07 0.2,0.79 z m -20.5,0 c -0.1,-0.2 0,-0.57 -0.1,-0.65 0,0.32 -0.2,0.32 -0.2,0.58 0.1,-0.02 0.1,0.08 0.3,0.07 z m 18.8,0.57 c 0.1,-0.23 -0.2,-0.16 -0.1,-0.43 0.1,0.02 0.2,-0.08 0.3,-0.07 0.1,0.05 -0.1,0.49 0.2,0.43 0.1,-0.51 0.1,-0.83 -0.4,-0.93 -0.4,0.1 -0.5,0.93 0,1 z m -2.5,0.5 c 0,-0.24 -0.3,-0.09 -0.3,-0.36 0.2,-0.06 0.3,-0.17 0.4,-0.21 0.1,0.09 0.1,0.31 0.1,0.5 0.4,-0.18 0.1,-0.71 -0.1,-0.93 -0.6,-0.04 -0.8,0.96 -0.1,1 z m -17.2,-0.79 c 0,0.33 0,0.64 0.2,0.72 0,-0.17 -0.2,-0.45 0.2,-0.43 0.1,-0.02 -0.1,0.4 0.2,0.29 l 0,-0.65 c -0.2,-0.18 -0.5,0 -0.6,0.07 z m 13.3,0.93 c 0.1,0.12 0.1,0.42 0.4,0.36 0.1,-0.24 -0.3,-0.09 -0.2,-0.36 0.1,-0.12 0.2,-0.28 0.4,-0.28 0.2,0.15 0.1,0.44 0,0.64 1.3,-0.41 -0.4,-1.96 -0.6,-0.36 z m -3.2,0.72 c 0,-0.24 -0.1,-0.62 0.2,-0.57 0.3,0.09 0.2,0.23 0.1,0.5 0.5,-0.13 0.4,-0.67 0.2,-1 -0.7,-0.57 -1.3,0.83 -0.5,1.07 z m -3.7,-1.07 c -0.7,-0.34 -1.1,0.86 -0.4,1.07 -0.1,-0.36 -0.1,-0.85 0.4,-0.57 -0.1,0.17 -0.2,0.31 -0.2,0.57 0.5,-0.13 0.5,-0.74 0.2,-1.07 z m -3.8,1.14 c 0.1,-0.17 -0.2,-0.26 -0.1,-0.57 0.4,-0.17 0.3,0.25 0.4,0.5 0.2,-0.12 0.2,-0.3 0.2,-0.57 -0.6,-0.71 -1.2,0.25 -0.5,0.64 z m 18.6,13.88 c 0.1,-0.11 0.3,-0.44 0.3,-0.58 -0.3,0.36 -0.7,1.05 -0.3,0.58 z m -11.5,0.85 c -0.3,-0.01 -0.6,-0.02 -0.7,0.15 0,0.37 0.1,0.62 0.3,0.85 0.8,0.1 0.8,-0.65 0.4,-1 z m -6.4,1.22 c -0.2,-0.26 -0.1,-1.02 0.3,-0.79 0,0.26 -0.3,0.18 -0.2,0.43 0.1,0.12 0.1,0.24 0.1,0.5 0.3,-0.08 0.4,-0.93 0.1,-1.14 -0.6,-0.15 -0.8,1.07 -0.3,1 z m 4.6,-0.93 c 0,0.29 -0.4,0.29 -0.3,0.79 0.1,0.01 0.1,-0.08 0.3,-0.08 0,0.15 -0.2,0.1 -0.2,0.29 0.1,0.1 0.3,0.19 0.5,0.14 0,-0.37 -0.1,-0.56 -0.2,-0.85 0.1,-0.01 0.1,-0.1 0.2,-0.08 0.3,0.18 0.1,0.59 0.3,0.86 l 0,-1 c -0.2,-0.11 -0.4,-0.12 -0.6,-0.07 z m -2.3,1.14 c -0.2,-0.27 0,-0.44 0,-0.78 -1.3,-1.01 -1.7,1.6 0,0.78 z m 1.3,-1 c -0.9,-0.54 -1.4,1.04 -0.6,1.29 -0.2,-0.44 0.1,-0.4 -0.2,-0.72 0.1,-0.21 0.4,-0.4 0.6,-0.14 0.1,-0.19 0.3,-0.18 0.2,-0.43 z m -0.3,1.08 c 0.3,-0.1 0.3,-0.33 0.5,-0.43 0.1,-0.18 -0.1,-0.16 0,-0.36 -0.3,0.19 -0.7,0.34 -0.6,0.93 0.6,-0.12 0.5,-0.3 0.1,-0.14 z m -2.6,11.94 c -1.1,1.33 -2.5,3.28 -2.6,5.65 0,1.48 0.4,2.69 0.9,4 -0.4,-0.26 -0.3,-1.01 -0.6,-1.35 0.3,0.98 0.2,1.85 0.1,2.64 0.3,0.1 0,-0.43 0.2,-0.43 0.1,0.36 0.1,0.87 0.6,0.86 -0.1,-0.41 -0.5,-0.9 -0.3,-1.43 0.1,0.63 0.3,1.69 1.1,1.43 -0.6,-0.08 -1,-1.1 -0.6,-1.64 -0.1,0.78 0.1,1.38 0.6,1.57 -0.1,-0.29 -0.4,-0.73 -0.2,-1.14 0.1,0.45 0.2,0.98 0.5,1.21 0,-0.41 -0.4,-0.9 -0.2,-1.29 0.3,0.4 0.1,1.24 0.6,1.43 0,-0.41 -0.4,-0.82 -0.2,-1.14 0.4,0.25 0.1,1.24 0.8,1.22 -0.1,-0.34 -0.7,-0.92 -0.4,-1.22 0.2,0.32 0.3,1.1 0.6,1 -0.1,-0.2 -0.4,-0.55 -0.3,-0.79 0.3,0.32 0.4,0.78 0.8,1.01 0.3,-0.24 0.5,-0.05 0.8,-0.15 1.7,-0.56 2.3,-2.3 3.6,-3.36 0.5,-0.58 0.8,-1.71 0.1,-2.36 -0.9,0.38 -1.8,0.83 -2.8,1.22 1.1,-1.34 3.6,-1.34 3.7,-3.79 -0.3,-0.32 -0.5,-0.67 -1.1,-0.72 0,0.41 0.2,1.09 0.2,1.5 0.2,-0.14 0.1,-0.54 0.3,-0.64 l 0,0.5 c -0.5,1.17 -1.7,1.52 -2.7,2.22 -0.9,0.67 -1.2,1.82 -1.9,2.71 -0.2,-0.35 0.2,-0.69 -0.1,-1.07 -0.3,0.57 -0.8,0.9 -0.9,1.58 0.5,0.54 0.8,1.39 1.3,2 -0.9,0.11 -0.8,-0.66 -1.5,-1.58 -0.3,-0.4 -0.9,-0.91 -1.1,-1.35 -1.2,-2.29 -1.3,-7.54 1.3,-8.23 -0.2,0 -0.3,-0.12 -0.6,-0.07 z m 0.1,0.79 c 0.2,-0.11 0.4,-0.18 0.5,-0.36 -0.4,-0.09 -0.8,0.22 -1,0.5 -1.3,1.91 -0.9,6.54 0.6,7.79 0.4,-0.55 1.3,-1.19 1.3,-1.78 0,-0.68 -1,-1.45 -0.3,-2.44 0.3,-0.44 0.8,-0.68 1.1,-1.14 0.2,-0.48 -0.2,-0.88 -0.2,-1.36 l 0,-0.07 c -0.1,-0.01 0,-0.24 -0.2,-0.21 0,0.37 -0.3,0.44 -0.5,0.71 -0.4,0.05 -0.7,-0.12 -1.1,-0.07 -0.4,-0.27 -0.5,-1.18 -0.2,-1.57 z m 0.8,-0.08 c -0.8,-0.02 -0.9,1.42 -0.1,1.51 0.1,-0.19 -0.1,-0.63 -0.2,-0.86 0.2,-0.07 0.2,-0.2 0.5,-0.14 l 0,0.14 c 0,0.26 -0.2,0.58 0,0.86 0.5,-0.09 0.6,-0.71 0.5,-1.22 -0.1,-0.21 -0.4,-0.31 -0.7,-0.5 l 0,0.21 z m 1,7.08 c 0.4,-0.74 0,-1.67 0,-2.5 0.1,-0.56 0.5,-0.95 0.3,-1.43 -1.2,0.78 -0.5,2.67 -0.3,3.93 z"
           style="fill:#130f06;fill-rule:evenodd"
           id="path17362" />
        <path
           d="m 1517.7,137.82 c -0.2,0.05 -0.1,-0.14 -0.3,-0.15 0,-0.3 0.6,-0.38 0.3,-0.71 0.1,-0.13 0.6,-0.28 0.6,0.07 -0.1,-0.01 -0.2,0.09 -0.3,0.07 -0.2,0.11 -0.2,0.44 -0.3,0.72 z"
           style="fill:#f2d2ae;fill-rule:evenodd"
           id="path17364" />
        <path
           d="m 1476.7,138.89 c -0.2,0.29 -0.6,0.31 -0.8,0.5 -0.1,-0.22 0.5,-0.34 0.8,-0.5 z"
           style="fill:#130f06;fill-rule:evenodd"
           id="path17366" />
        <path
           d="m 1476.9,185.66 c 0.6,0.71 1.5,1.02 1.8,2.01 -0.4,-0.88 -1.4,-1.13 -1.8,-2.01 z"
           style="fill:#130f06;fill-rule:evenodd"
           id="path17368" />
        <path
           d="m 1476.9,187.09 c 0.3,0 0.6,0.55 0.8,0.79 -0.4,-0.12 -0.5,-0.55 -0.8,-0.79 z"
           style="fill:#130f06;fill-rule:evenodd"
           id="path17370" />
        <path
           d="m 1482.7,190.24 c 0,0.44 0,1.1 -0.5,1.29 0,-0.26 0.2,-0.35 0.3,-0.57 -0.4,0.18 -0.5,0.57 -0.9,0.78 0,-0.16 -0.1,-0.2 -0.1,-0.35 -0.3,0.01 -0.4,0.24 -0.6,0.28 0.6,-0.55 1.6,-0.29 1.8,-1.43 z"
           style="fill:#130f06;fill-rule:evenodd"
           id="path17372" />
        <path
           d="m 1482.2,192.74 c -0.1,0.18 -0.4,0.26 -0.5,0.43 -0.2,-0.19 0.3,-0.36 0.5,-0.43 z"
           style="fill:#130f06;fill-rule:evenodd"
           id="path17374" />
        <g
           id="g17376">
          <path
             d="m 1503.5,132.88 c -0.6,0.65 -1.6,0.06 -2,-0.35 0.7,0.16 1.5,-0.14 2,0.35 z"
             style="fill:#ffffff;fill-rule:evenodd"
             id="path17378" />
          <path
             d="m 1501,132.81 c 0.3,-0.05 0.7,0.33 0.8,0.65 -0.4,0.07 -0.4,-0.27 -0.8,-0.22 0.1,-0.1 0.2,-0.17 0.3,-0.21 -0.1,-0.1 -0.2,-0.06 -0.3,-0.08 l 0,-0.14 z"
             style="fill:#ffffff;fill-rule:evenodd"
             id="path17380" />
          <path
             d="m 1500.1,133.1 c 0.2,0.09 0.5,0.18 0.5,0.43 -0.3,-0.04 -0.6,-0.04 -0.5,-0.43 z"
             style="fill:#ffffff;fill-rule:evenodd"
             id="path17382" />
          <path
             d="m 1477,135.24 c -0.7,0.73 -1.8,0.1 -2.3,-0.43 -0.3,-0.35 0.3,0.1 0.4,-0.14 0.2,-0.07 0.4,-0.22 0.7,-0.29 0.2,0.52 1,0.4 1.2,0.86 z"
             style="fill:#ffffff;fill-rule:evenodd"
             id="path17384" />
          <path
             d="m 1477.9,130.88 c 0.8,-0.2 1.3,0.59 0.8,1 -0.1,-0.52 -0.7,-0.56 -1.2,-0.43 0,-0.34 0.3,-0.4 0.4,-0.57 z"
             style="fill:#ffffff;fill-rule:evenodd"
             id="path17386" />
          <path
             d="m 1472.7,133.38 c 0.6,0.43 0.2,1.21 0.2,1.86 0,0.98 0.8,1.78 0.9,2.29 -0.9,-0.91 -1.4,-2.34 -1.1,-4.15 z"
             style="fill:#ffffff;fill-rule:evenodd"
             id="path17388" />
          <path
             d="m 1473.3,129.74 c 1.2,-0.44 2.3,0.46 3.4,0.14 0.4,-0.08 0.8,-0.13 1.2,-0.22 l 0,0.08 c 0.1,0 0.2,-0.13 0.4,-0.08 0.1,0.17 0.1,0.48 0.2,0.72 -0.4,-0.2 -0.8,0.06 -1.1,0.21 -1,1.22 0.7,2.61 0.3,4.08 -0.1,0.09 -0.2,0.11 -0.2,0.22 -0.4,-0.27 -0.9,-0.39 -1.3,-0.65 -0.1,-0.18 0.2,-0.22 0.2,-0.36 -0.7,0.15 -1.7,0.78 -2.5,0.08 -0.2,0.02 -0.3,0.07 -0.4,0.21 l -0.1,0 c 0.1,-0.56 -0.2,-0.76 -0.2,-1.22 0.2,-0.11 0.3,-0.25 0.5,-0.35 0.5,0.09 1.1,0.72 1.7,0.21 0.2,-0.1 0.6,-0.32 0.4,-0.57 -0.2,0.22 -0.6,0.59 -1.1,0.36 0,-0.21 0.5,0.06 0.5,-0.15 0.2,-0.06 0.5,-0.17 0.6,-0.35 0.1,-0.24 -0.1,-0.24 -0.2,-0.36 -0.1,-0.21 0.2,0.16 0.3,0.21 -0.5,-1.14 -1.9,-0.16 -2.6,0.07 l -0.1,0 c 0,0.07 -0.1,0.06 -0.1,0.08 0,0.29 0.3,0.32 0.4,0.14 l 0.1,0 c 0.1,0.04 0.4,-0.08 0.3,0.07 -0.5,-0.03 -0.4,0.53 -1,0.43 l 0,0.07 -0.2,0 c 0.1,-1.06 -0.3,-1.66 -0.5,-2.5 0.4,-0.21 0.6,-0.48 1.1,-0.57 z m 2.4,1.28 c 0.2,-0.08 0.5,-0.06 0.5,-0.28 -0.6,-0.65 -2.5,-0.44 -3,0.35 0.2,0.2 0.3,-0.19 0.7,-0.14 0.6,-0.29 1.4,0.17 1.8,0.07 z"
             style="fill:#ffffff;fill-rule:evenodd"
             id="path17390" />
          <path
             d="m 1503.1,132.24 c -0.9,0.1 -1.7,-0.22 -2.3,-0.43 0,-0.17 0.3,-0.04 0.2,-0.29 -0.4,0.01 -0.9,0.59 -1.4,0.79 -0.7,-0.03 -1.2,0.07 -1.8,0.22 0.3,-0.94 -0.4,-1.48 -0.4,-2.36 0.9,-0.13 1.5,-0.72 2.6,-0.43 0.3,0.11 1.1,0.11 1.4,0 0.4,0 0.5,-0.13 0.7,0.07 0.5,0.36 1,0.76 1.3,1.28 -0.2,0.2 -0.8,-0.09 -1.1,-0.07 0.2,-0.41 -0.2,-0.61 -0.4,-0.78 l 0,-0.07 c -0.1,0.02 -0.1,-0.07 -0.2,-0.08 -0.1,0.1 -0.1,0.31 -0.1,0.5 -0.4,0.04 -0.4,-0.42 -0.6,-0.57 -0.2,0.06 -0.4,0.21 -0.5,0.36 0,0.1 0.2,0.06 0.3,0.07 -0.1,0.19 -0.3,0.32 0.1,0.29 0.3,0.16 0.6,0.41 1,0.5 0.2,-0.03 0.2,0.05 0.3,0.07 0.2,0.32 0.7,0.51 0.5,0.86 0.3,0.11 0.3,-0.25 0.4,-0.07 l 0,0.14 z"
             style="fill:#ffffff;fill-rule:evenodd"
             id="path17392" />
          <path
             d="m 1522.2,136.39 c 0.4,-0.87 1.6,-0.52 2.3,0 0.9,0.65 1.1,2.11 1.7,2.64 0,0.27 0.1,0.64 0,0.79 -0.3,0.13 -0.3,0.58 -0.5,0.79 -0.2,-0.42 0.3,-0.6 0.2,-1 0,-0.66 -1.3,-1.96 -2.3,-2.01 -0.5,-0.01 -0.8,0.33 -1.2,0.22 -0.1,-0.35 0.2,-0.77 0,-1.29 -0.1,-0.08 -0.2,-0.05 -0.2,-0.14 z"
             style="fill:#ffffff;fill-rule:evenodd"
             id="path17394" />
          <path
             d="m 1474,135.1 c 0.5,0.74 1.2,1.84 2.4,1.43 0.3,-0.05 0.4,-0.27 0.6,-0.43 0,0.12 0,0.12 -0.1,0.22 0.1,0.24 0,0.3 -0.1,0.43 l -0.1,0 c -0.1,0.43 -0.1,1.15 -0.5,1.5 -0.7,0.21 -2,0.02 -2.3,-0.65 0,-0.09 0.1,-0.06 0.1,-0.14 0.2,-0.18 -0.1,-0.5 -0.2,-0.64 l -0.1,0 c -0.1,-0.62 -0.6,-1.19 -0.3,-2.01 0.5,0.65 0.4,1.95 1,2.51 0,-0.06 0.1,-0.07 0.1,-0.07 l 0.1,0 c -0.1,-0.55 -0.4,-1.43 -0.6,-2.15 z m 2.3,1.93 c 0.1,-0.08 0.5,-0.35 0.3,-0.5 -0.4,0.68 -1.3,0.08 -1.6,0 -0.3,0.34 0.9,1.01 1.3,0.5 z"
             style="fill:#ffffff;fill-rule:evenodd"
             id="path17396" />
          <path
             d="m 1520.7,138.53 0,0.29 c -0.3,0.08 -1,0.19 -1.1,-0.14 0.5,0.04 0.8,-0.16 0.9,-0.5 -1,-0.03 -2.1,1.66 -3.4,0.78 0.1,-0.4 0.6,-0.35 0.8,-0.71 0.1,-0.03 -0.1,0.32 0.2,0.21 0.2,0.05 0.1,-0.15 0.2,-0.21 0,-0.23 -0.2,-0.23 -0.4,-0.22 0.1,-0.3 0.2,-0.27 0.5,-0.14 0,-0.31 -0.3,-0.24 -0.3,-0.5 0.3,-0.03 0.5,-0.25 0.5,-0.5 -0.6,-0.78 -1.5,0.15 -1.7,0.5 -0.2,0.18 -0.3,-0.18 -0.5,-0.22 -0.2,0.05 -0.4,0.11 -0.5,0.29 -0.2,-0.03 -0.1,-0.35 -0.1,-0.5 0.9,-1.01 3.1,-1.1 3.6,0.43 0,0.38 -0.4,0.43 -0.5,0.64 -0.1,0.09 0,0.13 0,0.15 0.2,0.09 0.4,0.11 0.6,0.21 0.2,-0.18 0.2,-0.83 0.1,-1.22 0.4,0.1 0.7,0.28 1,0.5 0.4,0.21 -0.1,0.61 0.1,0.86 z"
             style="fill:#ffffff;fill-rule:evenodd"
             id="path17398" />
          <path
             d="m 1496.3,147.47 c -0.9,0.78 -2.5,0.77 -3.7,1.15 -0.1,-0.21 -0.2,-0.45 -0.4,-0.5 -0.1,0.83 1,1.23 1.2,1.86 0.2,0.64 -0.5,1.11 -0.9,1.71 0.1,-0.37 0.5,-0.63 0.5,-1.07 -0.1,-0.67 -1.1,-1.23 -1.5,-1.65 0.1,0.7 1.1,0.95 1.2,1.58 0.1,0.72 -0.7,1.36 -1.4,1.57 0.2,-0.32 0.6,-0.58 0.8,-0.93 -0.2,-0.6 -0.6,-1.03 -1,-1.43 -0.2,0.58 0.6,0.72 0.7,1.22 0,0.92 -1.1,1.05 -2,0.64 0.2,-0.77 1.1,0.12 1.4,-0.43 -0.1,-0.35 -0.4,0.22 -0.6,-0.07 -0.4,-0.03 0.2,-0.28 -0.1,-0.43 -0.7,0.44 -2.2,1.06 -3.2,0.43 0.2,-0.6 0,-1.23 0.2,-1.93 2.3,-1.12 6.1,-1.66 8.8,-1.72 z"
             style="fill:#ffffff;fill-rule:evenodd"
             id="path17400" />
          <path
             d="m 1478.5,133.81 c -0.1,0.24 -0.2,0.4 -0.4,0.5 -0.1,-0.54 0,-0.89 -0.2,-1.43 0.4,-0.01 0.5,-0.22 0.7,-0.35 0.3,0.33 0.2,1.02 -0.1,1.28 z"
             style="fill:#ffffff;fill-rule:evenodd"
             id="path17402" />
        </g>
        <path
           d="m 1473.3,132.02 c 0.7,-0.23 2.1,-1.21 2.6,-0.07 -0.1,-0.05 -0.4,-0.42 -0.3,-0.21 0.1,0.12 0.3,0.12 0.2,0.36 -0.1,0.18 -0.4,0.29 -0.6,0.35 -0.6,0 -1,-0.47 -1.6,-0.21 l -0.1,0 c -0.1,0.01 -0.2,-0.06 -0.2,-0.22 z m 1.4,-0.35 c 0.3,-0.09 0.5,0.08 0.7,-0.07 -0.2,-0.13 -0.6,-0.11 -0.7,0.07 z"
           style="fill:#130f06;fill-rule:evenodd"
           id="path17404" />
        <g
           style="fill:#aa0000"
           id="g17406">
          <path
             d="m 1516.1,137.75 c 0.3,0.03 0.2,0.72 0,0.78 -0.2,-0.18 -0.1,-0.55 0,-0.78 z"
             style="fill:#aa0000;fill-rule:evenodd"
             id="path17408" />
          <path
             d="m 1510.6,132.31 c 0.4,-0.18 0.6,0.38 0.7,0.64 -0.3,-0.04 -0.9,0.07 -0.9,-0.42 0.3,0.11 0.4,-0.03 0.2,-0.22 z"
             style="fill:#aa0000;fill-rule:evenodd"
             id="path17410" />
          <path
             d="m 1500,129.74 1.4,0 c -0.3,0.12 -1.1,0.12 -1.4,0 z"
             style="fill:#aa0000;fill-rule:evenodd"
             id="path17412" />
          <path
             d="m 1501.9,130.24 -0.1,0 c -0.2,0.08 0.1,0.24 0,0.43 -0.1,0.02 -0.1,-0.07 -0.2,-0.08 0,-0.19 0,-0.4 0.1,-0.5 0.1,0.01 0.1,0.1 0.2,0.08 l 0,0.07 z"
             style="fill:#aa0000;fill-rule:evenodd"
             id="path17414" />
          <path
             d="m 1503,131.52 c 3.2,0.7 6.7,1.8 10.1,2.65 -1,0.44 -2.3,0.42 -2.9,-0.29 -0.3,-0.04 -0.4,0.07 -0.6,0.08 -2.1,-0.9 -4.9,-1.11 -6.6,-2.44 z"
             style="fill:#aa0000;fill-rule:evenodd"
             id="path17416" />
          <path
             d="m 1522.2,136.39 c 0,0.09 0.1,0.06 0.2,0.14 -0.3,0.84 -0.5,1.81 -1.4,2 0,-0.29 0.1,-0.44 0.1,-0.78 -0.2,-0.61 -1,-0.59 -1.6,-0.93 -0.8,-0.41 -1.2,-1.07 -2,-1.08 -0.6,0 -1,0.45 -1.6,0.72 0.6,-1.68 2.4,-3.13 4.6,-2.29 -0.2,0.61 -0.6,0.96 -0.6,1.57 0.3,1.01 1.6,1.21 2.3,0.65 z"
             style="fill:#aa0000;fill-rule:evenodd"
             id="path17418" />
          <path
             d="m 1526,141.39 c -0.2,0.08 -0.4,0.36 -0.6,0.22 0,-0.27 0.3,-0.16 0.3,-0.36 0,-0.12 0,-0.18 -0.1,-0.21 -0.3,0.01 -0.2,0.32 -0.4,0.43 -0.8,-0.6 1,-1.16 0.8,-0.08 z"
             style="fill:#aa0000;fill-rule:evenodd"
             id="path17420" />
          <path
             d="m 1523.4,138.03 c 0.3,0.11 0.7,0 0.9,0.15 -0.3,0 -0.7,0.02 -0.9,-0.08 l 0,-0.07 z"
             style="fill:#aa0000;fill-rule:evenodd"
             id="path17422" />
          <path
             d="m 1502.2,131.31 c 0.3,0.24 1,0.56 0.9,0.93 l 0,-0.14 c -0.1,-0.18 -0.1,0.18 -0.4,0.07 0.2,-0.35 -0.3,-0.54 -0.5,-0.86 z"
             style="fill:#aa0000;fill-rule:evenodd"
             id="path17424" />
          <path
             d="m 1500.9,130.74 c 0.4,0.07 0.7,0.32 1,0.5 -0.4,-0.09 -0.7,-0.34 -1,-0.5 z"
             style="fill:#aa0000;fill-rule:evenodd"
             id="path17426" />
          <path
             d="m 1502.1,129.81 c 0.6,0.34 1.2,0.72 1.5,1.43 -0.1,-0.02 -0.1,-0.14 -0.2,-0.15 -0.3,-0.52 -0.8,-0.92 -1.3,-1.28 z"
             style="fill:#aa0000;fill-rule:evenodd"
             id="path17428" />
          <path
             d="m 1503.8,132.45 c 0,0.23 -0.1,0.43 -0.3,0.43 0.2,-0.22 0.1,-0.33 0,-0.57 0.1,0.04 0.2,0.11 0.3,0.14 z"
             style="fill:#aa0000;fill-rule:evenodd"
             id="path17430" />
          <path
             d="m 1501,132.53 c 0.1,0.22 -0.3,0.39 0,0.5 -0.1,0.1 -0.1,-0.03 -0.2,0 -0.1,-0.28 0.1,-0.26 0.2,-0.43 -0.1,-0.2 -0.3,0.06 -0.3,0.14 -0.2,-0.08 0.2,-0.42 0.3,-0.21 z"
             style="fill:#aa0000;fill-rule:evenodd"
             id="path17432" />
          <path
             d="m 1501,132.81 c 0.3,-0.27 1,0.41 0.9,0.65 l -0.1,0 c -0.1,-0.32 -0.5,-0.7 -0.8,-0.65 z"
             style="fill:#aa0000;fill-rule:evenodd"
             id="path17434" />
          <path
             d="m 1500.6,133.53 c 0,-0.25 -0.3,-0.34 -0.5,-0.43 l 0,-0.15 c -0.1,-0.02 -0.1,0.06 -0.1,0.15 -0.2,-0.05 0,-0.16 0,-0.29 0.2,0.15 0.9,0.51 0.6,0.72 z"
             style="fill:#aa0000;fill-rule:evenodd"
             id="path17436" />
          <path
             d="m 1526.2,139.82 c -0.2,0.2 -0.3,0.85 -0.5,0.79 0.2,-0.21 0.2,-0.66 0.5,-0.79 z"
             style="fill:#aa0000;fill-rule:evenodd"
             id="path17438" />
          <path
             d="m 1520.6,137.67 c 0.1,0.03 0.2,0.13 0.3,0.15 0,0.3 -0.2,0.38 -0.2,0.71 -0.2,-0.25 0.3,-0.65 -0.1,-0.86 z"
             style="fill:#aa0000;fill-rule:evenodd"
             id="path17440" />
          <path
             d="m 1518.9,138.18 c 0,-0.02 -0.1,-0.06 0,-0.15 0.1,-0.21 0.5,-0.26 0.5,-0.64 0.2,0.35 -0.5,0.43 -0.5,0.79 z"
             style="fill:#aa0000;fill-rule:evenodd"
             id="path17442" />
          <path
             d="m 1517.7,137.82 c 0.1,-0.28 0.1,-0.61 0.3,-0.72 -0.2,0.17 -0.1,0.55 -0.3,0.72 z"
             style="fill:#aa0000;fill-rule:evenodd"
             id="path17444" />
          <path
             d="m 1512.2,130.17 c -0.1,-0.34 -0.1,0.08 -0.4,0.07 0.1,-0.31 0.2,-0.45 0.5,-0.43 0.1,0.15 0.2,0.29 0.2,0.57 0.1,0.06 0.2,0.01 0.4,0.07 0.8,0.9 2.1,0.69 3,1.43 0.4,0.39 0.5,0.98 1.2,1 -0.3,-1.18 -1.5,-1.47 -2.3,-2.14 -0.1,-0.56 -1,-0.73 -0.6,-1.29 0.5,-0.05 0.5,0.47 0.4,0.79 1.2,1.08 3.2,1.55 3,3.72 -1.1,0.7 -2.8,2.33 -1.8,4 0.3,2.02 -1.2,2.55 -2.7,2.93 -0.2,0.26 -0.5,0.65 -0.3,0.93 0.1,0.16 0.5,0.01 0.5,0.22 0.1,0.43 -0.4,0.71 -0.9,0.43 0.5,-0.49 0.2,-1.1 -0.1,-1.65 1,-0.91 2.6,-1.12 3.2,-2.29 0,-0.05 -0.1,-0.11 -0.1,-0.21 -0.3,-0.04 -0.5,0.07 -0.5,0.43 -0.8,0.34 -1.2,1.32 -2.3,1.36 -0.3,0 -0.5,-0.13 -0.7,-0.15 -0.8,-0.06 -1.3,0.34 -2,0.43 -0.1,-0.26 0,-0.44 0.2,-0.57 1.2,0.66 1.5,-0.94 2.2,-1.29 1,0.14 2,-0.23 2.6,-0.64 0,-0.18 -0.1,-0.22 -0.1,-0.36 -0.9,0.26 -1.4,0.8 -2.4,0.72 -0.7,-0.06 -1.2,-0.47 -1.8,-0.29 -0.5,0.14 -0.7,0.54 -1.3,0.57 -0.2,-0.12 -0.2,-0.51 0,-0.64 0.3,-0.1 0.3,0.22 0.5,0.29 0.6,-0.58 1.2,-1.6 2.3,-1.72 0.8,-0.1 2.2,0.61 2.8,-0.29 0,-0.19 -0.2,-0.14 -0.2,-0.28 -1.6,0.82 -3.5,0.01 -4.4,-1.08 -0.1,-0.07 -0.4,0.21 -0.7,-0.07 l 0,-0.36 c 0.2,-0.24 0.4,0.05 0.5,-0.14 0.2,0.01 0.2,0.18 0.2,0.36 0.4,0.03 0.7,0.36 1.2,0.36 0.7,-0.01 1.3,-0.49 2,-0.43 0.8,0.06 1.1,0.55 1.9,0.43 -0.1,-0.75 -0.8,-0.41 -1.5,-0.65 -0.4,-0.16 -0.7,-0.77 -1.2,-1 -0.5,-0.23 -0.9,-0.15 -1.4,-0.43 1.7,-1.05 3.1,0.38 4.6,0.79 0.1,-0.07 0.2,-0.13 0.2,-0.36 -0.3,-0.58 -0.9,-0.37 -1.4,-0.5 -1.2,-0.31 -1.6,-1.35 -2.1,-2.29 -0.4,-0.01 -0.6,0.19 -0.7,-0.21 0.1,-0.14 0.2,0.1 0.3,-0.14 z m -2,10.15 c 0.1,-0.12 0,-0.28 -0.2,-0.29 0,0.19 0,0.31 0.2,0.29 z m 2.9,2.15 c 0,-0.24 -0.1,-0.35 -0.3,-0.36 -0.1,0.24 0,0.41 0.3,0.36 z"
             style="fill:#aa0000;fill-rule:evenodd"
             id="path17446" />
          <path
             d="m 1496.4,129.59 c -0.2,0.5 -0.5,0.17 -1.1,0.07 -0.6,-0.1 -2.4,-0.68 -2.6,-0.78 -0.1,-0.03 -0.1,-0.14 -0.1,-0.22 1.2,0.09 2.5,0.66 3.8,0.93 z"
             style="fill:#aa0000;fill-rule:evenodd"
             id="path17448" />
          <path
             d="m 1496.9,129.88 c 0.1,1.32 0.9,2.15 0.4,3.29 -0.2,-0.12 -0.3,-0.36 -0.5,-0.43 -0.3,-0.03 -0.4,0.14 -0.5,0.21 -0.5,-0.5 -1.2,-0.78 -2.2,-0.71 0.5,-0.38 1.1,-0.61 1.3,-1.22 0.9,0.03 0.6,-1.12 1.5,-1.14 z"
             style="fill:#aa0000;fill-rule:evenodd"
             id="path17450" />
          <path
             d="m 1495.6,130.02 c 0,0.13 -0.2,0.05 -0.3,0.15 0,0.18 0.7,0.27 0.5,-0.08 0.3,0.42 -0.4,0.77 -0.7,0.43 l 0,-0.43 c 0.2,-0.06 0.4,-0.23 0.5,-0.07 z"
             style="fill:#aa0000;fill-rule:evenodd"
             id="path17452" />
          <path
             d="m 1496.6,133.03 c 0.3,-0.04 0.4,0.18 0.4,0.43 -0.1,-0.04 -0.2,-0.12 -0.2,-0.22 -0.4,0.06 0,0.37 -0.2,0.5 -0.2,-0.01 -0.3,-0.1 -0.3,-0.28 0,-0.29 0.3,-0.18 0.3,-0.43 z"
             style="fill:#aa0000;fill-rule:evenodd"
             id="path17454" />
          <path
             d="m 1495,139.25 c 0.4,0.06 0.5,0.82 0,0.86 0.1,-0.1 0.1,-0.41 0,-0.5 -0.2,0 -0.2,0.36 -0.2,0.64 -0.3,-0.02 -0.2,-0.35 -0.3,-0.64 0.2,-0.11 0.4,-0.18 0.5,-0.36 z"
             style="fill:#aa0000;fill-rule:evenodd"
             id="path17456" />
          <path
             d="m 1477.2,167.86 c 0.2,0 0.2,0.23 0.2,0.5 -0.1,0.02 -0.1,-0.15 -0.2,-0.29 -0.2,0.1 -0.1,0.16 -0.1,0.43 -0.2,-0.05 -0.2,-0.29 -0.2,-0.57 0.1,-0.01 0.2,0.03 0.3,-0.07 z"
             style="fill:#aa0000;fill-rule:evenodd"
             id="path17458" />
          <path
             d="m 1471.3,168.79 c 0.2,0 0.3,0.2 0.3,0.42 -0.2,-0.08 -0.4,-0.29 -0.4,0.15 -0.2,0.05 -0.1,-0.15 -0.2,-0.22 0,-0.24 0.2,-0.21 0.3,-0.35 z"
             style="fill:#aa0000;fill-rule:evenodd"
             id="path17460" />
          <path
             d="m 1486.2,136.32 c 0.1,-0.16 0.7,0.6 0.2,0.64 0,-0.32 -0.1,-0.5 -0.2,-0.64 z"
             style="fill:#aa0000;fill-rule:evenodd"
             id="path17462" />
          <path
             d="m 1473.5,170.65 c 0.1,0.01 0.1,-0.03 0.1,-0.08 0.2,0.33 0.3,0.6 0.1,1 -0.1,-0.04 0.1,-0.46 -0.2,-0.42 -0.2,0.05 -0.1,0.19 -0.1,0.35 -0.4,-0.22 0.1,-0.72 0.1,-0.85 z"
             style="fill:#aa0000;fill-rule:evenodd"
             id="path17464" />
          <path
             d="m 1473.1,146.33 c 0.7,0.66 1.1,1.6 1.3,2.79 -0.7,-0.2 -2,-1.04 -2,-1.72 0,-0.47 0.6,-0.53 0.7,-1.07 z"
             style="fill:#aa0000;fill-rule:evenodd"
             id="path17466" />
          <path
             d="m 1491.7,147.54 c -0.1,0.02 -0.1,-0.06 -0.2,-0.07 -0.1,-0.19 0.1,-0.14 0.1,-0.28 0.2,0 0.2,0.26 0.1,0.35 z"
             style="fill:#aa0000;fill-rule:evenodd"
             id="path17468" />
          <path
             d="m 1491.3,147.4 c 0,-0.33 0.3,-0.51 0.6,-0.57 0.5,0.41 -0.4,1.13 -0.6,0.57 z m 0.3,-0.21 c 0,0.14 -0.2,0.09 -0.1,0.28 0.1,0.01 0.1,0.09 0.2,0.07 0.1,-0.09 0.1,-0.35 -0.1,-0.35 z"
             style="fill:#aa0000;fill-rule:evenodd"
             id="path17470" />
          <path
             d="m 1496.4,147.19 c 0,0.15 0,0.19 -0.1,0.28 -0.1,-0.25 -0.3,-0.04 -0.5,-0.07 0.1,-0.16 0.4,-0.17 0.6,-0.21 z"
             style="fill:#aa0000;fill-rule:evenodd"
             id="path17472" />
          <path
             d="m 1465.1,143.75 c -1.6,1.59 -2.9,3.6 -4.7,5.08 l 0,0.43 c 0.8,-3.19 1.9,-6.81 4.2,-8.8 0.4,0.88 0.3,2.24 0.5,3.29 z"
             style="fill:#aa0000;fill-rule:evenodd"
             id="path17474" />
          <path
             d="m 1486.9,152.05 c 0.1,-0.03 0.1,0.06 0.1,0.14 -0.2,1.34 -0.4,2.75 -1,3.65 -1,-0.65 -1,-2.15 -1.4,-3.36 0.9,-0.19 2,0.83 2.3,-0.43 z"
             style="fill:#aa0000;fill-rule:evenodd"
             id="path17476" />
          <path
             d="m 1483.4,153.98 c 0.4,0.51 -0.1,1.56 -0.5,1.93 0,-0.62 0,-1.28 -0.2,-1.71 0.3,-0.01 0.5,-0.07 0.7,-0.22 z"
             style="fill:#aa0000;fill-rule:evenodd"
             id="path17478" />
          <path
             d="m 1462.5,155.77 c 0,-0.27 0.2,-0.45 0,-0.64 -0.2,-0.02 -0.2,0.11 -0.4,0.14 0.1,0.16 0.2,0.55 0.1,0.64 -1.1,-0.19 -0.5,-2.05 0.7,-1.5 0.4,0.24 0.6,1.18 -0.4,1.36 z"
             style="fill:#aa0000;fill-rule:evenodd"
             id="path17480" />
          <path
             d="m 1486.2,156.2 c 0.1,0.19 0.2,0.55 0,0.64 -0.3,0.07 -0.1,-0.28 -0.2,-0.43 l -0.2,0 c -0.2,0.11 0.1,0.28 0,0.5 -0.2,-0.09 -0.4,-0.13 -0.4,-0.35 0,-0.36 0.5,-0.53 0.8,-0.36 z"
             style="fill:#aa0000;fill-rule:evenodd"
             id="path17482" />
          <path
             d="m 1482.9,156.27 c 0.3,-0.05 0.1,0.5 0.1,0.57 -0.2,-0.05 -0.1,-0.4 -0.1,-0.57 z"
             style="fill:#aa0000;fill-rule:evenodd"
             id="path17484" />
          <path
             d="m 1481.8,159.06 c 0.3,0.01 0.3,0.33 0.3,0.64 -0.2,-0.1 -0.4,-0.54 -0.4,0 -0.2,-0.19 0,-0.51 0.1,-0.64 z"
             style="fill:#aa0000;fill-rule:evenodd"
             id="path17486" />
          <path
             d="m 1480.5,162.71 c 0.2,-0.05 0.2,0.21 0.2,0.43 -0.4,-0.26 -0.4,-0.06 -0.2,0.28 -0.2,-0.07 -0.3,-0.22 -0.3,-0.43 0.1,-0.06 0.2,-0.16 0.3,-0.28 z"
             style="fill:#aa0000;fill-rule:evenodd"
             id="path17488" />
          <path
             d="m 1460.8,153.19 c 0,0.6 -0.3,1.14 -0.7,1.08 -0.1,-0.23 0.1,-0.28 0.1,-0.43 0,-0.22 -0.4,-0.29 -0.6,-0.14 0,0.31 0.3,0.36 0.3,0.71 -1.2,0.1 -1,-1.68 0.1,-1.5 0.4,-1.05 0.2,-2.34 0.3,-3.58 0.1,0 0.2,0.06 0.2,0.15 0.2,-0.69 0.9,-0.99 1.3,-1.51 -0.2,1.27 -2.4,3.96 -1,5.22 z"
             style="fill:#aa0000;fill-rule:evenodd"
             id="path17490" />
          <path
             d="m 1490.9,152.12 c -0.2,0.17 -0.8,0.33 -1,0.29 0.1,-0.52 0.5,-0.39 1,-0.29 z"
             style="fill:#aa0000;fill-rule:evenodd"
             id="path17492" />
          <path
             d="m 1463.4,146.97 c 0,-0.27 0.1,-0.34 0.1,-0.57 0.1,0.16 0.2,0.42 0.1,0.72 -0.1,0.27 -0.1,-0.16 -0.2,-0.15 z"
             style="fill:#aa0000;fill-rule:evenodd"
             id="path17494" />
          <path
             d="m 1481.7,173.29 c 0.3,0.07 0.7,0.42 0.5,0.72 -0.4,0.02 0.1,-0.35 -0.2,-0.36 -0.2,-0.02 -0.2,0.07 -0.3,0.07 -0.1,0.27 0.2,0.14 0.2,0.36 -0.4,0.28 -0.5,-0.69 -0.2,-0.79 z"
             style="fill:#aa0000;fill-rule:evenodd"
             id="path17496" />
          <path
             d="m 1480.2,173.65 c 0.5,0.1 0.5,0.42 0.4,0.93 -0.3,0.06 -0.1,-0.38 -0.2,-0.43 -0.1,-0.01 -0.2,0.09 -0.3,0.07 -0.1,0.27 0.2,0.2 0.1,0.43 -0.5,-0.07 -0.4,-0.9 0,-1 z"
             style="fill:#aa0000;fill-rule:evenodd"
             id="path17498" />
          <path
             d="m 1477.8,174.15 c 0.2,0.22 0.5,0.74 0.1,0.93 0,-0.19 0,-0.41 -0.1,-0.5 -0.1,0.04 -0.2,0.15 -0.4,0.21 0,0.27 0.3,0.12 0.3,0.36 -0.7,-0.04 -0.5,-1.04 0.1,-1 z"
             style="fill:#aa0000;fill-rule:evenodd"
             id="path17500" />
          <path
             d="m 1461.1,174.29 0,0.65 c -0.3,0.11 -0.1,-0.31 -0.2,-0.29 -0.4,-0.02 -0.2,0.26 -0.2,0.43 -0.2,-0.08 -0.2,-0.39 -0.2,-0.72 0.1,-0.07 0.4,-0.25 0.6,-0.07 z"
             style="fill:#aa0000;fill-rule:evenodd"
             id="path17502" />
          <path
             d="m 1474.4,175.65 c 0.1,-0.2 0.2,-0.49 0,-0.64 -0.2,0 -0.3,0.16 -0.4,0.28 -0.1,0.27 0.3,0.12 0.2,0.36 -0.3,0.06 -0.3,-0.24 -0.4,-0.36 0.2,-1.6 1.9,-0.05 0.6,0.36 z"
             style="fill:#aa0000;fill-rule:evenodd"
             id="path17504" />
          <path
             d="m 1471.1,174.94 c 0.2,0.33 0.3,0.87 -0.2,1 0.1,-0.27 0.2,-0.41 -0.1,-0.5 -0.3,-0.05 -0.2,0.33 -0.2,0.57 -0.8,-0.24 -0.2,-1.64 0.5,-1.07 z"
             style="fill:#aa0000;fill-rule:evenodd"
             id="path17506" />
          <path
             d="m 1466.7,176.01 c 0,-0.26 0.1,-0.4 0.2,-0.57 -0.5,-0.28 -0.5,0.21 -0.4,0.57 -0.7,-0.21 -0.3,-1.41 0.4,-1.07 0.3,0.33 0.3,0.94 -0.2,1.07 z"
             style="fill:#aa0000;fill-rule:evenodd"
             id="path17508" />
          <path
             d="m 1463.6,175.44 c 0,0.27 0,0.45 -0.2,0.57 -0.1,-0.25 0,-0.67 -0.4,-0.5 -0.1,0.31 0.2,0.4 0.1,0.57 -0.7,-0.39 -0.1,-1.35 0.5,-0.64 z"
             style="fill:#aa0000;fill-rule:evenodd"
             id="path17510" />
          <path
             d="m 1464.1,191.03 c 0.3,0.21 0.2,1.06 -0.1,1.14 0,-0.26 0,-0.38 -0.1,-0.5 -0.1,-0.25 0.2,-0.17 0.2,-0.43 -0.4,-0.23 -0.5,0.53 -0.3,0.79 -0.5,0.07 -0.3,-1.15 0.3,-1 z"
             style="fill:#aa0000;fill-rule:evenodd"
             id="path17512" />
          <path
             d="m 1469,191.17 0,1 c -0.2,-0.27 0,-0.68 -0.3,-0.86 -0.1,-0.02 -0.1,0.07 -0.2,0.08 0.1,0.29 0.2,0.48 0.2,0.85 -0.2,0.05 -0.4,-0.04 -0.5,-0.14 0,-0.19 0.2,-0.14 0.2,-0.29 -0.2,0 -0.2,0.09 -0.3,0.08 -0.1,-0.5 0.3,-0.5 0.3,-0.79 0.2,-0.05 0.4,-0.04 0.6,0.07 z"
             style="fill:#aa0000;fill-rule:evenodd"
             id="path17514" />
          <path
             d="m 1466.1,191.46 c 0,0.34 -0.2,0.51 0,0.78 -1.7,0.82 -1.3,-1.79 0,-0.78 z m -0.4,0.86 c -0.2,-0.39 0.1,-0.39 0.1,-0.86 -0.2,0 -0.1,-0.2 -0.3,-0.15 -0.2,0.19 -0.3,1.09 0.2,1.01 z"
             style="fill:#aa0000;fill-rule:evenodd"
             id="path17516" />
          <path
             d="m 1467.2,191.67 c -0.2,-0.26 -0.5,-0.07 -0.6,0.14 0.3,0.32 0,0.28 0.2,0.72 -0.8,-0.25 -0.3,-1.83 0.6,-1.29 0.1,0.25 -0.1,0.24 -0.2,0.43 z"
             style="fill:#aa0000;fill-rule:evenodd"
             id="path17518" />
          <path
             d="m 1482,189.38 c 0,0.14 -0.2,0.47 -0.3,0.58 -0.4,0.47 0,-0.22 0.3,-0.58 z"
             style="fill:#aa0000;fill-rule:evenodd"
             id="path17520" />
          <path
             d="m 1469.8,191.81 c -0.2,-0.23 -0.3,-0.48 -0.3,-0.85 0.1,-0.17 0.4,-0.16 0.7,-0.15 0.4,0.35 0.4,1.1 -0.4,1 z m 0.1,-0.85 c 0.3,0.27 0.2,0.46 0.4,0.71 0.2,-0.3 0,-0.94 -0.4,-0.71 z"
             style="fill:#aa0000;fill-rule:evenodd"
             id="path17522" />
          <path
             d="m 1467,192.46 c -0.1,-0.59 0.3,-0.74 0.6,-0.93 -0.1,0.2 0.1,0.18 0,0.36 -0.2,0.1 -0.2,0.33 -0.5,0.43 0.4,-0.16 0.5,0.02 -0.1,0.14 z"
             style="fill:#aa0000;fill-rule:evenodd"
             id="path17524" />
          <path
             d="m 1465.1,204.33 c -2.6,0.69 -2.5,5.94 -1.3,8.23 0.2,0.44 0.8,0.95 1.1,1.35 0.7,0.92 0.6,1.69 1.5,1.58 -0.5,-0.61 -0.8,-1.46 -1.3,-2 0.1,-0.68 0.6,-1.01 0.9,-1.58 0.3,0.38 -0.1,0.72 0.1,1.07 0.7,-0.89 1,-2.04 1.9,-2.71 1,-0.7 2.2,-1.05 2.7,-2.22 l 0,-0.5 c -0.2,0.1 -0.1,0.5 -0.3,0.64 0,-0.41 -0.2,-1.09 -0.2,-1.5 0.6,0.05 0.8,0.4 1.1,0.72 -0.1,2.45 -2.6,2.45 -3.7,3.79 1,-0.39 1.9,-0.84 2.8,-1.22 0.7,0.65 0.4,1.78 -0.1,2.36 -1.3,1.06 -1.9,2.8 -3.6,3.36 -0.3,0.1 -0.5,-0.09 -0.8,0.15 -0.4,-0.23 -0.5,-0.69 -0.8,-1.01 -0.1,0.24 0.2,0.59 0.3,0.79 -0.3,0.1 -0.4,-0.68 -0.6,-1 -0.3,0.3 0.3,0.88 0.4,1.22 -0.7,0.02 -0.4,-0.97 -0.8,-1.22 -0.2,0.32 0.2,0.73 0.2,1.14 -0.5,-0.19 -0.3,-1.04 -0.6,-1.43 -0.2,0.39 0.2,0.88 0.2,1.29 -0.3,-0.23 -0.4,-0.76 -0.5,-1.22 -0.2,0.42 0.1,0.86 0.2,1.15 -0.5,-0.19 -0.7,-0.79 -0.6,-1.57 -0.4,0.54 0,1.56 0.6,1.64 -0.8,0.26 -1,-0.8 -1.1,-1.43 -0.2,0.53 0.2,1.02 0.3,1.43 -0.5,0.01 -0.5,-0.5 -0.6,-0.86 -0.2,0 0.1,0.53 -0.2,0.43 0.1,-0.79 0.2,-1.66 -0.1,-2.64 0.3,0.34 0.2,1.09 0.6,1.35 -0.5,-1.31 -0.9,-2.52 -0.9,-4 0.1,-2.37 1.5,-4.32 2.6,-5.65 0.3,-0.05 0.4,0.07 0.6,0.07 z m -1.1,9.87 c -0.3,-0.75 -0.5,-1.64 -0.7,-2.43 0,0.74 0.3,1.82 0.7,2.43 z m -0.9,-0.29 c -0.2,-0.35 -0.2,-0.87 -0.5,-1.07 0.2,0.33 0.1,0.89 0.5,1.07 z m 1.2,0.65 c -0.1,-0.54 -0.2,-1.17 -0.5,-1.5 0.1,0.52 0.2,1.08 0.5,1.5 z m 0.4,-0.07 0,-0.36 c -0.4,0.03 -0.2,-0.64 -0.5,-0.79 0,0.35 0.2,0.99 0.5,1.15 z"
             style="fill:#aa0000;fill-rule:evenodd"
             id="path17526" />
          <path
             d="m 1465.4,204.76 c 0.3,0.19 0.6,0.29 0.7,0.5 0.1,0.51 0,1.13 -0.5,1.22 -0.2,-0.29 0,-0.6 0,-0.86 l 0,-0.15 c -0.3,-0.05 -0.3,0.08 -0.5,0.15 0.1,0.23 0.3,0.66 0.2,0.86 -0.8,-0.09 -0.7,-1.53 0.1,-1.51 l 0,-0.21 z"
             style="fill:#aa0000;fill-rule:evenodd"
             id="path17528" />
          <path
             d="m 1466.7,208.12 c 0.2,0.48 -0.2,0.87 -0.3,1.43 0,0.83 0.4,1.76 0,2.5 -0.2,-1.26 -0.9,-3.15 0.3,-3.93 z"
             style="fill:#aa0000;fill-rule:evenodd"
             id="path17530" />
          <path
             d="m 1495,130.95 c -0.3,1.42 -2.6,0.97 -3.4,1.93 0.7,0.43 1.9,-0.47 2.8,-0.43 0.6,0.03 1.4,0.23 1.5,0.72 0.1,0.74 -1.2,1.11 -2.1,1.14 -0.9,0.03 -1.9,-0.57 -2.3,0.15 0.4,0.6 1.1,0.31 1.7,0.43 1.6,0.33 2.3,2.12 1.8,4.07 -1,0.3 -1.2,-0.78 -1.6,-1.29 -0.3,-0.32 -0.7,-0.42 -1,-0.71 -0.4,-0.38 -0.5,-1.2 -1.2,-0.93 -0.3,0.85 0.6,1.02 0.9,1.64 0.2,0.45 0.4,1.33 0.5,1.94 0.3,2.29 0,5.44 -1.1,6.86 -0.8,-1.89 -1.4,-4.4 -1.3,-6.79 0,-0.76 0.2,-1.61 -0.5,-1.93 -0.6,0.41 -0.3,1.14 -0.3,1.93 0,0.5 0.3,0.86 0.3,1.36 0.5,2.35 -0.5,5.12 -0.7,7.29 -0.2,0.05 -0.5,0.15 -0.8,0.22 -0.2,-0.21 -0.3,-0.54 -0.7,-0.5 0,-0.62 -0.1,-1.56 -0.1,-2.58 -0.1,-0.93 0.2,-1.94 0.1,-2.72 0,-0.27 -0.2,-0.59 -0.3,-0.86 0,-0.79 0.5,-2.05 -0.1,-2.14 -0.5,-0.08 -0.7,1.85 -0.2,2.07 0,0.3 -0.4,0.14 -0.3,0.43 0,0.66 0.3,1.13 0.4,1.72 0.1,1.15 -0.2,2.35 0,3.57 0,0.27 0,0.39 0.2,0.58 -0.9,0.41 -1.5,1.17 -2.9,0.78 -0.3,-1.62 0.7,-3.88 -0.3,-4.79 -0.6,0.01 -0.4,0.85 -0.4,1.43 0.7,0.81 0.4,2.12 0.2,3.36 -0.6,0.34 -1.5,0.4 -2.4,0.43 0.2,-2.24 0.6,-5.13 -0.3,-6.93 -0.3,0.67 0.3,1.64 0.1,2.64 -0.1,-0.39 -0.3,-0.82 -0.7,-0.93 -0.1,-1.7 0.7,-2.9 0.8,-4.29 0.1,-0.92 -0.3,-1.89 0,-3 1.3,-0.31 2.7,-1.13 3.9,-1 0.2,0.38 0.6,1.19 1.2,1.5 1.1,-0.63 -0.2,-1.94 -1.1,-1.93 1.5,-1.21 3.4,-2.24 5.4,-3.01 1.3,-0.51 2.7,-2.02 4.3,-1.43 z m -7,5.72 c 0,-0.82 -0.8,-1.41 -1.9,-1.43 0.5,0.44 1.5,0.69 1.9,1.43 z m -2.5,1 c 0,-0.47 -0.1,-0.85 -0.5,-1 0.2,0.33 0.3,0.72 0.5,1 z"
             style="fill:#aa0000;fill-rule:evenodd"
             id="path17532" />
          <path
             d="m 1463.4,146.97 c 0.1,-0.01 0.1,0.42 0.2,0.15 0.7,2.71 2.2,4.61 3.8,6.5 0.4,0.47 1,0.82 1.3,1.29 1,1.37 1.3,3.21 1.2,5.58 -1.6,-0.01 -3.4,-0.49 -4.9,-0.93 0.2,-4.29 -1.9,-8.43 -1.6,-12.59 z"
             style="fill:#aa0000;fill-rule:evenodd"
             id="path17534" />
          <path
             d="m 1470.1,136.53 c -0.1,0.18 -0.3,-0.19 -0.4,-0.14 0.7,0.52 1.2,1.87 2.2,2.36 0.3,0.11 0.7,0.09 1,0.21 0.3,0.15 0.5,0.44 0.8,0.5 0.8,0.19 1.9,-0.07 2.5,-0.64 0.8,0.12 1.3,-0.67 1.7,-1.22 0.4,1.21 1.2,1.96 1.6,3.22 0.3,0.89 0,2.4 0.4,3.22 -2.3,0.62 0.3,3.75 1.3,1.36 0.1,1.15 -0.3,2.72 -0.2,4.08 -0.7,-1.98 -2.6,-2.64 -2.9,-4.94 -0.2,-0.07 -0.2,-0.27 -0.3,-0.36 -0.1,1.94 -0.9,3.85 -1.3,5.8 -0.5,0.2 -0.9,-0.62 -1.4,-0.08 -0.3,-0.39 -0.3,-0.85 -0.4,-1.28 -0.3,-1.52 -1.2,-2.73 -1.3,-4.58 -0.4,1.06 -1,1.99 -1.4,3.15 -1.9,-0.96 -3.5,-2.22 -3.6,-5.08 0.1,-0.22 0.6,-0.55 0.2,-0.79 -0.6,0.31 -0.9,0.94 -1.6,1.15 0.4,-0.73 0.1,-1.62 0.2,-2.36 0.1,-1.08 0.8,-1.51 1.5,-2.08 0,-0.26 0.2,-0.42 0.2,-0.64 0.4,0.15 0.7,0.38 1,0.57 -0.3,0.17 -0.5,-0.45 -1,-0.36 0.3,0.43 0.6,0.88 1.4,0.79 0,-0.84 -0.5,-1.21 -1.2,-1.29 -0.1,-0.56 0.1,-0.81 0.2,-1.21 0.4,0.1 0.5,0.48 0.8,0.64 z m 5.8,2.86 c 0.2,-0.19 0.6,-0.21 0.8,-0.5 -0.3,0.16 -0.9,0.28 -0.8,0.5 z"
             style="fill:#aa0000;fill-rule:evenodd"
             id="path17536" />
          <path
             d="m 1482.7,189.31 c 0.1,1.07 0.7,1.96 0.5,3.22 0.2,-0.01 0.2,-0.28 0.2,-0.5 1.5,4.08 1.6,9.6 2.6,14.09 0.4,1.45 1.2,2.7 1.5,4.08 -0.9,-1.2 -2.5,-1.71 -3.9,-2.36 -0.7,-3.56 -2.4,-5.97 -3.9,-8.66 -0.8,-1.37 -1.4,-3 -1.7,-4.86 -0.1,-1.05 0.2,-2.33 -0.1,-3.36 -0.4,-1.75 -0.9,-3.78 -1.6,-5.3 0.7,0.57 1.2,1.35 1.9,1.94 -0.4,-1.1 -2,-1.61 -2.4,-2.72 -0.6,-1.61 -1.6,-3.16 -2.2,-4.94 -0.7,-1.72 -1.4,-3.44 -1.8,-5.29 0.2,-0.42 0.6,-0.66 0.9,-1 0.1,0.57 0.6,0.77 1.2,0.86 -0.2,0.28 -0.4,0.4 -0.4,0.78 0.1,1.45 2.7,0.25 1.4,-0.78 0.4,-0.32 0.8,-0.72 1.3,-1.08 0.1,0.48 0.5,0.57 1,0.65 -0.9,1.24 1.4,1.82 1.2,0.43 -0.1,-0.28 -0.1,-0.3 -0.4,-0.43 0.4,-0.31 0.9,-0.55 1,-1.15 0.3,0.26 0.4,0.59 0.7,0.79 -0.8,2.02 2.3,0.89 0.8,-0.21 0.3,-0.19 0.3,-0.71 0.6,-0.86 0.3,2.56 1,5.59 1,8.72 0,2.55 -0.4,5.09 0.4,7.08 -0.4,0.82 -1.1,1.38 -1.5,2.15 0.3,-0.02 0.2,-0.36 0.4,-0.07 0.5,-0.37 0.8,-1.29 1.2,-1.5 -0.3,0.66 -0.8,1.17 -1.2,1.78 0.4,-0.17 0.8,-1.05 1.3,-1.5 z m -1,1.65 c 0.2,-0.41 1,-0.86 0.7,-1.22 -0.1,0.51 -0.9,0.88 -0.7,1.22 z m -3,-3.29 c -0.3,-0.99 -1.2,-1.3 -1.8,-2.01 0.4,0.88 1.4,1.13 1.8,2.01 z m -0.3,0.28 c -0.5,-0.5 -1.2,-1.21 -1.7,-1.5 0.5,0.57 1,1.11 1.7,1.5 z m 3.6,-0.35 c -0.3,0.43 -0.5,0.95 -0.7,1.5 0.4,-0.36 0.6,-0.87 0.7,-1.5 z m -0.6,1.78 c 0.4,-0.34 0.6,-0.84 0.8,-1.36 -0.4,0.33 -0.6,0.87 -0.8,1.36 z m 0.6,-2.43 c -0.3,0.36 -0.6,1.14 -0.5,1.57 0.1,-0.5 0.4,-0.94 0.5,-1.57 z m -4.3,0.93 c -0.2,-0.24 -0.5,-0.79 -0.8,-0.79 0.3,0.24 0.4,0.67 0.8,0.79 z m 0,0.72 c 0.5,0.37 1.1,1.23 1.8,0.78 -0.3,-0.21 -0.7,-0.25 -0.8,-0.64 0.3,0.06 0.6,0.51 0.8,0.36 -0.4,-0.15 -0.6,-0.47 -1,-0.58 0,0.18 0.3,0.27 0,0.36 -0.2,-0.3 -0.5,-0.57 -0.8,-0.78 0.1,0.39 0.4,0.67 0.7,0.93 -0.3,0 -0.5,-0.58 -0.7,-0.43 z m 2.2,2.64 c -0.8,-0.48 -1.5,-1.05 -2.1,-1.71 0.3,0.85 1,1.72 1.8,1.86 -0.5,-0.26 -1.1,-0.78 -1.2,-1.15 0.4,0.36 0.9,1.01 1.5,1 z m 1.3,-1.64 c -0.3,0.05 -0.5,0.24 -0.7,0.5 0.1,0.2 0.3,-0.15 0.3,0.14 0.2,-0.03 0.3,-0.24 0.4,-0.36 -0.2,0.05 -0.4,0.21 -0.5,0.08 0.2,-0.13 0.4,-0.22 0.5,-0.36 z m -0.3,2.07 c 0.2,-0.04 0.3,-0.27 0.6,-0.28 0,0.15 0.1,0.19 0.1,0.35 0.4,-0.21 0.5,-0.6 0.9,-0.78 -0.1,0.22 -0.3,0.31 -0.3,0.57 0.5,-0.19 0.5,-0.85 0.5,-1.29 -0.2,1.14 -1.2,0.88 -1.8,1.43 z m -2.5,-0.57 c 0.4,0.32 0.9,0.61 1.3,0.71 -0.6,-0.52 -1.3,-0.83 -1.8,-1.5 0.1,0.29 0.3,0.58 0.5,0.79 z m 2.8,-0.07 c 0.5,-0.11 -0.8,-0.09 -0.9,0.07 0.3,0.11 0.6,-0.08 0.9,-0.07 z m -1.9,1.07 c -0.3,-0.43 -0.8,-0.61 -1.1,-1 0.1,0.57 0.7,0.73 1.1,1 z m 1.5,1 c 0.3,-0.14 0.7,-0.14 0.9,-0.36 -0.3,0.09 -1,0.15 -0.9,0.36 z m 0.9,0.07 c 0.1,-0.17 0.4,-0.25 0.5,-0.43 -0.2,0.07 -0.7,0.24 -0.5,0.43 z"
             style="fill:#aa0000;fill-rule:evenodd"
             id="path17538" />
          <path
             d="m 1477.9,129.66 c 0.1,-0.16 0.4,-0.02 0.6,-0.07 0.1,0.14 0.3,0.72 0,0.79 -0.1,-0.24 -0.1,-0.55 -0.2,-0.72 -0.2,-0.05 -0.3,0.08 -0.4,0.08 l 0,-0.08 z"
             style="fill:#aa0000;fill-rule:evenodd"
             id="path17540" />
          <path
             d="m 1478.7,131.88 c 0.5,-0.41 0,-1.2 -0.8,-1 0.9,-0.44 1.5,0.47 0.9,1.14 -0.1,-0.03 -0.1,-0.06 -0.1,-0.14 z"
             style="fill:#aa0000;fill-rule:evenodd"
             id="path17542" />
          <path
             d="m 1475.4,131.6 c -0.2,0.15 -0.4,-0.02 -0.7,0.07 0.1,-0.18 0.5,-0.2 0.7,-0.07 z"
             style="fill:#aa0000;fill-rule:evenodd"
             id="path17544" />
          <path
             d="m 1473.3,132.02 c 0,0.16 0.1,0.23 0.2,0.22 -0.1,0.18 -0.4,0.15 -0.4,-0.14 0,-0.02 0.1,-0.01 0.1,-0.08 l 0.1,0 z"
             style="fill:#aa0000;fill-rule:evenodd"
             id="path17546" />
          <path
             d="m 1473.6,132.24 c 0.6,-0.26 1,0.21 1.6,0.21 0,0.21 -0.5,-0.06 -0.5,0.15 -0.2,-0.17 -0.5,-0.18 -0.8,-0.29 0.1,-0.15 -0.2,-0.03 -0.3,-0.07 z"
             style="fill:#aa0000;fill-rule:evenodd"
             id="path17548" />
          <path
             d="m 1473.4,134.17 0.1,0 c 0.2,1.13 0.6,2.16 1,3.08 0,0 -0.1,0.01 -0.1,0.07 -0.6,-0.56 -0.5,-1.86 -1,-2.51 -0.1,-0.28 0,-0.4 0,-0.64 z"
             style="fill:#aa0000;fill-rule:evenodd"
             id="path17550" />
          <path
             d="m 1477,135.24 c -0.2,-0.46 -1,-0.34 -1.2,-0.86 0,-0.05 0.1,-0.07 0.1,-0.14 0.1,0.54 1.7,0.59 1.1,1 z"
             style="fill:#aa0000;fill-rule:evenodd"
             id="path17552" />
          <path
             d="m 1475.2,139.11 c 0.2,-0.34 0.6,-0.4 1,-0.43 -0.6,0.58 -1.5,0.62 -2.5,0.57 -0.4,-0.21 -0.7,-0.4 -1,-0.65 -1.8,-0.28 -2.1,-2.02 -3.3,-2.86 0,-0.26 0.1,-0.5 0.2,-0.78 0.5,1.11 1.4,1.96 2.1,2.93 -0.3,-1.15 -1.6,-1.95 -2,-3.22 0.3,-0.82 0.6,-1.93 0.5,-2.93 -0.2,0.33 -0.1,0.93 -0.3,1.29 0,-0.71 0.1,-1.81 0.5,-2.29 -1.1,0.75 -0.5,3.21 -1.4,4.22 0,0.17 0.1,0.21 0.1,0.43 -0.3,1.06 -1,1.98 -1.7,2.93 -0.4,0.65 -0.6,1.16 -0.6,2.14 0,0.6 -0.1,1.35 -0.2,1.94 -0.3,0.92 -0.9,1.52 -0.8,2.64 0.1,0.27 0.4,0.27 0.5,0.57 -0.1,0.59 -0.1,1.19 -0.7,1.22 -0.1,-0.33 0.4,-0.28 0.2,-0.57 0,-0.13 -0.1,-0.17 -0.3,-0.15 -0.4,0.04 -0.2,0.34 -0.2,0.72 -0.9,-0.13 -0.6,-1.49 0.1,-1.57 0.4,-2.3 -0.2,-4.58 -0.5,-6.94 -0.1,-1.14 0.4,-1.77 0.6,-2.72 0.6,-2.95 1.2,-5.57 3.1,-7.29 0.9,0.22 1.6,0.55 2.2,1.07 -0.7,0.9 -1.3,1.91 -2.1,2.79 -1.1,1.33 -2.6,2.37 -3,4.22 0.4,-0.14 0.3,-0.52 0.4,-0.79 1,-1.99 3,-3.06 4,-5.08 0.3,-0.27 0.5,-0.69 0.9,-0.93 l 0,-0.35 c 0.9,-0.51 1,-1.85 1.9,-2.36 0.8,0.09 1,-0.37 1.4,-0.58 0,-0.98 -1.2,-1.23 -1.4,-2.07 0,-0.33 0.3,-1.26 0.5,-1.65 0.2,-0.41 0.7,-1.19 1.3,-1.86 0.9,-1.2 1.8,-1.86 3.2,-2.64 0.8,-0.4 1.5,-0.99 2.4,-0.86 0.4,0.05 1.4,0.6 1.7,1 0.4,0.46 0.2,1.09 0.3,1.72 0.1,0.2 0.3,0.26 0.4,0.43 0,0.65 -0.2,1.1 -0.7,1.14 -0.1,-0.31 0.2,-0.27 0.2,-0.5 -0.2,-0.35 -0.8,0 -0.8,0.29 0.2,0.14 0.2,-0.29 0.3,-0.07 l 0,0.35 c -1.3,-0.12 -0.6,-1.75 0.3,-1.78 0.2,-1.07 -0.3,-1.73 -1,-2.08 -1.2,0.07 -2.7,0.94 -3.1,2.15 -0.3,1.12 0.6,2.58 0.3,4.14 -0.1,0.8 -0.8,1.59 -0.8,2.15 -0.2,1.15 0.8,1.99 0.8,2.65 0.3,0.14 0.7,0.2 1,0.35 0,0.09 -0.2,0.06 -0.3,0.08 0.6,0.39 0.5,1.4 1.3,1.5 -0.4,-0.36 -0.6,-0.9 -1,-1.36 0.5,-0.03 0.8,0.64 1.2,0.93 -0.1,0.22 -0.2,-0.08 -0.3,-0.07 0.3,0.52 0.6,0.9 0.7,1.64 0.1,0.41 0,0.76 0.2,1.15 0,0.17 0.2,0.35 0.2,0.57 0.4,1.5 -0.4,3.07 -0.4,4.65 0,0.57 0.1,1.12 0.1,1.64 -0.2,1.54 -1,2.69 -0.7,4.44 1,0.09 0.7,1.63 0,1.57 -0.1,-0.24 0.2,-0.43 0.3,-0.72 -0.1,-0.09 -0.4,-0.09 -0.5,0 -0.1,0.23 0.1,0.47 0,0.79 -0.9,-0.13 -0.9,-1.15 -0.3,-1.57 0.2,-0.06 0.1,0.19 0.3,0.14 0,-0.89 0.2,-1.98 0.1,-2.86 -0.2,-2.01 -1.8,-3.43 -1.9,-5.51 -0.6,0.1 -0.6,1.42 -1.2,1.86 0.2,0.04 0.5,-0.33 0.7,-0.5 0.2,0.22 -0.4,0.56 -0.5,0.86 -0.1,-0.51 -0.4,0.39 -0.8,0.36 0,-0.31 0.4,-0.41 0.5,-0.72 0.5,-0.71 0.4,-1.83 1.3,-2.14 -0.1,-1.28 0.5,-1.76 1,-2.43 0.2,-0.5 -0.1,-0.83 -0.1,-1.29 0,-0.33 0.3,-0.61 0.3,-0.93 0,-0.7 -0.6,-1.36 -0.8,-2.08 -0.6,-0.07 -1,0.21 -1.7,0.29 -1.9,0.26 -3.8,-0.91 -4.9,0.64 -0.2,0.59 0.3,1.22 0.4,1.93 0.1,1.07 -0.2,2.25 -0.2,3.22 0.1,1.8 1.3,2.92 2.9,3.36 -0.9,0.59 -1.7,-1.43 -2.4,-0.21 0.3,0.07 0.6,0.19 1,0.21 -0.1,0.26 0.2,0.28 0,0.43 0.3,-0.02 1.2,0.1 1.5,0.08 z"
             style="fill:#aa0000;fill-rule:evenodd"
             id="path17554" />
          <path
             d="m 1473.3,129.74 c 1,-0.54 2.3,0.17 3.4,0.14 -1.1,0.32 -2.2,-0.58 -3.4,-0.14 z"
             style="fill:#aa0000;fill-rule:evenodd"
             id="path17556" />
          <path
             d="m 1476.8,136.75 c -0.1,0.58 0,1.36 -0.6,1.5 0.4,-0.35 0.4,-1.07 0.5,-1.5 l 0.1,0 z"
             style="fill:#aa0000;fill-rule:evenodd"
             id="path17558" />
          <path
             d="m 1477.7,134.67 c 0.4,-1.47 -1.3,-2.86 -0.3,-4.08 -0.8,1.3 1,2.71 0.3,4.08 z"
             style="fill:#aa0000;fill-rule:evenodd"
             id="path17560" />
          <path
             d="m 1473.7,132.6 c 0.6,-0.28 0.9,0.6 1.7,0.21 -0.6,0.51 -1.2,-0.12 -1.7,-0.21 z"
             style="fill:#aa0000;fill-rule:evenodd"
             id="path17562" />
          <path
             d="m 1473.9,130.95 c 0.4,-0.28 1.5,-0.16 1.8,0.07 -0.4,0.1 -1.2,-0.36 -1.8,-0.07 z"
             style="fill:#aa0000;fill-rule:evenodd"
             id="path17564" />
          <path
             d="m 1478.6,132.53 c 0,-0.1 0.1,-0.12 0.1,-0.22 -0.2,-0.01 -0.6,0.49 -0.8,0.07 0.3,0.06 0.7,-0.11 0.6,-0.21 0.5,-0.03 0.6,1.39 0.1,1.64 l -0.1,0 c 0.3,-0.26 0.4,-0.95 0.1,-1.28 z"
             style="fill:#aa0000;fill-rule:evenodd"
             id="path17566" />
          <path
             d="m 1472.9,132.81 c 0.5,1.25 -0.2,3.41 0.8,4.01 l 0.1,0 c -0.1,0.18 0.2,0.42 0.2,0.64 0,0.08 -0.1,0.05 -0.1,0.14 -0.1,0.02 -0.1,-0.02 -0.1,-0.07 -0.1,-0.51 -0.9,-1.31 -0.9,-2.29 0,-0.65 0.4,-1.43 -0.2,-1.86 l 0,-0.57 0.2,0 z"
             style="fill:#aa0000;fill-rule:evenodd"
             id="path17568" />
          <path
             d="m 1474,135.1 c 0,-0.21 -0.3,-0.25 -0.2,-0.57 0.3,-0.42 0.8,0.13 1.3,0.14 -0.1,0.24 -0.7,-0.21 -0.4,0.14 -0.2,-0.12 -0.5,-0.47 -0.8,-0.28 0.6,0.94 1,2.04 2.5,2 -1.2,0.41 -1.9,-0.69 -2.4,-1.43 z"
             style="fill:#aa0000;fill-rule:evenodd"
             id="path17570" />
          <path
             d="m 1475,136.53 c 0.2,0.35 0.7,0.75 1.3,0.5 -0.4,0.51 -1.6,-0.16 -1.3,-0.5 z"
             style="fill:#aa0000;fill-rule:evenodd"
             id="path17572" />
          <path
             d="m 1476.8,135.82 c 0,0.16 -0.4,0.31 -0.5,0.21 0,-0.26 0.4,-0.1 0.5,-0.21 z"
             style="fill:#aa0000;fill-rule:evenodd"
             id="path17574" />
          <path
             d="m 1477,136.1 c 0.2,-0.44 0.4,-0.91 0.8,-1.21 0.1,0.34 0,1.17 -0.4,1.21 0.1,-0.24 0.3,-0.48 0.3,-0.86 -0.3,0.28 -0.4,0.8 -0.8,1.08 0.1,-0.1 0.1,-0.1 0.1,-0.22 z"
             style="fill:#aa0000;fill-rule:evenodd"
             id="path17576" />
          <path
             d="m 1475.5,136.03 c 0,-0.28 0.4,-0.28 0.3,0 l -0.3,0 z"
             style="fill:#aa0000;fill-rule:evenodd"
             id="path17578" />
          <path
             d="m 1475.9,135.89 c 0.2,-0.11 0.3,-0.03 0.3,0.28 -0.1,-0.08 -0.4,-0.06 -0.3,-0.28 z"
             style="fill:#aa0000;fill-rule:evenodd"
             id="path17580" />
          <path
             d="m 1469.9,162.78 c 0.1,1.04 -0.1,1.91 0.1,2.79 0.1,0.48 0.4,0.85 0.5,1.28 0.1,0.34 0,0.87 0.2,1.22 0.1,0.5 0.4,0.62 0,1.14 0.3,0.91 1.7,0.14 1,-0.57 0.3,0.08 0.5,-0.57 0.7,-0.86 0.1,0.68 0.3,1.34 0.3,2.15 -0.9,0.5 -0.3,1.19 -0.2,2.15 0.4,2.45 -2.9,3.09 -3.6,1 -0.3,-1.31 0.8,-2.15 0.2,-3.08 -0.4,-0.04 -1,0.06 -1.2,0.43 -0.1,0.43 0.3,0.77 0.4,1.29 0.5,2.72 -2.9,3.86 -3.4,1.14 0,-1.14 1.4,-2.54 0,-3.07 -0.3,0.15 -0.6,0.35 -0.7,0.78 -0.1,0.65 0.6,1.2 0.4,2.22 -0.3,1.39 -1.8,2.15 -2.6,0.93 -0.2,-0.34 -0.4,-0.96 -0.4,-1.57 0.1,-0.99 1.2,-1.98 0.3,-2.58 -0.5,0.56 -0.5,1.75 -0.7,2.65 -0.1,0.58 -0.1,1.12 -0.3,1.57 -1.3,-0.58 -0.2,-2.4 -0.1,-3.65 0,-0.28 -0.1,-0.61 -0.1,-0.85 0.1,-0.79 0.5,-1.87 0.8,-2.65 0.7,-1.81 2,-3.5 2.6,-4.72 0.2,0.02 0.5,0.2 0.4,-0.14 1.8,0.73 3.7,0.63 5.4,1 z"
             style="fill:#aa0000;fill-rule:evenodd"
             id="path17582" />
        </g>
      </g>
      <text
         id="text17584"
         y="-639.75201"
         x="2746.9541"
         style="font-style:normal;font-weight:normal;font-size:29.88143349px;line-height:125%;font-family:sans-serif;letter-spacing:0px;word-spacing:0px;writing-mode:tb-rl;fill:#ff0000;fill-opacity:1;stroke:none;stroke-width:1px;stroke-linecap:butt;stroke-linejoin:miter;stroke-opacity:1"
         xml:space="preserve"
         transform="scale(0.99920973,1.0007909)"><tspan
           y="2746.9541"
           x="-639.75201"
           id="tspan17586">JOKER</tspan></text>
      <text
         transform="scale(-0.99920973,-1.0007909)"
         xml:space="preserve"
         style="font-style:normal;font-weight:normal;font-size:29.88143349px;line-height:125%;font-family:sans-serif;letter-spacing:0px;word-spacing:0px;writing-mode:tb-rl;fill:#ff0000;fill-opacity:1;stroke:none;stroke-width:1px;stroke-linecap:butt;stroke-linejoin:miter;stroke-opacity:1"
         x="-2925.4807"
         y="325.71243"
         id="text17588"><tspan
           id="tspan17590"
           x="325.71243"
           y="-2925.4807">JOKER</tspan></text>
    </g>
  </g>
</svg>
