<?xml version="1.0" encoding="UTF-8" standalone="no"?>
<!-- Created with Inkscape (http://www.inkscape.org/) -->

<svg
   width="210"
   height="315.00003"
   viewBox="0 0 210.00001 315.00005"
   id="svg8691"
   version="1.1"
   xmlns="http://www.w3.org/2000/svg"
   xmlns:svg="http://www.w3.org/2000/svg"
   xmlns:rdf="http://www.w3.org/1999/02/22-rdf-syntax-ns#"
   xmlns:cc="http://creativecommons.org/ns#"
   xmlns:dc="http://purl.org/dc/elements/1.1/">
  <defs
     id="defs8693" />
  <metadata
     id="metadata8696">
    <rdf:RDF>
      <cc:Work
         rdf:about="">
        <dc:format>image/svg+xml</dc:format>
        <dc:type
           rdf:resource="http://purl.org/dc/dcmitype/StillImage" />
        <cc:license
           rdf:resource="http://creativecommons.org/publicdomain/zero/1.0/" />
      </cc:Work>
      <cc:License
         rdf:about="http://creativecommons.org/publicdomain/zero/1.0/">
        <cc:permits
           rdf:resource="http://creativecommons.org/ns#Reproduction" />
        <cc:permits
           rdf:resource="http://creativecommons.org/ns#Distribution" />
        <cc:permits
           rdf:resource="http://creativecommons.org/ns#DerivativeWorks" />
      </cc:License>
    </rdf:RDF>
  </metadata>
  <g
     id="layer1"
     transform="translate(-1680.0011,9.8911252)">
    <g
       id="spade9">
      <rect
         style="opacity:1;fill:#fdfeee;fill-opacity:1;stroke:#000000;stroke-width:0.996047;stroke-linecap:butt;stroke-linejoin:round;stroke-miterlimit:4;stroke-dasharray:none;stroke-opacity:1"
         id="rect11081"
         width="209.00395"
         height="314.004"
         x="1680.4991"
         y="-9.3931017"
         ry="14.999999"
         rx="14.999998" />
      <rect
         style="opacity:1;fill:none;fill-opacity:1;stroke:#000000;stroke-width:0.995028;stroke-linecap:butt;stroke-linejoin:round;stroke-miterlimit:4;stroke-dasharray:none;stroke-opacity:1"
         id="rect11083"
         width="99.004982"
         height="164.00497"
         x="1735.4987"
         y="65.606415" />
      <path
         style="fill:#010101;fill-opacity:1;stroke:#000000;stroke-width:0.517679;stroke-miterlimit:4;stroke-dasharray:none;stroke-opacity:1"
         d="m 1760.9359,21.994765 c -0.6002,-7.670381 -19.2165,-22.10741055 -19.8168,-25.7185636 -0.6003,3.60926105 -19.2166,18.0462906 -19.8169,25.7185636 -0.4192,5.422396 4.2045,7.670382 8.409,7.670382 4.5521,-0.04082 8.3119,-5.295148 9.607,-6.316675 0.6003,1.353707 -3.9763,12.633345 -5.405,12.633345 h 14.4143 c -1.4288,0 -6.0054,-11.279638 -5.4051,-12.633345 1.134,0.938324 4.4578,6.159425 9.6095,6.316675 4.202,-0.0019 8.8232,-2.247986 8.404,-7.670382 z"
         id="use17078" />
      <path
         style="fill:#010101;fill-opacity:1;stroke:#000000;stroke-width:0.517679;stroke-miterlimit:4;stroke-dasharray:none;stroke-opacity:1"
         d="m 1806.5204,272.44787 c 0.6002,7.67038 19.2165,22.10741 19.8168,25.71856 0.6003,-3.60926 19.2166,-18.04629 19.8169,-25.71856 0.4192,-5.4224 -4.2045,-7.67038 -8.409,-7.67038 -4.5521,0.0408 -8.3119,5.29515 -9.607,6.31667 -0.6003,-1.3537 3.9763,-12.63334 5.405,-12.63334 h -14.4143 c 1.4288,0 6.0054,11.27964 5.4051,12.63334 -1.134,-0.93832 -4.4578,-6.15942 -9.6095,-6.31667 -4.202,0.002 -8.8232,2.24798 -8.404,7.67038 z"
         id="use17080" />
      <text
         id="text18482-1"
         y="34.468109"
         x="1690.917"
         style="color:#000000;font-style:normal;font-variant:normal;font-weight:normal;font-stretch:normal;line-height:0%;font-family:Arial;-inkscape-font-specification:'Arial, Normal';text-indent:0;text-align:start;text-decoration:none;text-decoration-line:none;text-decoration-style:solid;text-decoration-color:#000000;letter-spacing:0px;word-spacing:0px;text-transform:none;writing-mode:lr-tb;direction:ltr;baseline-shift:baseline;text-anchor:start;white-space:normal;clip-rule:nonzero;display:inline;overflow:visible;visibility:visible;opacity:1;isolation:auto;mix-blend-mode:normal;color-interpolation:sRGB;color-interpolation-filters:linearRGB;solid-color:#000000;solid-opacity:1;fill:#010101;fill-opacity:1;fill-rule:nonzero;stroke:#000000;stroke-width:1px;stroke-linecap:butt;stroke-linejoin:miter;stroke-miterlimit:4;stroke-dasharray:none;stroke-dashoffset:0;stroke-opacity:1;color-rendering:auto;image-rendering:auto;shape-rendering:auto;text-rendering:auto;enable-background:accumulate"
         xml:space="preserve"><tspan
           y="34.468109"
           x="1690.917"
           id="tspan18484-9"
           style="font-size:52.5px;line-height:1.25">9</tspan></text>
      <text
         transform="scale(-1)"
         id="text19337-6"
         y="-259.97452"
         x="-1875.688"
         style="color:#000000;font-style:normal;font-variant:normal;font-weight:normal;font-stretch:normal;line-height:0%;font-family:Arial;-inkscape-font-specification:'Arial, Normal';text-indent:0;text-align:start;text-decoration:none;text-decoration-line:none;text-decoration-style:solid;text-decoration-color:#000000;letter-spacing:0px;word-spacing:0px;text-transform:none;writing-mode:lr-tb;direction:ltr;baseline-shift:baseline;text-anchor:start;white-space:normal;clip-rule:nonzero;display:inline;overflow:visible;visibility:visible;opacity:1;isolation:auto;mix-blend-mode:normal;color-interpolation:sRGB;color-interpolation-filters:linearRGB;solid-color:#000000;solid-opacity:1;fill:#010101;fill-opacity:1;fill-rule:nonzero;stroke:#000000;stroke-width:1px;stroke-linecap:butt;stroke-linejoin:miter;stroke-miterlimit:4;stroke-dasharray:none;stroke-dashoffset:0;stroke-opacity:1;color-rendering:auto;image-rendering:auto;shape-rendering:auto;text-rendering:auto;enable-background:accumulate"
         xml:space="preserve"><tspan
           y="-259.97452"
           x="-1875.688"
           id="tspan19339-1"
           style="font-size:52.5px;line-height:1.25">9</tspan></text>
      <path
         style="fill:#010101;fill-opacity:1;stroke:#000000;stroke-width:0.464687;stroke-miterlimit:4;stroke-dasharray:none;stroke-opacity:1"
         d="m 1802.7459,148.78974 c -0.5375,-6.90215 -17.2071,-19.89323 -17.7447,-23.14271 -0.5375,3.24778 -17.2071,16.23885 -17.7446,23.14271 -0.3754,4.87931 3.7648,6.90215 7.5297,6.90215 4.0761,-0.0367 7.4427,-4.76481 8.6024,-5.68403 0.5375,1.21813 -3.5605,11.36805 -4.8398,11.36805 h 12.907 c -1.2794,0 -5.3774,-10.14992 -4.8399,-11.36805 1.0154,0.84435 3.9917,5.54253 8.6047,5.68403 3.7626,-0.002 7.9005,-2.02284 7.5252,-6.90215 z"
         id="use22825" />
      <path
         style="fill:#010101;fill-opacity:1;stroke:#000000;stroke-width:0.464687;stroke-miterlimit:4;stroke-dasharray:none;stroke-opacity:1"
         d="m 1773.5384,90.373688 c -0.5375,-6.902149 -17.2071,-19.893229 -17.7447,-23.142704 -0.5375,3.247773 -17.2071,16.238852 -17.7446,23.142704 -0.3754,4.879313 3.7648,6.90215 7.5297,6.90215 4.0761,-0.03673 7.4427,-4.764809 8.6024,-5.684024 0.5375,1.218126 -3.5605,11.368046 -4.8398,11.368046 h 12.907 c -1.2794,0 -5.3774,-10.14992 -4.8399,-11.368046 1.0154,0.844345 3.9917,5.542524 8.6047,5.684024 3.7626,-0.0017 7.9005,-2.022837 7.5252,-6.90215 z"
         id="use22837" />
      <path
         style="fill:#010101;fill-opacity:1;stroke:#000000;stroke-width:0.464687;stroke-miterlimit:4;stroke-dasharray:none;stroke-opacity:1"
         d="m 1773.5384,131.64211 c -0.5375,-6.90215 -17.2071,-19.89323 -17.7447,-23.1427 -0.5375,3.24777 -17.2071,16.23885 -17.7446,23.1427 -0.3754,4.87931 3.7648,6.90215 7.5297,6.90215 4.0761,-0.0367 7.4427,-4.76481 8.6024,-5.68402 0.5375,1.21812 -3.5605,11.36804 -4.8398,11.36804 h 12.907 c -1.2794,0 -5.3774,-10.14992 -4.8399,-11.36804 1.0154,0.84434 3.9917,5.54252 8.6047,5.68402 3.7626,-0.002 7.9005,-2.02284 7.5252,-6.90215 z"
         id="use22839" />
      <path
         style="fill:#010101;fill-opacity:1;stroke:#000000;stroke-width:0.464687;stroke-miterlimit:4;stroke-dasharray:none;stroke-opacity:1"
         d="m 1738.0488,162.54888 c 0.5375,6.90215 17.2071,19.89323 17.7447,23.1427 0.5375,-3.24777 17.2071,-16.23885 17.7446,-23.1427 0.3754,-4.87932 -3.7648,-6.90215 -7.5297,-6.90215 -4.0761,0.0367 -7.4427,4.76481 -8.6024,5.68402 -0.5375,-1.21812 3.5605,-11.36804 4.8398,-11.36804 h -12.9069 c 1.2793,0 5.3773,10.14992 4.8398,11.36804 -1.0154,-0.84434 -3.9917,-5.54252 -8.6047,-5.68402 -3.7626,0.002 -7.9005,2.02283 -7.5252,6.90215 z"
         id="use22841" />
      <path
         style="fill:#010101;fill-opacity:1;stroke:#000000;stroke-width:0.464687;stroke-miterlimit:4;stroke-dasharray:none;stroke-opacity:1"
         d="m 1738.0488,203.8173 c 0.5375,6.90215 17.2071,19.89323 17.7447,23.1427 0.5375,-3.24777 17.2071,-16.23885 17.7446,-23.1427 0.3754,-4.87932 -3.7648,-6.90215 -7.5297,-6.90215 -4.0761,0.0367 -7.4427,4.76481 -8.6024,5.68402 -0.5375,-1.21812 3.5605,-11.36804 4.8398,-11.36804 h -12.9069 c 1.2793,0 5.3773,10.14992 4.8398,11.36804 -1.0154,-0.84434 -3.9917,-5.54252 -8.6047,-5.68402 -3.7626,0.002 -7.9005,2.02283 -7.5252,6.90215 z"
         id="use22843" />
      <path
         style="fill:#010101;fill-opacity:1;stroke:#000000;stroke-width:0.464687;stroke-miterlimit:4;stroke-dasharray:none;stroke-opacity:1"
         d="m 1832.7696,131.64211 c -0.5375,-6.90215 -17.2071,-19.89323 -17.7447,-23.1427 -0.5375,3.24777 -17.2071,16.23885 -17.7446,23.1427 -0.3754,4.87931 3.7648,6.90215 7.5297,6.90215 4.0761,-0.0367 7.4427,-4.76481 8.6024,-5.68402 0.5375,1.21812 -3.5605,11.36804 -4.8398,11.36804 h 12.907 c -1.2794,0 -5.3774,-10.14992 -4.8399,-11.36804 1.0154,0.84434 3.9917,5.54252 8.6047,5.68402 3.7626,-0.002 7.9005,-2.02284 7.5252,-6.90215 z"
         id="use22857" />
      <path
         style="fill:#010101;fill-opacity:1;stroke:#000000;stroke-width:0.464687;stroke-miterlimit:4;stroke-dasharray:none;stroke-opacity:1"
         d="m 1797.2799,162.54888 c 0.5375,6.90215 17.2071,19.89323 17.7447,23.1427 0.5375,-3.24777 17.2071,-16.23885 17.7446,-23.1427 0.3754,-4.87932 -3.7648,-6.90215 -7.5297,-6.90215 -4.0761,0.0367 -7.4427,4.76481 -8.6024,5.68402 -0.5375,-1.21812 3.5605,-11.36804 4.8398,-11.36804 H 1808.57 c 1.2793,0 5.3773,10.14992 4.8398,11.36804 -1.0154,-0.84434 -3.9917,-5.54252 -8.6047,-5.68402 -3.7626,0.002 -7.9005,2.02283 -7.5252,6.90215 z"
         id="use22859" />
      <path
         style="fill:#010101;fill-opacity:1;stroke:#000000;stroke-width:0.464687;stroke-miterlimit:4;stroke-dasharray:none;stroke-opacity:1"
         d="m 1797.2799,203.8173 c 0.5375,6.90215 17.2071,19.89323 17.7447,23.1427 0.5375,-3.24777 17.2071,-16.23885 17.7446,-23.1427 0.3754,-4.87932 -3.7648,-6.90215 -7.5297,-6.90215 -4.0761,0.0367 -7.4427,4.76481 -8.6024,5.68402 -0.5375,-1.21812 3.5605,-11.36804 4.8398,-11.36804 H 1808.57 c 1.2793,0 5.3773,10.14992 4.8398,11.36804 -1.0154,-0.84434 -3.9917,-5.54252 -8.6047,-5.68402 -3.7626,0.002 -7.9005,2.02283 -7.5252,6.90215 z"
         id="use22861" />
      <path
         style="fill:#010101;fill-opacity:1;stroke:#000000;stroke-width:0.464687;stroke-miterlimit:4;stroke-dasharray:none;stroke-opacity:1"
         d="m 1832.7696,90.373688 c -0.5375,-6.902149 -17.2071,-19.893229 -17.7447,-23.142704 -0.5375,3.247773 -17.2071,16.238852 -17.7446,23.142704 -0.3754,4.879313 3.7648,6.90215 7.5297,6.90215 4.0761,-0.03673 7.4427,-4.764809 8.6024,-5.684024 0.5375,1.218126 -3.5605,11.368046 -4.8398,11.368046 h 12.907 c -1.2794,0 -5.3774,-10.14992 -4.8399,-11.368046 1.0154,0.844345 3.9917,5.542524 8.6047,5.684024 3.7626,-0.0017 7.9005,-2.022837 7.5252,-6.90215 z"
         id="use22897" />
    </g>
  </g>
</svg>
