<?xml version="1.0" encoding="UTF-8" standalone="no"?>
<!-- Created with Inkscape (http://www.inkscape.org/) -->

<svg
   width="210"
   height="315.00003"
   viewBox="0 0 210.00001 315.00005"
   id="svg8691"
   version="1.1"
   xmlns="http://www.w3.org/2000/svg"
   xmlns:svg="http://www.w3.org/2000/svg"
   xmlns:rdf="http://www.w3.org/1999/02/22-rdf-syntax-ns#"
   xmlns:cc="http://creativecommons.org/ns#"
   xmlns:dc="http://purl.org/dc/elements/1.1/">
  <defs
     id="defs8693" />
  <metadata
     id="metadata8696">
    <rdf:RDF>
      <cc:Work
         rdf:about="">
        <dc:format>image/svg+xml</dc:format>
        <dc:type
           rdf:resource="http://purl.org/dc/dcmitype/StillImage" />
        <dc:title />
        <cc:license
           rdf:resource="http://creativecommons.org/publicdomain/zero/1.0/" />
      </cc:Work>
      <cc:License
         rdf:about="http://creativecommons.org/publicdomain/zero/1.0/">
        <cc:permits
           rdf:resource="http://creativecommons.org/ns#Reproduction" />
        <cc:permits
           rdf:resource="http://creativecommons.org/ns#Distribution" />
        <cc:permits
           rdf:resource="http://creativecommons.org/ns#DerivativeWorks" />
      </cc:License>
    </rdf:RDF>
  </metadata>
  <g
     id="layer1"
     transform="translate(-9.7665191e-4,954.89128)">
    <g
       id="clubAce"
       transform="translate(0,-6.4082031e-5)">
      <rect
         rx="14.999998"
         ry="14.999999"
         y="-954.39319"
         x="0.49900016"
         height="314.004"
         width="209.00395"
         id="cardBackground"
         style="opacity:1;fill:#fdfeee;fill-opacity:1;stroke:#000000;stroke-width:0.996047;stroke-linecap:butt;stroke-linejoin:round;stroke-miterlimit:4;stroke-dasharray:none;stroke-opacity:1" />
      <rect
         y="-879.39368"
         x="55.498493"
         height="164.00497"
         width="99.004982"
         id="rect9465"
         style="opacity:1;fill:none;fill-opacity:1;stroke:#000000;stroke-width:0.995028;stroke-linecap:butt;stroke-linejoin:round;stroke-miterlimit:4;stroke-dasharray:none;stroke-opacity:1" />
      <path
         style="fill:#0050a1;fill-opacity:1;stroke:#000000;stroke-width:0.977002;stroke-opacity:1"
         d="m 114.54863,-801.21201 c 0,0 10.50288,-8.4023 10.50288,-20.05062 0,-6.81906 -6.05405,-18.14008 -20.05053,-18.14008 -13.996473,0 -20.050525,11.32542 -20.050525,18.14008 0,11.64832 10.50288,20.05062 10.50288,20.05062 -11.666009,-9.08777 -32.463854,-2.88336 -32.463854,15.2789 0,9.09216 7.429392,19.0953 19.095305,19.0953 13.996469,0 20.050524,-15.2789 20.050524,-15.2789 0,0 1.77777,17.41484 -8.592429,26.737 h 22.916199 c -10.3702,-9.31766 -8.59252,-26.737 -8.59252,-26.737 0,0 6.05415,15.2789 20.05062,15.2789 11.67031,0 19.09531,-10.00753 19.09531,-19.0953 0,-18.16226 -20.79795,-24.36667 -32.46386,-15.2789 z"
         id="clubPip" />
      <path
         id="use13255"
         d="m 73.5121,-930.26971 c 0,0 4.942532,-3.95402 4.942532,-9.43558 0,-3.20897 -2.848965,-8.53651 -9.435543,-8.53651 -6.586575,0 -9.43554,5.32961 -9.43554,8.53651 0,5.48156 4.942531,9.43558 4.942531,9.43558 -5.489886,-4.2766 -15.277106,-1.35687 -15.277106,7.19007 0,4.27866 3.496184,8.98602 8.986025,8.98602 6.586573,0 9.43554,-7.19007 9.43554,-7.19007 0,0 0.836597,8.19522 -4.043496,12.58212 h 10.784093 c -4.880094,-4.38478 -4.043539,-12.58212 -4.043539,-12.58212 0,0 2.849012,7.19007 9.435585,7.19007 5.49191,0 8.986028,-4.70942 8.986028,-8.98602 0,-8.54694 -9.78727,-11.46667 -15.27711,-7.19007 z"
         style="fill:#0050a1;fill-opacity:1;stroke:#000000;stroke-width:0.459766;stroke-opacity:1" />
      <path
         id="use13916"
         d="m 136.98599,-665.08935 c 0,0 -4.9415,3.9532 -4.9415,9.43361 0,3.20831 2.84837,8.53473 9.43357,8.53473 6.58521,0 9.43358,-5.32849 9.43358,-8.53473 0,-5.48041 -4.9415,-9.43361 -4.9415,-9.43361 5.48874,4.2757 15.27392,1.35659 15.27392,-7.18858 0,-4.27777 -3.49546,-8.98415 -8.98415,-8.98415 -6.5852,0 -9.43358,7.18858 -9.43358,7.18858 0,0 -0.83642,-8.19352 4.04266,-12.5795 h -10.78185 c 4.87908,4.38387 4.0427,12.5795 4.0427,12.5795 0,0 -2.84842,-7.18858 -9.43362,-7.18858 -5.49077,0 -8.98416,4.70845 -8.98416,8.98415 0,8.54517 9.78523,11.46428 15.27393,7.18858 z"
         style="fill:#0050a1;fill-opacity:1;stroke:#000000;stroke-width:0.45967;stroke-opacity:1" />
      <text
         id="text18446"
         y="-910.39111"
         x="11.577881"
         style="color:#000000;font-style:normal;font-variant:normal;font-weight:normal;font-stretch:normal;line-height:0%;font-family:Arial;-inkscape-font-specification:'Arial, Normal';text-indent:0;text-align:start;text-decoration:none;text-decoration-line:none;text-decoration-style:solid;text-decoration-color:#000000;letter-spacing:0px;word-spacing:0px;text-transform:none;writing-mode:lr-tb;direction:ltr;baseline-shift:baseline;text-anchor:start;white-space:normal;clip-rule:nonzero;display:inline;overflow:visible;visibility:visible;opacity:1;isolation:auto;mix-blend-mode:normal;color-interpolation:sRGB;color-interpolation-filters:linearRGB;solid-color:#000000;solid-opacity:1;fill:#0050a1;fill-opacity:1;fill-rule:nonzero;stroke:#000000;stroke-width:1;stroke-linecap:butt;stroke-linejoin:miter;stroke-miterlimit:4;stroke-dasharray:none;stroke-dashoffset:0;stroke-opacity:1;color-rendering:auto;image-rendering:auto;shape-rendering:auto;text-rendering:auto;enable-background:accumulate"
         xml:space="preserve"><tspan
           y="-910.39111"
           x="11.577881"
           id="tspan18448"
           style="font-size:52.5px;line-height:1.25">A</tspan></text>
      <text
         transform="scale(-1)"
         id="text19305"
         y="684.97174"
         x="-199.09499"
         style="color:#000000;font-style:normal;font-variant:normal;font-weight:normal;font-stretch:normal;line-height:0%;font-family:Arial;-inkscape-font-specification:'Arial, Normal';text-indent:0;text-align:start;text-decoration:none;text-decoration-line:none;text-decoration-style:solid;text-decoration-color:#000000;letter-spacing:0px;word-spacing:0px;text-transform:none;writing-mode:lr-tb;direction:ltr;baseline-shift:baseline;text-anchor:start;white-space:normal;clip-rule:nonzero;display:inline;overflow:visible;visibility:visible;opacity:1;isolation:auto;mix-blend-mode:normal;color-interpolation:sRGB;color-interpolation-filters:linearRGB;solid-color:#000000;solid-opacity:1;fill:#0050a1;fill-opacity:1;fill-rule:nonzero;stroke:#000000;stroke-width:1px;stroke-linecap:butt;stroke-linejoin:miter;stroke-miterlimit:4;stroke-dasharray:none;stroke-dashoffset:0;stroke-opacity:1;color-rendering:auto;image-rendering:auto;shape-rendering:auto;text-rendering:auto;enable-background:accumulate"
         xml:space="preserve"><tspan
           y="684.97174"
           x="-199.09499"
           id="tspan19307"
           style="font-size:52.5px;line-height:1.25">A</tspan></text>
    </g>
  </g>
</svg>
