<?xml version="1.0" encoding="UTF-8" standalone="no"?>
<!-- Created with Inkscape (http://www.inkscape.org/) -->

<svg
   xmlns:dc="http://purl.org/dc/elements/1.1/"
   xmlns:cc="http://creativecommons.org/ns#"
   xmlns:rdf="http://www.w3.org/1999/02/22-rdf-syntax-ns#"
   xmlns:svg="http://www.w3.org/2000/svg"
   xmlns="http://www.w3.org/2000/svg"
   xmlns:sodipodi="http://sodipodi.sourceforge.net/DTD/sodipodi-0.dtd"
   xmlns:inkscape="http://www.inkscape.org/namespaces/inkscape"
   width="210"
   height="315.00003"
   viewBox="0 0 210 315.00003"
   id="svg9570"
   version="1.1"
   inkscape:version="0.91 r13725"
   sodipodi:docname="club8.svg">
  <defs
     id="defs9572" />
  <sodipodi:namedview
     id="base"
     pagecolor="#ffffff"
     bordercolor="#666666"
     borderopacity="1.0"
     inkscape:pageopacity="0.0"
     inkscape:pageshadow="2"
     inkscape:zoom="2.0730156"
     inkscape:cx="105"
     inkscape:cy="157.50001"
     inkscape:document-units="px"
     inkscape:current-layer="layer1"
     showgrid="false"
     showborder="false"
     fit-margin-top="0"
     fit-margin-left="0"
     fit-margin-right="0"
     fit-margin-bottom="0"
     inkscape:window-width="920"
     inkscape:window-height="855"
     inkscape:window-x="383"
     inkscape:window-y="187"
     inkscape:window-maximized="0"
     units="px" />
  <metadata
     id="metadata9575">
    <rdf:RDF>
      <cc:Work
         rdf:about="">
        <dc:format>image/svg+xml</dc:format>
        <dc:type
           rdf:resource="http://purl.org/dc/dcmitype/StillImage" />
        <dc:title></dc:title>
      </cc:Work>
    </rdf:RDF>
  </metadata>
  <g
     inkscape:label="Layer 1"
     inkscape:groupmode="layer"
     id="layer1"
     transform="translate(0,-737.36219)">
    <g
       transform="translate(-1470.3546,1692.2534)"
       id="club8"
       inkscape:label="#g7023">
      <rect
         style="opacity:1;fill:#fdfeee;fill-opacity:1;stroke:#000000;stroke-width:0.9960472;stroke-linecap:butt;stroke-linejoin:round;stroke-miterlimit:4;stroke-dasharray:none;stroke-opacity:1"
         id="rect11039"
         width="209.00395"
         height="314.004"
         x="1470.8527"
         y="-954.39319"
         ry="14.999999"
         rx="14.999998" />
      <rect
         style="opacity:1;fill:none;fill-opacity:1;stroke:#000000;stroke-width:0.99502754;stroke-linecap:butt;stroke-linejoin:round;stroke-miterlimit:4;stroke-dasharray:none;stroke-opacity:1"
         id="rect11041"
         width="99.004982"
         height="164.00497"
         x="1525.8522"
         y="-879.39368" />
      <path
         inkscape:transform-center-y="-26.261324"
         inkscape:transform-center-x="3.0012942"
         id="use13942"
         d="m 1537.3641,-930.56444 c 0,0 4.9425,-3.95403 4.9425,-9.43559 0,-3.20897 -2.8489,-8.53651 -9.4355,-8.53651 -6.5866,0 -9.4356,5.32961 -9.4356,8.53651 0,5.48156 4.9426,9.43559 4.9426,9.43559 -5.4899,-4.2766 -15.2771,-1.35688 -15.2771,7.19007 0,4.27866 3.4961,8.98602 8.986,8.98602 6.5866,0 9.4355,-7.19007 9.4355,-7.19007 0,0 0.8366,8.19522 -4.0435,12.58211 l 10.7841,0 c -4.8801,-4.38478 -4.0435,-12.58211 -4.0435,-12.58211 0,0 2.849,7.19007 9.4356,7.19007 5.4919,0 8.986,-4.70943 8.986,-8.98602 0,-8.54695 -9.7873,-11.46667 -15.2771,-7.19007 z"
         inkscape:connector-curvature="0"
         style="fill:#0050a1;fill-opacity:1;stroke:#000000;stroke-width:0.45976582;stroke-opacity:1" />
      <path
         id="use13944"
         d="m 1611.8416,-665.08935 c 0,0 -4.9415,3.9532 -4.9415,9.43361 0,3.20831 2.8483,8.53473 9.4335,8.53473 6.5852,0 9.4336,-5.32849 9.4336,-8.53473 0,-5.48041 -4.9415,-9.43361 -4.9415,-9.43361 5.4887,4.2757 15.2739,1.35659 15.2739,-7.18858 0,-4.27777 -3.4954,-8.98415 -8.9841,-8.98415 -6.5852,0 -9.4336,7.18858 -9.4336,7.18858 0,0 -0.8364,-8.19352 4.0427,-12.5795 l -10.7819,0 c 4.8791,4.38387 4.0427,12.5795 4.0427,12.5795 0,0 -2.8484,-7.18858 -9.4336,-7.18858 -5.4908,0 -8.9842,4.70845 -8.9842,8.98415 0,8.54517 9.7853,11.46428 15.274,7.18858 z"
         inkscape:connector-curvature="0"
         style="fill:#0050a1;fill-opacity:1;stroke:#000000;stroke-width:0.45967004;stroke-opacity:1" />
      <text
         sodipodi:linespacing="125%"
         id="text18478"
         y="-910.53204"
         x="1481.0253"
         style="color:#000000;font-style:normal;font-variant:normal;font-weight:normal;font-stretch:normal;font-size:52.5px;line-height:125%;font-family:Arial;-inkscape-font-specification:'Arial, Normal';text-indent:0;text-align:start;text-decoration:none;text-decoration-line:none;text-decoration-style:solid;text-decoration-color:#000000;letter-spacing:0px;word-spacing:0px;text-transform:none;direction:ltr;block-progression:tb;writing-mode:lr-tb;baseline-shift:baseline;text-anchor:start;white-space:normal;clip-rule:nonzero;display:inline;overflow:visible;visibility:visible;opacity:1;isolation:auto;mix-blend-mode:normal;color-interpolation:sRGB;color-interpolation-filters:linearRGB;solid-color:#000000;solid-opacity:1;fill:#0050a1;fill-opacity:1;fill-rule:nonzero;stroke:#000000;stroke-width:1px;stroke-linecap:butt;stroke-linejoin:miter;stroke-miterlimit:4;stroke-dasharray:none;stroke-dashoffset:0;stroke-opacity:1;color-rendering:auto;image-rendering:auto;shape-rendering:auto;text-rendering:auto;enable-background:accumulate"
         xml:space="preserve"><tspan
           y="-910.53204"
           x="1481.0253"
           id="tspan18480"
           sodipodi:role="line">8</tspan></text>
      <text
         transform="scale(-1,-1)"
         sodipodi:linespacing="125%"
         id="text19333"
         y="685.12555"
         x="-1667.5864"
         style="color:#000000;font-style:normal;font-variant:normal;font-weight:normal;font-stretch:normal;font-size:52.5px;line-height:125%;font-family:Arial;-inkscape-font-specification:'Arial, Normal';text-indent:0;text-align:start;text-decoration:none;text-decoration-line:none;text-decoration-style:solid;text-decoration-color:#000000;letter-spacing:0px;word-spacing:0px;text-transform:none;direction:ltr;block-progression:tb;writing-mode:lr-tb;baseline-shift:baseline;text-anchor:start;white-space:normal;clip-rule:nonzero;display:inline;overflow:visible;visibility:visible;opacity:1;isolation:auto;mix-blend-mode:normal;color-interpolation:sRGB;color-interpolation-filters:linearRGB;solid-color:#000000;solid-opacity:1;fill:#0050a1;fill-opacity:1;fill-rule:nonzero;stroke:#000000;stroke-width:1px;stroke-linecap:butt;stroke-linejoin:miter;stroke-miterlimit:4;stroke-dasharray:none;stroke-dashoffset:0;stroke-opacity:1;color-rendering:auto;image-rendering:auto;shape-rendering:auto;text-rendering:auto;enable-background:accumulate"
         xml:space="preserve"><tspan
           y="685.12555"
           x="-1667.5864"
           id="tspan19335"
           sodipodi:role="line">8</tspan></text>
      <path
         id="use20356"
         d="m 1550.2136,-861.09934 c 0,0 4.4482,-3.55863 4.4482,-8.49203 0,-2.88807 -2.564,-7.68286 -8.4919,-7.68286 -5.928,0 -8.492,4.79665 -8.492,7.68286 0,4.9334 4.4482,8.49203 4.4482,8.49203 -4.9409,-3.84894 -13.7494,-1.22119 -13.7494,6.47106 0,3.85079 3.1466,8.08742 8.0875,8.08742 5.9279,0 8.492,-6.47107 8.492,-6.47107 0,0 0.7529,7.3757 -3.6392,11.32391 l 9.7057,0 c -4.3921,-3.9463 -3.6392,-11.32391 -3.6392,-11.32391 0,0 2.5641,6.47107 8.492,6.47107 4.9428,0 8.0875,-4.23849 8.0875,-8.08742 0,-7.69225 -8.8086,-10.32 -13.7494,-6.47106 z"
         inkscape:connector-curvature="0"
         style="fill:#0050a1;fill-opacity:1;stroke:#000000;stroke-width:0.41378924;stroke-opacity:1" />
      <path
         id="use20358"
         d="m 1550.2136,-800.09935 c 0,0 4.4482,-3.55862 4.4482,-8.49203 0,-2.88807 -2.564,-7.68286 -8.4919,-7.68286 -5.928,0 -8.492,4.79665 -8.492,7.68286 0,4.93341 4.4482,8.49203 4.4482,8.49203 -4.9409,-3.84894 -13.7494,-1.22119 -13.7494,6.47106 0,3.85079 3.1466,8.08742 8.0875,8.08742 5.9279,0 8.492,-6.47106 8.492,-6.47106 0,0 0.7529,7.37569 -3.6392,11.3239 l 9.7057,0 c -4.3921,-3.9463 -3.6392,-11.3239 -3.6392,-11.3239 0,0 2.5641,6.47106 8.492,6.47106 4.9428,0 8.0875,-4.23848 8.0875,-8.08742 0,-7.69225 -8.8086,-10.32 -13.7494,-6.47106 z"
         inkscape:connector-curvature="0"
         style="fill:#0050a1;fill-opacity:1;stroke:#000000;stroke-width:0.41378924;stroke-opacity:1" />
      <path
         id="use20360"
         d="m 1579.3986,-831.33161 c 0,0 4.4482,-3.55862 4.4482,-8.49202 0,-2.88808 -2.564,-7.68286 -8.4919,-7.68286 -5.928,0 -8.492,4.79665 -8.492,7.68286 0,4.9334 4.4482,8.49202 4.4482,8.49202 -4.9409,-3.84893 -13.7494,-1.22119 -13.7494,6.47106 0,3.8508 3.1466,8.08742 8.0875,8.08742 5.9279,0 8.492,-6.47106 8.492,-6.47106 0,0 0.7529,7.3757 -3.6392,11.32391 l 9.7057,0 c -4.3921,-3.94631 -3.6392,-11.32391 -3.6392,-11.32391 0,0 2.5641,6.47106 8.492,6.47106 4.9428,0 8.0875,-4.23848 8.0875,-8.08742 0,-7.69225 -8.8086,-10.31999 -13.7494,-6.47106 z"
         inkscape:connector-curvature="0"
         style="fill:#0050a1;fill-opacity:1;stroke:#000000;stroke-width:0.41378924;stroke-opacity:1" />
      <path
         id="use20362"
         d="m 1542.1255,-735.86258 c 0,0 -4.4482,3.55862 -4.4482,8.49202 0,2.88807 2.564,7.68286 8.4919,7.68286 5.928,0 8.492,-4.79665 8.492,-7.68286 0,-4.9334 -4.4482,-8.49202 -4.4482,-8.49202 4.9409,3.84893 13.7494,1.22118 13.7494,-6.47107 0,-3.85079 -3.1466,-8.08742 -8.0875,-8.08742 -5.9279,0 -8.492,6.47107 -8.492,6.47107 0,0 -0.7529,-7.3757 3.6392,-11.32391 l -9.7057,0 c 4.3921,3.9463 3.6392,11.32391 3.6392,11.32391 0,0 -2.5641,-6.47107 -8.492,-6.47107 -4.9428,0 -8.0875,4.23849 -8.0875,8.08742 0,7.69225 8.8086,10.32 13.7494,6.47107 z"
         inkscape:connector-curvature="0"
         style="fill:#0050a1;fill-opacity:1;stroke:#000000;stroke-width:0.41378924;stroke-opacity:1" />
      <path
         id="use20364"
         d="m 1609.0301,-861.09934 c 0,0 4.4482,-3.55863 4.4482,-8.49203 0,-2.88807 -2.564,-7.68286 -8.4919,-7.68286 -5.928,0 -8.492,4.79665 -8.492,7.68286 0,4.9334 4.4482,8.49203 4.4482,8.49203 -4.9409,-3.84894 -13.7494,-1.22119 -13.7494,6.47106 0,3.85079 3.1466,8.08742 8.0875,8.08742 5.9279,0 8.492,-6.47107 8.492,-6.47107 0,0 0.7529,7.3757 -3.6392,11.32391 l 9.7057,0 c -4.3921,-3.9463 -3.6392,-11.32391 -3.6392,-11.32391 0,0 2.5641,6.47107 8.492,6.47107 4.9428,0 8.0875,-4.23849 8.0875,-8.08742 0,-7.69225 -8.8086,-10.32 -13.7494,-6.47106 z"
         inkscape:connector-curvature="0"
         style="fill:#0050a1;fill-opacity:1;stroke:#000000;stroke-width:0.41378924;stroke-opacity:1" />
      <path
         id="use20366"
         d="m 1609.0301,-800.09935 c 0,0 4.4482,-3.55862 4.4482,-8.49203 0,-2.88807 -2.564,-7.68286 -8.4919,-7.68286 -5.928,0 -8.492,4.79665 -8.492,7.68286 0,4.93341 4.4482,8.49203 4.4482,8.49203 -4.9409,-3.84894 -13.7494,-1.22119 -13.7494,6.47106 0,3.85079 3.1466,8.08742 8.0875,8.08742 5.9279,0 8.492,-6.47106 8.492,-6.47106 0,0 0.7529,7.37569 -3.6392,11.3239 l 9.7057,0 c -4.3921,-3.9463 -3.6392,-11.3239 -3.6392,-11.3239 0,0 2.5641,6.47106 8.492,6.47106 4.9428,0 8.0875,-4.23848 8.0875,-8.08742 0,-7.69225 -8.8086,-10.32 -13.7494,-6.47106 z"
         inkscape:connector-curvature="0"
         style="fill:#0050a1;fill-opacity:1;stroke:#000000;stroke-width:0.41378924;stroke-opacity:1" />
      <path
         id="use20368"
         d="m 1571.3105,-766.12088 c 0,0 -4.4482,3.55862 -4.4482,8.49202 0,2.88807 2.564,7.68286 8.4919,7.68286 5.928,0 8.492,-4.79665 8.492,-7.68286 0,-4.9334 -4.4482,-8.49202 -4.4482,-8.49202 4.9409,3.84893 13.7494,1.22118 13.7494,-6.47107 0,-3.85079 -3.1466,-8.08742 -8.0875,-8.08742 -5.9279,0 -8.492,6.47107 -8.492,6.47107 0,0 -0.7529,-7.3757 3.6392,-11.32391 l -9.7057,0 c 4.3921,3.9463 3.6392,11.32391 3.6392,11.32391 0,0 -2.5641,-6.47107 -8.492,-6.47107 -4.9428,0 -8.0875,4.23849 -8.0875,8.08742 0,7.69225 8.8086,10.32 13.7494,6.47107 z"
         inkscape:connector-curvature="0"
         style="fill:#0050a1;fill-opacity:1;stroke:#000000;stroke-width:0.41378924;stroke-opacity:1" />
      <path
         id="use20370"
         d="m 1600.942,-735.86258 c 0,0 -4.4482,3.55862 -4.4482,8.49202 0,2.88807 2.564,7.68286 8.4919,7.68286 5.928,0 8.492,-4.79665 8.492,-7.68286 0,-4.9334 -4.4482,-8.49202 -4.4482,-8.49202 4.9409,3.84893 13.7494,1.22118 13.7494,-6.47107 0,-3.85079 -3.1466,-8.08742 -8.0875,-8.08742 -5.9279,0 -8.492,6.47107 -8.492,6.47107 0,0 -0.7529,-7.3757 3.6392,-11.32391 l -9.7057,0 c 4.3921,3.9463 3.6392,11.32391 3.6392,11.32391 0,0 -2.5641,-6.47107 -8.492,-6.47107 -4.9428,0 -8.0875,4.23849 -8.0875,8.08742 0,7.69225 8.8086,10.32 13.7494,6.47107 z"
         inkscape:connector-curvature="0"
         style="fill:#0050a1;fill-opacity:1;stroke:#000000;stroke-width:0.41378924;stroke-opacity:1" />
    </g>
  </g>
</svg>
