<?xml version="1.0" encoding="UTF-8" standalone="no"?>
<!-- Created with Inkscape (http://www.inkscape.org/) -->

<svg
   width="210"
   height="315.00003"
   viewBox="0 0 210.00001 315.00005"
   id="svg8691"
   version="1.1"
   xmlns="http://www.w3.org/2000/svg"
   xmlns:svg="http://www.w3.org/2000/svg"
   xmlns:rdf="http://www.w3.org/1999/02/22-rdf-syntax-ns#"
   xmlns:cc="http://creativecommons.org/ns#"
   xmlns:dc="http://purl.org/dc/elements/1.1/">
  <defs
     id="defs8693" />
  <metadata
     id="metadata8696">
    <rdf:RDF>
      <cc:Work
         rdf:about="">
        <dc:format>image/svg+xml</dc:format>
        <dc:type
           rdf:resource="http://purl.org/dc/dcmitype/StillImage" />
        <dc:title />
        <cc:license
           rdf:resource="http://creativecommons.org/publicdomain/zero/1.0/" />
      </cc:Work>
      <cc:License
         rdf:about="http://creativecommons.org/publicdomain/zero/1.0/">
        <cc:permits
           rdf:resource="http://creativecommons.org/ns#Reproduction" />
        <cc:permits
           rdf:resource="http://creativecommons.org/ns#Distribution" />
        <cc:permits
           rdf:resource="http://creativecommons.org/ns#DerivativeWorks" />
      </cc:License>
    </rdf:RDF>
  </metadata>
  <g
     id="layer1"
     transform="translate(-840.00112,954.89128)">
    <g
       id="club5"
       transform="translate(0,-6.4082031e-5)">
      <rect
         style="opacity:1;fill:#fdfeee;fill-opacity:1;stroke:#000000;stroke-width:0.996047;stroke-linecap:butt;stroke-linejoin:round;stroke-miterlimit:4;stroke-dasharray:none;stroke-opacity:1"
         id="rect10967"
         width="209.00395"
         height="314.004"
         x="840.49915"
         y="-954.39319"
         ry="14.999999"
         rx="14.999998" />
      <rect
         style="opacity:1;fill:none;fill-opacity:1;stroke:#000000;stroke-width:0.995028;stroke-linecap:butt;stroke-linejoin:round;stroke-miterlimit:4;stroke-dasharray:none;stroke-opacity:1"
         id="rect10969"
         width="99.004982"
         height="164.00497"
         x="895.4986"
         y="-879.39368" />
      <path
         id="use13930"
         d="m 903.25888,-929.89793 c 0,0 4.94253,-3.95403 4.94253,-9.43559 0,-3.20897 -2.84897,-8.53651 -9.43554,-8.53651 -6.58658,0 -9.43555,5.32961 -9.43555,8.53651 0,5.48156 4.94254,9.43559 4.94254,9.43559 -5.48989,-4.2766 -15.27711,-1.35688 -15.27711,7.19007 0,4.27866 3.49618,8.98602 8.98602,8.98602 6.58658,0 9.43554,-7.19007 9.43554,-7.19007 0,0 0.8366,8.19522 -4.04349,12.58211 h 10.78409 c -4.88009,-4.38478 -4.04354,-12.58211 -4.04354,-12.58211 0,0 2.84901,7.19007 9.43559,7.19007 5.49191,0 8.98603,-4.70943 8.98603,-8.98602 0,-8.54695 -9.78727,-11.46667 -15.27711,-7.19007 z"
         style="fill:#0050a1;fill-opacity:1;stroke:#000000;stroke-width:0.459766;stroke-opacity:1" />
      <path
         id="use13932"
         d="m 979.98743,-665.08935 c 0,0 -4.9415,3.9532 -4.9415,9.43361 0,3.20831 2.8483,8.53473 9.4335,8.53473 6.5852,0 9.4336,-5.32849 9.4336,-8.53473 0,-5.48041 -4.9415,-9.43361 -4.9415,-9.43361 5.4887,4.2757 15.27387,1.35659 15.27387,-7.18858 0,-4.27777 -3.4954,-8.98415 -8.98407,-8.98415 -6.5852,0 -9.4336,7.18858 -9.4336,7.18858 0,0 -0.8364,-8.19352 4.0427,-12.5795 h -10.7819 c 4.8791,4.38387 4.0427,12.5795 4.0427,12.5795 0,0 -2.8484,-7.18858 -9.4336,-7.18858 -5.4908,0 -8.9842,4.70845 -8.9842,8.98415 0,8.54517 9.7853,11.46428 15.274,7.18858 z"
         style="fill:#0050a1;fill-opacity:1;stroke:#000000;stroke-width:0.45967;stroke-opacity:1" />
      <text
         id="text18466"
         y="-910.53204"
         x="849.73022"
         style="color:#000000;font-style:normal;font-variant:normal;font-weight:normal;font-stretch:normal;line-height:0%;font-family:Arial;-inkscape-font-specification:'Arial, Normal';text-indent:0;text-align:start;text-decoration:none;text-decoration-line:none;text-decoration-style:solid;text-decoration-color:#000000;letter-spacing:0px;word-spacing:0px;text-transform:none;writing-mode:lr-tb;direction:ltr;baseline-shift:baseline;text-anchor:start;white-space:normal;clip-rule:nonzero;display:inline;overflow:visible;visibility:visible;opacity:1;isolation:auto;mix-blend-mode:normal;color-interpolation:sRGB;color-interpolation-filters:linearRGB;solid-color:#000000;solid-opacity:1;fill:#0050a1;fill-opacity:1;fill-rule:nonzero;stroke:#000000;stroke-width:1;stroke-linecap:butt;stroke-linejoin:miter;stroke-miterlimit:4;stroke-dasharray:none;stroke-dashoffset:0;stroke-opacity:1;color-rendering:auto;image-rendering:auto;shape-rendering:auto;text-rendering:auto;enable-background:accumulate"
         xml:space="preserve"><tspan
           y="-910.53204"
           x="849.73022"
           id="tspan18468"
           style="font-size:52.5px;line-height:1.25">5</tspan></text>
      <text
         transform="scale(-1)"
         id="text19321"
         y="684.45905"
         x="-1036.8738"
         style="color:#000000;font-style:normal;font-variant:normal;font-weight:normal;font-stretch:normal;line-height:0%;font-family:Arial;-inkscape-font-specification:'Arial, Normal';text-indent:0;text-align:start;text-decoration:none;text-decoration-line:none;text-decoration-style:solid;text-decoration-color:#000000;letter-spacing:0px;word-spacing:0px;text-transform:none;writing-mode:lr-tb;direction:ltr;baseline-shift:baseline;text-anchor:start;white-space:normal;clip-rule:nonzero;display:inline;overflow:visible;visibility:visible;opacity:1;isolation:auto;mix-blend-mode:normal;color-interpolation:sRGB;color-interpolation-filters:linearRGB;solid-color:#000000;solid-opacity:1;fill:#0050a1;fill-opacity:1;fill-rule:nonzero;stroke:#000000;stroke-width:1;stroke-linecap:butt;stroke-linejoin:miter;stroke-miterlimit:4;stroke-dasharray:none;stroke-dashoffset:0;stroke-opacity:1;color-rendering:auto;image-rendering:auto;shape-rendering:auto;text-rendering:auto;enable-background:accumulate"
         xml:space="preserve"><tspan
           y="684.45905"
           x="-1036.8738"
           id="tspan19323"
           style="font-size:52.5px;line-height:1.25">5</tspan></text>
      <path
         id="use20374"
         d="m 949.04509,-799.00965 c 0,0 4.44827,-3.55862 4.44827,-8.49202 0,-2.88808 -2.56406,-7.68286 -8.49198,-7.68286 -5.92792,0 -8.49199,4.79665 -8.49199,7.68286 0,4.9334 4.44828,8.49202 4.44828,8.49202 -4.9409,-3.84893 -13.7494,-1.22119 -13.7494,6.47106 0,3.8508 3.14657,8.08742 8.08742,8.08742 5.92792,0 8.49199,-6.47106 8.49199,-6.47106 0,0 0.75294,7.3757 -3.63915,11.32391 h 9.70569 c -4.39209,-3.94631 -3.63919,-11.32391 -3.63919,-11.32391 0,0 2.56411,6.47106 8.49203,6.47106 4.94272,0 8.08743,-4.23848 8.08743,-8.08742 0,-7.69225 -8.80855,-10.31999 -13.7494,-6.47106 z"
         style="fill:#0050a1;fill-opacity:1;stroke:#000000;stroke-width:0.413789;stroke-opacity:1" />
      <path
         id="use20380"
         d="m 977.51221,-859.95801 c 0,0 4.44827,-3.55862 4.44827,-8.49202 0,-2.88808 -2.56406,-7.68286 -8.49198,-7.68286 -5.92792,0 -8.49199,4.79665 -8.49199,7.68286 0,4.9334 4.44828,8.49202 4.44828,8.49202 -4.9409,-3.84894 -13.7494,-1.22119 -13.7494,6.47106 0,3.8508 3.14657,8.08742 8.08742,8.08742 5.92792,0 8.49199,-6.47106 8.49199,-6.47106 0,0 0.75294,7.3757 -3.63915,11.3239 h 9.70569 c -4.39209,-3.9463 -3.63919,-11.3239 -3.63919,-11.3239 0,0 2.56411,6.47106 8.49203,6.47106 4.94272,0 8.08743,-4.23848 8.08743,-8.08742 0,-7.69225 -8.80855,-10.32 -13.7494,-6.47106 z"
         style="fill:#0050a1;fill-opacity:1;stroke:#000000;stroke-width:0.413789;stroke-opacity:1" />
      <path
         id="use20382"
         d="m 923.23596,-859.95801 c 0,0 4.44827,-3.55862 4.44827,-8.49202 0,-2.88808 -2.56406,-7.68286 -8.49198,-7.68286 -5.92792,0 -8.49199,4.79665 -8.49199,7.68286 0,4.9334 4.44828,8.49202 4.44828,8.49202 -4.9409,-3.84894 -13.7494,-1.22119 -13.7494,6.47106 0,3.8508 3.14657,8.08742 8.08742,8.08742 5.92792,0 8.49199,-6.47106 8.49199,-6.47106 0,0 0.75294,7.3757 -3.63915,11.3239 h 9.70569 c -4.39209,-3.9463 -3.63919,-11.3239 -3.63919,-11.3239 0,0 2.56411,6.47106 8.49203,6.47106 4.94272,0 8.08743,-4.23848 8.08743,-8.08742 0,-7.69225 -8.80855,-10.32 -13.7494,-6.47106 z"
         style="fill:#0050a1;fill-opacity:1;stroke:#000000;stroke-width:0.413789;stroke-opacity:1" />
      <path
         id="use20400"
         d="m 915.14793,-737.01558 c 0,0 -4.44827,3.55862 -4.44827,8.49202 0,2.88807 2.56406,7.68286 8.49198,7.68286 5.92792,0 8.49199,-4.79665 8.49199,-7.68286 0,-4.9334 -4.44828,-8.49202 -4.44828,-8.49202 4.9409,3.84893 13.7494,1.22118 13.7494,-6.47107 0,-3.85079 -3.14657,-8.08742 -8.08742,-8.08742 -5.92792,0 -8.49199,6.47107 -8.49199,6.47107 0,0 -0.75294,-7.3757 3.63915,-11.32391 h -9.70569 c 4.39209,3.9463 3.63919,11.32391 3.63919,11.32391 0,0 -2.56411,-6.47107 -8.49203,-6.47107 -4.94272,0 -8.08743,4.23849 -8.08743,8.08742 0,7.69225 8.80855,10.32 13.7494,6.47107 z"
         style="fill:#0050a1;fill-opacity:1;stroke:#000000;stroke-width:0.413789;stroke-opacity:1" />
      <path
         id="use20402"
         d="m 969.42423,-737.01558 c 0,0 -4.44827,3.55862 -4.44827,8.49202 0,2.88807 2.56406,7.68286 8.49198,7.68286 5.92792,0 8.49199,-4.79665 8.49199,-7.68286 0,-4.9334 -4.44828,-8.49202 -4.44828,-8.49202 4.9409,3.84893 13.7494,1.22118 13.7494,-6.47107 0,-3.85079 -3.14657,-8.08742 -8.08742,-8.08742 -5.92792,0 -8.49199,6.47107 -8.49199,6.47107 0,0 -0.75294,-7.3757 3.63915,-11.32391 h -9.70569 c 4.39209,3.9463 3.63919,11.32391 3.63919,11.32391 0,0 -2.56411,-6.47107 -8.49203,-6.47107 -4.94272,0 -8.08743,4.23849 -8.08743,8.08742 0,7.69225 8.80855,10.32 13.7494,6.47107 z"
         style="fill:#0050a1;fill-opacity:1;stroke:#000000;stroke-width:0.413789;stroke-opacity:1" />
    </g>
  </g>
</svg>
