<?xml version="1.0" encoding="UTF-8" standalone="no"?>
<!-- Created with Inkscape (http://www.inkscape.org/) -->

<svg
   width="210"
   height="315.00003"
   viewBox="0 0 210.00001 315.00005"
   id="svg8691"
   version="1.1"
   xmlns="http://www.w3.org/2000/svg"
   xmlns:svg="http://www.w3.org/2000/svg"
   xmlns:rdf="http://www.w3.org/1999/02/22-rdf-syntax-ns#"
   xmlns:cc="http://creativecommons.org/ns#"
   xmlns:dc="http://purl.org/dc/elements/1.1/">
  <defs
     id="defs8693" />
  <metadata
     id="metadata8696">
    <rdf:RDF>
      <cc:Work
         rdf:about="">
        <dc:format>image/svg+xml</dc:format>
        <dc:type
           rdf:resource="http://purl.org/dc/dcmitype/StillImage" />
        <dc:title />
        <cc:license
           rdf:resource="http://creativecommons.org/publicdomain/zero/1.0/" />
      </cc:Work>
      <cc:License
         rdf:about="http://creativecommons.org/publicdomain/zero/1.0/">
        <cc:permits
           rdf:resource="http://creativecommons.org/ns#Reproduction" />
        <cc:permits
           rdf:resource="http://creativecommons.org/ns#Distribution" />
        <cc:permits
           rdf:resource="http://creativecommons.org/ns#DerivativeWorks" />
      </cc:License>
    </rdf:RDF>
  </metadata>
  <g
     id="layer1"
     transform="translate(-630.00112,639.89115)">
    <g
       id="diamond4">
      <rect
         style="opacity:1;fill:#fdfeee;fill-opacity:1;stroke:#000000;stroke-width:0.996047;stroke-linecap:butt;stroke-linejoin:round;stroke-miterlimit:4;stroke-dasharray:none;stroke-opacity:1"
         id="rect10949"
         width="209.00395"
         height="314.004"
         x="630.49915"
         y="-639.39313"
         ry="14.999999"
         rx="14.999998" />
      <rect
         style="opacity:1;fill:none;fill-opacity:1;stroke:#000000;stroke-width:0.995028;stroke-linecap:butt;stroke-linejoin:round;stroke-miterlimit:4;stroke-dasharray:none;stroke-opacity:1"
         id="rect10951"
         width="99.004982"
         height="164.00497"
         x="685.49866"
         y="-564.39362" />
      <path
         style="fill:#b28940;fill-opacity:1;stroke:#000000;stroke-width:0.51904;stroke-miterlimit:4;stroke-dasharray:none;stroke-opacity:1"
         id="use16300"
         d="m 697.25026,-622.75537 c -5.12221,-5.34524 -7.84742,-10.7776 -7.84742,-10.7776 0,0 -2.72521,5.43236 -7.84742,10.7776 -5.12462,5.34336 -11.50904,8.81913 -11.50904,8.81913 0,0 6.38442,3.47389 11.50904,8.821 5.12221,5.34337 7.84742,10.77572 7.84742,10.77572 0,0 2.72521,-5.43235 7.84742,-10.77572 5.12462,-5.34711 11.50904,-8.821 11.50904,-8.821 0,0 -6.38442,-3.47577 -11.50904,-8.81913 z" />
      <path
         style="fill:#b28940;fill-opacity:1;stroke:#000000;stroke-width:0.51904;stroke-miterlimit:4;stroke-dasharray:none;stroke-opacity:1"
         id="use16302"
         d="m 767.99352,-343.24757 c 5.12221,5.34525 7.84742,10.7776 7.84742,10.7776 0,0 2.72521,-5.43235 7.84742,-10.7776 5.12462,-5.34336 11.50904,-8.81913 11.50904,-8.81913 0,0 -6.38442,-3.47389 -11.50904,-8.821 -5.12221,-5.34337 -7.84742,-10.77572 -7.84742,-10.77572 0,0 -2.72521,5.43235 -7.84742,10.77572 -5.12462,5.34711 -11.50904,8.821 -11.50904,8.821 0,0 6.38442,3.47577 11.50904,8.81913 z" />
      <text
         transform="scale(1.0396186,0.96189122)"
         id="text18462-3"
         y="-621.13397"
         x="616.47864"
         style="color:#000000;font-style:normal;font-variant:normal;font-weight:normal;font-stretch:normal;line-height:0%;font-family:Arial;-inkscape-font-specification:'Arial, Normal';text-indent:0;text-align:start;text-decoration:none;text-decoration-line:none;text-decoration-style:solid;text-decoration-color:#000000;letter-spacing:0px;word-spacing:0px;text-transform:none;writing-mode:lr-tb;direction:ltr;baseline-shift:baseline;text-anchor:start;white-space:normal;clip-rule:nonzero;display:inline;overflow:visible;visibility:visible;opacity:1;isolation:auto;mix-blend-mode:normal;color-interpolation:sRGB;color-interpolation-filters:linearRGB;solid-color:#000000;solid-opacity:1;fill:#b28940;fill-opacity:1;fill-rule:nonzero;stroke:#000000;stroke-width:1px;stroke-linecap:butt;stroke-linejoin:miter;stroke-miterlimit:4;stroke-dasharray:none;stroke-dashoffset:0;stroke-opacity:1;color-rendering:auto;image-rendering:auto;shape-rendering:auto;text-rendering:auto;enable-background:accumulate"
         xml:space="preserve"><tspan
           y="-621.13397"
           x="616.47864"
           id="tspan18464-2"
           style="font-size:52.5px;line-height:1.25">4</tspan></text>
      <text
         transform="scale(-1)"
         id="text19317-6"
         y="369.97177"
         x="-825.0874"
         style="color:#000000;font-style:normal;font-variant:normal;font-weight:normal;font-stretch:normal;line-height:0%;font-family:Arial;-inkscape-font-specification:'Arial, Normal';text-indent:0;text-align:start;text-decoration:none;text-decoration-line:none;text-decoration-style:solid;text-decoration-color:#000000;letter-spacing:0px;word-spacing:0px;text-transform:none;writing-mode:lr-tb;direction:ltr;baseline-shift:baseline;text-anchor:start;white-space:normal;clip-rule:nonzero;display:inline;overflow:visible;visibility:visible;opacity:1;isolation:auto;mix-blend-mode:normal;color-interpolation:sRGB;color-interpolation-filters:linearRGB;solid-color:#000000;solid-opacity:1;fill:#b28940;fill-opacity:1;fill-rule:nonzero;stroke:#000000;stroke-width:1px;stroke-linecap:butt;stroke-linejoin:miter;stroke-miterlimit:4;stroke-dasharray:none;stroke-dashoffset:0;stroke-opacity:1;color-rendering:auto;image-rendering:auto;shape-rendering:auto;text-rendering:auto;enable-background:accumulate"
         xml:space="preserve"><tspan
           y="369.97177"
           x="-825.0874"
           id="tspan19319-6"
           style="font-size:52.5px;line-height:1.25">4</tspan></text>
      <path
         style="fill:#b28940;fill-opacity:1;stroke:#000000;stroke-width:0.467135;stroke-miterlimit:4;stroke-dasharray:none;stroke-opacity:1"
         id="use21299"
         d="m 714.41956,-550.68384 c -4.61086,-4.8098 -7.06401,-9.69799 -7.06401,-9.69799 0,0 -2.45315,4.88819 -7.06401,9.69799 -4.61302,4.80811 -10.36008,7.9357 -10.36008,7.9357 0,0 5.74706,3.12591 10.36008,7.93738 4.61086,4.80813 7.06401,9.6963 7.06401,9.6963 0,0 2.45315,-4.88817 7.06401,-9.6963 4.61302,-4.81147 10.36008,-7.93738 10.36008,-7.93738 0,0 -5.74706,-3.12759 -10.36008,-7.9357 z" />
      <path
         style="fill:#b28940;fill-opacity:1;stroke:#000000;stroke-width:0.467135;stroke-miterlimit:4;stroke-dasharray:none;stroke-opacity:1"
         id="use21301"
         d="m 700.2915,-414.12559 c 4.61086,4.8098 7.06401,9.69798 7.06401,9.69798 0,0 2.45315,-4.88818 7.06401,-9.69798 4.61302,-4.80811 10.36008,-7.9357 10.36008,-7.9357 0,0 -5.74706,-3.12592 -10.36008,-7.93739 -4.61086,-4.80812 -7.06401,-9.6963 -7.06401,-9.6963 0,0 -2.45315,4.88818 -7.06401,9.6963 -4.61302,4.81147 -10.36008,7.93739 -10.36008,7.93739 0,0 5.74706,3.12759 10.36008,7.9357 z" />
      <path
         style="fill:#b28940;fill-opacity:1;stroke:#000000;stroke-width:0.467135;stroke-miterlimit:4;stroke-dasharray:none;stroke-opacity:1"
         id="use21317"
         d="m 769.88405,-550.68384 c -4.61086,-4.8098 -7.06401,-9.69799 -7.06401,-9.69799 0,0 -2.45315,4.88819 -7.06401,9.69799 -4.61302,4.80811 -10.36008,7.9357 -10.36008,7.9357 0,0 5.74706,3.12591 10.36008,7.93738 4.61086,4.80813 7.06401,9.6963 7.06401,9.6963 0,0 2.45315,-4.88817 7.06401,-9.6963 4.61302,-4.81147 10.36008,-7.93738 10.36008,-7.93738 0,0 -5.74706,-3.12759 -10.36008,-7.9357 z" />
      <path
         style="fill:#b28940;fill-opacity:1;stroke:#000000;stroke-width:0.467135;stroke-miterlimit:4;stroke-dasharray:none;stroke-opacity:1"
         id="use21319"
         d="m 755.756,-414.12559 c 4.61086,4.8098 7.06401,9.69798 7.06401,9.69798 0,0 2.45315,-4.88818 7.06401,-9.69798 4.61302,-4.80811 10.36008,-7.9357 10.36008,-7.9357 0,0 -5.74706,-3.12592 -10.36008,-7.93739 -4.61086,-4.80812 -7.06401,-9.6963 -7.06401,-9.6963 0,0 -2.45315,4.88818 -7.06401,9.6963 -4.61302,4.81147 -10.36008,7.93739 -10.36008,7.93739 0,0 5.74706,3.12759 10.36008,7.9357 z" />
    </g>
  </g>
</svg>
