<?xml version="1.0" encoding="UTF-8" standalone="no"?>
<!-- Created with Inkscape (http://www.inkscape.org/) -->

<svg
   xmlns:dc="http://purl.org/dc/elements/1.1/"
   xmlns:cc="http://creativecommons.org/ns#"
   xmlns:rdf="http://www.w3.org/1999/02/22-rdf-syntax-ns#"
   xmlns:svg="http://www.w3.org/2000/svg"
   xmlns="http://www.w3.org/2000/svg"
   xmlns:sodipodi="http://sodipodi.sourceforge.net/DTD/sodipodi-0.dtd"
   xmlns:inkscape="http://www.inkscape.org/namespaces/inkscape"
   width="210"
   height="315.00003"
   viewBox="0 0 210 315.00003"
   id="svg9570"
   version="1.1"
   inkscape:version="0.91 r13725"
   sodipodi:docname="diamond9.svg">
  <defs
     id="defs9572" />
  <sodipodi:namedview
     id="base"
     pagecolor="#ffffff"
     bordercolor="#666666"
     borderopacity="1.0"
     inkscape:pageopacity="0.0"
     inkscape:pageshadow="2"
     inkscape:zoom="1.3614753"
     inkscape:cx="118.09403"
     inkscape:cy="157.50001"
     inkscape:document-units="px"
     inkscape:current-layer="layer1"
     showgrid="false"
     showborder="false"
     fit-margin-top="0"
     fit-margin-left="0"
     fit-margin-right="0"
     fit-margin-bottom="0"
     inkscape:window-width="560"
     inkscape:window-height="665"
     inkscape:window-x="1344"
     inkscape:window-y="48"
     inkscape:window-maximized="0"
     units="px" />
  <metadata
     id="metadata9575">
    <rdf:RDF>
      <cc:Work
         rdf:about="">
        <dc:format>image/svg+xml</dc:format>
        <dc:type
           rdf:resource="http://purl.org/dc/dcmitype/StillImage" />
        <dc:title></dc:title>
      </cc:Work>
    </rdf:RDF>
  </metadata>
  <g
     inkscape:label="Layer 1"
     inkscape:groupmode="layer"
     id="layer1"
     transform="translate(0,-737.36219)">
    <g
       transform="translate(-1680.0011,1377.2533)"
       id="diamond9"
       inkscape:label="#g7476">
      <rect
         style="opacity:1;fill:#fdfeee;fill-opacity:1;stroke:#000000;stroke-width:0.9960472;stroke-linecap:butt;stroke-linejoin:round;stroke-miterlimit:4;stroke-dasharray:none;stroke-opacity:1"
         id="rect11069"
         width="209.00395"
         height="314.004"
         x="1680.4991"
         y="-639.39313"
         ry="14.999999"
         rx="14.999998" />
      <rect
         style="opacity:1;fill:none;fill-opacity:1;stroke:#000000;stroke-width:0.99502754;stroke-linecap:butt;stroke-linejoin:round;stroke-miterlimit:4;stroke-dasharray:none;stroke-opacity:1"
         id="rect11071"
         width="99.004982"
         height="164.00497"
         x="1735.4987"
         y="-564.39362" />
      <path
         style="fill:#b28940;fill-opacity:1;stroke:#000000;stroke-width:0.51903999;stroke-miterlimit:4;stroke-dasharray:none;stroke-opacity:1"
         inkscape:connector-curvature="0"
         id="use16320"
         d="m 1750.7536,-623.50122 c -5.1222,-5.34525 -7.8475,-10.7776 -7.8475,-10.7776 0,0 -2.7252,5.43235 -7.8474,10.7776 -5.1246,5.34336 -11.509,8.81913 -11.509,8.81913 0,0 6.3844,3.47389 11.509,8.821 5.1222,5.34337 7.8474,10.77572 7.8474,10.77572 0,0 2.7253,-5.43235 7.8475,-10.77572 5.1246,-5.34711 11.509,-8.821 11.509,-8.821 0,0 -6.3844,-3.47577 -11.509,-8.81913 z"
         sodipodi:nodetypes="ccccccccc" />
      <path
         style="fill:#b28940;fill-opacity:1;stroke:#000000;stroke-width:0.51903999;stroke-miterlimit:4;stroke-dasharray:none;stroke-opacity:1"
         inkscape:connector-curvature="0"
         id="use16322"
         d="m 1817.8274,-343.24756 c 5.1222,5.34525 7.8475,10.7776 7.8475,10.7776 0,0 2.7252,-5.43235 7.8474,-10.7776 5.1246,-5.34336 11.509,-8.81913 11.509,-8.81913 0,0 -6.3844,-3.47389 -11.509,-8.821 -5.1222,-5.34337 -7.8474,-10.77572 -7.8474,-10.77572 0,0 -2.7253,5.43235 -7.8475,10.77572 -5.1246,5.34711 -11.509,8.821 -11.509,8.821 0,0 6.3844,3.47577 11.509,8.81913 z"
         sodipodi:nodetypes="ccccccccc" />
      <text
         transform="scale(1.0396186,0.96189122)"
         sodipodi:linespacing="125%"
         id="text18482-6"
         y="-621.75555"
         x="1626.6104"
         style="color:#000000;font-style:normal;font-variant:normal;font-weight:normal;font-stretch:normal;font-size:52.50000381px;line-height:125%;font-family:Arial;-inkscape-font-specification:'Arial, Normal';text-indent:0;text-align:start;text-decoration:none;text-decoration-line:none;text-decoration-style:solid;text-decoration-color:#000000;letter-spacing:0px;word-spacing:0px;text-transform:none;direction:ltr;block-progression:tb;writing-mode:lr-tb;baseline-shift:baseline;text-anchor:start;white-space:normal;clip-rule:nonzero;display:inline;overflow:visible;visibility:visible;opacity:1;isolation:auto;mix-blend-mode:normal;color-interpolation:sRGB;color-interpolation-filters:linearRGB;solid-color:#000000;solid-opacity:1;fill:#b28940;fill-opacity:1;fill-rule:nonzero;stroke:#000000;stroke-width:1px;stroke-linecap:butt;stroke-linejoin:miter;stroke-miterlimit:4;stroke-dasharray:none;stroke-dashoffset:0;stroke-opacity:1;color-rendering:auto;image-rendering:auto;shape-rendering:auto;text-rendering:auto;enable-background:accumulate"
         xml:space="preserve"><tspan
           y="-621.75555"
           x="1626.6104"
           id="tspan18484-0"
           sodipodi:role="line">9</tspan></text>
      <text
         transform="scale(-1,-1)"
         sodipodi:linespacing="125%"
         id="text19337-1"
         y="370.12558"
         x="-1875.688"
         style="color:#000000;font-style:normal;font-variant:normal;font-weight:normal;font-stretch:normal;font-size:52.50000381px;line-height:125%;font-family:Arial;-inkscape-font-specification:'Arial, Normal';text-indent:0;text-align:start;text-decoration:none;text-decoration-line:none;text-decoration-style:solid;text-decoration-color:#000000;letter-spacing:0px;word-spacing:0px;text-transform:none;direction:ltr;block-progression:tb;writing-mode:lr-tb;baseline-shift:baseline;text-anchor:start;white-space:normal;clip-rule:nonzero;display:inline;overflow:visible;visibility:visible;opacity:1;isolation:auto;mix-blend-mode:normal;color-interpolation:sRGB;color-interpolation-filters:linearRGB;solid-color:#000000;solid-opacity:1;fill:#b28940;fill-opacity:1;fill-rule:nonzero;stroke:#000000;stroke-width:1px;stroke-linecap:butt;stroke-linejoin:miter;stroke-miterlimit:4;stroke-dasharray:none;stroke-dashoffset:0;stroke-opacity:1;color-rendering:auto;image-rendering:auto;shape-rendering:auto;text-rendering:auto;enable-background:accumulate"
         xml:space="preserve"><tspan
           y="370.12558"
           x="-1875.688"
           id="tspan19339-2"
           sodipodi:role="line">9</tspan></text>
      <path
         style="fill:#b28940;fill-opacity:1;stroke:#000000;stroke-width:0.46713534;stroke-miterlimit:4;stroke-dasharray:none;stroke-opacity:1"
         inkscape:connector-curvature="0"
         id="use21303"
         d="m 1762.6663,-552.48934 c -4.6109,-4.8098 -7.064,-9.69798 -7.064,-9.69798 0,0 -2.4532,4.88818 -7.064,9.69798 -4.613,4.80811 -10.3601,7.9357 -10.3601,7.9357 0,0 5.7471,3.12591 10.3601,7.93739 4.6108,4.80812 7.064,9.6963 7.064,9.6963 0,0 2.4531,-4.88818 7.064,-9.6963 4.613,-4.81148 10.3601,-7.93739 10.3601,-7.93739 0,0 -5.7471,-3.12759 -10.3601,-7.9357 z"
         sodipodi:nodetypes="ccccccccc" />
      <path
         style="fill:#b28940;fill-opacity:1;stroke:#000000;stroke-width:0.46713534;stroke-miterlimit:4;stroke-dasharray:none;stroke-opacity:1"
         inkscape:connector-curvature="0"
         id="use21305"
         d="m 1762.6663,-511.29067 c -4.6109,-4.8098 -7.064,-9.69799 -7.064,-9.69799 0,0 -2.4532,4.88819 -7.064,9.69799 -4.613,4.80811 -10.3601,7.9357 -10.3601,7.9357 0,0 5.7471,3.12591 10.3601,7.93738 4.6108,4.80813 7.064,9.6963 7.064,9.6963 0,0 2.4531,-4.88817 7.064,-9.6963 4.613,-4.81147 10.3601,-7.93738 10.3601,-7.93738 0,0 -5.7471,-3.12759 -10.3601,-7.9357 z"
         sodipodi:nodetypes="ccccccccc" />
      <path
         style="fill:#b28940;fill-opacity:1;stroke:#000000;stroke-width:0.46713534;stroke-miterlimit:4;stroke-dasharray:none;stroke-opacity:1"
         inkscape:connector-curvature="0"
         id="use21307"
         d="m 1748.5382,-453.86687 c 4.6109,4.8098 7.064,9.69798 7.064,9.69798 0,0 2.4532,-4.88818 7.064,-9.69798 4.613,-4.80811 10.3601,-7.9357 10.3601,-7.9357 0,0 -5.7471,-3.12592 -10.3601,-7.93739 -4.6108,-4.80812 -7.064,-9.6963 -7.064,-9.6963 0,0 -2.4531,4.88818 -7.064,9.6963 -4.613,4.81147 -10.3601,7.93739 -10.3601,7.93739 0,0 5.7471,3.12759 10.3601,7.9357 z"
         sodipodi:nodetypes="ccccccccc" />
      <path
         style="fill:#b28940;fill-opacity:1;stroke:#000000;stroke-width:0.46713534;stroke-miterlimit:4;stroke-dasharray:none;stroke-opacity:1"
         inkscape:connector-curvature="0"
         id="use21321"
         d="m 1821.5503,-552.48934 c -4.6109,-4.8098 -7.064,-9.69798 -7.064,-9.69798 0,0 -2.4532,4.88818 -7.064,9.69798 -4.613,4.80811 -10.3601,7.9357 -10.3601,7.9357 0,0 5.7471,3.12591 10.3601,7.93739 4.6108,4.80812 7.064,9.6963 7.064,9.6963 0,0 2.4531,-4.88818 7.064,-9.6963 4.613,-4.81148 10.3601,-7.93739 10.3601,-7.93739 0,0 -5.7471,-3.12759 -10.3601,-7.9357 z"
         sodipodi:nodetypes="ccccccccc" />
      <path
         style="fill:#b28940;fill-opacity:1;stroke:#000000;stroke-width:0.46713534;stroke-miterlimit:4;stroke-dasharray:none;stroke-opacity:1"
         inkscape:connector-curvature="0"
         id="use21323"
         d="m 1821.5503,-511.29067 c -4.6109,-4.8098 -7.064,-9.69799 -7.064,-9.69799 0,0 -2.4532,4.88819 -7.064,9.69799 -4.613,4.80811 -10.3601,7.9357 -10.3601,7.9357 0,0 5.7471,3.12591 10.3601,7.93738 4.6108,4.80813 7.064,9.6963 7.064,9.6963 0,0 2.4531,-4.88817 7.064,-9.6963 4.613,-4.81147 10.3601,-7.93738 10.3601,-7.93738 0,0 -5.7471,-3.12759 -10.3601,-7.9357 z"
         sodipodi:nodetypes="ccccccccc" />
      <path
         style="fill:#b28940;fill-opacity:1;stroke:#000000;stroke-width:0.46713534;stroke-miterlimit:4;stroke-dasharray:none;stroke-opacity:1"
         inkscape:connector-curvature="0"
         id="use21325"
         d="m 1807.4222,-453.86687 c 4.6109,4.8098 7.064,9.69798 7.064,9.69798 0,0 2.4532,-4.88818 7.064,-9.69798 4.613,-4.80811 10.3601,-7.9357 10.3601,-7.9357 0,0 -5.7471,-3.12592 -10.3601,-7.93739 -4.6108,-4.80812 -7.064,-9.6963 -7.064,-9.6963 0,0 -2.4531,4.88818 -7.064,9.6963 -4.613,4.81147 -10.3601,7.93739 -10.3601,7.93739 0,0 5.7471,3.12759 10.3601,7.9357 z"
         sodipodi:nodetypes="ccccccccc" />
      <path
         style="fill:#b28940;fill-opacity:1;stroke:#000000;stroke-width:0.46713534;stroke-miterlimit:4;stroke-dasharray:none;stroke-opacity:1"
         inkscape:connector-curvature="0"
         id="use21341"
         d="m 1807.4222,-412.66807 c 4.6109,4.8098 7.064,9.69798 7.064,9.69798 0,0 2.4532,-4.88818 7.064,-9.69798 4.613,-4.80811 10.3601,-7.9357 10.3601,-7.9357 0,0 -5.7471,-3.12592 -10.3601,-7.93739 -4.6108,-4.80812 -7.064,-9.6963 -7.064,-9.6963 0,0 -2.4531,4.88818 -7.064,9.6963 -4.613,4.81147 -10.3601,7.93739 -10.3601,7.93739 0,0 5.7471,3.12759 10.3601,7.9357 z"
         sodipodi:nodetypes="ccccccccc" />
      <path
         style="fill:#b28940;fill-opacity:1;stroke:#000000;stroke-width:0.46713534;stroke-miterlimit:4;stroke-dasharray:none;stroke-opacity:1"
         inkscape:connector-curvature="0"
         id="use21343"
         d="m 1748.5382,-412.66807 c 4.6109,4.8098 7.064,9.69798 7.064,9.69798 0,0 2.4532,-4.88818 7.064,-9.69798 4.613,-4.80811 10.3601,-7.9357 10.3601,-7.9357 0,0 -5.7471,-3.12592 -10.3601,-7.93739 -4.6108,-4.80812 -7.064,-9.6963 -7.064,-9.6963 0,0 -2.4531,4.88818 -7.064,9.6963 -4.613,4.81147 -10.3601,7.93739 -10.3601,7.93739 0,0 5.7471,3.12759 10.3601,7.9357 z"
         sodipodi:nodetypes="ccccccccc" />
      <path
         style="fill:#b28940;fill-opacity:1;stroke:#000000;stroke-width:0.46713534;stroke-miterlimit:4;stroke-dasharray:none;stroke-opacity:1"
         inkscape:connector-curvature="0"
         id="use21345"
         d="m 1792.0652,-490.32683 c -4.6109,-4.8098 -7.064,-9.69798 -7.064,-9.69798 0,0 -2.4532,4.88818 -7.064,9.69798 -4.613,4.80811 -10.3601,7.9357 -10.3601,7.9357 0,0 5.7471,3.12591 10.3601,7.93739 4.6108,4.80812 7.064,9.6963 7.064,9.6963 0,0 2.4531,-4.88818 7.064,-9.6963 4.613,-4.81148 10.3601,-7.93739 10.3601,-7.93739 0,0 -5.7471,-3.12759 -10.3601,-7.9357 z"
         sodipodi:nodetypes="ccccccccc" />
    </g>
  </g>
</svg>
