<?xml version="1.0" encoding="UTF-8" standalone="no"?>
<!-- Created with Inkscape (http://www.inkscape.org/) -->

<svg
   xmlns:dc="http://purl.org/dc/elements/1.1/"
   xmlns:cc="http://creativecommons.org/ns#"
   xmlns:rdf="http://www.w3.org/1999/02/22-rdf-syntax-ns#"
   xmlns:svg="http://www.w3.org/2000/svg"
   xmlns="http://www.w3.org/2000/svg"
   xmlns:sodipodi="http://sodipodi.sourceforge.net/DTD/sodipodi-0.dtd"
   xmlns:inkscape="http://www.inkscape.org/namespaces/inkscape"
   width="210"
   height="315.00003"
   viewBox="0 0 210 315.00003"
   id="svg9570"
   version="1.1"
   inkscape:version="0.91 r13725"
   sodipodi:docname="heart7.svg">
  <defs
     id="defs9572" />
  <sodipodi:namedview
     id="base"
     pagecolor="#ffffff"
     bordercolor="#666666"
     borderopacity="1.0"
     inkscape:pageopacity="0.0"
     inkscape:pageshadow="2"
     inkscape:zoom="1.3614753"
     inkscape:cx="118.09403"
     inkscape:cy="157.50001"
     inkscape:document-units="px"
     inkscape:current-layer="layer1"
     showgrid="false"
     showborder="false"
     fit-margin-top="0"
     fit-margin-left="0"
     fit-margin-right="0"
     fit-margin-bottom="0"
     inkscape:window-width="560"
     inkscape:window-height="665"
     inkscape:window-x="1344"
     inkscape:window-y="48"
     inkscape:window-maximized="0"
     units="px" />
  <metadata
     id="metadata9575">
    <rdf:RDF>
      <cc:Work
         rdf:about="">
        <dc:format>image/svg+xml</dc:format>
        <dc:type
           rdf:resource="http://purl.org/dc/dcmitype/StillImage" />
        <dc:title></dc:title>
      </cc:Work>
    </rdf:RDF>
  </metadata>
  <g
     inkscape:label="Layer 1"
     inkscape:groupmode="layer"
     id="layer1"
     transform="translate(0,-737.36219)">
    <g
       transform="translate(-1260.0011,1062.2533)"
       id="heart7"
       inkscape:label="#g7836">
      <rect
         style="opacity:1;fill:#fdfeee;fill-opacity:1;stroke:#000000;stroke-width:0.9960472;stroke-linecap:butt;stroke-linejoin:round;stroke-miterlimit:4;stroke-dasharray:none;stroke-opacity:1"
         id="rect11027"
         width="209.00395"
         height="314.004"
         x="1260.4991"
         y="-324.39313"
         ry="14.999999"
         rx="14.999998" />
      <rect
         style="opacity:1;fill:none;fill-opacity:1;stroke:#000000;stroke-width:0.99502754;stroke-linecap:butt;stroke-linejoin:round;stroke-miterlimit:4;stroke-dasharray:none;stroke-opacity:1"
         id="rect11029"
         width="99.004982"
         height="164.00497"
         x="1315.4987"
         y="-249.3936" />
      <path
         sodipodi:nodetypes="scsscss"
         d="m 1331.7269,-316.31212 c -8.2494,0 -9.3508,7.73585 -9.3508,7.73585 0,0 -1.1015,-7.73585 -9.3509,-7.73585 -5.7743,0 -10.9991,3.46856 -10.9991,10.01189 0,8.64581 16.7357,17.34017 20.35,30.03565 3.4392,-12.68484 20.35,-21.38984 20.35,-30.03565 0,-6.54333 -5.2249,-10.01189 -10.9992,-10.01189 z"
         id="use17016"
         inkscape:connector-curvature="0"
         style="fill:#ff0052;fill-opacity:1;stroke:#000000;stroke-width:0.51776618;stroke-miterlimit:4;stroke-dasharray:none;stroke-opacity:1" />
      <path
         sodipodi:nodetypes="scsscss"
         d="m 1392.7411,-17.150034 c 8.2494,0 9.3508,-7.735846 9.3508,-7.735846 0,0 1.1015,7.735846 9.3509,7.735846 5.7743,0 10.9991,-3.468562 10.9991,-10.011889 0,-8.645809 -16.7357,-17.340167 -20.35,-30.035645 -3.4392,12.684839 -20.35,21.389836 -20.35,30.035645 0,6.543327 5.2249,10.011889 10.9992,10.011889 z"
         id="use17018"
         inkscape:connector-curvature="0"
         style="fill:#ff0052;fill-opacity:1;stroke:#000000;stroke-width:0.51776618;stroke-miterlimit:4;stroke-dasharray:none;stroke-opacity:1" />
      <text
         transform="scale(1.0396186,0.96189122)"
         sodipodi:linespacing="125%"
         id="text18474-9"
         y="-291.49979"
         x="1221.8042"
         style="color:#000000;font-style:normal;font-variant:normal;font-weight:normal;font-stretch:normal;font-size:52.50000381px;line-height:125%;font-family:Arial;-inkscape-font-specification:'Arial, Normal';text-indent:0;text-align:start;text-decoration:none;text-decoration-line:none;text-decoration-style:solid;text-decoration-color:#000000;letter-spacing:0px;word-spacing:0px;text-transform:none;direction:ltr;block-progression:tb;writing-mode:lr-tb;baseline-shift:baseline;text-anchor:start;white-space:normal;clip-rule:nonzero;display:inline;overflow:visible;visibility:visible;opacity:1;isolation:auto;mix-blend-mode:normal;color-interpolation:sRGB;color-interpolation-filters:linearRGB;solid-color:#000000;solid-opacity:1;fill:#ff0052;fill-opacity:1;fill-rule:nonzero;stroke:#000000;stroke-width:1px;stroke-linecap:butt;stroke-linejoin:miter;stroke-miterlimit:4;stroke-dasharray:none;stroke-dashoffset:0;stroke-opacity:1;color-rendering:auto;image-rendering:auto;shape-rendering:auto;text-rendering:auto;enable-background:accumulate"
         xml:space="preserve"><tspan
           y="-291.49979"
           x="1221.8042"
           id="tspan18476-0"
           sodipodi:role="line">7</tspan></text>
      <text
         transform="scale(-1.0000001,-0.9999999)"
         sodipodi:linespacing="125%"
         id="text19329-59"
         y="54.484661"
         x="-1451.5151"
         style="color:#000000;font-style:normal;font-variant:normal;font-weight:normal;font-stretch:normal;font-size:52.50000381px;line-height:125%;font-family:Arial;-inkscape-font-specification:'Arial, Normal';text-indent:0;text-align:start;text-decoration:none;text-decoration-line:none;text-decoration-style:solid;text-decoration-color:#000000;letter-spacing:0px;word-spacing:0px;text-transform:none;direction:ltr;block-progression:tb;writing-mode:lr-tb;baseline-shift:baseline;text-anchor:start;white-space:normal;clip-rule:nonzero;display:inline;overflow:visible;visibility:visible;opacity:1;isolation:auto;mix-blend-mode:normal;color-interpolation:sRGB;color-interpolation-filters:linearRGB;solid-color:#000000;solid-opacity:1;fill:#ff0052;fill-opacity:1;fill-rule:nonzero;stroke:#000000;stroke-width:1px;stroke-linecap:butt;stroke-linejoin:miter;stroke-miterlimit:4;stroke-dasharray:none;stroke-dashoffset:0;stroke-opacity:1;color-rendering:auto;image-rendering:auto;shape-rendering:auto;text-rendering:auto;enable-background:accumulate"
         xml:space="preserve"><tspan
           y="54.484661"
           x="-1451.5151"
           id="tspan19331-90"
           sodipodi:role="line">7</tspan></text>
      <path
         sodipodi:nodetypes="scsscss"
         d="m 1373.1686,-216.36335 c -7.2051,0 -8.1671,6.74747 -8.1671,6.74747 0,0 -0.9621,-6.74747 -8.1672,-6.74747 -5.0434,0 -9.6069,3.0254 -9.6069,8.73272 0,7.54118 14.6173,15.1247 17.7741,26.19815 3.0038,-11.06417 17.774,-18.65697 17.774,-26.19815 0,-5.70732 -4.5635,-8.73272 -9.6069,-8.73272 z"
         id="use21719"
         inkscape:connector-curvature="0"
         style="fill:#ff0052;fill-opacity:1;stroke:#000000;stroke-width:0.45191953;stroke-miterlimit:4;stroke-dasharray:none;stroke-opacity:1" />
      <path
         sodipodi:nodetypes="scsscss"
         d="m 1346.7102,-245.77404 c -7.2051,0 -8.1671,6.74748 -8.1671,6.74748 0,0 -0.9621,-6.74748 -8.1672,-6.74748 -5.0434,0 -9.6069,3.0254 -9.6069,8.73272 0,7.54118 14.6173,15.12471 17.7741,26.19816 3.0038,-11.06417 17.774,-18.65698 17.774,-26.19816 0,-5.70732 -4.5635,-8.73272 -9.6069,-8.73272 z"
         id="use21731"
         inkscape:connector-curvature="0"
         style="fill:#ff0052;fill-opacity:1;stroke:#000000;stroke-width:0.45191953;stroke-miterlimit:4;stroke-dasharray:none;stroke-opacity:1" />
      <path
         sodipodi:nodetypes="scsscss"
         d="m 1346.7102,-186.05155 c -7.2051,0 -8.1671,6.74747 -8.1671,6.74747 0,0 -0.9621,-6.74747 -8.1672,-6.74747 -5.0434,0 -9.6069,3.0254 -9.6069,8.73272 0,7.54118 14.6173,15.1247 17.7741,26.19815 3.0038,-11.06417 17.774,-18.65697 17.774,-26.19815 0,-5.70732 -4.5635,-8.73272 -9.6069,-8.73272 z"
         id="use21733"
         inkscape:connector-curvature="0"
         style="fill:#ff0052;fill-opacity:1;stroke:#000000;stroke-width:0.45191953;stroke-miterlimit:4;stroke-dasharray:none;stroke-opacity:1" />
      <path
         sodipodi:nodetypes="scsscss"
         d="m 1330.3753,-90.780532 c 7.2051,0 8.1671,-6.747478 8.1671,-6.747478 0,0 0.9621,6.747478 8.1672,6.747478 5.0434,0 9.6069,-3.025401 9.6069,-8.732722 0,-7.541176 -14.6173,-15.124706 -17.7741,-26.198156 -3.0038,11.06417 -17.774,18.65698 -17.774,26.198156 0,5.707321 4.5635,8.732722 9.6069,8.732722 z"
         id="use21735"
         inkscape:connector-curvature="0"
         style="fill:#ff0052;fill-opacity:1;stroke:#000000;stroke-width:0.45191953;stroke-miterlimit:4;stroke-dasharray:none;stroke-opacity:1" />
      <path
         sodipodi:nodetypes="scsscss"
         d="m 1401.1255,-245.77404 c -7.2051,0 -8.1671,6.74748 -8.1671,6.74748 0,0 -0.9621,-6.74748 -8.1672,-6.74748 -5.0434,0 -9.6069,3.0254 -9.6069,8.73272 0,7.54118 14.6173,15.12471 17.7741,26.19816 3.0038,-11.06417 17.774,-18.65698 17.774,-26.19816 0,-5.70732 -4.5635,-8.73272 -9.6069,-8.73272 z"
         id="use21749"
         inkscape:connector-curvature="0"
         style="fill:#ff0052;fill-opacity:1;stroke:#000000;stroke-width:0.45191953;stroke-miterlimit:4;stroke-dasharray:none;stroke-opacity:1" />
      <path
         sodipodi:nodetypes="scsscss"
         d="m 1401.1255,-186.05155 c -7.2051,0 -8.1671,6.74747 -8.1671,6.74747 0,0 -0.9621,-6.74747 -8.1672,-6.74747 -5.0434,0 -9.6069,3.0254 -9.6069,8.73272 0,7.54118 14.6173,15.1247 17.7741,26.19815 3.0038,-11.06417 17.774,-18.65697 17.774,-26.19815 0,-5.70732 -4.5635,-8.73272 -9.6069,-8.73272 z"
         id="use21751"
         inkscape:connector-curvature="0"
         style="fill:#ff0052;fill-opacity:1;stroke:#000000;stroke-width:0.45191953;stroke-miterlimit:4;stroke-dasharray:none;stroke-opacity:1" />
      <path
         sodipodi:nodetypes="scsscss"
         d="m 1384.7906,-90.780532 c 7.2051,0 8.1671,-6.747478 8.1671,-6.747478 0,0 0.9621,6.747478 8.1672,6.747478 5.0434,0 9.6069,-3.025401 9.6069,-8.732722 0,-7.541176 -14.6173,-15.124706 -17.7741,-26.198156 -3.0038,11.06417 -17.774,18.65698 -17.774,26.198156 0,5.707321 4.5635,8.732722 9.6069,8.732722 z"
         id="use21753"
         inkscape:connector-curvature="0"
         style="fill:#ff0052;fill-opacity:1;stroke:#000000;stroke-width:0.45191953;stroke-miterlimit:4;stroke-dasharray:none;stroke-opacity:1" />
    </g>
  </g>
</svg>
