<?xml version="1.0" encoding="UTF-8" standalone="no"?>
<!-- Created with Inkscape (http://www.inkscape.org/) -->

<svg
   xmlns:dc="http://purl.org/dc/elements/1.1/"
   xmlns:cc="http://creativecommons.org/ns#"
   xmlns:rdf="http://www.w3.org/1999/02/22-rdf-syntax-ns#"
   xmlns:svg="http://www.w3.org/2000/svg"
   xmlns="http://www.w3.org/2000/svg"
   xmlns:sodipodi="http://sodipodi.sourceforge.net/DTD/sodipodi-0.dtd"
   xmlns:inkscape="http://www.inkscape.org/namespaces/inkscape"
   width="210"
   height="315.00003"
   viewBox="0 0 210 315.00003"
   id="svg9570"
   version="1.1"
   inkscape:version="0.91 r13725"
   sodipodi:docname="spade5.svg">
  <defs
     id="defs9572" />
  <sodipodi:namedview
     id="base"
     pagecolor="#ffffff"
     bordercolor="#666666"
     borderopacity="1.0"
     inkscape:pageopacity="0.0"
     inkscape:pageshadow="2"
     inkscape:zoom="1.3614753"
     inkscape:cx="118.09403"
     inkscape:cy="157.50001"
     inkscape:document-units="px"
     inkscape:current-layer="layer1"
     showgrid="false"
     showborder="false"
     fit-margin-top="0"
     fit-margin-left="0"
     fit-margin-right="0"
     fit-margin-bottom="0"
     inkscape:window-width="560"
     inkscape:window-height="665"
     inkscape:window-x="1344"
     inkscape:window-y="48"
     inkscape:window-maximized="0"
     units="px" />
  <metadata
     id="metadata9575">
    <rdf:RDF>
      <cc:Work
         rdf:about="">
        <dc:format>image/svg+xml</dc:format>
        <dc:type
           rdf:resource="http://purl.org/dc/dcmitype/StillImage" />
        <dc:title></dc:title>
      </cc:Work>
    </rdf:RDF>
  </metadata>
  <g
     inkscape:label="Layer 1"
     inkscape:groupmode="layer"
     id="layer1"
     transform="translate(0,-737.36219)">
    <g
       transform="translate(-840.00112,747.2533)"
       id="spade5"
       inkscape:label="#g8161">
      <rect
         style="opacity:1;fill:#fdfeee;fill-opacity:1;stroke:#000000;stroke-width:0.9960472;stroke-linecap:butt;stroke-linejoin:round;stroke-miterlimit:4;stroke-dasharray:none;stroke-opacity:1"
         id="rect10985"
         width="209.00395"
         height="314.004"
         x="840.49915"
         y="-9.3931017"
         ry="14.999999"
         rx="14.999998" />
      <rect
         style="opacity:1;fill:none;fill-opacity:1;stroke:#000000;stroke-width:0.99502754;stroke-linecap:butt;stroke-linejoin:round;stroke-miterlimit:4;stroke-dasharray:none;stroke-opacity:1"
         id="rect10987"
         width="99.004982"
         height="164.00497"
         x="895.4986"
         y="65.606415" />
      <path
         sodipodi:nodetypes="cccccccccc"
         style="fill:#b900b9;fill-opacity:1;stroke:#000000;stroke-width:0.51767886;stroke-miterlimit:4;stroke-dasharray:none;stroke-opacity:1"
         inkscape:connector-curvature="0"
         d="m 919.6861,22.661267 c -0.60029,-7.670381 -19.21658,-22.10741002 -19.81687,-25.718563 -0.60028,3.60926098 -19.21657,18.04629 -19.81685,25.718563 -0.41921,5.422396 4.20447,7.670382 8.40895,7.670382 4.55217,-0.04082 8.3119,-5.295148 9.60705,-6.316675 0.60028,1.353707 -3.97627,12.633345 -5.40505,12.633345 l 14.41429,0 c -1.42878,0 -6.00534,-11.279638 -5.40505,-12.633345 1.13397,0.938324 4.45781,6.159425 9.60953,6.316675 4.202,-0.0019 8.8232,-2.247986 8.404,-7.670382 z"
         id="use17062" />
      <path
         sodipodi:nodetypes="cccccccccc"
         style="fill:#b900b9;fill-opacity:1;stroke:#000000;stroke-width:0.51767886;stroke-miterlimit:4;stroke-dasharray:none;stroke-opacity:1"
         inkscape:connector-curvature="0"
         d="m 967.0196,272.44787 c 0.6002,7.67038 19.2165,22.10741 19.8168,25.71856 0.6003,-3.60926 19.2166,-18.04629 19.8169,-25.71856 0.4192,-5.4224 -4.2045,-7.67038 -8.409,-7.67038 -4.5521,0.0408 -8.3119,5.29515 -9.607,6.31667 -0.6003,-1.3537 3.9763,-12.63334 5.405,-12.63334 l -14.4143,0 c 1.4288,0 6.0054,11.27964 5.4051,12.63334 -1.134,-0.93832 -4.4578,-6.15942 -9.6095,-6.31667 -4.202,0.002 -8.8232,2.24798 -8.404,7.67038 z"
         id="use17064" />
      <text
         sodipodi:linespacing="125%"
         id="text18466-9"
         y="34.468109"
         x="849.73029"
         style="color:#000000;font-style:normal;font-variant:normal;font-weight:normal;font-stretch:normal;font-size:52.5px;line-height:125%;font-family:Arial;-inkscape-font-specification:'Arial, Normal';text-indent:0;text-align:start;text-decoration:none;text-decoration-line:none;text-decoration-style:solid;text-decoration-color:#000000;letter-spacing:0px;word-spacing:0px;text-transform:none;direction:ltr;block-progression:tb;writing-mode:lr-tb;baseline-shift:baseline;text-anchor:start;white-space:normal;clip-rule:nonzero;display:inline;overflow:visible;visibility:visible;opacity:1;isolation:auto;mix-blend-mode:normal;color-interpolation:sRGB;color-interpolation-filters:linearRGB;solid-color:#000000;solid-opacity:1;fill:#b900b9;fill-opacity:1;fill-rule:nonzero;stroke:#000000;stroke-width:1px;stroke-linecap:butt;stroke-linejoin:miter;stroke-miterlimit:4;stroke-dasharray:none;stroke-dashoffset:0;stroke-opacity:1;color-rendering:auto;image-rendering:auto;shape-rendering:auto;text-rendering:auto;enable-background:accumulate"
         xml:space="preserve"><tspan
           y="34.468109"
           x="849.73029"
           id="tspan18468-8"
           sodipodi:role="line">5</tspan></text>
      <text
         transform="scale(-1,-1)"
         sodipodi:linespacing="125%"
         id="text19321-8"
         y="-260.64102"
         x="-1036.0073"
         style="color:#000000;font-style:normal;font-variant:normal;font-weight:normal;font-stretch:normal;font-size:52.5px;line-height:125%;font-family:Arial;-inkscape-font-specification:'Arial, Normal';text-indent:0;text-align:start;text-decoration:none;text-decoration-line:none;text-decoration-style:solid;text-decoration-color:#000000;letter-spacing:0px;word-spacing:0px;text-transform:none;direction:ltr;block-progression:tb;writing-mode:lr-tb;baseline-shift:baseline;text-anchor:start;white-space:normal;clip-rule:nonzero;display:inline;overflow:visible;visibility:visible;opacity:1;isolation:auto;mix-blend-mode:normal;color-interpolation:sRGB;color-interpolation-filters:linearRGB;solid-color:#000000;solid-opacity:1;fill:#b900b9;fill-opacity:1;fill-rule:nonzero;stroke:#000000;stroke-width:1px;stroke-linecap:butt;stroke-linejoin:miter;stroke-miterlimit:4;stroke-dasharray:none;stroke-dashoffset:0;stroke-opacity:1;color-rendering:auto;image-rendering:auto;shape-rendering:auto;text-rendering:auto;enable-background:accumulate"
         xml:space="preserve"><tspan
           y="-260.64102"
           x="-1036.0073"
           id="tspan19323-6"
           sodipodi:role="line">5</tspan></text>
      <path
         sodipodi:nodetypes="cccccccccc"
         style="fill:#b900b9;fill-opacity:1;stroke:#000000;stroke-width:0.4646866;stroke-miterlimit:4;stroke-dasharray:none;stroke-opacity:1"
         inkscape:connector-curvature="0"
         d="m 962.74588,152.78974 c -0.53752,-6.90215 -17.20712,-19.89323 -17.74464,-23.14271 -0.53751,3.24778 -17.20711,16.23885 -17.74462,23.14271 -0.37537,4.87931 3.76482,6.90215 7.52964,6.90215 4.07615,-0.0367 7.44273,-4.76481 8.60244,-5.68403 0.53752,1.21813 -3.56047,11.36805 -4.83984,11.36805 l 12.90699,0 c -1.27936,0 -5.37736,-10.14992 -4.83984,-11.36805 1.01539,0.84435 3.99166,5.54253 8.60466,5.68403 3.76261,-0.002 7.90057,-2.02284 7.52521,-6.90215 z"
         id="use22807" />
      <path
         sodipodi:nodetypes="cccccccccc"
         style="fill:#b900b9;fill-opacity:1;stroke:#000000;stroke-width:0.4646866;stroke-miterlimit:4;stroke-dasharray:none;stroke-opacity:1"
         inkscape:connector-curvature="0"
         d="m 933.65623,91.500335 c -0.53752,-6.90215 -17.20712,-19.893229 -17.74464,-23.142704 -0.53751,3.247773 -17.20711,16.238852 -17.74462,23.142704 -0.37537,4.879312 3.76482,6.90215 7.52964,6.90215 4.07615,-0.03673 7.44273,-4.764809 8.60244,-5.684024 0.53752,1.218125 -3.56047,11.368039 -4.83984,11.368039 l 12.90699,0 c -1.27936,0 -5.37736,-10.149914 -4.83984,-11.368039 1.01539,0.844345 3.99166,5.542524 8.60466,5.684024 3.76261,-0.0017 7.90057,-2.022838 7.52521,-6.90215 z"
         id="use22811" />
      <path
         sodipodi:nodetypes="cccccccccc"
         style="fill:#b900b9;fill-opacity:1;stroke:#000000;stroke-width:0.4646866;stroke-miterlimit:4;stroke-dasharray:none;stroke-opacity:1"
         inkscape:connector-curvature="0"
         d="m 898.16663,201.09599 c 0.53751,6.90215 17.20712,19.89323 17.74463,23.1427 0.53751,-3.24777 17.20711,-16.23885 17.74463,-23.1427 0.37537,-4.87932 -3.76482,-6.90215 -7.52964,-6.90215 -4.07616,0.0367 -7.44273,4.76481 -8.60245,5.68402 -0.53751,-1.21812 3.56048,-11.36804 4.83985,-11.36804 l -12.907,0 c 1.27937,0 5.37736,10.14992 4.83985,11.36804 -1.01539,-0.84434 -3.99166,-5.54252 -8.60467,-5.68402 -3.7626,0.002 -7.90057,2.02283 -7.5252,6.90215 z"
         id="use22813" />
      <path
         sodipodi:nodetypes="cccccccccc"
         style="fill:#b900b9;fill-opacity:1;stroke:#000000;stroke-width:0.4646866;stroke-miterlimit:4;stroke-dasharray:none;stroke-opacity:1"
         inkscape:connector-curvature="0"
         d="m 989.72694,91.500335 c -0.53752,-6.90215 -17.20712,-19.893229 -17.74464,-23.142704 -0.53751,3.247773 -17.20711,16.238852 -17.74462,23.142704 -0.37537,4.879312 3.76482,6.90215 7.52964,6.90215 4.07615,-0.03673 7.44273,-4.764809 8.60244,-5.684024 0.53752,1.218125 -3.56047,11.368039 -4.83984,11.368039 l 12.90699,0 c -1.27936,0 -5.37736,-10.149914 -4.83984,-11.368039 1.01539,0.844345 3.99166,5.542524 8.60466,5.684024 3.76261,-0.0017 7.90057,-2.022838 7.52521,-6.90215 z"
         id="use22829" />
      <path
         sodipodi:nodetypes="cccccccccc"
         style="fill:#b900b9;fill-opacity:1;stroke:#000000;stroke-width:0.4646866;stroke-miterlimit:4;stroke-dasharray:none;stroke-opacity:1"
         inkscape:connector-curvature="0"
         d="m 954.23733,201.09599 c 0.53751,6.90215 17.20712,19.89323 17.74463,23.1427 0.53751,-3.24777 17.20711,-16.23885 17.74463,-23.1427 0.37537,-4.87932 -3.76482,-6.90215 -7.52964,-6.90215 -4.07616,0.0367 -7.44273,4.76481 -8.60245,5.68402 -0.53751,-1.21812 3.56048,-11.36804 4.83985,-11.36804 l -12.907,0 c 1.27937,0 5.37736,10.14992 4.83985,11.36804 -1.01539,-0.84434 -3.99166,-5.54252 -8.60467,-5.68402 -3.7626,0.002 -7.90057,2.02283 -7.5252,6.90215 z"
         id="use22831" />
    </g>
  </g>
</svg>
