<?xml version="1.0" encoding="UTF-8" standalone="no"?>
<svg
   xmlns:dc="http://purl.org/dc/elements/1.1/"
   xmlns:cc="http://creativecommons.org/ns#"
   xmlns:rdf="http://www.w3.org/1999/02/22-rdf-syntax-ns#"
   xmlns:svg="http://www.w3.org/2000/svg"
   xmlns="http://www.w3.org/2000/svg"
   version="1.1"
   id="svg8691"
   viewBox="0 0 210.00001 315.00005"
   height="315.00003"
   width="210">
  <defs
     id="defs8693" />
  <metadata
     id="metadata8696">
    <rdf:RDF>
      <cc:Work
         rdf:about="">
        <dc:format>image/svg+xml</dc:format>
        <dc:type
           rdf:resource="http://purl.org/dc/dcmitype/StillImage" />
        <dc:title />
        <cc:license
           rdf:resource="http://creativecommons.org/publicdomain/zero/1.0/" />
      </cc:Work>
      <cc:License
         rdf:about="http://creativecommons.org/publicdomain/zero/1.0/">
        <cc:permits
           rdf:resource="http://creativecommons.org/ns#Reproduction" />
        <cc:permits
           rdf:resource="http://creativecommons.org/ns#Distribution" />
        <cc:permits
           rdf:resource="http://creativecommons.org/ns#DerivativeWorks" />
      </cc:License>
    </rdf:RDF>
  </metadata>
  <g
     transform="translate(-210.00212,-945.00025)"
     id="layer1">
    <g
       id="club2">
      <rect
         rx="14.999998"
         ry="14.999999"
         y="-954.39319"
         x="210.49913"
         height="314.004"
         width="209.00395"
         id="rect10895"
         style="opacity:1;fill:#fdfeee;fill-opacity:1;stroke:#000000;stroke-width:0.9960472;stroke-linecap:butt;stroke-linejoin:round;stroke-miterlimit:4;stroke-dasharray:none;stroke-opacity:1" />
      <rect
         y="-879.39368"
         x="265.4986"
         height="164.00497"
         width="99.004982"
         id="rect10897"
         style="opacity:1;fill:none;fill-opacity:1;stroke:#000000;stroke-width:0.99502754;stroke-linecap:butt;stroke-linejoin:round;stroke-miterlimit:4;stroke-dasharray:none;stroke-opacity:1" />
      <path
         style="fill:#010101;fill-opacity:1;stroke:#000000;stroke-width:0.45976582;stroke-opacity:1"
         d="m 239.49426,-886.68939 c 0,0 4.94253,-3.95403 4.94253,-9.43559 0,-3.20897 -2.84897,-8.53651 -9.43554,-8.53651 -6.58658,0 -9.43555,5.32961 -9.43555,8.53651 0,5.48156 4.94254,9.43559 4.94254,9.43559 -5.48989,-4.2766 -15.27711,-1.35688 -15.27711,7.19007 0,4.27866 3.49618,8.98602 8.98602,8.98602 6.58658,0 9.43554,-7.19007 9.43554,-7.19007 0,0 0.8366,8.19522 -4.04349,12.58211 l 10.78409,0 c -4.88009,-4.38478 -4.04354,-12.58211 -4.04354,-12.58211 0,0 2.84901,7.19007 9.43559,7.19007 5.49191,0 8.98603,-4.70943 8.98603,-8.98602 0,-8.54695 -9.78727,-11.46667 -15.27711,-7.19007 z"
         id="use13918" />
      <path
         style="fill:#010101;fill-opacity:1;stroke:#000000;stroke-width:0.45967004;stroke-opacity:1"
         d="m 390.50478,-708.47987 c 0,0 -4.9415,3.9532 -4.9415,9.43361 0,3.20831 2.84837,8.53473 9.43357,8.53473 6.58521,0 9.43358,-5.32849 9.43358,-8.53473 0,-5.48041 -4.9415,-9.43361 -4.9415,-9.43361 5.48874,4.2757 15.27392,1.35659 15.27392,-7.18858 0,-4.27777 -3.49546,-8.98415 -8.98415,-8.98415 -6.5852,0 -9.43358,7.18858 -9.43358,7.18858 0,0 -0.83642,-8.19352 4.04266,-12.5795 l -10.78185,0 c 4.87908,4.38387 4.0427,12.5795 4.0427,12.5795 0,0 -2.84842,-7.18858 -9.43362,-7.18858 -5.49077,0 -8.98416,4.70845 -8.98416,8.98415 0,8.54517 9.78523,11.46428 15.27393,7.18858 z"
         id="use13920" />
      <text
         xml:space="preserve"
         style="color:#000000;font-style:normal;font-variant:normal;font-weight:normal;font-stretch:normal;font-size:52.5px;line-height:125%;font-family:Arial;-inkscape-font-specification:'Arial, Normal';text-indent:0;text-align:start;text-decoration:none;text-decoration-line:none;text-decoration-style:solid;text-decoration-color:#000000;letter-spacing:0px;word-spacing:0px;text-transform:none;direction:ltr;block-progression:tb;writing-mode:lr-tb;baseline-shift:baseline;text-anchor:start;white-space:normal;clip-rule:nonzero;display:inline;overflow:visible;visibility:visible;opacity:1;isolation:auto;mix-blend-mode:normal;color-interpolation:sRGB;color-interpolation-filters:linearRGB;solid-color:#000000;solid-opacity:1;fill:#010101;fill-opacity:1;fill-rule:nonzero;stroke:#000000;stroke-width:1px;stroke-linecap:butt;stroke-linejoin:miter;stroke-miterlimit:4;stroke-dasharray:none;stroke-dashoffset:0;stroke-opacity:1;color-rendering:auto;image-rendering:auto;shape-rendering:auto;text-rendering:auto;enable-background:accumulate"
         x="218.91573"
         y="-910.39111"
         id="text18454"><tspan
           id="tspan18456"
           x="218.91573"
           y="-910.39111">2</tspan></text>
      <text
         xml:space="preserve"
         style="color:#000000;font-style:normal;font-variant:normal;font-weight:normal;font-stretch:normal;font-size:52.5px;line-height:125%;font-family:Arial;-inkscape-font-specification:'Arial, Normal';text-indent:0;text-align:start;text-decoration:none;text-decoration-line:none;text-decoration-style:solid;text-decoration-color:#000000;letter-spacing:0px;word-spacing:0px;text-transform:none;direction:ltr;block-progression:tb;writing-mode:lr-tb;baseline-shift:baseline;text-anchor:start;white-space:normal;clip-rule:nonzero;display:inline;overflow:visible;visibility:visible;opacity:1;isolation:auto;mix-blend-mode:normal;color-interpolation:sRGB;color-interpolation-filters:linearRGB;solid-color:#000000;solid-opacity:1;fill:#010101;fill-opacity:1;fill-rule:nonzero;stroke:#000000;stroke-width:1px;stroke-linecap:butt;stroke-linejoin:miter;stroke-miterlimit:4;stroke-dasharray:none;stroke-dashoffset:0;stroke-opacity:1;color-rendering:auto;image-rendering:auto;shape-rendering:auto;text-rendering:auto;enable-background:accumulate"
         x="-405.75632"
         y="685.12567"
         id="text19309"
         transform="scale(-1,-1)"><tspan
           id="tspan19311"
           x="-405.75632"
           y="685.12567">2</tspan></text>
      <path
         style="fill:#010101;fill-opacity:1;stroke:#000000;stroke-width:0.41378924;stroke-opacity:1"
         d="m 319.04487,-859.49812 c 0,0 4.44827,-3.55862 4.44827,-8.49202 0,-2.88807 -2.56406,-7.68286 -8.49198,-7.68286 -5.92792,0 -8.49199,4.79665 -8.49199,7.68286 0,4.9334 4.44828,8.49202 4.44828,8.49202 -4.9409,-3.84893 -13.7494,-1.22118 -13.7494,6.47107 0,3.85079 3.14657,8.08742 8.08742,8.08742 5.92792,0 8.49199,-6.47107 8.49199,-6.47107 0,0 0.75294,7.3757 -3.63915,11.32391 l 9.70569,0 c -4.39209,-3.9463 -3.63919,-11.32391 -3.63919,-11.32391 0,0 2.56411,6.47107 8.49203,6.47107 4.94272,0 8.08743,-4.23849 8.08743,-8.08742 0,-7.69225 -8.80855,-10.32 -13.7494,-6.47107 z"
         id="use19657" />
      <path
         style="fill:#010101;fill-opacity:1;stroke:#000000;stroke-width:0.41378924;stroke-opacity:1"
         d="m 310.95733,-736.03968 c 0,0 -4.44827,3.55862 -4.44827,8.49202 0,2.88807 2.56406,7.68286 8.49198,7.68286 5.92792,0 8.49199,-4.79665 8.49199,-7.68286 0,-4.9334 -4.44828,-8.49202 -4.44828,-8.49202 4.9409,3.84893 13.7494,1.22118 13.7494,-6.47107 0,-3.85079 -3.14657,-8.08742 -8.08742,-8.08742 -5.92792,0 -8.49199,6.47107 -8.49199,6.47107 0,0 -0.75294,-7.3757 3.63915,-11.32391 l -9.70569,0 c 4.39209,3.9463 3.63919,11.32391 3.63919,11.32391 0,0 -2.56411,-6.47107 -8.49203,-6.47107 -4.94272,0 -8.08743,4.23849 -8.08743,8.08742 0,7.69225 8.80855,10.32 13.7494,6.47107 z"
         id="use20324" />
    </g>
  </g>
</svg>
