<?xml version="1.0" encoding="UTF-8" standalone="no"?>
<!-- Created with Inkscape (http://www.inkscape.org/) -->

<svg
   width="210"
   height="315.00003"
   viewBox="0 0 210.00001 315.00005"
   id="svg8691"
   version="1.1"
   xmlns="http://www.w3.org/2000/svg"
   xmlns:svg="http://www.w3.org/2000/svg"
   xmlns:rdf="http://www.w3.org/1999/02/22-rdf-syntax-ns#"
   xmlns:cc="http://creativecommons.org/ns#"
   xmlns:dc="http://purl.org/dc/elements/1.1/">
  <defs
     id="defs8693" />
  <metadata
     id="metadata8696">
    <rdf:RDF>
      <cc:Work
         rdf:about="">
        <dc:format>image/svg+xml</dc:format>
        <dc:type
           rdf:resource="http://purl.org/dc/dcmitype/StillImage" />
        <dc:title />
        <cc:license
           rdf:resource="http://creativecommons.org/publicdomain/zero/1.0/" />
      </cc:Work>
      <cc:License
         rdf:about="http://creativecommons.org/publicdomain/zero/1.0/">
        <cc:permits
           rdf:resource="http://creativecommons.org/ns#Reproduction" />
        <cc:permits
           rdf:resource="http://creativecommons.org/ns#Distribution" />
        <cc:permits
           rdf:resource="http://creativecommons.org/ns#DerivativeWorks" />
      </cc:License>
    </rdf:RDF>
  </metadata>
  <g
     id="layer1"
     transform="translate(-9.7665191e-4,639.89115)">
    <g
       id="diamondAce">
      <rect
         style="opacity:1;fill:#fdfeee;fill-opacity:1;stroke:#000000;stroke-width:0.996047;stroke-linecap:butt;stroke-linejoin:round;stroke-miterlimit:4;stroke-dasharray:none;stroke-opacity:1"
         id="rect10877"
         width="209.00395"
         height="314.004"
         x="0.49900016"
         y="-639.39313"
         ry="14.999999"
         rx="14.999998" />
      <rect
         style="opacity:1;fill:none;fill-opacity:1;stroke:#000000;stroke-width:0.995028;stroke-linecap:butt;stroke-linejoin:round;stroke-miterlimit:4;stroke-dasharray:none;stroke-opacity:1"
         id="rect10879"
         width="99.004982"
         height="164.00497"
         x="57.982899"
         y="-564.39362" />
      <path
         d="m 124.24386,-500.97091 c -10.93867,-11.26115 -16.75847,-22.70581 -16.75847,-22.70581 0,0 -5.81979,11.44466 -16.758464,22.70581 -10.943815,11.25718 -24.577989,18.57978 -24.577989,18.57978 0,0 13.634174,7.31867 24.577989,18.58373 10.938674,11.25721 16.758464,22.70186 16.758464,22.70186 0,0 5.8198,-11.44465 16.75847,-22.70186 10.94382,-11.26506 24.57799,-18.58373 24.57799,-18.58373 0,0 -13.63417,-7.3226 -24.57799,-18.57978 z"
         id="diamondPip"
         style="fill:#fe0000;fill-opacity:1;stroke:#000000;stroke-width:1.10094;stroke-miterlimit:4;stroke-dasharray:none;stroke-opacity:1" />
      <path
         style="fill:#fe0000;fill-opacity:1;stroke:#000000;stroke-width:0.51904;stroke-miterlimit:4;stroke-dasharray:none;stroke-opacity:1"
         id="use16290"
         d="m 177.2596,-385.87917 c 5.12221,5.34525 7.84742,10.7776 7.84742,10.7776 0,0 2.72521,-5.43235 7.84742,-10.7776 5.12462,-5.34336 11.50904,-8.81913 11.50904,-8.81913 0,0 -6.38442,-3.47389 -11.50904,-8.821 -5.12221,-5.34337 -7.84742,-10.77572 -7.84742,-10.77572 0,0 -2.72521,5.43235 -7.84742,10.77572 -5.12462,5.34711 -11.50904,8.821 -11.50904,8.821 0,0 6.38442,3.47577 11.50904,8.81913 z" />
      <path
         style="fill:#fe0000;fill-opacity:1;stroke:#000000;stroke-width:0.51904;stroke-miterlimit:4;stroke-dasharray:none;stroke-opacity:1"
         id="use16286"
         d="m 32.735062,-579.06127 c -5.122209,-5.34525 -7.847424,-10.7776 -7.847424,-10.7776 0,0 -2.72521,5.43235 -7.84742,10.7776 -5.124618,5.34336 -11.5090393,8.81913 -11.5090393,8.81913 0,0 6.3844213,3.47389 11.5090393,8.821 5.12221,5.34337 7.84742,10.77572 7.84742,10.77572 0,0 2.725215,-5.43235 7.847424,-10.77572 5.12462,-5.34711 11.509039,-8.821 11.509039,-8.821 0,0 -6.384419,-3.47577 -11.509039,-8.81913 z" />
      <text
         transform="scale(1.0396186,0.96189122)"
         id="text18446-0"
         y="-621.13397"
         x="11.139592"
         style="color:#000000;font-style:normal;font-variant:normal;font-weight:normal;font-stretch:normal;line-height:0%;font-family:Arial;-inkscape-font-specification:'Arial, Normal';text-indent:0;text-align:start;text-decoration:none;text-decoration-line:none;text-decoration-style:solid;text-decoration-color:#000000;letter-spacing:0px;word-spacing:0px;text-transform:none;writing-mode:lr-tb;direction:ltr;baseline-shift:baseline;text-anchor:start;white-space:normal;clip-rule:nonzero;display:inline;overflow:visible;visibility:visible;opacity:1;isolation:auto;mix-blend-mode:normal;color-interpolation:sRGB;color-interpolation-filters:linearRGB;solid-color:#000000;solid-opacity:1;fill:#fe0000;fill-opacity:1;fill-rule:nonzero;stroke:#000000;stroke-width:1px;stroke-linecap:butt;stroke-linejoin:miter;stroke-miterlimit:4;stroke-dasharray:none;stroke-dashoffset:0;stroke-opacity:1;color-rendering:auto;image-rendering:auto;shape-rendering:auto;text-rendering:auto;enable-background:accumulate"
         xml:space="preserve"><tspan
           y="-621.13397"
           x="11.139592"
           id="tspan18448-0"
           style="font-size:52.5px;line-height:1.25">A</tspan></text>
      <text
         transform="scale(-1)"
         id="text19305-1"
         y="369.97177"
         x="-199.09499"
         style="color:#000000;font-style:normal;font-variant:normal;font-weight:normal;font-stretch:normal;line-height:0%;font-family:Arial;-inkscape-font-specification:'Arial, Normal';text-indent:0;text-align:start;text-decoration:none;text-decoration-line:none;text-decoration-style:solid;text-decoration-color:#000000;letter-spacing:0px;word-spacing:0px;text-transform:none;writing-mode:lr-tb;direction:ltr;baseline-shift:baseline;text-anchor:start;white-space:normal;clip-rule:nonzero;display:inline;overflow:visible;visibility:visible;opacity:1;isolation:auto;mix-blend-mode:normal;color-interpolation:sRGB;color-interpolation-filters:linearRGB;solid-color:#000000;solid-opacity:1;fill:#fe0000;fill-opacity:1;fill-rule:nonzero;stroke:#4b0000;stroke-width:1px;stroke-linecap:butt;stroke-linejoin:miter;stroke-miterlimit:4;stroke-dasharray:none;stroke-dashoffset:0;stroke-opacity:1;color-rendering:auto;image-rendering:auto;shape-rendering:auto;text-rendering:auto;enable-background:accumulate"
         xml:space="preserve"><tspan
           y="369.97177"
           x="-199.09499"
           id="tspan19307-5"
           style="font-size:52.5px;line-height:1.25">A</tspan></text>
    </g>
  </g>
</svg>
