<?xml version="1.0" encoding="UTF-8" standalone="no"?>
<svg
   xmlns:dc="http://purl.org/dc/elements/1.1/"
   xmlns:cc="http://creativecommons.org/ns#"
   xmlns:rdf="http://www.w3.org/1999/02/22-rdf-syntax-ns#"
   xmlns:svg="http://www.w3.org/2000/svg"
   xmlns="http://www.w3.org/2000/svg"
   version="1.1"
   id="svg8691"
   viewBox="0 0 210.00001 315.00005"
   height="315.00003"
   width="210">
  <defs
     id="defs8693" />
  <metadata
     id="metadata8696">
    <rdf:RDF>
      <cc:Work
         rdf:about="">
        <dc:format>image/svg+xml</dc:format>
        <dc:type
           rdf:resource="http://purl.org/dc/dcmitype/StillImage" />
        <dc:title />
        <cc:license
           rdf:resource="http://creativecommons.org/publicdomain/zero/1.0/" />
      </cc:Work>
      <cc:License
         rdf:about="http://creativecommons.org/publicdomain/zero/1.0/">
        <cc:permits
           rdf:resource="http://creativecommons.org/ns#Reproduction" />
        <cc:permits
           rdf:resource="http://creativecommons.org/ns#Distribution" />
        <cc:permits
           rdf:resource="http://creativecommons.org/ns#DerivativeWorks" />
      </cc:License>
    </rdf:RDF>
  </metadata>
  <g
     transform="translate(-1470.3559,-630.00015)"
     id="layer1">
    <g
       id="diamond8">
      <rect
         rx="14.999998"
         ry="14.999999"
         y="-639.39313"
         x="1470.8527"
         height="314.004"
         width="209.00395"
         id="rect11045"
         style="opacity:1;fill:#fdfeee;fill-opacity:1;stroke:#000000;stroke-width:0.9960472;stroke-linecap:butt;stroke-linejoin:round;stroke-miterlimit:4;stroke-dasharray:none;stroke-opacity:1" />
      <rect
         y="-564.39362"
         x="1525.8522"
         height="164.00497"
         width="99.004982"
         id="rect11047"
         style="opacity:1;fill:none;fill-opacity:1;stroke:#000000;stroke-width:0.99502754;stroke-linecap:butt;stroke-linejoin:round;stroke-miterlimit:4;stroke-dasharray:none;stroke-opacity:1" />
      <path
         d="m 1507.0891,-579.06133 c -5.1222,-5.34524 -7.8475,-10.7776 -7.8475,-10.7776 0,0 -2.7252,5.43236 -7.8474,10.7776 -5.1246,5.34336 -11.509,8.81913 -11.509,8.81913 0,0 6.3844,3.47389 11.509,8.821 5.1222,5.34337 7.8474,10.77572 7.8474,10.77572 0,0 2.7253,-5.43235 7.8475,-10.77572 5.1246,-5.34711 11.509,-8.821 11.509,-8.821 0,0 -6.3844,-3.47577 -11.509,-8.81913 z"
         id="use16316"
         style="fill:#fe0000;fill-opacity:1;stroke:#000000;stroke-width:0.51903999;stroke-miterlimit:4;stroke-dasharray:none;stroke-opacity:1" />
      <path
         d="m 1645.53,-385.87912 c 5.1222,5.34525 7.8475,10.7776 7.8475,10.7776 0,0 2.7252,-5.43235 7.8474,-10.7776 5.1246,-5.34336 11.509,-8.81913 11.509,-8.81913 0,0 -6.3844,-3.47389 -11.509,-8.821 -5.1222,-5.34337 -7.8474,-10.77572 -7.8474,-10.77572 0,0 -2.7253,5.43235 -7.8475,10.77572 -5.1246,5.34711 -11.509,8.821 -11.509,8.821 0,0 6.3844,3.47577 11.509,8.81913 z"
         id="use16318"
         style="fill:#fe0000;fill-opacity:1;stroke:#000000;stroke-width:0.51903999;stroke-miterlimit:4;stroke-dasharray:none;stroke-opacity:1" />
      <text
         xml:space="preserve"
         style="color:#000000;font-style:normal;font-variant:normal;font-weight:normal;font-stretch:normal;font-size:52.50000381px;line-height:125%;font-family:Arial;-inkscape-font-specification:'Arial, Normal';text-indent:0;text-align:start;text-decoration:none;text-decoration-line:none;text-decoration-style:solid;text-decoration-color:#000000;letter-spacing:0px;word-spacing:0px;text-transform:none;direction:ltr;block-progression:tb;writing-mode:lr-tb;baseline-shift:baseline;text-anchor:start;white-space:normal;clip-rule:nonzero;display:inline;overflow:visible;visibility:visible;opacity:1;isolation:auto;mix-blend-mode:normal;color-interpolation:sRGB;color-interpolation-filters:linearRGB;solid-color:#000000;solid-opacity:1;fill:#fe0000;fill-opacity:1;fill-rule:nonzero;stroke:#000000;stroke-width:1px;stroke-linecap:butt;stroke-linejoin:miter;stroke-miterlimit:4;stroke-dasharray:none;stroke-dashoffset:0;stroke-opacity:1;color-rendering:auto;image-rendering:auto;shape-rendering:auto;text-rendering:auto;enable-background:accumulate"
         x="1424.7798"
         y="-621.75555"
         id="text18478-3"
         transform="scale(1.0396186,0.96189122)"><tspan
           id="tspan18480-8"
           x="1424.7798"
           y="-621.75555">8</tspan></text>
      <text
         xml:space="preserve"
         style="color:#000000;font-style:normal;font-variant:normal;font-weight:normal;font-stretch:normal;font-size:52.50000381px;line-height:125%;font-family:Arial;-inkscape-font-specification:'Arial, Normal';text-indent:0;text-align:start;text-decoration:none;text-decoration-line:none;text-decoration-style:solid;text-decoration-color:#000000;letter-spacing:0px;word-spacing:0px;text-transform:none;direction:ltr;block-progression:tb;writing-mode:lr-tb;baseline-shift:baseline;text-anchor:start;white-space:normal;clip-rule:nonzero;display:inline;overflow:visible;visibility:visible;opacity:1;isolation:auto;mix-blend-mode:normal;color-interpolation:sRGB;color-interpolation-filters:linearRGB;solid-color:#000000;solid-opacity:1;fill:#fe0000;fill-opacity:1;fill-rule:nonzero;stroke:#000000;stroke-width:1px;stroke-linecap:butt;stroke-linejoin:miter;stroke-miterlimit:4;stroke-dasharray:none;stroke-dashoffset:0;stroke-opacity:1;color-rendering:auto;image-rendering:auto;shape-rendering:auto;text-rendering:auto;enable-background:accumulate"
         x="-1666.0701"
         y="370.12558"
         id="text19333-0"
         transform="scale(-1,-1)"><tspan
           id="tspan19335-9"
           x="-1666.0701"
           y="370.12558">8</tspan></text>
      <path
         d="m 1553.9974,-551.85151 c -4.6109,-4.80981 -7.064,-9.69799 -7.064,-9.69799 0,0 -2.4532,4.88818 -7.064,9.69799 -4.613,4.80811 -10.3601,7.9357 -10.3601,7.9357 0,0 5.7471,3.12591 10.3601,7.93738 4.6108,4.80812 7.064,9.6963 7.064,9.6963 0,0 2.4531,-4.88818 7.064,-9.6963 4.613,-4.81147 10.3601,-7.93738 10.3601,-7.93738 0,0 -5.7471,-3.12759 -10.3601,-7.9357 z"
         id="use21357"
         style="fill:#fe0000;fill-opacity:1;stroke:#000000;stroke-width:0.46713534;stroke-miterlimit:4;stroke-dasharray:none;stroke-opacity:1" />
      <path
         d="m 1553.9973,-490.85161 c -4.6109,-4.80981 -7.064,-9.69799 -7.064,-9.69799 0,0 -2.4532,4.88818 -7.064,9.69799 -4.613,4.80811 -10.3601,7.9357 -10.3601,7.9357 0,0 5.7471,3.12591 10.3601,7.93738 4.6108,4.80812 7.064,9.6963 7.064,9.6963 0,0 2.4531,-4.88818 7.064,-9.6963 4.613,-4.81147 10.3601,-7.93738 10.3601,-7.93738 0,0 -5.7471,-3.12759 -10.3601,-7.9357 z"
         id="use21359"
         style="fill:#fe0000;fill-opacity:1;stroke:#000000;stroke-width:0.46713534;stroke-miterlimit:4;stroke-dasharray:none;stroke-opacity:1" />
      <path
         d="m 1582.4187,-517.85171 c -4.6109,-4.80981 -7.064,-9.69799 -7.064,-9.69799 0,0 -2.4532,4.88818 -7.064,9.69799 -4.613,4.8081 -10.3601,7.93569 -10.3601,7.93569 0,0 5.7471,3.12592 10.3601,7.93739 4.6108,4.80812 7.064,9.6963 7.064,9.6963 0,0 2.4531,-4.88818 7.064,-9.6963 4.613,-4.81147 10.3601,-7.93739 10.3601,-7.93739 0,0 -5.7471,-3.12759 -10.3601,-7.93569 z"
         id="use21361"
         style="fill:#fe0000;fill-opacity:1;stroke:#000000;stroke-width:0.46713534;stroke-miterlimit:4;stroke-dasharray:none;stroke-opacity:1" />
      <path
         d="m 1539.8693,-413.62654 c 4.6109,4.8098 7.064,9.69798 7.064,9.69798 0,0 2.4532,-4.88818 7.064,-9.69798 4.613,-4.80811 10.3601,-7.9357 10.3601,-7.9357 0,0 -5.7471,-3.12592 -10.3601,-7.93739 -4.6108,-4.80812 -7.064,-9.6963 -7.064,-9.6963 0,0 -2.4531,4.88818 -7.064,9.6963 -4.613,4.81147 -10.3601,7.93739 -10.3601,7.93739 0,0 5.7471,3.12759 10.3601,7.9357 z"
         id="use21363"
         style="fill:#fe0000;fill-opacity:1;stroke:#000000;stroke-width:0.46713534;stroke-miterlimit:4;stroke-dasharray:none;stroke-opacity:1" />
      <path
         d="m 1611.3696,-551.85151 c -4.6109,-4.80981 -7.064,-9.69799 -7.064,-9.69799 0,0 -2.4532,4.88818 -7.064,9.69799 -4.613,4.80811 -10.3601,7.9357 -10.3601,7.9357 0,0 5.7471,3.12591 10.3601,7.93738 4.6108,4.80812 7.064,9.6963 7.064,9.6963 0,0 2.4531,-4.88818 7.064,-9.6963 4.613,-4.81147 10.3601,-7.93738 10.3601,-7.93738 0,0 -5.7471,-3.12759 -10.3601,-7.9357 z"
         id="use21375"
         style="fill:#fe0000;fill-opacity:1;stroke:#000000;stroke-width:0.46713534;stroke-miterlimit:4;stroke-dasharray:none;stroke-opacity:1" />
      <path
         d="m 1611.3696,-490.85161 c -4.6109,-4.80981 -7.064,-9.69799 -7.064,-9.69799 0,0 -2.4532,4.88818 -7.064,9.69799 -4.613,4.80811 -10.3601,7.9357 -10.3601,7.9357 0,0 5.7471,3.12591 10.3601,7.93738 4.6108,4.80812 7.064,9.6963 7.064,9.6963 0,0 2.4531,-4.88818 7.064,-9.6963 4.613,-4.81147 10.3601,-7.93738 10.3601,-7.93738 0,0 -5.7471,-3.12759 -10.3601,-7.9357 z"
         id="use21377"
         style="fill:#fe0000;fill-opacity:1;stroke:#000000;stroke-width:0.46713534;stroke-miterlimit:4;stroke-dasharray:none;stroke-opacity:1" />
      <path
         d="m 1568.2907,-441.62643 c 4.6109,4.8098 7.064,9.69798 7.064,9.69798 0,0 2.4532,-4.88818 7.064,-9.69798 4.613,-4.80811 10.3601,-7.9357 10.3601,-7.9357 0,0 -5.7471,-3.12592 -10.3601,-7.93739 -4.6108,-4.80812 -7.064,-9.6963 -7.064,-9.6963 0,0 -2.4531,4.88818 -7.064,9.6963 -4.613,4.81147 -10.3601,7.93739 -10.3601,7.93739 0,0 5.7471,3.12759 10.3601,7.9357 z"
         id="use21379"
         style="fill:#fe0000;fill-opacity:1;stroke:#000000;stroke-width:0.46713534;stroke-miterlimit:4;stroke-dasharray:none;stroke-opacity:1" />
      <path
         d="m 1597.2416,-413.62654 c 4.6109,4.8098 7.064,9.69798 7.064,9.69798 0,0 2.4532,-4.88818 7.064,-9.69798 4.613,-4.80811 10.3601,-7.9357 10.3601,-7.9357 0,0 -5.7471,-3.12592 -10.3601,-7.93739 -4.6108,-4.80812 -7.064,-9.6963 -7.064,-9.6963 0,0 -2.4531,4.88818 -7.064,9.6963 -4.613,4.81147 -10.3601,7.93739 -10.3601,7.93739 0,0 5.7471,3.12759 10.3601,7.9357 z"
         id="use21381"
         style="fill:#fe0000;fill-opacity:1;stroke:#000000;stroke-width:0.46713534;stroke-miterlimit:4;stroke-dasharray:none;stroke-opacity:1" />
    </g>
  </g>
</svg>
