<?xml version="1.0" encoding="UTF-8" standalone="no"?>
<svg
   xmlns:dc="http://purl.org/dc/elements/1.1/"
   xmlns:cc="http://creativecommons.org/ns#"
   xmlns:rdf="http://www.w3.org/1999/02/22-rdf-syntax-ns#"
   xmlns:svg="http://www.w3.org/2000/svg"
   xmlns="http://www.w3.org/2000/svg"
   version="1.1"
   id="svg8691"
   viewBox="0 0 210.00001 315.00005"
   height="315.00003"
   width="210">
  <defs
     id="defs8693" />
  <metadata
     id="metadata8696">
    <rdf:RDF>
      <cc:Work
         rdf:about="">
        <dc:format>image/svg+xml</dc:format>
        <dc:type
           rdf:resource="http://purl.org/dc/dcmitype/StillImage" />
        <dc:title />
        <cc:license
           rdf:resource="http://creativecommons.org/publicdomain/zero/1.0/" />
      </cc:Work>
      <cc:License
         rdf:about="http://creativecommons.org/publicdomain/zero/1.0/">
        <cc:permits
           rdf:resource="http://creativecommons.org/ns#Reproduction" />
        <cc:permits
           rdf:resource="http://creativecommons.org/ns#Distribution" />
        <cc:permits
           rdf:resource="http://creativecommons.org/ns#DerivativeWorks" />
      </cc:License>
    </rdf:RDF>
  </metadata>
  <g
     transform="translate(-210.00211,-4.6192307e-5)"
     id="layer1">
    <g
       id="spade2">
      <rect
         rx="14.999998"
         ry="14.999999"
         y="-9.3931017"
         x="210.49911"
         height="314.004"
         width="209.00395"
         id="rect10913"
         style="opacity:1;fill:#fdfeee;fill-opacity:1;stroke:#000000;stroke-width:0.9960472;stroke-linecap:butt;stroke-linejoin:round;stroke-miterlimit:4;stroke-dasharray:none;stroke-opacity:1" />
      <path
         id="use17050"
         d="m 254.92011,65.863035 c -0.60029,-7.670381 -19.21658,-22.10741 -19.81687,-25.718563 -0.60028,3.609261 -19.21657,18.04629 -19.81685,25.718563 -0.41921,5.422396 4.20447,7.670382 8.40895,7.670382 4.55217,-0.04082 8.3119,-5.295148 9.60705,-6.316675 0.60028,1.353707 -3.97627,12.633345 -5.40505,12.633345 l 14.41429,0 c -1.42878,0 -6.00534,-11.279638 -5.40505,-12.633345 1.13397,0.938324 4.45781,6.159425 9.60953,6.316675 4.202,-0.0019 8.8232,-2.247986 8.404,-7.670382 z"
         style="fill:#010101;fill-opacity:1;stroke:#000000;stroke-width:0.51767886;stroke-miterlimit:4;stroke-dasharray:none;stroke-opacity:1" />
      <path
         id="use17052"
         d="m 375.28599,229.34803 c 0.60029,7.67038 19.21658,22.10741 19.81687,25.71856 0.60028,-3.60926 19.21657,-18.04629 19.81685,-25.71856 0.41921,-5.4224 -4.20447,-7.67038 -8.40895,-7.67038 -4.55217,0.0408 -8.3119,5.29515 -9.60705,6.31667 -0.60028,-1.3537 3.97627,-12.63334 5.40505,-12.63334 l -14.41429,0 c 1.42878,0 6.00534,11.27964 5.40505,12.63334 -1.13397,-0.93832 -4.45781,-6.15942 -9.60953,-6.31667 -4.202,0.002 -8.8232,2.24798 -8.404,7.67038 z"
         style="fill:#010101;fill-opacity:1;stroke:#000000;stroke-width:0.51767886;stroke-miterlimit:4;stroke-dasharray:none;stroke-opacity:1" />
      <text
         xml:space="preserve"
         style="color:#000000;font-style:normal;font-variant:normal;font-weight:normal;font-stretch:normal;font-size:52.5px;line-height:125%;font-family:Arial;-inkscape-font-specification:'Arial, Normal';text-indent:0;text-align:start;text-decoration:none;text-decoration-line:none;text-decoration-style:solid;text-decoration-color:#000000;letter-spacing:0px;word-spacing:0px;text-transform:none;direction:ltr;block-progression:tb;writing-mode:lr-tb;baseline-shift:baseline;text-anchor:start;white-space:normal;clip-rule:nonzero;display:inline;overflow:visible;visibility:visible;opacity:1;isolation:auto;mix-blend-mode:normal;color-interpolation:sRGB;color-interpolation-filters:linearRGB;solid-color:#000000;solid-opacity:1;fill:#010101;fill-opacity:1;fill-rule:nonzero;stroke:#000000;stroke-width:1px;stroke-linecap:butt;stroke-linejoin:miter;stroke-miterlimit:4;stroke-dasharray:none;stroke-dashoffset:0;stroke-opacity:1;color-rendering:auto;image-rendering:auto;shape-rendering:auto;text-rendering:auto;enable-background:accumulate"
         x="219.54723"
         y="35.108978"
         id="text18454-9"><tspan
           id="tspan18456-4"
           x="219.54723"
           y="35.108978">2</tspan></text>
      <text
         xml:space="preserve"
         style="color:#000000;font-style:normal;font-variant:normal;font-weight:normal;font-stretch:normal;font-size:52.5px;line-height:125%;font-family:Arial;-inkscape-font-specification:'Arial, Normal';text-indent:0;text-align:start;text-decoration:none;text-decoration-line:none;text-decoration-style:solid;text-decoration-color:#000000;letter-spacing:0px;word-spacing:0px;text-transform:none;direction:ltr;block-progression:tb;writing-mode:lr-tb;baseline-shift:baseline;text-anchor:start;white-space:normal;clip-rule:nonzero;display:inline;overflow:visible;visibility:visible;opacity:1;isolation:auto;mix-blend-mode:normal;color-interpolation:sRGB;color-interpolation-filters:linearRGB;solid-color:#000000;solid-opacity:1;fill:#010101;fill-opacity:1;fill-rule:nonzero;stroke:#000000;stroke-width:1px;stroke-linecap:butt;stroke-linejoin:miter;stroke-miterlimit:4;stroke-dasharray:none;stroke-dashoffset:0;stroke-opacity:1;color-rendering:auto;image-rendering:auto;shape-rendering:auto;text-rendering:auto;enable-background:accumulate"
         x="-405.53973"
         y="-259.97464"
         id="text19309-7"
         transform="scale(-1,-1)"><tspan
           id="tspan19311-6"
           x="-405.53973"
           y="-259.97464">2</tspan></text>
      <rect
         y="65.606415"
         x="265.49863"
         height="164.00497"
         width="99.004982"
         id="rect10915"
         style="opacity:1;fill:none;fill-opacity:1;stroke:#000000;stroke-width:0.99502754;stroke-linecap:butt;stroke-linejoin:round;stroke-miterlimit:4;stroke-dasharray:none;stroke-opacity:1" />
      <path
         id="use22782"
         d="m 332.74578,93.502424 c -0.53752,-6.90215 -17.20712,-19.893229 -17.74464,-23.142705 -0.53751,3.247773 -17.20711,16.238852 -17.74462,23.142705 -0.37537,4.879312 3.76482,6.902146 7.52964,6.902146 4.07615,-0.0367 7.44273,-4.764805 8.60244,-5.684021 0.53752,1.218126 -3.56047,11.368041 -4.83984,11.368041 l 12.90699,0 c -1.27936,0 -5.37736,-10.149915 -4.83984,-11.368041 1.01539,0.844346 3.99166,5.542521 8.60466,5.684021 3.76261,-0.002 7.90057,-2.022834 7.52521,-6.902146 z"
         style="fill:#010101;fill-opacity:1;stroke:#000000;stroke-width:0.4646866;stroke-miterlimit:4;stroke-dasharray:none;stroke-opacity:1" />
      <path
         id="use22799"
         d="m 297.25644,200.68082 c 0.53751,6.90215 17.20712,19.89323 17.74463,23.1427 0.53751,-3.24777 17.20711,-16.23885 17.74463,-23.1427 0.37537,-4.87932 -3.76482,-6.90215 -7.52964,-6.90215 -4.07616,0.0367 -7.44273,4.76481 -8.60245,5.68402 -0.53751,-1.21812 3.56048,-11.36804 4.83985,-11.36804 l -12.907,0 c 1.27937,0 5.37736,10.14992 4.83985,11.36804 -1.01539,-0.84434 -3.99166,-5.54252 -8.60467,-5.68402 -3.7626,0.002 -7.90057,2.02283 -7.5252,6.90215 z"
         style="fill:#010101;fill-opacity:1;stroke:#000000;stroke-width:0.4646866;stroke-miterlimit:4;stroke-dasharray:none;stroke-opacity:1" />
    </g>
  </g>
</svg>
